<svg width="237" height="29" viewBox="0 0 237 29" fill="none" xmlns="http://www.w3.org/2000/svg">
<g clip-path="url(#clip0_2246_17400)">
<path fill-rule="evenodd" clip-rule="evenodd" d="M26.6233 2.59009L24.7352 0.702017C24.3856 0.352424 23.8188 0.352424 23.4692 0.702017L6.8661 17.3051C6.51651 17.6547 6.51651 18.2215 6.8661 18.5711L16.6619 28.367C17.0115 28.7166 17.5783 28.7166 17.9279 28.367L34.5311 11.7639C34.8807 11.4143 34.8807 10.8475 34.5311 10.4979L32.643 8.60979C30.9578 9.0933 29.1262 8.63717 27.861 7.37205C26.5959 6.10693 26.1398 4.27528 26.6233 2.59009Z" fill="#2677BD" stroke="#DD284E" stroke-width="0.0293505"/>
<path fill-rule="evenodd" clip-rule="evenodd" d="M8.4923 2.56859L10.4079 0.652945C10.769 0.29189 11.3544 0.29189 11.7154 0.652945L16.9766 5.91406L5.91473 16.9759L0.653608 11.7148C0.292553 11.3537 0.292553 10.7683 0.653608 10.4073L2.56926 8.49164C4.22568 8.92007 5.99628 8.45639 7.22667 7.22601C8.45706 5.99562 8.92073 4.22501 8.4923 2.56859Z" fill="#2677BD" stroke="#DD284E" stroke-width="0.0293505"/>
<path d="M48.1801 9.504H43.2521V6.6H56.6721V9.504H51.7441V22H48.1801V9.504ZM58.0899 10.164H61.5219V22H58.0899V10.164ZM59.8059 8.514C59.1752 8.514 58.6619 8.33067 58.2659 7.964C57.8699 7.59733 57.6719 7.14267 57.6719 6.6C57.6719 6.05733 57.8699 5.60267 58.2659 5.236C58.6619 4.86933 59.1752 4.686 59.8059 4.686C60.4365 4.686 60.9499 4.862 61.3459 5.214C61.7419 5.566 61.9399 6.006 61.9399 6.534C61.9399 7.106 61.7419 7.58267 61.3459 7.964C60.9499 8.33067 60.4365 8.514 59.8059 8.514ZM70.427 22.176C69.1657 22.176 68.029 21.9193 67.017 21.406C66.0197 20.878 65.235 20.152 64.663 19.228C64.1057 18.304 63.827 17.2553 63.827 16.082C63.827 14.9087 64.1057 13.86 64.663 12.936C65.235 12.012 66.0197 11.2933 67.017 10.78C68.029 10.252 69.1657 9.988 70.427 9.988C71.6737 9.988 72.759 10.252 73.683 10.78C74.6217 11.2933 75.3037 12.034 75.729 13.002L73.067 14.432C72.451 13.3467 71.5637 12.804 70.405 12.804C69.5104 12.804 68.7697 13.0973 68.183 13.684C67.5964 14.2707 67.303 15.07 67.303 16.082C67.303 17.094 67.5964 17.8933 68.183 18.48C68.7697 19.0667 69.5104 19.36 70.405 19.36C71.5784 19.36 72.4657 18.8173 73.067 17.732L75.729 19.184C75.3037 20.1227 74.6217 20.856 73.683 21.384C72.759 21.912 71.6737 22.176 70.427 22.176ZM82.7012 17.358L81.0512 18.986V22H77.6192V5.676H81.0512V14.916L86.0672 10.164H90.1592L85.2312 15.18L90.5992 22H86.4412L82.7012 17.358ZM103.221 16.126C103.221 16.17 103.199 16.478 103.155 17.05H94.201C94.3623 17.7833 94.7436 18.3627 95.345 18.788C95.9463 19.2133 96.6943 19.426 97.589 19.426C98.205 19.426 98.7476 19.338 99.217 19.162C99.701 18.9713 100.148 18.678 100.559 18.282L102.385 20.262C101.27 21.538 99.6423 22.176 97.501 22.176C96.1663 22.176 94.9856 21.9193 93.959 21.406C92.9323 20.878 92.1403 20.152 91.583 19.228C91.0256 18.304 90.747 17.2553 90.747 16.082C90.747 14.9233 91.0183 13.882 91.561 12.958C92.1183 12.0193 92.8736 11.2933 93.827 10.78C94.795 10.252 95.873 9.988 97.061 9.988C98.2196 9.988 99.2683 10.2373 100.207 10.736C101.146 11.2347 101.879 11.9533 102.407 12.892C102.95 13.816 103.221 14.894 103.221 16.126ZM97.083 12.584C96.3056 12.584 95.653 12.804 95.125 13.244C94.597 13.684 94.2743 14.2853 94.157 15.048H99.987C99.8696 14.3 99.547 13.706 99.019 13.266C98.491 12.8113 97.8456 12.584 97.083 12.584ZM113.14 21.428C112.803 21.6773 112.385 21.868 111.886 22C111.402 22.1173 110.889 22.176 110.346 22.176C108.938 22.176 107.845 21.8167 107.068 21.098C106.305 20.3793 105.924 19.3233 105.924 17.93V13.068H104.098V10.428H105.924V7.546H109.356V10.428H112.304V13.068H109.356V17.886C109.356 18.3847 109.481 18.7733 109.73 19.052C109.994 19.316 110.361 19.448 110.83 19.448C111.373 19.448 111.835 19.3013 112.216 19.008L113.14 21.428ZM131.945 14.058H135.201V20.306C134.365 20.9367 133.397 21.4207 132.297 21.758C131.197 22.0953 130.09 22.264 128.975 22.264C127.376 22.264 125.939 21.9267 124.663 21.252C123.387 20.5627 122.382 19.6167 121.649 18.414C120.93 17.1967 120.571 15.8253 120.571 14.3C120.571 12.7747 120.93 11.4107 121.649 10.208C122.382 8.99067 123.394 8.04467 124.685 7.37C125.976 6.68067 127.428 6.336 129.041 6.336C130.39 6.336 131.615 6.56333 132.715 7.018C133.815 7.47267 134.739 8.13267 135.487 8.998L133.199 11.11C132.099 9.95133 130.772 9.372 129.217 9.372C128.234 9.372 127.362 9.57733 126.599 9.988C125.836 10.3987 125.242 10.978 124.817 11.726C124.392 12.474 124.179 13.332 124.179 14.3C124.179 15.2533 124.392 16.104 124.817 16.852C125.242 17.6 125.829 18.1867 126.577 18.612C127.34 19.0227 128.205 19.228 129.173 19.228C130.2 19.228 131.124 19.008 131.945 18.568V14.058ZM149.864 16.126C149.864 16.17 149.842 16.478 149.798 17.05H140.844C141.005 17.7833 141.386 18.3627 141.988 18.788C142.589 19.2133 143.337 19.426 144.232 19.426C144.848 19.426 145.39 19.338 145.86 19.162C146.344 18.9713 146.791 18.678 147.202 18.282L149.028 20.262C147.913 21.538 146.285 22.176 144.144 22.176C142.809 22.176 141.628 21.9193 140.602 21.406C139.575 20.878 138.783 20.152 138.226 19.228C137.668 18.304 137.39 17.2553 137.39 16.082C137.39 14.9233 137.661 13.882 138.204 12.958C138.761 12.0193 139.516 11.2933 140.47 10.78C141.438 10.252 142.516 9.988 143.704 9.988C144.862 9.988 145.911 10.2373 146.85 10.736C147.788 11.2347 148.522 11.9533 149.05 12.892C149.592 13.816 149.864 14.894 149.864 16.126ZM143.726 12.584C142.948 12.584 142.296 12.804 141.768 13.244C141.24 13.684 140.917 14.2853 140.8 15.048H146.63C146.512 14.3 146.19 13.706 145.662 13.266C145.134 12.8113 144.488 12.584 143.726 12.584ZM159.342 9.988C160.809 9.988 161.99 10.428 162.884 11.308C163.794 12.188 164.248 13.4933 164.248 15.224V22H160.816V15.752C160.816 14.8133 160.611 14.1167 160.2 13.662C159.79 13.1927 159.196 12.958 158.418 12.958C157.553 12.958 156.864 13.2293 156.35 13.772C155.837 14.3 155.58 15.092 155.58 16.148V22H152.148V10.164H155.426V11.55C155.881 11.0513 156.446 10.67 157.12 10.406C157.795 10.1273 158.536 9.988 159.342 9.988ZM179.082 16.126C179.082 16.17 179.06 16.478 179.016 17.05H170.062C170.224 17.7833 170.605 18.3627 171.206 18.788C171.808 19.2133 172.556 19.426 173.45 19.426C174.066 19.426 174.609 19.338 175.078 19.162C175.562 18.9713 176.01 18.678 176.42 18.282L178.246 20.262C177.132 21.538 175.504 22.176 173.362 22.176C172.028 22.176 170.847 21.9193 169.82 21.406C168.794 20.878 168.002 20.152 167.444 19.228C166.887 18.304 166.608 17.2553 166.608 16.082C166.608 14.9233 166.88 13.882 167.422 12.958C167.98 12.0193 168.735 11.2933 169.688 10.78C170.656 10.252 171.734 9.988 172.922 9.988C174.081 9.988 175.13 10.2373 176.068 10.736C177.007 11.2347 177.74 11.9533 178.268 12.892C178.811 13.816 179.082 14.894 179.082 16.126ZM172.944 12.584C172.167 12.584 171.514 12.804 170.986 13.244C170.458 13.684 170.136 14.2853 170.018 15.048H175.848C175.731 14.3 175.408 13.706 174.88 13.266C174.352 12.8113 173.707 12.584 172.944 12.584ZM184.645 11.726C185.056 11.154 185.606 10.7213 186.295 10.428C186.999 10.1347 187.806 9.988 188.715 9.988V13.156C188.334 13.1267 188.077 13.112 187.945 13.112C186.963 13.112 186.193 13.3907 185.635 13.948C185.078 14.4907 184.799 15.312 184.799 16.412V22H181.367V10.164H184.645V11.726ZM195.465 9.988C197.299 9.988 198.707 10.428 199.689 11.308C200.672 12.1733 201.163 13.486 201.163 15.246V22H197.951V20.526C197.306 21.626 196.103 22.176 194.343 22.176C193.434 22.176 192.642 22.022 191.967 21.714C191.307 21.406 190.801 20.9807 190.449 20.438C190.097 19.8953 189.921 19.2793 189.921 18.59C189.921 17.49 190.332 16.6247 191.153 15.994C191.989 15.3633 193.273 15.048 195.003 15.048H197.731C197.731 14.3 197.504 13.728 197.049 13.332C196.595 12.9213 195.913 12.716 195.003 12.716C194.373 12.716 193.749 12.8187 193.133 13.024C192.532 13.2147 192.019 13.4787 191.593 13.816L190.361 11.418C191.007 10.9633 191.777 10.6113 192.671 10.362C193.581 10.1127 194.512 9.988 195.465 9.988ZM195.201 19.866C195.788 19.866 196.309 19.734 196.763 19.47C197.218 19.1913 197.541 18.788 197.731 18.26V17.05H195.377C193.969 17.05 193.265 17.512 193.265 18.436C193.265 18.876 193.434 19.228 193.771 19.492C194.123 19.7413 194.6 19.866 195.201 19.866ZM211.904 21.428C211.566 21.6773 211.148 21.868 210.65 22C210.166 22.1173 209.652 22.176 209.11 22.176C207.702 22.176 206.609 21.8167 205.832 21.098C205.069 20.3793 204.688 19.3233 204.688 17.93V13.068H202.862V10.428H204.688V7.546H208.12V10.428H211.068V13.068H208.12V17.886C208.12 18.3847 208.244 18.7733 208.494 19.052C208.758 19.316 209.124 19.448 209.594 19.448C210.136 19.448 210.598 19.3013 210.98 19.008L211.904 21.428ZM219.097 22.176C217.85 22.176 216.728 21.9193 215.731 21.406C214.748 20.878 213.978 20.152 213.421 19.228C212.864 18.304 212.585 17.2553 212.585 16.082C212.585 14.9087 212.864 13.86 213.421 12.936C213.978 12.012 214.748 11.2933 215.731 10.78C216.728 10.252 217.85 9.988 219.097 9.988C220.344 9.988 221.458 10.252 222.441 10.78C223.424 11.2933 224.194 12.012 224.751 12.936C225.308 13.86 225.587 14.9087 225.587 16.082C225.587 17.2553 225.308 18.304 224.751 19.228C224.194 20.152 223.424 20.878 222.441 21.406C221.458 21.9193 220.344 22.176 219.097 22.176ZM219.097 19.36C219.977 19.36 220.696 19.0667 221.253 18.48C221.825 17.8787 222.111 17.0793 222.111 16.082C222.111 15.0847 221.825 14.2927 221.253 13.706C220.696 13.1047 219.977 12.804 219.097 12.804C218.217 12.804 217.491 13.1047 216.919 13.706C216.347 14.2927 216.061 15.0847 216.061 16.082C216.061 17.0793 216.347 17.8787 216.919 18.48C217.491 19.0667 218.217 19.36 219.097 19.36ZM231.159 11.726C231.57 11.154 232.12 10.7213 232.809 10.428C233.513 10.1347 234.32 9.988 235.229 9.988V13.156C234.848 13.1267 234.591 13.112 234.459 13.112C233.476 13.112 232.706 13.3907 232.149 13.948C231.592 14.4907 231.313 15.312 231.313 16.412V22H227.881V10.164H231.159V11.726Z" fill="#2677BD"/>
</g>
<defs>
<clipPath id="clip0_2246_17400">
<rect width="236.164" height="29.0008" fill="white"/>
</clipPath>
</defs>
</svg>
