<svg width="119" height="36" viewBox="0 0 119 36" fill="none" xmlns="http://www.w3.org/2000/svg">
<g clip-path="url(#clip0_2246_17404)">
<g clip-path="url(#clip1_2246_17404)">
<path d="M113.569 35.4951H4.36806C1.92194 35.4951 0 33.5272 0 31.0225V4.18737C0 1.68276 1.92194 -0.285156 4.36806 -0.285156H113.569C116.016 -0.285156 117.938 1.68276 117.938 4.18737V31.0225C117.938 33.5272 116.016 35.4951 113.569 35.4951Z" fill="white"/>
<path d="M113.569 0.430448C115.579 0.430448 117.239 2.13001 117.239 4.18737V31.0225C117.239 33.0799 115.579 34.7795 113.569 34.7795H4.36806C2.35875 34.7795 0.698889 33.0799 0.698889 31.0225V4.18737C0.698889 2.13001 2.35875 0.430448 4.36806 0.430448H113.569ZM113.569 -0.285156H4.36806C1.92194 -0.285156 0 1.77221 0 4.18737V31.0225C0 33.5272 1.92194 35.4951 4.36806 35.4951H113.569C116.016 35.4951 117.938 33.5272 117.938 31.0225V4.18737C117.938 1.77221 116.016 -0.285156 113.569 -0.285156Z" fill="#A6A6A6"/>
<path d="M41.4096 8.83859C41.4096 9.55419 41.2349 10.1803 40.7981 10.6276C40.2739 11.1643 39.6624 11.4327 38.8762 11.4327C38.0899 11.4327 37.4784 11.1643 36.9542 10.6276C36.4301 10.0909 36.168 9.46474 36.168 8.65969C36.168 7.85463 36.4301 7.22848 36.9542 6.69177C37.4784 6.15507 38.0899 5.88672 38.8762 5.88672C39.2256 5.88672 39.5751 5.97617 39.9245 6.15507C40.2739 6.33397 40.536 6.51287 40.7107 6.78122L40.2739 7.22848C39.9245 6.78122 39.4877 6.60232 38.8762 6.60232C38.352 6.60232 37.8278 6.78122 37.4784 7.22848C37.0416 7.58628 36.8669 8.12298 36.8669 8.74914C36.8669 9.37529 37.0416 9.91199 37.4784 10.2698C37.9152 10.6276 38.352 10.8959 38.8762 10.8959C39.4877 10.8959 39.9245 10.717 40.3613 10.2698C40.6234 10.0014 40.7981 9.64364 40.7981 9.19639H38.8762V8.48078H41.4096V8.83859ZM45.4282 6.60232H43.0695V8.30188H45.2535V8.92804H43.0695V10.6276H45.4282V11.3432H42.3706V5.97617H45.4282V6.60232ZM48.3112 11.3432H47.6123V6.60232H46.1271V5.97617H49.7963V6.60232H48.3112V11.3432ZM52.3298 11.3432V5.97617H53.0287V11.3432H52.3298ZM55.9989 11.3432H55.3V6.60232H53.8149V5.97617H57.3967V6.60232H55.9116V11.3432H55.9989ZM64.2982 10.6276C63.7741 11.1643 63.1626 11.4327 62.3763 11.4327C61.5901 11.4327 60.9785 11.1643 60.4544 10.6276C59.9302 10.0909 59.6681 9.46474 59.6681 8.65969C59.6681 7.85463 59.9302 7.22848 60.4544 6.69177C60.9785 6.15507 61.5901 5.88672 62.3763 5.88672C63.1626 5.88672 63.7741 6.15507 64.2982 6.69177C64.8224 7.22848 65.0845 7.85463 65.0845 8.65969C65.0845 9.46474 64.8224 10.0909 64.2982 10.6276ZM60.9785 10.1803C61.328 10.5381 61.8521 10.8065 62.3763 10.8065C62.9005 10.8065 63.4246 10.6276 63.7741 10.1803C64.1235 9.82254 64.3856 9.28584 64.3856 8.65969C64.3856 8.03353 64.2109 7.49683 63.7741 7.13903C63.4246 6.78122 62.9005 6.51287 62.3763 6.51287C61.8521 6.51287 61.328 6.69177 60.9785 7.13903C60.6291 7.49683 60.367 8.03353 60.367 8.65969C60.367 9.28584 60.5417 9.82254 60.9785 10.1803ZM66.0455 11.3432V5.97617H66.8317L69.3652 10.1803V5.97617H70.0641V11.3432H69.3652L66.657 6.96013V11.3432H66.0455Z" fill="#04121F" stroke="#04121F" stroke-width="0.140952" stroke-miterlimit="10"/>
<path d="M59.4918 19.2139C57.3951 19.2139 55.7353 20.8241 55.7353 23.0603C55.7353 25.2071 57.3951 26.9067 59.4918 26.9067C61.5885 26.9067 63.2483 25.2966 63.2483 23.0603C63.2483 20.7346 61.5885 19.2139 59.4918 19.2139ZM59.4918 25.2966C58.3561 25.2966 57.3951 24.3126 57.3951 22.9709C57.3951 21.6291 58.3561 20.6451 59.4918 20.6451C60.6275 20.6451 61.5885 21.5397 61.5885 22.9709C61.5885 24.3126 60.6275 25.2966 59.4918 25.2966ZM51.3672 19.2139C49.2705 19.2139 47.6107 20.8241 47.6107 23.0603C47.6107 25.2071 49.2705 26.9067 51.3672 26.9067C53.4639 26.9067 55.1237 25.2966 55.1237 23.0603C55.1237 20.7346 53.4639 19.2139 51.3672 19.2139ZM51.3672 25.2966C50.2315 25.2966 49.2705 24.3126 49.2705 22.9709C49.2705 21.6291 50.2315 20.6451 51.3672 20.6451C52.5029 20.6451 53.4639 21.5397 53.4639 22.9709C53.4639 24.3126 52.5029 25.2966 51.3672 25.2966ZM41.6701 20.3768V21.9869H45.4267C45.3393 22.8814 44.9899 23.597 44.553 24.0443C44.0289 24.581 43.1553 25.2071 41.6701 25.2071C39.3114 25.2071 37.5642 23.3287 37.5642 20.9135C37.5642 18.4983 39.3987 16.6199 41.6701 16.6199C42.8932 16.6199 43.8542 17.1566 44.553 17.7827L45.6887 16.6199C44.7278 15.7254 43.5047 15.0098 41.7575 15.0098C38.6125 15.0098 35.9043 17.6933 35.9043 20.9135C35.9043 24.1337 38.6125 26.8172 41.7575 26.8172C43.5047 26.8172 44.7278 26.2805 45.7761 25.1177C46.8244 24.0443 47.1739 22.5236 47.1739 21.3608C47.1739 21.003 47.1739 20.6451 47.0865 20.3768H41.6701ZM81.3321 21.6291C80.9826 20.7346 80.109 19.2139 78.1871 19.2139C76.2651 19.2139 74.6926 20.7346 74.6926 23.0603C74.6926 25.2071 76.2651 26.9067 78.3618 26.9067C80.0217 26.9067 81.07 25.8333 81.4194 25.2071L80.1964 24.3126C79.7596 24.9388 79.2354 25.386 78.3618 25.386C77.4882 25.386 76.964 25.0282 76.5272 24.2232L81.5068 22.0764L81.3321 21.6291ZM76.2651 22.8814C76.2651 21.4502 77.4008 20.6451 78.1871 20.6451C78.7986 20.6451 79.4101 21.003 79.5849 21.4502L76.2651 22.8814ZM72.1592 26.5489H73.819V15.3676H72.1592V26.5489ZM69.5383 20.019C69.1015 19.5717 68.4026 19.1245 67.529 19.1245C65.6944 19.1245 63.9472 20.8241 63.9472 22.9709C63.9472 25.1177 65.6071 26.7278 67.529 26.7278C68.4026 26.7278 69.1015 26.2805 69.451 25.8333H69.5383V26.37C69.5383 27.8012 68.7521 28.6062 67.529 28.6062C66.5681 28.6062 65.8692 27.8906 65.6944 27.2645L64.2967 27.8906C64.7335 28.8746 65.7818 30.1269 67.6164 30.1269C69.5383 30.1269 71.1108 28.9641 71.1108 26.1911V19.3928H69.5383V20.019ZM67.6164 25.2966C66.4807 25.2966 65.5197 24.3126 65.5197 22.9709C65.5197 21.6291 66.4807 20.6451 67.6164 20.6451C68.7521 20.6451 69.6257 21.6291 69.6257 22.9709C69.6257 24.3126 68.7521 25.2966 67.6164 25.2966ZM88.9325 15.3676H85.0012V26.5489H86.6611V22.3447H88.9325C90.7671 22.3447 92.5143 21.003 92.5143 18.8561C92.5143 16.7093 90.7671 15.3676 88.9325 15.3676ZM89.0199 20.7346H86.6611V16.8882H89.0199C90.2429 16.8882 90.9418 17.9616 90.9418 18.7667C90.8544 19.7506 90.1556 20.7346 89.0199 20.7346ZM99.0664 19.1245C97.8433 19.1245 96.6203 19.6612 96.1835 20.8241L97.6686 21.4502C98.0181 20.824 98.5422 20.6451 99.1537 20.6451C100.027 20.6451 100.814 21.1819 100.901 22.0764V22.1658C100.639 21.9869 99.94 21.7186 99.2411 21.7186C97.6686 21.7186 96.0961 22.6131 96.0961 24.2232C96.0961 25.7438 97.4065 26.7278 98.8043 26.7278C99.94 26.7278 100.464 26.1911 100.901 25.6544H100.988V26.5489H102.561V22.2553C102.386 20.2873 100.901 19.1245 99.0664 19.1245ZM98.8917 25.2966C98.3675 25.2966 97.5812 25.0282 97.5812 24.3126C97.5812 23.4181 98.5422 23.1498 99.3285 23.1498C100.027 23.1498 100.377 23.3287 100.814 23.5076C100.639 24.581 99.7653 25.2966 98.8917 25.2966ZM108.065 19.3928L106.23 24.2232H106.143L104.221 19.3928H102.473L105.356 26.1911L103.697 29.948H105.356L109.812 19.3928H108.065ZM93.3879 26.5489H95.0478V15.3676H93.3879V26.5489Z" fill="#04121F"/>
<path d="M9.08382 6.42188C8.82174 6.69023 8.73438 7.13748 8.73438 7.67418V27.4428C8.73438 27.9795 8.9091 28.4267 9.17118 28.6951L9.25854 28.7845L20.0913 17.6926V17.5137L9.08382 6.42188Z" fill="url(#paint0_linear_2246_17404)"/>
<path d="M23.5857 21.451L20.0039 17.7835V17.5151L23.5857 13.8477L23.6731 13.9371L27.9538 16.4417C29.1768 17.1573 29.1768 18.3202 27.9538 19.0358L23.5857 21.451Z" fill="url(#paint1_linear_2246_17404)"/>
<path d="M23.6752 21.3624L20.0061 17.6055L9.08594 28.7868C9.52274 29.234 10.1343 29.234 10.9205 28.8762L23.6752 21.3624Z" fill="url(#paint2_linear_2246_17404)"/>
<path d="M23.6752 13.8473L10.9205 6.42295C10.1343 5.9757 9.52274 6.06515 9.08594 6.5124L20.0061 17.6043L23.6752 13.8473Z" fill="url(#paint3_linear_2246_17404)"/>
<path opacity="0.2" d="M23.5879 21.2715L10.9205 28.6064C10.2216 29.0537 9.6101 28.9642 9.1733 28.6064L9.08594 28.6959L9.1733 28.7853C9.6101 29.1431 10.2216 29.2326 10.9205 28.7853L23.5879 21.2715Z" fill="white"/>
<path opacity="0.12" d="M9.08382 28.6079C8.82174 28.3395 8.73438 27.8923 8.73438 27.3556V27.445C8.73438 27.9817 8.9091 28.429 9.17118 28.6973V28.6079H9.08382ZM27.9538 18.7683L23.5858 21.2729L23.6731 21.3624L27.9538 18.8578C28.5653 18.5 28.8274 18.0527 28.8274 17.6055C28.8274 18.0527 28.478 18.4105 27.9538 18.7683Z" fill="white"/>
<path opacity="0.25" d="M10.9184 6.51246L27.9538 16.4415C28.478 16.7993 28.8274 17.1571 28.8274 17.6043C28.8274 17.1571 28.5653 16.7098 27.9538 16.352L10.9184 6.42301C9.69535 5.70741 8.73438 6.24411 8.73438 7.67532V7.76477C8.73438 6.42301 9.69535 5.79686 10.9184 6.51246Z" fill="white"/>
</g>
</g>
<defs>
<linearGradient id="paint0_linear_2246_17404" x1="19.043" y1="7.50423" x2="4.03471" y2="22.1611" gradientUnits="userSpaceOnUse">
<stop stop-color="#00A0FF"/>
<stop offset="0.007" stop-color="#00A1FF"/>
<stop offset="0.26" stop-color="#00BEFF"/>
<stop offset="0.512" stop-color="#00D2FF"/>
<stop offset="0.76" stop-color="#00DFFF"/>
<stop offset="1" stop-color="#00E3FF"/>
</linearGradient>
<linearGradient id="paint1_linear_2246_17404" x1="29.556" y1="17.6055" x2="8.4172" y2="17.6055" gradientUnits="userSpaceOnUse">
<stop stop-color="#FFE000"/>
<stop offset="0.409" stop-color="#FFBD00"/>
<stop offset="0.775" stop-color="#FFA500"/>
<stop offset="1" stop-color="#FF9C00"/>
</linearGradient>
<linearGradient id="paint2_linear_2246_17404" x1="21.6895" y1="19.6593" x2="1.33806" y2="39.5353" gradientUnits="userSpaceOnUse">
<stop stop-color="#FF3A44"/>
<stop offset="1" stop-color="#C31162"/>
</linearGradient>
<linearGradient id="paint3_linear_2246_17404" x1="6.37512" y1="-0.128405" x2="15.4634" y2="8.74763" gradientUnits="userSpaceOnUse">
<stop stop-color="#32A071"/>
<stop offset="0.069" stop-color="#2DA771"/>
<stop offset="0.476" stop-color="#15CF74"/>
<stop offset="0.801" stop-color="#06E775"/>
<stop offset="1" stop-color="#00F076"/>
</linearGradient>
<clipPath id="clip0_2246_17404">
<rect width="119" height="36" fill="white"/>
</clipPath>
<clipPath id="clip1_2246_17404">
<rect width="119" height="36" fill="white"/>
</clipPath>
</defs>
</svg>
