<svg width="20" height="20" viewBox="0 0 20 20" fill="none" xmlns="http://www.w3.org/2000/svg">
<g clip-path="url(#clip0_2755_6749)">
<path d="M14.6167 4.01093L12.4954 1.88961C11.9067 1.30094 10.9574 1.30624 10.3741 1.88961L1.88879 10.3749C1.30542 10.9582 1.30012 11.9075 1.88879 12.4962L4.01011 14.6175C4.59877 14.0289 5.54806 14.0342 6.13143 14.6175C6.71479 15.2009 6.72009 16.1502 6.13143 16.7388L8.25275 18.8602C8.83611 19.4435 9.7907 19.4435 10.3741 18.8602L18.8593 10.3749C19.4427 9.79152 19.4427 8.83693 18.8593 8.25357L16.738 6.13225C16.1547 6.71561 15.2001 6.71561 14.6167 6.13225C14.0333 5.54888 14.0333 4.59429 14.6167 4.01093ZM12.7818 4.2973C12.5166 5.29432 12.7765 6.41332 13.556 7.19291C14.3356 7.97249 15.4546 8.23235 16.4516 7.96719L17.7987 9.31423L9.31341 17.7995L7.96637 16.4525C8.23153 15.4554 7.97167 14.3365 7.19209 13.5569C6.39659 12.7614 5.29881 12.5121 4.29648 12.7826L2.94945 11.4355L11.4347 2.95027L12.7818 4.2973ZM11.4347 12.4962L12.4954 11.4355L13.556 12.4962L12.4954 13.5569M9.31341 10.3749L10.3741 9.31423L11.4347 10.3749L10.3741 11.4355M7.19209 8.25357L8.25275 7.19291L9.31341 8.25357L8.25275 9.31423L7.19209 8.25357Z" fill="#8097A3"/>
</g>
<defs>
<clipPath id="clip0_2755_6749">
<rect width="15" height="12" fill="white" transform="translate(0.828125 11.4355) rotate(-45)"/>
</clipPath>
</defs>
</svg>
