<svg width="19" height="19" viewBox="0 0 19 19" fill="none" xmlns="http://www.w3.org/2000/svg">
<g opacity="0.5" clip-path="url(#clip0_3463_33745)">
<path fill-rule="evenodd" clip-rule="evenodd" d="M9.50001 0.124756C8.72376 0.124756 7.42663 0.422881 6.20601 0.754756C4.95726 1.09226 3.69838 1.49163 2.95813 1.73351C2.64863 1.83571 2.37425 2.02315 2.16649 2.27429C1.95873 2.52544 1.82603 2.83009 1.78363 3.15326C1.11313 8.18988 2.66901 11.9226 4.55676 14.392C5.35729 15.4483 6.31179 16.3786 7.38838 17.1516C7.82263 17.4588 8.22538 17.6939 8.56738 17.8548C8.88238 18.0033 9.22101 18.1248 9.50001 18.1248C9.77901 18.1248 10.1165 18.0033 10.4326 17.8548C10.8449 17.6544 11.2394 17.4191 11.6116 17.1516C12.6882 16.3786 13.6428 15.4484 14.4433 14.392C16.331 11.9226 17.8869 8.18988 17.2164 3.15326C17.1741 2.82993 17.0414 2.5251 16.8336 2.27377C16.6259 2.02243 16.3515 1.83479 16.0419 1.73238C14.9673 1.38005 13.8843 1.0537 12.794 0.753631C11.5734 0.424006 10.2763 0.124756 9.50001 0.124756ZM9.50001 5.74976C9.89852 5.74916 10.2844 5.88963 10.5893 6.14628C10.8941 6.40292 11.0984 6.75919 11.1657 7.15197C11.2331 7.54475 11.1593 7.94871 10.9574 8.29228C10.7554 8.63586 10.4384 8.89688 10.0625 9.02913L10.4956 11.2679C10.5114 11.3493 10.5089 11.4332 10.4885 11.5136C10.468 11.594 10.43 11.6688 10.3772 11.7328C10.3244 11.7967 10.2582 11.8482 10.1831 11.8836C10.1081 11.919 10.0262 11.9373 9.94326 11.9373H9.05676C8.97391 11.9371 8.89213 11.9187 8.81724 11.8832C8.74235 11.8478 8.67621 11.7963 8.62355 11.7323C8.57088 11.6684 8.533 11.5936 8.51259 11.5133C8.49218 11.433 8.48977 11.3492 8.50551 11.2679L8.93751 9.02913C8.56157 8.89688 8.24457 8.63586 8.04264 8.29228C7.84072 7.94871 7.76691 7.54475 7.83428 7.15197C7.90165 6.75919 8.10586 6.40292 8.41074 6.14628C8.71562 5.88963 9.10149 5.74916 9.50001 5.74976Z" fill="#2677BD"/>
</g>
<defs>
<clipPath id="clip0_3463_33745">
<rect width="18" height="18" fill="white" transform="translate(0.5 0.124756)"/>
</clipPath>
</defs>
</svg>
