<svg width="62" height="66" viewBox="0 0 62 66" fill="none" xmlns="http://www.w3.org/2000/svg">
<g clip-path="url(#clip0_1621_44611)">
<path d="M47.12 5.95886L39.9556 17.1418L49.7148 8.14608L47.12 5.95886ZM33.5259 0.574043L32.9117 13.8581L36.8728 1.18256L33.5259 0.574043ZM50.8056 9.18515L44.8869 15.6492C45.3576 15.7272 45.8004 15.9249 46.1728 16.2233L52.9871 11.8603L50.8056 9.18515ZM38.3482 1.57867L35.4434 14.5355L41.5458 2.74404L38.3482 1.57867ZM42.9408 3.38701L37.8143 15.6435L45.8513 5.08627L42.9408 3.38701ZM57.7806 22.0731L49.3015 24.7196C49.5713 25.0991 49.8647 25.4613 50.1798 25.8046L58.3604 25.4257L57.7806 22.0731ZM53.8769 13.0774L47.2578 18.1235C47.2727 18.2222 47.2825 18.3221 47.2865 18.422C47.2865 18.7722 47.2865 19.1166 47.3382 19.4553L55.5589 16.0109L53.8769 13.0774ZM52.4532 27.722C54.2374 28.8678 56.3089 29.4867 58.4293 29.5074H58.4924V26.9413L52.4532 27.722ZM56.2076 17.3887L47.8146 21.7516C47.918 22.0616 48.0271 22.3716 48.1534 22.6702L57.373 20.6035L56.2076 17.3887ZM10.9074 8.14608L20.6667 17.1418L13.4908 5.95886L10.9074 8.14608ZM30.3284 13.6285L32.0506 0.459229H28.6061L30.3284 13.6285ZM5.06909 16.0224L13.3472 19.4668C13.3817 19.1166 13.3989 18.7664 13.3989 18.4105V18.1522L6.73964 13.0659L5.06909 16.0224ZM2.25038 25.4257L10.4998 25.8333C10.8085 25.4953 11.096 25.1387 11.3609 24.7655L2.87038 22.0731L2.25038 25.4257ZM2.11835 29.5131H2.18724C4.32465 29.5039 6.41532 28.8866 8.21501 27.7335L2.11835 26.9413V29.5131ZM3.23779 20.6035L12.5148 22.6816C12.6411 22.3889 12.7502 22.1076 12.8478 21.7746L4.40316 17.4059L3.23779 20.6035ZM19.065 2.74404L25.1732 14.5355L22.2626 1.57867L19.065 2.74404ZM7.62372 11.8316L14.4495 16.2061C14.8089 15.9185 15.2322 15.7216 15.6837 15.632L9.8052 9.22534L7.62372 11.8316ZM23.738 1.18256L27.6991 13.8581L27.0848 0.574043L23.738 1.18256ZM14.7422 5.08627L22.7793 15.6435L17.6872 3.38701L14.7422 5.08627ZM57.7346 42.0107L56.9424 39.5824C56.9424 39.5824 46.6091 37.8027 43.7387 37.487C40.8684 37.1713 33.3537 35.1563 31.0517 40.9314C28.7554 35.162 21.2235 37.177 18.3646 37.487C15.5058 37.797 5.16094 39.5824 5.16094 39.5824L4.4089 42.0107H27.8484C28.8702 42.0509 31.0689 42.3609 31.0689 44.307C31.0689 42.3896 33.2676 42.0796 34.2837 42.0107H57.7346Z" fill="#88CBDF"/>
<path d="M58.8885 43.1532H35.0702C34.6875 43.1244 34.303 43.1726 33.9393 43.2949C33.5757 43.4173 33.2402 43.6113 32.9528 43.8655C32.6654 44.1197 32.4319 44.429 32.2661 44.775C32.1002 45.121 32.0055 45.4968 31.9874 45.8801H30.1561C30.138 45.4968 30.0432 45.121 29.8774 44.775C29.7116 44.429 29.4781 44.1197 29.1907 43.8655C28.9032 43.6113 28.5678 43.4173 28.2041 43.2949C27.8404 43.1726 27.4559 43.1244 27.0733 43.1532H3.25497C3.18539 43.1547 3.11907 43.183 3.06986 43.2322C3.02065 43.2814 2.99236 43.3477 2.99089 43.4173L3.82904 45.3519C3.82904 45.422 3.85686 45.4891 3.90639 45.5387C3.95591 45.5882 4.02308 45.616 4.09312 45.616H26.4074C26.477 45.6175 26.5433 45.6458 26.5925 45.695C26.6417 45.7442 26.67 45.8105 26.6714 45.8801L26.9814 47.4243C26.9814 47.5701 27.0997 47.6884 27.2455 47.6884H34.8635C34.9331 47.6869 34.9994 47.6586 35.0486 47.6094C35.0978 47.5602 35.1261 47.4939 35.1276 47.4243L35.4835 45.8686C35.485 45.799 35.5132 45.7327 35.5625 45.6835C35.6117 45.6343 35.678 45.606 35.7476 45.6045H58.0446C58.1142 45.6031 58.1805 45.5748 58.2297 45.5255C58.2789 45.4763 58.3072 45.41 58.3087 45.3404L59.1296 43.423C59.13 43.3562 59.1055 43.2916 59.061 43.2417C59.0164 43.1919 58.955 43.1603 58.8885 43.1532ZM0.332932 63.3721L2.19293 61.1504C3.29367 62.0603 4.67431 62.5631 6.10238 62.5741C6.99793 62.5741 7.48015 62.2641 7.48015 61.7475V61.713C7.48015 61.2136 7.08404 60.938 5.44793 60.5649C2.88182 59.9908 0.901265 59.256 0.901265 56.776V56.7416C0.901265 54.5027 2.67515 52.8838 5.56849 52.8838C7.3596 52.8149 9.11627 53.3832 10.5285 54.4854L8.85793 56.8334C7.87377 56.12 6.69741 55.7199 5.48238 55.6853C4.67293 55.6853 4.27682 56.0297 4.27682 56.4603V56.4947C4.27682 57.0688 4.69015 57.2869 6.36071 57.6429C9.13349 58.2169 10.8557 59.1412 10.8557 61.3973V61.426C10.8557 63.8888 8.9096 65.3527 5.98182 65.3527C3.91985 65.4065 1.90981 64.7018 0.332932 63.3721ZM13.1635 53.1077H22.8079V56.0354H16.4931V58.0849H22.1937V60.8519H16.5046V65.1575H13.1635V53.1077ZM25.1961 59.876V53.1077H28.5889V59.8071C28.5889 61.5293 29.4672 62.3732 30.8105 62.3732C32.1539 62.3732 33.0322 61.581 33.0322 59.8932V53.1077H36.425V59.7899C36.425 63.6821 34.2033 65.3871 30.7761 65.3871C27.3489 65.3871 25.1961 63.6477 25.1961 59.876ZM37.8315 63.3721L39.6914 61.1504C40.7998 62.0665 42.1917 62.5697 43.6296 62.5741C44.5252 62.5741 45.0074 62.2641 45.0074 61.7475V61.713C45.0074 61.2136 44.6113 60.938 42.9752 60.5649C40.409 59.9908 38.4285 59.256 38.4285 56.776V56.7416C38.4055 54.5371 40.1852 52.901 43.0555 52.901C44.8466 52.8321 46.6033 53.4004 48.0155 54.5027L46.3564 56.8334C45.3723 56.12 44.1959 55.7199 42.9809 55.6853C42.1715 55.6853 41.7753 56.0297 41.7753 56.4603V56.4947C41.7753 57.0688 42.1887 57.2869 43.8592 57.6429C46.632 58.2169 48.3542 59.1412 48.3542 61.3973V61.426C48.3542 63.8888 46.4081 65.3527 43.4803 65.3527C41.4184 65.4065 39.4083 64.7018 37.8315 63.3721ZM50.3176 53.1077H54.9676C59.2731 53.1077 61.7703 55.5877 61.7703 59.0666V59.101C61.7703 62.5799 59.2387 65.1632 54.8815 65.1632H50.2889L50.3176 53.1077ZM55.0192 62.201C57.017 62.201 58.3431 61.0988 58.3431 59.1527V59.1297C58.3431 57.2008 57.017 56.0814 55.0192 56.0814H53.6587V62.2125L55.0192 62.201ZM15.3794 35.9888C15.9535 35.9027 16.4529 35.8453 16.8031 35.8051L17.1016 35.7649V33.5719H43.5894V35.7706L43.8535 35.8051C44.2152 35.8453 44.6974 35.9084 45.3116 35.9945V33.5719H58.412V31.2297C51.3555 31.174 45.6423 25.4786 45.5642 18.4221C45.5751 18.2718 45.5549 18.1209 45.5049 17.9788C45.4549 17.8367 45.3761 17.7064 45.2735 17.596C45.1709 17.4857 45.0466 17.3977 44.9085 17.3376C44.7703 17.2774 44.6213 17.2463 44.4706 17.2463C44.3199 17.2463 44.1709 17.2774 44.0328 17.3376C43.8946 17.3977 43.7704 17.4857 43.6677 17.596C43.5651 17.7064 43.4864 17.8367 43.4363 17.9788C43.3863 18.1209 43.3661 18.2718 43.377 18.4221C43.377 25.489 37.4296 31.2354 30.3627 31.2354C23.2643 31.2354 17.4897 25.52 17.4174 18.4221C17.4174 18.1176 17.2964 17.8256 17.0811 17.6102C16.8658 17.3949 16.5737 17.274 16.2692 17.274C15.9647 17.274 15.6727 17.3949 15.4574 17.6102C15.242 17.8256 15.1211 18.1176 15.1211 18.4221C15.0459 25.5096 9.28677 31.2199 2.19867 31.2354V33.5719H15.4024L15.3794 35.9888ZM45.3116 23.1467C45.9552 24.9753 46.9807 26.646 48.32 28.0475C49.6592 29.4491 51.2814 30.5495 53.0789 31.2756H45.3116V23.1467ZM43.5894 23.1123V31.2756H35.8164C37.6184 30.5465 39.244 29.4411 40.5844 28.0333C41.9249 26.6255 42.9494 24.9478 43.5894 23.1123ZM17.1016 22.9975C17.732 24.858 18.7563 26.5607 20.1047 27.9894C21.453 29.418 23.0937 30.5389 24.9148 31.2756H17.1016V22.9975ZM7.59497 31.2756C9.40254 30.5441 11.0325 29.434 12.3752 28.02C13.718 26.606 14.7423 24.9208 15.3794 23.0778V31.2756H7.59497Z" fill="#00355F"/>
</g>
<defs>
<clipPath id="clip0_1621_44611">
<rect width="62" height="65.4445" fill="white"/>
</clipPath>
</defs>
</svg>
