<svg width="126" height="28" viewBox="0 0 126 28" fill="none" xmlns="http://www.w3.org/2000/svg">
<g id="11 Universitatea_de_Vest_din_Timis&#204;&#166;oara 1" clip-path="url(#clip0_1621_44059)">
<path id="Vector" d="M23.2617 5.10968V26.6912H29.497V5.10968H36.0975V1.06152H23.2487L23.2617 5.10968Z" fill="url(#paint0_linear_1621_44059)"/>
<path id="Vector_2" d="M7.9283 5.77828C14.5934 11.2544 19.9791 18.3137 23.2615 26.691H29.4969C24.6346 16.372 17.9469 7.75874 7.91537 1.36182L7.9283 5.77828Z" fill="url(#paint1_linear_1621_44059)"/>
<path id="Vector_3" d="M0.193848 1.06475V16.272C0.193848 24.4329 4.68462 27.1823 9.84092 27.1823C14.5094 27.1823 18.5543 24.1777 19.866 22.4234C19.2586 21.2151 18.8418 20.4429 18.2668 19.5738C17.0972 21.0988 13.6952 22.7077 12.0637 22.7077C7.938 22.7077 6.47446 19.7838 6.47446 15.3738V1.06152L0.193848 1.06475Z" fill="url(#paint2_linear_1621_44059)"/>
<path id="Vector_4" fill-rule="evenodd" clip-rule="evenodd" d="M15.6758 5.10968H21.8143V1.06152H15.6758V5.10968Z" fill="#E4AC24"/>
<path id="Vector_5" d="M84.0808 21.4798C84.0808 21.567 84.0614 21.6607 84.0323 21.7447C83.9031 22.1259 83.5251 22.5007 82.9338 22.5007C82.5138 22.5007 82.1584 22.2487 82.1584 21.7124C82.1584 20.8304 83.1794 20.6721 84.0808 20.6915V21.4798ZM84.8755 20.2198C84.8755 19.3152 84.5428 18.3685 83.1535 18.3685C82.5817 18.3685 82.0389 18.5301 81.6674 18.7692L81.8483 19.3184C82.1714 19.1084 82.6108 18.9759 83.0308 18.9759C83.958 18.9759 84.0646 19.6544 84.0646 20.0259V20.1228C82.3071 20.1099 81.3314 20.7108 81.3314 21.8093C81.3314 22.4619 81.7998 23.1113 82.7206 23.1113C83.3668 23.1113 83.8514 22.7882 84.1098 22.4328H84.1357L84.2003 23.0047H84.9498C84.8949 22.6978 84.8755 22.3133 84.8755 21.9192V20.2198ZM78.6724 23.0079H79.4769V20.5913C79.4769 20.4492 79.4963 20.3167 79.5157 20.2036C79.6288 19.5898 80.0391 19.1472 80.6206 19.1472C80.7337 19.1472 80.8144 19.1568 80.9017 19.173V18.3976C80.8274 18.3782 80.7628 18.3653 80.6691 18.3653C80.1198 18.3653 79.6223 18.753 79.4155 19.3604H79.3768L79.3509 18.4719H78.6272C78.6595 18.8919 78.6595 19.3539 78.6595 19.8935L78.6724 23.0079ZM76.5401 21.4798C76.5401 21.567 76.524 21.6607 76.4949 21.7447C76.3657 22.1259 75.9877 22.5007 75.3964 22.5007C74.9764 22.5007 74.6211 22.2487 74.6211 21.7124C74.6211 20.8304 75.642 20.6721 76.5401 20.6915V21.4798ZM77.3381 20.2198C77.3381 19.3152 77.0021 18.3685 75.6129 18.3685C75.0411 18.3685 74.4983 18.5301 74.1268 18.7692L74.3109 19.3184C74.634 19.1084 75.0701 18.9759 75.4934 18.9759C76.4206 18.9759 76.5272 19.6544 76.5272 20.0259V20.1228C74.7697 20.1099 73.794 20.7108 73.794 21.8093C73.794 22.4619 74.2624 23.1113 75.1832 23.1113C75.8294 23.1113 76.314 22.7882 76.5724 22.4328H76.5983L76.6629 23.0047H77.4157C77.3608 22.6978 77.3414 22.3133 77.3414 21.9192L77.3381 20.2198ZM70.9089 18.9856C71.8781 18.9856 72.2658 19.9613 72.2658 20.7302C72.2658 21.7512 71.6746 22.4942 70.8863 22.4942C70.0786 22.4942 69.51 21.7512 69.51 20.7496C69.51 19.8902 69.93 18.9888 70.9057 18.9888M70.9251 18.375C69.6651 18.375 68.6732 19.2602 68.6732 20.7819C68.6732 22.2164 69.6198 23.1178 70.8475 23.1178C71.946 23.1178 73.1091 22.3844 73.1091 20.7044C73.1091 19.3152 72.2271 18.3718 70.9251 18.3718M64.9708 22.7979C65.3326 23.0047 65.8011 23.1081 66.1661 23.1081H66.1984L65.8301 23.7736C66.2695 23.8124 66.5506 23.9255 66.5603 24.1678C66.5603 24.3939 66.3664 24.4682 66.1564 24.4682C65.9884 24.4682 65.8011 24.423 65.6492 24.3293L65.5103 24.7332C65.6718 24.8301 65.9238 24.8947 66.1468 24.8947C66.6734 24.8947 67.1224 24.6879 67.1224 24.1322C67.1224 23.7768 66.8123 23.5345 66.4666 23.4861L66.7251 23.0758C67.5069 22.9207 67.9398 22.4135 67.9398 21.7512C67.9398 21.0727 67.5328 20.6785 66.7444 20.3781C66.1532 20.1519 65.8818 19.9839 65.8818 19.6092C65.8818 19.2699 66.1532 18.9888 66.6411 18.9888C67.0611 18.9888 67.3906 19.1407 67.5683 19.2473L67.7751 18.6528C67.5166 18.5042 67.116 18.375 66.6572 18.375C65.6815 18.375 65.0903 18.9759 65.0903 19.7061C65.0903 20.2488 65.4715 20.7012 66.2857 20.9919C66.8995 21.2181 67.1321 21.4313 67.1321 21.8255C67.1321 22.2002 66.8511 22.5039 66.2501 22.5039C65.8366 22.5039 65.4037 22.3327 65.1581 22.1712L64.9708 22.7979ZM63.504 16.6918C63.2035 16.6918 62.9871 16.9179 62.9871 17.2087C62.9871 17.4898 63.1938 17.7159 63.4846 17.7159C63.8077 17.7159 64.0177 17.4898 64.0112 17.2119C64.0112 16.9212 63.8109 16.695 63.504 16.695M63.9143 18.4719H63.0904V23.0079H63.9143V18.4719ZM55.2688 23.0079H56.0764V20.2715C56.0764 20.1293 56.0926 19.9904 56.1411 19.8676C56.2703 19.4541 56.6483 19.0438 57.1652 19.0438C57.792 19.0438 58.1118 19.5672 58.1118 20.2908V23.0047H58.9195V20.2036C58.9195 20.0518 58.9454 19.9032 58.9841 19.7901C59.1231 19.3862 59.4881 19.0405 59.9534 19.0405C60.6221 19.0405 60.942 19.5639 60.942 20.4362V23.0047H61.7497V20.3328C61.7497 18.7595 60.858 18.3621 60.2635 18.3621C59.8274 18.3621 59.5269 18.4784 59.2555 18.6852C59.0681 18.8241 58.8937 19.0212 58.7515 19.2732H58.7321C58.5383 18.7401 58.0666 18.3685 57.4463 18.3685C56.6968 18.3685 56.2735 18.7659 56.0248 19.1988H55.9924L55.9601 18.4655H55.2332C55.2655 18.8435 55.272 19.2279 55.272 19.6932L55.2688 23.0079ZM53.4854 16.6885C53.1881 16.6885 52.9684 16.9147 52.9684 17.2055C52.9684 17.4865 53.1784 17.7127 53.4692 17.7127C53.7923 17.7127 54.0023 17.4865 53.9926 17.2087C53.9926 16.9179 53.7988 16.6918 53.4854 16.6918M53.8989 18.4687H53.0751V23.0079H53.8989V18.4687ZM49.7538 23.0079H50.5809V17.3864H52.5097V16.6885H47.8251V17.3832H49.7538V23.0079ZM41.7157 23.0079H42.5428V20.2812C42.5428 20.139 42.5621 20.0001 42.5977 19.8935C42.7366 19.4412 43.1631 19.0535 43.7058 19.0535C44.4812 19.0535 44.7558 19.6608 44.7558 20.3942V23.0112H45.5829V20.3038C45.5829 18.7465 44.6008 18.3718 43.974 18.3718C43.2244 18.3718 42.6978 18.7918 42.4717 19.2247H42.4555L42.4071 18.4719H41.6769C41.7092 18.8499 41.7157 19.2344 41.7157 19.6996V23.0079ZM39.9388 16.6885C39.6351 16.6885 39.4218 16.9147 39.4218 17.2055C39.4218 17.4865 39.6254 17.7127 39.9161 17.7127C40.2392 17.7127 40.4492 17.4865 40.4395 17.2087C40.4395 16.9179 40.2457 16.6918 39.9355 16.6918M40.3555 18.4687H39.5252V23.0079H40.3523L40.3555 18.4687ZM37.3315 21.1082C37.3315 21.2439 37.3218 21.357 37.2928 21.4701C37.1441 22.0839 36.6369 22.4522 36.0844 22.4522C35.1928 22.4522 34.7437 21.693 34.7437 20.7722C34.7437 19.7707 35.2509 19.0212 36.1006 19.0212C36.7209 19.0212 37.1668 19.4508 37.296 19.9775C37.3218 20.0808 37.3283 20.2198 37.3283 20.3232L37.3315 21.1082ZM37.3315 16.359V19.0664H37.3121C37.1054 18.7013 36.6337 18.375 35.9423 18.375C34.8374 18.375 33.9004 19.3022 33.9069 20.811C33.9069 22.1905 34.7469 23.121 35.8454 23.121C36.5884 23.121 37.1441 22.7333 37.3961 22.2293H37.4155L37.4543 23.0144H38.1974C38.1651 22.7075 38.1554 22.2487 38.1554 21.8448V16.3525L37.3315 16.359Z" fill="#E4AC24"/>
<path id="Vector_6" d="M123.377 9.76205V10.6828H122.659V11.6262H123.377V13.9782C123.377 14.634 123.499 15.0864 123.764 15.3739C124 15.6324 124.391 15.7939 124.856 15.7939C125.254 15.7939 125.583 15.7293 125.767 15.6647L125.745 14.6954C125.606 14.7374 125.493 14.7601 125.26 14.7601C124.775 14.7601 124.614 14.437 124.614 13.8328V11.6262H125.809V10.6828H124.614V9.4002L123.377 9.76205ZM118.569 15.432C118.941 15.6356 119.487 15.7939 120.088 15.7939C121.412 15.7939 122.123 15.1251 122.123 14.2205C122.117 13.4839 121.693 13.0251 120.789 12.6956C120.152 12.4694 119.916 12.3144 119.916 11.9977C119.916 11.6876 120.165 11.4744 120.614 11.4744C121.057 11.4744 121.454 11.6359 121.674 11.7651L121.923 10.867C121.632 10.7151 121.147 10.5697 120.598 10.5697C119.435 10.5697 118.711 11.2579 118.711 12.1399C118.702 12.7214 119.109 13.2577 120.084 13.5937C120.698 13.8134 120.905 13.9879 120.905 14.3271C120.905 14.6502 120.659 14.8764 120.107 14.8764C119.655 14.8764 119.105 14.6954 118.824 14.521L118.569 15.432ZM114.479 12.6536H116.676C116.686 12.1884 116.482 11.4259 115.642 11.4259C114.86 11.4259 114.531 12.1367 114.479 12.6536ZM117.823 13.5324H114.476C114.508 14.437 115.212 14.8247 116.014 14.8247C116.602 14.8247 117.015 14.7439 117.403 14.5985L117.584 15.4708C117.154 15.6485 116.556 15.7939 115.839 15.7939C114.217 15.7939 113.264 14.7859 113.264 13.2545C113.264 11.8717 114.104 10.5665 115.703 10.5665C117.335 10.5665 117.858 11.9008 117.858 12.9993C117.858 13.2351 117.836 13.4193 117.816 13.5324M110.877 15.6776L113.267 8.76374H111.923L110.922 11.9202C110.641 12.7602 110.392 13.6002 110.211 14.4208H110.189C110.001 13.5808 109.775 12.7731 109.51 11.9008L108.563 8.75728H107.187L109.429 15.6776H110.877ZM101.637 12.6504C101.692 12.1334 102.024 11.4291 102.8 11.4291C103.64 11.4291 103.847 12.1884 103.834 12.6504H101.637ZM105 13.5356C105.019 13.4225 105.032 13.2384 105.032 13.0025C105.032 11.904 104.515 10.5697 102.881 10.5697C101.281 10.5697 100.438 11.875 100.438 13.2577C100.438 14.7891 101.394 15.7971 103.016 15.7971C103.733 15.7971 104.328 15.6517 104.761 15.4741L104.573 14.6017C104.195 14.7471 103.772 14.8279 103.191 14.8279C102.389 14.8279 101.679 14.4402 101.65 13.5356H105ZM98.1378 13.5162C98.1378 13.6454 98.1281 13.7747 98.0958 13.8845C97.9762 14.4273 97.5239 14.7794 97.0102 14.7794C96.2122 14.7794 95.7599 14.1107 95.7599 13.1964C95.7599 12.2594 96.2122 11.5487 97.0199 11.5487C97.595 11.5487 97.9956 11.946 98.1087 12.4371C98.1281 12.5405 98.141 12.6633 98.141 12.7667L98.1378 13.5162ZM98.1378 8.38574V11.2288H98.1184C97.8922 10.8573 97.4012 10.5697 96.713 10.5697C95.5112 10.5697 94.4676 11.5648 94.4773 13.2384C94.4773 14.7794 95.4207 15.7971 96.6096 15.7971C97.3398 15.7971 97.9439 15.4417 98.2411 14.8925H98.2638L98.3155 15.6808H99.4462C99.4268 15.3416 99.4042 14.7891 99.4042 14.2754V8.38574H98.1378ZM90.1061 13.9297C90.1061 14.0073 90.0932 14.1107 90.0641 14.2044C89.951 14.5597 89.5795 14.8925 89.0787 14.8925C88.6781 14.8925 88.3582 14.6664 88.3582 14.1721C88.3582 13.4128 89.2079 13.219 90.1029 13.2351L90.1061 13.9297ZM91.3338 12.6762C91.3338 11.5874 90.875 10.5697 89.2725 10.5697C88.4842 10.5697 87.8349 10.7862 87.4633 11.0124L87.7121 11.833C88.0481 11.6197 88.5618 11.4679 89.0561 11.4679C89.9348 11.4679 90.0705 12.0107 90.0705 12.3402V12.421C88.2225 12.4113 87.1047 13.0477 87.1047 14.3077C87.1047 15.0702 87.6669 15.8004 88.6749 15.8004C89.321 15.8004 89.8444 15.5193 90.1513 15.1316H90.1836L90.2644 15.6873H91.4049C91.3532 15.3804 91.3305 14.9377 91.3305 14.4854L91.3338 12.6762ZM83.0533 12.6536C83.105 12.1367 83.4313 11.4324 84.2164 11.4324C85.0564 11.4324 85.2599 12.1916 85.2502 12.6536H83.0533ZM86.3972 13.5356C86.4198 13.4225 86.4392 13.2384 86.4392 13.0025C86.4392 11.904 85.9158 10.5697 84.2842 10.5697C82.685 10.5697 81.8418 11.875 81.8418 13.2577C81.8418 14.7891 82.7981 15.7971 84.4167 15.7971C85.1339 15.7971 85.7284 15.6517 86.1613 15.4741L85.9739 14.6017C85.5959 14.7471 85.1727 14.8279 84.5912 14.8279C83.7899 14.8279 83.0792 14.4402 83.0501 13.5356H86.3972ZM78.8372 9.75559V10.6828H78.1167V11.6262H78.8307V13.9782C78.8307 14.634 78.9535 15.0864 79.2184 15.3739C79.4575 15.6324 79.8452 15.7939 80.3072 15.7939C80.7045 15.7939 81.0341 15.7293 81.2182 15.6647L81.1956 14.6954C81.0535 14.7374 80.9372 14.7601 80.7045 14.7601C80.2199 14.7601 80.0584 14.437 80.0584 13.8328V11.6262H81.2538V10.6828H80.0584V9.4002L78.8372 9.75559ZM76.1169 13.9233C76.1169 14.0073 76.1039 14.1107 76.0749 14.2044C75.9618 14.5597 75.5902 14.8925 75.0895 14.8925C74.6889 14.8925 74.3722 14.6664 74.3722 14.1721C74.3722 13.4128 75.2252 13.219 76.1169 13.2351V13.9233ZM77.3445 12.6762C77.3445 11.5874 76.8858 10.5697 75.2833 10.5697C74.495 10.5697 73.8489 10.7862 73.4741 11.0124L73.7229 11.833C74.0588 11.6197 74.5758 11.4679 75.0669 11.4679C75.9489 11.4679 76.0813 12.0107 76.0813 12.3402V12.421C74.2333 12.4113 73.1155 13.0477 73.1155 14.3077C73.1155 15.0702 73.6809 15.8004 74.6856 15.8004C75.3318 15.8004 75.8552 15.5193 76.1621 15.1316H76.1944L76.2752 15.6873H77.4156C77.3639 15.3804 77.3445 14.9377 77.3445 14.4854V12.6762ZM70.0818 9.75882V10.6796H69.3613V11.623H70.0785V13.975C70.0785 14.6308 70.2013 15.0831 70.4662 15.3707C70.7021 15.6291 71.093 15.7907 71.555 15.7907C71.9524 15.7907 72.2787 15.726 72.4661 15.6614L72.4435 14.6922C72.3013 14.7342 72.185 14.7568 71.9524 14.7568C71.4678 14.7568 71.3062 14.4337 71.3062 13.8296V11.623H72.5016V10.6796H71.3062V9.39697L70.0818 9.75882ZM67.8752 8.59574C67.4552 8.59574 67.1644 8.89297 67.1644 9.2839C67.1644 9.66513 67.439 9.96236 67.8622 9.96236C68.3016 9.96236 68.5795 9.66513 68.5795 9.2839C68.5698 8.8962 68.3016 8.59574 67.8687 8.59574M68.5084 10.6796H67.2355V15.6776H68.5084V10.6796ZM62.6478 15.4288C63.0161 15.6356 63.5589 15.7939 64.1662 15.7939C65.4909 15.7939 66.2016 15.1251 66.2016 14.2205C66.1887 13.4839 65.7687 13.0251 64.8641 12.6956C64.2276 12.4694 63.9918 12.3144 63.9918 11.9977C63.9918 11.6876 64.2373 11.4744 64.6896 11.4744C65.129 11.4744 65.5296 11.6359 65.7461 11.7651L65.9949 10.867C65.7105 10.7151 65.2259 10.5697 64.6702 10.5697C63.5136 10.5697 62.7835 11.2579 62.7835 12.1399C62.7738 12.7214 63.1841 13.2577 64.1598 13.5937C64.7736 13.8134 64.9772 13.9879 64.9772 14.3271C64.9772 14.6502 64.7284 14.8764 64.1759 14.8764C63.7236 14.8764 63.1809 14.6954 62.8933 14.521L62.6478 15.4288ZM59.3007 15.6776H60.5607V13.093C60.5607 12.9476 60.5833 12.8151 60.6059 12.7053C60.719 12.1367 61.1293 11.7457 61.7367 11.7457C61.8885 11.7457 62.0016 11.7684 62.105 11.7877V10.6021C62.0016 10.5794 61.9305 10.5697 61.8045 10.5697C61.2747 10.5697 60.6899 10.9251 60.4476 11.6359H60.4024L60.3636 10.6828H59.2652C59.2975 11.1351 59.3039 11.6197 59.3039 12.2982L59.3007 15.6776ZM54.9004 12.6504C54.9488 12.1334 55.2784 11.4291 56.0635 11.4291C56.9035 11.4291 57.1038 12.1884 57.0973 12.6504H54.9004ZM58.2442 13.5324C58.2604 13.4193 58.283 13.2351 58.283 12.9993C58.283 11.9008 57.7596 10.5665 56.1281 10.5665C54.5256 10.5665 53.6856 11.8717 53.6856 13.2545C53.6856 14.7859 54.6355 15.7939 56.2573 15.7939C56.9778 15.7939 57.569 15.6485 58.0019 15.4708L57.8178 14.5985C57.4301 14.7439 57.0101 14.8247 56.4285 14.8247C55.6273 14.8247 54.9198 14.437 54.8907 13.5324H58.2442ZM48.3581 10.6796L50.2158 15.6776H51.4596L53.3658 10.6796H52.0315L51.2432 13.2157C51.1075 13.668 50.9944 14.0557 50.9039 14.4661H50.8716C50.7812 14.0557 50.6778 13.6584 50.5356 13.2157L49.7279 10.6796H48.3581ZM46.9301 8.59574C46.5101 8.59574 46.2193 8.89297 46.2193 9.2839C46.2193 9.66513 46.5004 9.96236 46.9204 9.96236C47.363 9.96236 47.6409 9.66513 47.6409 9.2839C47.6312 8.8962 47.363 8.59574 46.9301 8.59574ZM47.5665 10.6796H46.2969V15.6776H47.5665V10.6796ZM40.4265 15.6776H41.6962V12.7441C41.6962 12.5987 41.7092 12.4436 41.7479 12.3305C41.8836 11.9525 42.2325 11.5939 42.7365 11.5939C43.4215 11.5939 43.6864 12.1367 43.6864 12.8539V15.6776H44.9464V12.7117C44.9464 11.1287 44.0482 10.5665 43.1759 10.5665C42.3424 10.5665 41.7996 11.0382 41.5864 11.4291H41.5541L41.4895 10.6796H40.3845C40.4169 11.1125 40.4265 11.5939 40.4265 12.1657V15.6776ZM33.629 8.76374V12.7214C33.629 14.899 34.6693 15.7907 36.2718 15.7907C37.9356 15.7907 39.0309 14.8473 39.0309 12.7117V8.76051H37.7709V12.799C37.7709 14.1559 37.2216 14.7794 36.317 14.7794C35.4609 14.7794 34.8955 14.1527 34.8955 12.799V8.76051L33.629 8.76374Z" fill="#3471B8"/>
</g>
<defs>
<linearGradient id="paint0_linear_1621_44059" x1="29.6731" y1="1.06443" x2="29.6731" y2="26.687" gradientUnits="userSpaceOnUse">
<stop stop-color="#3471B8"/>
<stop offset="0.19" stop-color="#3471B8"/>
<stop offset="0.7" stop-color="#034B77"/>
<stop offset="1" stop-color="#034B77"/>
</linearGradient>
<linearGradient id="paint1_linear_1621_44059" x1="15.8462" y1="24.701" x2="21.1512" y2="4.90253" gradientUnits="userSpaceOnUse">
<stop stop-color="#3471B8"/>
<stop offset="0.46" stop-color="#3471B8"/>
<stop offset="1" stop-color="#034B77"/>
</linearGradient>
<linearGradient id="paint2_linear_1621_44059" x1="4.50207" y1="-0.0907061" x2="11.7791" y2="27.0674" gradientUnits="userSpaceOnUse">
<stop stop-color="#3471B8"/>
<stop offset="0.46" stop-color="#3471B8"/>
<stop offset="1" stop-color="#034B77"/>
</linearGradient>
<clipPath id="clip0_1621_44059">
<rect width="126" height="26.4923" fill="white" transform="translate(0 0.876953)"/>
</clipPath>
</defs>
</svg>
