<svg width="1283" height="388" viewBox="0 0 1283 388" fill="none" xmlns="http://www.w3.org/2000/svg">
<g clip-path="url(#clip0_4094_20074)">
<path d="M1282.49 213.95L1264.91 203.789L1282.02 193.898L1282.17 193.809V173.486L1282.49 173.306L1282.17 173.126V152.806L1264.91 142.827L1282.04 132.933L1282.19 132.843V111.8L1264.14 122.232L1263.98 122.322V142.289L1263.97 142.281V162.965L1247.57 172.442C1247.42 172.288 1247.22 172.178 1247.01 172.123V132.486L1229.43 122.325V102.004L1212.71 92.3444C1212.75 92.2394 1212.76 92.1309 1212.76 92.0216C1212.76 91.9132 1212.75 91.8054 1212.72 91.7013L1229.27 82.1311L1229.43 82.041V62.0873L1246.37 71.8784V112.884L1263.4 103.046C1263.51 103.161 1263.65 103.253 1263.79 103.315C1263.94 103.378 1264.1 103.41 1264.27 103.41C1264.59 103.41 1264.9 103.28 1265.13 103.05C1265.36 102.82 1265.49 102.507 1265.49 102.182C1265.49 101.911 1265.4 101.648 1265.24 101.434C1265.07 101.22 1264.84 101.067 1264.58 100.999V61.7427L1282.03 51.6557L1282.19 51.5656V30.5192L1264.58 40.6962V40.6762L1246.69 51.0171L1228.79 40.6762V61.3655L1211.38 71.4274L1211.22 71.5175V90.8363C1210.96 90.9048 1210.73 91.0579 1210.57 91.2719C1210.4 91.4858 1210.31 91.7486 1210.31 92.0191C1210.31 92.2896 1210.4 92.5523 1210.57 92.7662C1210.73 92.9801 1210.96 93.1333 1211.22 93.2019V112.523L1228.8 122.683V142.643L1211.85 152.445V132.483L1194.27 122.322V121.96L1193.96 122.141L1193.64 121.96V122.321L1176.22 132.392L1176.06 132.482V153.526L1193.08 143.688C1193.2 143.803 1193.33 143.895 1193.48 143.958C1193.63 144.02 1193.79 144.052 1193.95 144.052C1194.12 144.052 1194.28 144.02 1194.43 143.958C1194.58 143.895 1194.71 143.803 1194.83 143.688L1211.22 153.164V194.171L1229.12 183.831L1246.39 193.811L1263.66 203.791L1246.7 213.589L1246.39 213.408V213.769L1246.07 213.95L1246.39 214.131V234.452L1263.97 244.613V263.572C1263.75 263.631 1263.55 263.751 1263.39 263.917C1263.23 264.084 1263.13 264.292 1263.08 264.516C1263.04 264.741 1263.06 264.973 1263.14 265.187C1263.22 265.402 1263.36 265.589 1263.54 265.728C1263.72 265.868 1263.94 265.953 1264.16 265.976C1264.39 265.998 1264.62 265.956 1264.83 265.855C1265.03 265.753 1265.2 265.597 1265.32 265.402C1265.44 265.208 1265.51 264.983 1265.51 264.754C1265.51 264.646 1265.49 264.538 1265.46 264.434L1282.02 254.864L1282.17 254.774V233.73L1264.59 243.891V224.291L1282.49 213.95ZM1264.61 122.683L1281.56 112.884V132.482L1264.61 142.281V122.683ZM1281.55 193.447L1264.59 203.247V183.648L1281.55 173.848V193.447ZM1281.55 172.764L1264.59 162.964V143.365L1281.55 153.165V172.764ZM1264.28 163.506L1281.24 173.306L1273.53 177.758L1264.28 183.106L1247.88 173.626C1247.94 173.417 1247.94 173.194 1247.88 172.985L1264.28 163.506ZM1246.39 153.167V172.12C1246.17 172.174 1245.98 172.284 1245.82 172.439L1237.9 167.863L1229.43 162.963V143.368L1237.9 148.268L1246.39 153.167ZM1247 71.8815L1263.95 62.0823V81.6807L1247 91.4799V71.8815ZM1247 111.8V92.2024L1263.95 82.4032V100.999C1263.69 101.067 1263.46 101.221 1263.3 101.435C1263.13 101.649 1263.04 101.911 1263.04 102.182C1263.04 102.29 1263.06 102.398 1263.09 102.502L1247 111.8ZM1264.61 41.403L1281.56 31.6032V51.2029L1264.61 61.0039V41.403ZM1263.95 61.3567L1247 71.159V51.5613L1263.95 41.7621V61.3567ZM1229.42 41.7589L1246.37 51.5581V71.1559L1229.43 61.3673V60.9989L1229.42 61.0064V41.7589ZM1228.8 62.0792V81.6776L1212.41 91.154C1212.25 91.0001 1212.06 90.8902 1211.85 90.8356V71.8815L1228.8 62.0792ZM1211.85 112.164V93.2044C1212.06 93.1502 1212.25 93.0409 1212.41 92.8879L1228.8 102.366V121.963L1211.85 112.164ZM1246.39 132.847V152.445L1237.91 147.545L1229.43 142.646V123.047L1246.39 132.847ZM1176.69 152.443V132.843L1193.64 123.044V141.642C1193.49 141.681 1193.34 141.751 1193.21 141.849C1193.08 141.946 1192.97 142.068 1192.89 142.208C1192.81 142.349 1192.76 142.504 1192.74 142.664C1192.72 142.825 1192.73 142.988 1192.78 143.144L1176.69 152.443ZM1194.27 141.642V123.044L1211.22 132.844V152.442L1195.13 143.144C1195.18 142.988 1195.19 142.825 1195.17 142.664C1195.15 142.504 1195.1 142.349 1195.02 142.209C1194.94 142.068 1194.83 141.946 1194.7 141.849C1194.57 141.752 1194.42 141.681 1194.27 141.642ZM1211.85 153.167L1228.8 143.368V162.965L1211.85 172.765V153.167ZM1211.85 173.488L1228.8 163.69V183.287L1211.85 193.089V173.488ZM1229.43 183.286V163.69L1237.91 168.589L1245.52 172.988C1245.47 173.144 1245.46 173.307 1245.48 173.467C1245.5 173.628 1245.55 173.784 1245.63 173.924C1245.71 174.064 1245.82 174.186 1245.95 174.284C1246.08 174.381 1246.23 174.451 1246.39 174.489V193.089L1229.43 183.286ZM1247.01 174.489C1247.22 174.434 1247.42 174.324 1247.57 174.17L1263.97 183.648V203.247L1247.01 193.447V174.489ZM1263.97 204.33L1264.28 204.149L1264.59 204.33L1281.24 213.95L1264.28 223.75L1247.32 213.95L1263.97 204.33ZM1247.01 214.492L1263.97 224.291V243.89L1247.01 234.091V214.492ZM1281.55 234.813V254.412L1265.15 263.89C1265 263.736 1264.8 263.626 1264.59 263.572V244.613L1281.55 234.813ZM1177.6 112.342C1177.6 112.234 1177.58 112.126 1177.55 112.022L1194.11 102.452L1194.27 102.362V61.7427L1210.57 52.3219C1210.68 52.482 1210.83 52.6125 1211 52.7025C1211.18 52.7925 1211.37 52.8394 1211.57 52.8392C1211.73 52.8392 1211.89 52.8074 1212.04 52.7457C1212.19 52.6839 1212.32 52.5934 1212.43 52.4793C1212.55 52.3652 1212.64 52.2298 1212.7 52.0808C1212.76 51.9317 1212.79 51.772 1212.79 51.6107C1212.79 51.3402 1212.7 51.0775 1212.54 50.8636C1212.37 50.6497 1212.14 50.4967 1211.88 50.4285V30.5192L1194.3 40.6806V20.7194L1176.09 10.1996V31.2435L1193.34 41.2141L1176.37 51.019L1159.97 41.54C1160 41.4358 1160.02 41.3281 1160.02 41.2198C1160.02 41.0586 1159.99 40.8989 1159.93 40.75C1159.86 40.6011 1159.77 40.4657 1159.66 40.3518C1159.55 40.2378 1159.41 40.1474 1159.26 40.0858C1159.11 40.0241 1158.95 39.9924 1158.79 39.9925C1158.63 39.9924 1158.47 40.0241 1158.32 40.0857C1158.17 40.1474 1158.04 40.2378 1157.92 40.3517C1157.81 40.4657 1157.72 40.601 1157.66 40.75C1157.6 40.8989 1157.57 41.0585 1157.57 41.2198C1157.57 41.4905 1157.66 41.7537 1157.82 41.9679C1157.99 42.1822 1158.22 42.3355 1158.48 42.4038V60.9989V81.682L1141.21 91.6613L1124.26 81.8615L1141.37 71.971L1141.52 71.8809V51.5588L1141.83 51.3786L1141.52 51.1978V31.2373L1158.95 21.1666L1159.1 21.0765V0.0332031L1141.05 10.4648L1140.9 10.5549V30.5148L1123.94 20.715V20.3541L1123.63 20.5348L1105.74 10.1902V29.8712C1105.52 29.9261 1105.33 30.0361 1105.18 30.1902L1088.78 20.7144V0.0363337L1071.2 10.1977V10.1933L1053.14 20.6274L1052.99 20.7169V40.6762L1036.03 30.877V30.5154L1035.72 30.6962L1035.41 30.5154V30.877L1018.14 40.8563L1000.24 30.5154V51.1972L983.29 60.9964V41.0352L965.084 30.5136L947.502 20.3522V41.0359L931.107 50.5135C930.993 50.3982 930.858 50.3067 930.708 50.2443C930.559 50.1819 930.398 50.1499 930.236 50.1501C930.075 50.1501 929.916 50.1819 929.767 50.2436C929.618 50.3053 929.483 50.3957 929.369 50.5098C929.255 50.6238 929.165 50.7591 929.103 50.9081C929.041 51.0571 929.01 51.2167 929.01 51.378C929.01 51.5392 929.041 51.6989 929.103 51.8479C929.165 51.9969 929.255 52.1322 929.369 52.2462C929.483 52.3602 929.618 52.4507 929.767 52.5124C929.916 52.5741 930.075 52.6059 930.236 52.6059C930.398 52.606 930.559 52.5738 930.708 52.5113C930.858 52.4488 930.993 52.3572 931.107 52.2418L947.505 61.7189V82.4025L965.556 71.9703L965.712 71.8803V51.9191L982.668 61.7189V82.4L999.691 72.5621C999.845 72.7163 1000.04 72.8264 1000.25 72.8811V92.1999L1018.46 102.722V82.4007L1036.04 92.5608V71.5175L1018.77 61.5381L1035.72 51.7395L1053.62 62.0817V41.3986L1070.57 31.5994V71.5218L1053.15 81.5925L1052.99 81.6826V102.727L1070.02 92.8885C1070.13 93.0039 1070.27 93.0955 1070.42 93.158C1070.56 93.2205 1070.72 93.2526 1070.89 93.2526C1071.05 93.2527 1071.21 93.221 1071.36 93.1593C1071.51 93.0976 1071.64 93.0072 1071.75 92.8932C1071.87 92.7792 1071.96 92.6438 1072.02 92.4948C1072.08 92.3457 1072.11 92.186 1072.11 92.0247C1072.11 91.7541 1072.02 91.4912 1071.86 91.2773C1071.69 91.0633 1071.46 90.9102 1071.2 90.8419V71.8821L1088.62 61.8115L1088.78 61.722V41.7614L1105.74 51.5606V70.5198C1105.48 70.5881 1105.25 70.7412 1105.08 70.9551C1104.91 71.1689 1104.82 71.4315 1104.82 71.702C1104.82 71.8104 1104.84 71.9181 1104.87 72.0222L1088.31 81.5925L1088.16 81.6826V102.726L1106.05 92.3819L1123.63 102.544L1141.21 92.3819L1158.79 102.544L1176.06 92.5639V111.16C1175.8 111.228 1175.57 111.381 1175.4 111.595C1175.24 111.809 1175.15 112.072 1175.15 112.342C1175.15 112.504 1175.18 112.663 1175.24 112.812C1175.3 112.961 1175.39 113.097 1175.51 113.211C1175.62 113.324 1175.76 113.415 1175.9 113.476C1176.05 113.538 1176.21 113.57 1176.37 113.57C1176.53 113.57 1176.69 113.538 1176.84 113.476C1176.99 113.415 1177.13 113.324 1177.24 113.21C1177.35 113.097 1177.45 112.961 1177.51 112.812C1177.57 112.663 1177.6 112.504 1177.6 112.342ZM1193.64 102.001L1177.24 111.478C1177.09 111.324 1176.9 111.214 1176.69 111.16V92.203L1177 92.0222L1193.64 82.4032L1193.64 102.001ZM1159.1 62.0817L1176.06 71.8815V91.4805L1159.1 81.6807V62.0817ZM1176.69 71.8815L1193.64 62.0823V81.6807L1176.69 91.4799V71.8815ZM1193.64 61.3598L1176.69 71.159V51.5613L1193.64 41.7621V61.3598ZM1211.25 31.6044V50.4285C1210.99 50.497 1210.76 50.6501 1210.59 50.8639C1210.43 51.0778 1210.34 51.3403 1210.34 51.6107C1210.34 51.6501 1210.34 51.6876 1210.35 51.7258L1194.29 61.0039V41.403L1211.25 31.6044ZM1176.71 11.283L1193.67 21.0828V40.6818L1176.71 30.882V11.283ZM1159.1 42.4038C1159.32 42.3492 1159.51 42.2393 1159.66 42.0855L1176.06 51.5613V71.1578L1159.1 61.3567V42.4038ZM1123.63 61.1778L1106.67 51.3786L1114.38 46.9263L1123.63 41.5788L1140.59 51.3786L1132.88 55.8304L1123.63 61.1778ZM1106.36 32.2393C1106.57 32.1847 1106.76 32.0748 1106.92 31.921L1123.01 41.2154L1106.36 50.8344L1106.36 32.2393ZM1123.32 40.6756L1107.23 31.3768C1107.26 31.2726 1107.27 31.1649 1107.28 31.0565C1107.27 30.9483 1107.26 30.8409 1107.23 30.7369L1123.32 21.4375V40.6756ZM1123.32 61.7201V81.3198L1107.23 72.0204C1107.26 71.9165 1107.27 71.8089 1107.27 71.7007C1107.27 71.4303 1107.18 71.1677 1107.02 70.9538C1106.85 70.7399 1106.62 70.5869 1106.36 70.5185V51.9203L1123.32 61.7201ZM1106.36 72.8836C1106.57 72.8291 1106.76 72.7189 1106.92 72.5646L1123.01 81.8615L1106.36 91.4805V72.8836ZM1140.9 71.5193L1123.94 81.3198V61.7201L1140.9 51.9203L1140.9 71.5193ZM1141.52 10.9164L1158.48 1.12034V20.7187L1141.52 30.5148V10.9164ZM1140.9 31.2373V50.8363L1123.94 41.0365V21.4375L1140.9 31.2373ZM1123.01 20.8958L1106.92 30.1927C1106.77 30.0383 1106.57 29.9282 1106.36 29.8737V11.2761L1123.01 20.8958ZM1088.15 1.12034V20.7144L1071.2 30.5192V10.9252L1088.15 1.12034ZM1035.41 31.5969V51.1947L1018.45 60.9939V41.3961L1035.41 31.5969ZM1000.87 31.5969L1017.83 41.3961V60.9939L1009.35 56.0943L1000.87 51.1947V31.5969ZM1017.83 81.3142L1009.35 76.4146L1001.74 72.016C1001.77 71.9118 1001.78 71.8041 1001.79 71.6957C1001.79 71.4252 1001.69 71.1625 1001.53 70.9486C1001.36 70.7348 1001.13 70.5818 1000.87 70.5135V51.9172L1009.35 56.8168L1017.83 61.7164V81.3142ZM982.665 60.9964L965.709 51.1966V31.5976L982.665 41.3974V60.9964ZM948.127 21.4362L965.084 31.2367V50.8357L948.127 41.0359V21.4362ZM931.412 51.0571L947.815 41.5782L964.771 51.378L957.068 55.8297L947.815 61.1778L931.412 51.6983C931.442 51.5941 931.458 51.4864 931.46 51.378C931.458 51.2694 931.442 51.1615 931.412 51.0571ZM965.084 71.5187L948.127 81.3192V61.7195L965.084 51.9197V71.5187ZM983.29 81.3167V61.7189L1000.25 51.9197V70.516C999.985 70.5844 999.753 70.7375 999.588 70.9514C999.423 71.1652 999.333 71.4278 999.332 71.6982C999.334 71.8066 999.35 71.9144 999.38 72.0185L983.29 81.3167ZM1017.83 101.639L1000.87 91.8402V72.8811C1001.08 72.8268 1001.28 72.7169 1001.43 72.5627L1009.35 77.1395L1017.83 82.0391V101.639ZM1035.41 91.4793L1018.45 81.6795V62.0798L1035.41 71.879V91.4793ZM1052.99 61.0002L1036.03 51.2004V31.6013L1052.99 41.4011V61.0002ZM1053.62 40.6781V21.0803L1070.57 11.2811V30.8789L1053.62 40.6781ZM1088.15 21.4456V41.039L1071.2 50.8382V31.2448L1088.15 21.4456ZM1053.62 101.644V82.0441L1070.57 72.2443V90.8419C1070.31 90.9103 1070.08 91.0635 1069.91 91.2775C1069.75 91.4915 1069.66 91.7542 1069.66 92.0247C1069.66 92.1331 1069.68 92.2408 1069.71 92.345L1053.62 101.644ZM1088.15 61.3611L1071.2 71.1597V51.56L1088.15 41.7602V61.3611ZM1088.78 21.4412L1104.87 30.7394C1104.84 30.8432 1104.82 30.9504 1104.82 31.0584C1104.82 31.3289 1104.91 31.5917 1105.08 31.8057C1105.24 32.0197 1105.47 32.1728 1105.74 32.2412V50.8382L1088.78 41.039V21.4412ZM1088.78 82.0441L1105.18 72.5671C1105.33 72.7209 1105.52 72.8308 1105.74 72.8854V91.8427L1088.78 101.639V82.0441ZM1123.63 101.822L1106.67 92.0222L1123.32 82.4032L1123.63 82.223L1123.94 82.4032L1140.59 92.0222L1123.63 101.822ZM1141.83 92.0222L1158.79 82.2224L1175.75 92.0222L1158.79 101.822L1141.83 92.0222Z" fill="url(#paint0_linear_4094_20074)"/>
</g>
<g clip-path="url(#clip1_4094_20074)">
<path d="M253.765 354.917V335.094L235.069 324.299V345.519L217.654 355.574V334.724L199.276 345.334L181.539 335.095V315.643C181.808 315.573 182.045 315.416 182.215 315.196C182.385 314.977 182.478 314.707 182.478 314.429C182.477 314.318 182.46 314.208 182.43 314.101L199.437 304.281L199.597 304.19V282.599L181.22 293.209L163.162 282.783L145.105 293.208L127.368 282.968V262.49L145.747 251.88L127.368 241.269V220.047L108.829 230.751L108.669 230.843V251.323L92.1435 241.783C92.1739 241.676 92.1901 241.566 92.1916 241.455C92.1913 241.177 92.0991 240.907 91.9293 240.688C91.7596 240.468 91.5219 240.311 91.2534 240.241V199.937L109.15 189.604L109.31 189.512V167.922L90.772 178.625L90.6116 178.717V199.569L72.8752 209.809L55.4579 199.754L73.0357 189.605L73.1961 189.513V167.922L54.6575 178.625L54.4971 178.717V220.048L37.9718 210.508C38.0028 210.401 38.0192 210.29 38.0206 210.179C38.0199 209.901 37.9271 209.631 37.7566 209.412C37.5861 209.192 37.3476 209.035 37.0785 208.966V189.144L19.3421 178.904L36.7576 168.85L37.0785 169.035V168.662L37.3993 168.477L37.0785 168.291V147.442L19.912 137.531C19.9427 137.424 19.9591 137.314 19.9608 137.203C19.9608 137.037 19.9282 136.873 19.8649 136.721C19.8016 136.568 19.7088 136.429 19.5918 136.312C19.4748 136.195 19.3359 136.102 19.183 136.039C19.0302 135.976 18.8664 135.943 18.701 135.943C18.5356 135.943 18.3717 135.976 18.2189 136.039C18.0661 136.102 17.9272 136.195 17.8102 136.312C17.6932 136.429 17.6004 136.568 17.5371 136.721C17.4737 136.873 17.4412 137.037 17.4412 137.203C17.4415 137.48 17.5339 137.75 17.7037 137.969C17.8736 138.189 18.1115 138.346 18.3801 138.416V157.868L0.00195312 168.479L18.0592 178.904L0.483291 189.052L0.322845 189.144V209.992L0.00195312 210.177L0.322845 210.363V231.214L18.0515 241.449L0.466604 251.601L0.306158 251.693V273.283L18.8454 262.581L19.0058 262.488V242.005L19.0199 242.012V220.791L35.8616 211.067C36.0202 211.225 36.2181 211.337 36.4347 211.393V231.216L54.1717 241.455L36.5952 251.601L36.4347 251.694V272.552L19.6078 282.268C19.4909 282.149 19.3515 282.055 19.198 281.991C19.0444 281.927 18.8796 281.894 18.7132 281.894C18.379 281.894 18.0586 282.027 17.8223 282.263C17.5861 282.499 17.4534 282.82 17.4534 283.154C17.4539 283.431 17.5464 283.701 17.7162 283.92C17.886 284.14 18.1238 284.297 18.3923 284.367V324.645L0.466604 334.995L0.306158 335.087V356.679L0.335047 356.662V377.159L18.3923 387.584V387.955L18.7132 387.769L19.0341 387.954V387.584L36.9309 377.252L37.0913 377.159V355.568L19.6072 365.663C19.4903 365.545 19.351 365.451 19.1976 365.387C19.0441 365.323 18.8794 365.29 18.7132 365.29C18.5469 365.29 18.3822 365.323 18.2288 365.387C18.0753 365.451 17.9361 365.545 17.8192 365.663L1.28296 356.116L18.3923 346.239V346.259L36.7698 335.649L55.1485 346.259V325.031L73.0312 314.707L73.1916 314.615V294.793C73.4602 294.723 73.6979 294.566 73.8677 294.346C74.0375 294.127 74.13 293.857 74.1306 293.58C74.1306 293.414 74.098 293.25 74.0347 293.097C73.9714 292.945 73.8786 292.806 73.7616 292.689C73.6446 292.572 73.5057 292.479 73.3529 292.416C73.2 292.352 73.0362 292.32 72.8708 292.32C72.7053 292.32 72.5415 292.352 72.3886 292.416C72.2358 292.479 72.0969 292.572 71.9799 292.689C71.8629 292.806 71.7701 292.945 71.7068 293.097C71.6435 293.25 71.6109 293.414 71.6109 293.58C71.6123 293.691 71.6287 293.801 71.6597 293.908L54.6524 303.728L54.492 303.82V324.293L37.0907 314.247V272.905L54.8129 262.675L73.191 273.284V252.065L90.0333 242.341C90.1917 242.499 90.3896 242.612 90.6064 242.668V262.49L107.774 272.402C107.742 272.509 107.726 272.619 107.725 272.731C107.726 272.842 107.743 272.952 107.774 273.059L90.7662 282.878L90.6058 282.97V324.646L73.8655 334.312C73.7493 334.148 73.5953 334.015 73.4166 333.922C73.2379 333.83 73.0397 333.782 72.8387 333.782C72.6732 333.782 72.5093 333.815 72.3564 333.878C72.2035 333.941 72.0646 334.034 71.9476 334.151C71.8306 334.268 71.7378 334.407 71.6746 334.56C71.6113 334.713 71.5788 334.877 71.5788 335.042C71.5795 335.32 71.6719 335.589 71.8418 335.808C72.0116 336.028 72.2493 336.185 72.5178 336.255V356.68L90.575 346.255V366.735L109.273 377.531V355.939L91.555 345.709L108.981 335.649L125.828 345.374C125.797 345.481 125.78 345.592 125.779 345.703C125.779 346.038 125.912 346.358 126.148 346.594C126.384 346.83 126.704 346.963 127.039 346.963C127.373 346.963 127.693 346.83 127.929 346.594C128.166 346.358 128.298 346.038 128.298 345.703C128.298 345.426 128.206 345.156 128.036 344.937C127.866 344.717 127.628 344.56 127.359 344.49V304.19L145.096 293.949L162.511 304.004L144.941 314.154L144.78 314.246V335.095L144.459 335.28L144.78 335.466V355.946L126.883 366.279L126.723 366.371V387.959L145.261 377.256L145.422 377.164V356.688L162.837 366.742V367.113L163.158 366.927L181.536 377.538V357.346C181.754 357.291 181.954 357.177 182.113 357.018L198.955 366.741V387.957L217.012 377.532V377.537L235.55 366.833L235.711 366.742V346.262L252.237 355.803C252.206 355.91 252.189 356.021 252.188 356.132C252.188 356.467 252.32 356.787 252.557 357.023C252.793 357.259 253.113 357.392 253.448 357.392C253.613 357.392 253.777 357.36 253.93 357.296C254.083 357.233 254.222 357.14 254.339 357.023C254.456 356.906 254.549 356.767 254.612 356.614C254.675 356.461 254.708 356.297 254.707 356.131C254.707 355.853 254.614 355.583 254.443 355.363C254.272 355.144 254.034 354.987 253.765 354.917ZM55.1357 179.088L72.5511 169.033V189.142L55.1357 199.197V179.088ZM18.3653 262.12L0.949235 272.174V252.066L18.3653 242.012V262.12ZM36.4508 356.68V376.792L19.0353 386.847V367.763C19.3038 367.693 19.5415 367.536 19.7113 367.316C19.8812 367.097 19.9736 366.827 19.9743 366.55C19.9725 366.439 19.9562 366.328 19.9255 366.221L36.4508 356.68ZM18.3936 367.763V386.844L0.978104 376.792V356.681L17.504 366.222C17.4736 366.329 17.4574 366.439 17.4559 366.55C17.4565 366.827 17.5488 367.097 17.7184 367.316C17.888 367.536 18.1253 367.693 18.3936 367.763ZM217.009 355.94L199.594 365.995V345.89L217.009 335.836V355.94ZM180.894 354.917C180.677 354.974 180.479 355.086 180.321 355.244L163.8 345.705L180.894 335.836V354.917ZM163.479 324.67V304.561L180.004 314.101C179.973 314.208 179.957 314.318 179.956 314.429C179.956 314.707 180.048 314.976 180.218 315.196C180.388 315.415 180.625 315.572 180.894 315.642V334.724L163.479 324.67ZM180.894 313.216C180.677 313.272 180.479 313.385 180.321 313.543L163.8 304.004L180.894 294.135V313.216ZM163.158 325.225L180.573 335.28L172.662 339.848L163.158 345.335L145.743 335.28L153.654 330.713L163.158 325.225ZM163.478 346.261L180.004 355.806C179.973 355.912 179.956 356.023 179.955 356.134C179.956 356.245 179.973 356.355 180.004 356.462L163.478 366.003V346.261ZM198.951 303.819L182.109 313.542C181.95 313.384 181.752 313.272 181.535 313.216V293.766L198.951 283.711V303.819ZM109.306 271.517V252.435L126.723 262.49V282.599L110.198 273.059C110.228 272.952 110.245 272.842 110.246 272.731C110.246 272.453 110.154 272.184 109.984 271.964C109.814 271.744 109.576 271.587 109.307 271.517H109.306ZM109.306 273.944C109.523 273.888 109.721 273.775 109.88 273.617L126.4 283.154L109.306 293.023V273.944ZM127.044 261.934L109.628 251.879L118.169 246.948L127.044 241.825L144.459 251.88L127.044 261.934ZM109.306 231.214L126.723 221.159V241.269L109.307 251.323L109.306 231.214ZM91.2495 179.088L108.664 169.033V189.142L91.2495 199.197V179.088ZM90.6077 220.419L84.91 223.709L73.1923 230.474V210.365L90.6077 200.31V220.419ZM72.5511 251.323L63.8434 246.296L55.1357 241.269V221.159L63.8434 226.187L72.5511 231.214V251.323ZM55.1357 200.311L72.5511 210.365V230.474L63.8409 225.447L55.1331 220.419L55.1357 200.311ZM36.4367 208.966C36.2202 209.022 36.0226 209.134 35.8642 209.292L19.0219 199.568V179.46L36.4367 189.515V208.966ZM36.4367 147.813V167.923L19.0219 157.868V138.416C19.2386 138.36 19.4365 138.248 19.595 138.089L36.4367 147.813ZM18.7003 158.422L36.1158 168.479L19.0219 178.349L18.701 178.533L18.3801 178.349L1.28552 168.479L18.7003 158.422ZM0.964629 189.514L18.3801 179.459V199.568L0.964629 209.623V189.514ZM0.964629 210.735L18.3801 220.79V240.901L0.964629 230.846V210.735ZM18.701 220.233L1.28552 210.178L9.19679 205.61L18.7003 200.124L35.5472 209.85C35.5161 209.957 35.4997 210.067 35.4984 210.179C35.4998 210.29 35.5162 210.4 35.5472 210.506L18.701 220.233ZM37.0785 211.391C37.2956 211.336 37.4937 211.223 37.6522 211.065L54.4945 220.789V240.897L37.0785 230.845V211.391ZM37.0785 252.063L54.4945 242.008V262.118L37.0785 272.172V252.063ZM19.036 284.367C19.3044 284.296 19.5421 284.139 19.7119 283.92C19.8817 283.7 19.9742 283.431 19.9749 283.153C19.9735 283.042 19.9571 282.932 19.9261 282.825L36.4514 273.284V293.392L19.036 303.447V284.367ZM36.4514 314.242L19.036 324.296V304.19L36.4514 294.136V314.242ZM18.366 345.511L0.949861 355.566V335.461L18.366 325.406V345.511ZM19.036 325.039L36.4508 314.988V335.096L19.0353 345.15L19.036 325.039ZM55.1363 304.19L71.9787 294.466C72.1373 294.624 72.3351 294.737 72.5518 294.793V314.244L55.1363 324.298V304.19ZM54.5087 325.401V345.146L37.0932 335.092V314.988L54.4945 325.035V325.413L54.5087 325.401ZM72.5518 272.172L55.1363 262.117V242.01L63.8441 247.037L72.5518 252.065V272.172ZM73.1936 251.323V231.216L83.1451 225.47L90.609 221.161V240.241C90.3404 240.311 90.1026 240.468 89.9327 240.688C89.7628 240.907 89.6705 241.177 89.6701 241.455C89.6715 241.566 89.6879 241.676 89.7189 241.783L73.1936 251.323ZM91.2508 262.119V242.668C91.4674 242.612 91.6653 242.499 91.8239 242.342L108.666 252.065V271.517C108.449 271.573 108.252 271.686 108.093 271.844L91.2508 262.119ZM91.2508 283.34L108.092 273.616C108.251 273.774 108.449 273.887 108.666 273.943V293.393L108.345 293.578L91.2495 303.448L91.2508 283.34ZM91.2508 325.039L108.665 314.988V335.096L91.2502 345.15L91.2508 325.039ZM108.666 314.243L91.2508 324.297V304.19L108.666 294.136V314.243ZM73.1653 355.568V336.255C73.4338 336.185 73.6715 336.028 73.8413 335.808C74.0112 335.589 74.1036 335.32 74.1043 335.042C74.1043 335.002 74.0959 334.964 74.0921 334.924L90.5808 325.404V345.513L73.1653 355.568ZM108.637 376.419L91.2226 366.364V346.255L108.637 356.31V376.419ZM126.723 344.489C126.507 344.545 126.309 344.657 126.15 344.816L109.307 335.092V314.988L126.723 325.043V344.489ZM109.307 314.243V294.135L126.723 304.19V324.298L109.307 314.243ZM127.045 303.633L109.628 293.578L127.043 283.524L127.364 283.71L144.459 293.58L127.045 303.633ZM163.159 283.523L180.574 293.578L163.48 303.448L163.159 303.633L162.838 303.448L145.743 293.578L163.159 283.523ZM145.423 314.615L162.838 304.56V324.669L145.423 334.724V314.615ZM144.781 376.795L127.365 386.849V366.742L144.781 356.688V376.795ZM145.423 355.945V335.836L162.838 345.891V366L145.423 355.945ZM163.801 366.556L180.321 357.017C180.48 357.175 180.678 357.288 180.895 357.344V376.425L163.801 366.556ZM181.536 354.917V335.836L198.952 345.89V365.999L182.427 356.458C182.458 356.352 182.474 356.242 182.476 356.131C182.475 355.853 182.383 355.584 182.213 355.364C182.042 355.145 181.804 354.988 181.536 354.917L181.536 354.917ZM199.594 386.843V366.74L217.01 356.685V376.792L199.594 386.843ZM235.066 366.37L217.651 376.424V356.315L235.066 346.261V366.37ZM235.708 345.52V325.41L253.123 335.465V354.917C252.907 354.973 252.709 355.086 252.551 355.244L235.708 345.52Z" fill="url(#paint1_linear_4094_20074)"/>
</g>
<defs>
<linearGradient id="paint0_linear_4094_20074" x1="890.688" y1="425.947" x2="1210.79" y2="-35.5184" gradientUnits="userSpaceOnUse">
<stop stop-color="#C9C9C9"/>
<stop offset="0.141" stop-color="#C3C8CD"/>
<stop offset="0.382" stop-color="#E4E6E6"/>
<stop offset="0.571" stop-color="#E4E4E4"/>
<stop offset="0.748" stop-color="#EDEDED"/>
<stop offset="0.928" stop-color="#D8D8D8"/>
<stop offset="0.976" stop-color="#D0D0D0"/>
</linearGradient>
<linearGradient id="paint1_linear_4094_20074" x1="86.4419" y1="441.849" x2="414.752" y2="-31.9356" gradientUnits="userSpaceOnUse">
<stop stop-color="#C8CACC"/>
<stop offset="0.141" stop-color="#D5D6D7"/>
<stop offset="0.382" stop-color="#E4E6E6"/>
<stop offset="0.571" stop-color="#EAEBEB"/>
<stop offset="0.748" stop-color="#EEEFEF"/>
<stop offset="0.928" stop-color="#FAFBFB"/>
<stop offset="0.976" stop-color="white"/>
</linearGradient>
<clipPath id="clip0_4094_20074">
<rect width="353.679" height="260.605" fill="white" transform="translate(929)"/>
</clipPath>
<clipPath id="clip1_4094_20074">
<rect width="254.788" height="252.221" fill="white" transform="translate(0 135.779)"/>
</clipPath>
</defs>
</svg>
