<svg width="106" height="52" viewBox="0 0 106 52" fill="none" xmlns="http://www.w3.org/2000/svg">
<path d="M9.39577 14.9192L3.63283 5.52217H3.57288L3.65281 14.9192H0.297119V0.550584H4.24003L9.98145 9.92592H10.0429L9.96146 0.550584H13.3172V14.9192H9.39577Z" fill="#F78E2E"/>
<path d="M22.7168 8.83039V14.9192H19.2597V8.83039L13.8826 0.550584H18.0668L21.1197 5.87397L24.1725 0.550584H28.2169L22.7168 8.83039Z" fill="#F78E2E"/>
<path d="M37.579 14.6708C36.5663 15.1149 35.4697 15.3333 34.3648 15.3111C33.3185 15.3216 32.2795 15.1358 31.3011 14.7633C30.3906 14.4191 29.5606 13.8899 28.8631 13.2089C28.1655 12.5279 27.6156 11.7097 27.2476 10.8056C26.8477 9.82678 26.648 8.7773 26.6604 7.71951C26.6456 6.64761 26.8485 5.58394 27.2568 4.59337C27.6331 3.69096 28.1953 2.87856 28.9062 2.20941C29.617 1.54533 30.4533 1.03113 31.3657 0.697263C33.3163 -0.00967699 35.4523 -0.00640017 37.4008 0.706521C38.3122 1.02206 39.1296 1.56339 39.7773 2.2804L37.4377 4.63194C37.1153 4.18582 36.6734 3.8407 36.1633 3.6367C35.6506 3.42318 35.1012 3.31307 34.5462 3.31267C33.9755 3.30655 33.41 3.42062 32.886 3.64751C32.3926 3.8626 31.9487 4.1778 31.5824 4.57331C31.2113 4.97591 30.9225 5.44774 30.7323 5.96202C30.5242 6.52366 30.4201 7.11874 30.4249 7.71797C30.4195 8.32678 30.5237 8.93157 30.7323 9.50323C30.919 10.0168 31.2041 10.4886 31.5717 10.8919C31.9315 11.2801 32.3689 11.5877 32.8552 11.7946C33.3725 12.0159 33.9301 12.1266 34.4923 12.1202C35.1164 12.1346 35.7345 11.9952 36.2924 11.7144C36.7791 11.4642 37.2004 11.1028 37.5222 10.6589L39.9294 12.9319C39.28 13.6748 38.4782 14.2679 37.579 14.6708Z" fill="#F78E2E"/>
<path d="M9.33428 33.1853V27.1768H3.75427V33.1853H0.297119V18.8152H3.75427V24.2544H9.33428V18.8152H12.7915V33.1853H9.33428Z" fill="#1D4189"/>
<path d="M14.8816 33.1853V18.8152H24.5044V21.7376H18.2173V24.4565H24.1616V27.2339H18.2173V30.2165H24.8688V33.1853H14.8816Z" fill="#1D4189"/>
<path d="M37.1046 33.1853L35.9932 30.3631H30.4593L29.4018 33.1853H25.6402L31.6461 18.8167H35.0018L40.9461 33.1853H37.1046ZM33.2617 22.6526L31.4417 27.5902H35.0371L33.2617 22.6526Z" fill="#1D4189"/>
<path d="M41.6719 33.1853V18.8152H45.149V30.1594H50.6829V33.1853H41.6719Z" fill="#1D4189"/>
<path d="M56.6801 21.7777V33.1853H53.2213V21.7777H49.1801V18.8152H60.7244V21.7777H56.6801Z" fill="#1D4189"/>
<path d="M71.2477 33.1853V27.1768H65.6676V33.1853H62.2106V18.8152H65.6676V24.2544H71.2477V18.8152H74.7048V33.1853H71.2477Z" fill="#1D4189"/>
<path d="M9.33428 51.4494V45.4424H3.75427V51.4494H0.297119V37.0808H3.75427V42.5199H9.33428V37.0808H12.7915V51.4494H9.33428Z" fill="#1D4189"/>
<path d="M29.7345 44.2032C29.7476 45.2705 29.5486 46.3296 29.1488 47.3185C28.7778 48.2275 28.2236 49.0497 27.521 49.7334C26.8092 50.4136 25.9672 50.9417 25.0461 51.2856C24.05 51.6579 22.9944 51.8436 21.9317 51.8334C20.8724 51.8444 19.8202 51.6587 18.8281 51.2856C17.9124 50.9399 17.0758 50.4119 16.3685 49.7334C15.6622 49.0512 15.1052 48.2288 14.733 47.3185C14.3328 46.3297 14.1331 45.2706 14.1458 44.2032C14.1306 43.1357 14.3303 42.0761 14.733 41.0878C15.1017 40.1921 15.6567 39.3856 16.3609 38.7224C17.0727 38.0623 17.909 37.5518 18.8205 37.2211C19.8155 36.8615 20.8665 36.6828 21.924 36.6934C22.9876 36.6825 24.0446 36.8612 25.0461 37.2211C25.9634 37.5498 26.8055 38.0604 27.5225 38.7224C28.2257 39.3865 28.7805 40.1927 29.1504 41.0878C29.552 42.0763 29.7507 43.1359 29.7345 44.2032ZM26.0344 44.2032C26.0384 43.6075 25.9342 43.0162 25.727 42.4581C25.5419 41.9441 25.2572 41.4722 24.8892 41.0693C24.5252 40.6785 24.0845 40.3676 23.5949 40.1559C23.0695 39.9282 22.5024 39.8136 21.9301 39.8196C21.3788 39.8106 20.8316 39.9169 20.3235 40.1319C19.8154 40.3468 19.3574 40.6655 18.9788 41.0678C18.6056 41.4669 18.3197 41.94 18.1395 42.4566C17.9405 43.0165 17.8412 43.6072 17.8459 44.2016C17.8412 44.8139 17.9454 45.4222 18.1533 45.9978C18.3395 46.518 18.6245 46.9968 18.9926 47.408C19.3521 47.8023 19.7892 48.1175 20.2761 48.3338C20.8014 48.5549 21.3653 48.6688 21.9348 48.6688C22.5043 48.6688 23.0681 48.5549 23.5934 48.3338C24.0823 48.1161 24.522 47.8011 24.8861 47.408C25.2602 46.9997 25.5488 46.5201 25.7347 45.9978C25.9405 45.4224 26.0421 44.8145 26.0344 44.2032Z" fill="#1D4189"/>
<path d="M38.65 40.8152C38.3403 40.4249 37.9417 40.1148 37.488 39.911C37.0568 39.6989 36.5845 39.5846 36.1045 39.5762C35.8705 39.5766 35.6371 39.5968 35.4065 39.6364C35.1813 39.6727 34.9653 39.7524 34.7702 39.8709C34.582 39.9839 34.42 40.1359 34.2952 40.3168C34.1602 40.5247 34.093 40.7695 34.103 41.0174C34.0959 41.2311 34.1492 41.4424 34.2568 41.6269C34.3704 41.801 34.5225 41.9467 34.701 42.0527C34.9221 42.1861 35.1552 42.2983 35.3973 42.3875C35.6679 42.4894 35.9707 42.5928 36.3073 42.6962C36.7931 42.8577 37.2989 43.0367 37.8245 43.2332C38.3383 43.4228 38.822 43.6863 39.2603 44.0154C39.6949 44.3424 40.0606 44.7524 40.3364 45.2221C40.6362 45.7716 40.7828 46.392 40.7606 47.0181C40.7773 47.7581 40.6193 48.4914 40.2995 49.1583C40.0097 49.7443 39.5888 50.255 39.0697 50.6504C38.5437 51.0503 37.947 51.3467 37.3111 51.5238C36.6473 51.7137 35.9601 51.8093 35.2698 51.8077C34.2547 51.8092 33.2477 51.6274 32.2969 51.2707C31.3965 50.9475 30.5807 50.4237 29.9111 49.7385L32.1769 47.424C32.5567 47.8782 33.0283 48.2463 33.5604 48.5041C34.0879 48.7827 34.6737 48.9317 35.2698 48.9392C35.5214 48.9399 35.7724 48.913 36.0184 48.859C36.2446 48.8117 36.46 48.7222 36.6532 48.5951C36.837 48.4722 36.9868 48.3044 37.0883 48.1075C37.202 47.881 37.2579 47.6297 37.2512 47.3761C37.2585 47.1309 37.1874 46.8897 37.0483 46.688C36.8924 46.4789 36.6971 46.3027 36.4734 46.1695C36.1788 45.9949 35.8665 45.8521 35.5419 45.7437C35.1709 45.615 34.7497 45.4762 34.2783 45.327C33.8201 45.179 33.3714 45.0028 32.9348 44.7993C32.505 44.6033 32.109 44.3397 31.7619 44.0185C31.4118 43.6916 31.1296 43.2983 30.9317 42.8612C30.712 42.3391 30.6072 41.7754 30.6243 41.2088C30.6038 40.4944 30.7707 39.7871 31.1086 39.158C31.4225 38.6008 31.8582 38.1223 32.3829 37.7585C32.9231 37.3863 33.5255 37.1145 34.1615 36.9562C34.8144 36.7881 35.4858 36.7031 36.1598 36.7031C37.0051 36.7093 37.843 36.8601 38.6377 37.149C39.457 37.4329 40.2097 37.8818 40.8498 38.4683L38.65 40.8152Z" fill="#1D4189"/>
<path d="M53.3688 41.5048C53.3931 42.2396 53.2346 42.9687 52.9076 43.6265C52.6097 44.1859 52.1788 44.6629 51.6533 45.0153C51.0975 45.3796 50.481 45.6409 49.8333 45.7867C49.1307 45.9502 48.4116 46.0315 47.6904 46.029H45.9687V51.448H42.5116V37.081H47.7688C48.5064 37.0766 49.2423 37.1552 49.9623 37.3156C50.5974 37.4512 51.2013 37.7055 51.7424 38.0655C52.2472 38.4108 52.657 38.8784 52.9337 39.4248C53.2431 40.0731 53.3924 40.7865 53.3688 41.5048ZM49.9117 41.5264C49.9234 41.2353 49.8536 40.9466 49.7103 40.6932C49.5758 40.479 49.3877 40.3039 49.1646 40.1856C48.9206 40.0605 48.657 39.9785 48.3852 39.9433C48.0873 39.9022 47.7867 39.8816 47.4859 39.8816H45.9687V43.2763H47.4244C47.7363 43.277 48.0476 43.2497 48.3545 43.1944C48.6352 43.1464 48.9055 43.0503 49.1538 42.9106C49.382 42.7816 49.5735 42.5962 49.7103 42.3721C49.8536 42.1141 49.9233 41.8216 49.9117 41.5264Z" fill="#1D4189"/>
<path d="M54.7245 51.4494V37.0808H58.2016V51.4494H54.7245Z" fill="#1D4189"/>
<path d="M67.0356 40.0434V51.4494H63.5784V40.0434H59.534V37.0808H71.0799V40.0434H67.0356Z" fill="#1D4189"/>
<path d="M80.6027 51.4494L79.4912 48.6287H73.9574L72.9059 51.4494H69.1383L75.1441 37.0808H78.4997L84.4441 51.4494H80.6027ZM76.7596 40.9168L74.9396 45.8544H78.5397L76.7596 40.9168Z" fill="#1D4189"/>
<path d="M85.4052 51.4494V37.0808H88.8823V48.4266H94.4162V51.4494H85.4052Z" fill="#1D4189"/>
<path d="M103.5 40.8152C103.19 40.4248 102.792 40.1148 102.338 39.911C101.907 39.6989 101.434 39.5846 100.954 39.5762C100.721 39.5766 100.487 39.5968 100.257 39.6364C100.031 39.6727 99.8153 39.7524 99.6201 39.8709C99.432 39.9839 99.2699 40.1359 99.1451 40.3168C99.01 40.5247 98.9429 40.7695 98.953 41.0174C98.9459 41.2311 98.9991 41.4424 99.1068 41.6269C99.22 41.8014 99.372 41.9472 99.551 42.0527C99.7721 42.1861 100.005 42.2983 100.247 42.3875C100.518 42.4894 100.821 42.5928 101.157 42.6962C101.643 42.8576 102.149 43.0366 102.675 43.2332C103.188 43.4228 103.672 43.6863 104.11 44.0154C104.545 44.3424 104.911 44.7524 105.187 45.2221C105.486 45.7716 105.633 46.392 105.61 47.0181C105.627 47.7581 105.469 48.4914 105.15 49.1583C104.859 49.7439 104.439 50.2545 103.92 50.6504C103.394 51.0503 102.797 51.3467 102.161 51.5237C101.497 51.7136 100.81 51.8092 100.12 51.8077C99.1047 51.8095 98.0976 51.6277 97.1468 51.2706C96.2464 50.9475 95.4307 50.4237 94.7611 49.7384L97.0269 47.424C97.4064 47.8785 97.8781 48.2467 98.4104 48.5041C98.9379 48.7825 99.5237 48.9317 100.12 48.9392C100.371 48.9399 100.622 48.9131 100.867 48.8589C101.094 48.8119 101.309 48.7224 101.503 48.5951C101.687 48.4722 101.837 48.3044 101.938 48.1075C102.052 47.881 102.108 47.6297 102.101 47.3761C102.108 47.131 102.037 46.89 101.898 46.688C101.742 46.4785 101.546 46.3023 101.322 46.1695C101.028 45.9945 100.716 45.8518 100.392 45.7437C100.022 45.615 99.6006 45.4761 99.1283 45.327C98.6701 45.179 98.2213 45.0027 97.7847 44.7993C97.3549 44.6032 96.959 44.3397 96.6119 44.0185C96.2612 43.692 95.979 43.2986 95.7817 42.8612C95.5619 42.3391 95.4571 41.7754 95.4743 41.2087C95.4537 40.4944 95.6207 39.7871 95.9585 39.158C96.2725 38.6008 96.7082 38.1223 97.2329 37.7585C97.7731 37.3863 98.3754 37.1145 99.0114 36.9562C99.6644 36.7881 100.336 36.7031 101.01 36.7031C101.855 36.7093 102.692 36.8601 103.486 37.149C104.306 37.4329 105.059 37.8818 105.699 38.4683L103.5 40.8152Z" fill="#1D4189"/>
<path d="M92.5544 24.2528H87.1373V18.8152H83.6587V24.2528H78.24V27.7446H83.6587V33.1837H87.1373V27.7446H92.5544V24.2528Z" fill="#4497CB"/>
</svg>
