<svg width="106" height="53" viewBox="0 0 106 53" fill="none" xmlns="http://www.w3.org/2000/svg">
<path d="M48.6793 0.000507619H87.9794V30.7337H48.6793V0.000507619Z" fill="#E0E1E0"/>
<path d="M56.5183 5.17771V9.61243H56.1102L53.409 6.03304V9.61243H52.9377V5.17771H53.3462L56.0474 8.75738V5.17771H56.5183Z" fill="#7C7C7C"/>
<path d="M59.3772 5.8428L58.5292 7.93321H60.2253L59.3772 5.8428ZM58.3408 8.37684L57.8381 9.6122H57.3357L59.1574 5.17721H59.597L61.4188 9.6122H60.9164L60.4137 8.37684H58.3408Z" fill="#7C7C7C"/>
<path d="M64.5598 5.17771V5.62135H63.178V9.61243H62.7064V5.62135H61.3246V5.17771H64.5598Z" fill="#7C7C7C"/>
<path d="M65.8167 5.17771H65.3457V9.61244H65.8167V5.17771Z" fill="#7C7C7C"/>
<path d="M69.1146 9.23256C70.12 9.23256 70.905 8.44057 70.905 7.39523C70.905 6.34989 70.12 5.5579 69.1146 5.5579C68.1096 5.5579 67.3246 6.34989 67.3246 7.39523C67.3246 8.44057 68.1096 9.23256 69.1146 9.23256ZM69.1146 9.67593C67.8584 9.67593 66.8533 8.66225 66.8533 7.39523C66.8533 6.12821 67.8584 5.11426 69.1146 5.11426C70.3712 5.11426 71.376 6.12821 71.376 7.39523C71.376 8.66225 70.3712 9.67593 69.1146 9.67593Z" fill="#7C7C7C"/>
<path d="M75.9939 5.17771V9.61243H75.5857L72.8848 6.03304V9.61243H72.4133V5.17771H72.8218L75.5229 8.75738V5.17771H75.9939Z" fill="#7C7C7C"/>
<path d="M78.8528 5.8428L78.0047 7.93321H79.7009L78.8528 5.8428ZM77.8164 8.37684L77.3137 9.6122H76.8113L78.633 5.17721H79.0726L80.8943 9.6122H80.3919L79.8893 8.37684H77.8164Z" fill="#7C7C7C"/>
<path d="M81.7116 9.61243V5.17771H82.1826V9.16907H84.4442V9.61243H81.7116Z" fill="#7C7C7C"/>
<path d="M54.7406 11.9609L53.8926 14.0515H55.5887L54.7406 11.9609ZM53.7042 14.4949L53.2015 15.7308H52.6991L54.5209 11.2955H54.9604L56.7822 15.7308H56.2798L55.7771 14.4949H53.7042Z" fill="#7C7C7C"/>
<path d="M59.327 11.2321C60.5204 11.2321 61.1173 12.1508 61.1173 12.1508L60.8033 12.4358C60.8033 12.4358 60.332 11.6757 59.327 11.6757C58.3219 11.6757 57.5369 12.4674 57.5369 13.5128C57.5369 14.5584 58.3219 15.3504 59.327 15.3504C60.332 15.3504 60.8344 14.5901 60.8344 14.5901L61.1487 14.8751C61.1487 14.8751 60.5204 15.7938 59.327 15.7938C58.0707 15.7938 57.0657 14.7801 57.0657 13.5128C57.0657 12.2458 58.0707 11.2321 59.327 11.2321Z" fill="#7C7C7C"/>
<path d="M63.5989 11.9609L62.7508 14.0515H64.4469L63.5989 11.9609ZM62.5624 14.4949L62.0597 15.7308H61.5573L63.3791 11.2955H63.8187L65.6404 15.7308H65.138L64.6353 14.4949H62.5624Z" fill="#7C7C7C"/>
<path d="M66.9286 11.7389V15.2869H67.8392C68.8757 15.2869 69.6612 14.4949 69.6612 13.5129C69.6612 12.5309 68.8757 11.7389 67.8392 11.7389H66.9286ZM67.8392 11.2955C69.1272 11.2955 70.1322 12.3092 70.1322 13.5129C70.1322 14.7166 69.1272 15.7305 67.8392 15.7305H66.4574V11.2955H67.8392Z" fill="#7C7C7C"/>
<path d="M74.2473 15.2869V15.7305H71.1694V11.2955H74.1848V11.7389H71.6406V13.1962H73.6821V13.6396H71.6406V15.2869H74.2473Z" fill="#7C7C7C"/>
<path d="M77.4206 14.4635L75.6617 12.1192V15.7308H75.1907V11.2955H75.5992L77.4206 13.7032L79.2421 11.2955H79.6505V15.7308H79.1796V12.1192L77.4206 14.4635Z" fill="#7C7C7C"/>
<path d="M82.3207 13.6715L83.64 11.2955H84.1741L82.5405 14.1782V15.7305H82.0695V14.1782L80.4362 11.2955H80.9705L82.2896 13.6715H82.3207Z" fill="#7C7C7C"/>
<path d="M54.4143 20.1214C54.967 20.1214 55.4058 19.6792 55.4058 19.1214C55.4058 18.5637 54.967 18.1214 54.4143 18.1214C53.861 18.1214 53.4225 18.5637 53.4225 19.1214C53.4225 19.6792 53.861 20.1214 54.4143 20.1214ZM54.4143 17.7367C55.215 17.7367 55.8254 18.3521 55.8254 19.1214C55.8254 19.8907 55.215 20.5064 54.4143 20.5064C53.6131 20.5064 53.0029 19.8907 53.0029 19.1214C53.0029 18.3521 53.6131 17.7367 54.4143 17.7367Z" fill="#7C7C7C"/>
<path d="M58.4426 17.7748V18.1595H56.9934V18.9094H58.1373V19.2943H56.9934V20.4675H56.5738V17.7748H58.4426Z" fill="#7C7C7C"/>
<path d="M61.7311 17.7748V18.1595H60.9301V20.4675H60.5106V18.1595H59.7094V17.7748H61.7311Z" fill="#7C7C7C"/>
<path d="M64.2523 20.0831V20.4675H62.3261V17.7748H64.2142V18.1595H62.7457V18.8712H63.9091V19.2559H62.7457V20.0831H64.2523Z" fill="#7C7C7C"/>
<path d="M64.9627 20.4675V17.7748H65.3823V20.0831H66.6791V20.4675H64.9627Z" fill="#7C7C7C"/>
<path d="M69.2389 20.0831V20.4675H67.3127V17.7748H69.2005V18.1595H67.7323V18.8712H68.8954V19.2559H67.7323V20.0831H69.2389Z" fill="#7C7C7C"/>
<path d="M69.6818 17.7748H70.1203L70.9405 19.9291L71.7607 17.7748H72.1994L71.1503 20.4675H70.7307L69.6818 17.7748Z" fill="#7C7C7C"/>
<path d="M73.2521 17.7748H72.8326V20.4675H73.2521V17.7748Z" fill="#7C7C7C"/>
<path d="M74 18.4671C74 18.0633 74.324 17.7362 74.8773 17.7362C75.4114 17.7362 75.6783 18.0824 75.6783 18.0824L75.4114 18.3516C75.4114 18.3516 75.2395 18.1209 74.8773 18.1209C74.5915 18.1209 74.4196 18.294 74.4196 18.4671C74.4196 19.0827 75.8309 18.698 75.8309 19.698C75.8309 20.1597 75.4874 20.5061 74.8773 20.5061C74.2287 20.5061 73.924 20.083 73.924 20.083L74.1908 19.8138C74.1908 19.8138 74.4004 20.1212 74.8773 20.1212C75.2205 20.1212 75.4114 19.9287 75.4114 19.698C75.4114 19.0827 74 19.4673 74 18.4671Z" fill="#7C7C7C"/>
<path d="M76.9605 17.7748H76.541V20.4675H76.9605V17.7748Z" fill="#7C7C7C"/>
<path d="M79.1196 20.1214C79.6724 20.1214 80.1112 19.6792 80.1112 19.1214C80.1112 18.5637 79.6724 18.1214 79.1196 18.1214C78.5663 18.1214 78.1278 18.5637 78.1278 19.1214C78.1278 19.6792 78.5663 20.1214 79.1196 20.1214ZM79.1196 17.7367C79.9203 17.7367 80.5307 18.3521 80.5307 19.1214C80.5307 19.8907 79.9203 20.5064 79.1196 20.5064C78.3184 20.5064 77.708 19.8907 77.708 19.1214C77.708 18.3521 78.3184 17.7367 79.1196 17.7367Z" fill="#7C7C7C"/>
<path d="M83.5483 17.7748V20.4675H83.1858L81.6984 18.525V20.4675H81.2788V17.7748H81.641L83.1287 19.7175V17.7748H83.5483Z" fill="#7C7C7C"/>
<path d="M53.7036 23.7163H54.4837L54.0937 22.7242L53.7036 23.7163ZM53.9072 22.2967H54.2804L55.2641 24.6912H54.8738L54.6193 24.0584H53.568L53.3138 24.6912H52.9235L53.9072 22.2967Z" fill="#7C7C7C"/>
<path d="M56.7694 22.6387H56.142V23.4255H56.7694C56.9898 23.4255 57.1595 23.2546 57.1595 23.0321C57.1595 22.8099 56.9898 22.6387 56.7694 22.6387ZM55.769 22.2967H56.7694C57.2106 22.2967 57.5327 22.6218 57.5327 23.0321C57.5327 23.5626 57.0577 23.7335 57.0577 23.7335L57.6004 24.6915H57.1933L56.685 23.7676H56.142V24.6915H55.769V22.2967Z" fill="#7C7C7C"/>
<path d="M59.6993 22.2962V22.6382H58.9872V24.6907H58.6139V22.6382H57.9017V22.2962H59.6993Z" fill="#7C7C7C"/>
<path d="M60.1364 22.9119C60.1364 22.5529 60.4244 22.2621 60.9165 22.2621C61.3913 22.2621 61.629 22.5701 61.629 22.5701L61.3913 22.8095C61.3913 22.8095 61.2387 22.6042 60.9165 22.6042C60.6621 22.6042 60.5097 22.7582 60.5097 22.9119C60.5097 23.4596 61.7646 23.1172 61.7646 24.0067C61.7646 24.4173 61.4593 24.7252 60.9165 24.7252C60.34 24.7252 60.0685 24.349 60.0685 24.349L60.3062 24.1093C60.3062 24.1093 60.4924 24.3831 60.9165 24.3831C61.2219 24.3831 61.3913 24.212 61.3913 24.0067C61.3913 23.4595 60.1364 23.8016 60.1364 22.9119Z" fill="#7C7C7C"/>
<path d="M63.724 22.5701C63.5716 22.5701 63.4698 22.6725 63.4698 22.8095C63.4698 22.9804 63.724 23.2027 63.724 23.2027C63.724 23.2027 63.9784 22.9804 63.9784 22.8095C63.9784 22.6725 63.8767 22.5701 63.724 22.5701ZM64.1652 24.2633L63.6734 23.6474C63.6734 23.6474 63.3851 23.8699 63.3851 24.1093C63.3851 24.2974 63.5039 24.4173 63.7581 24.4173C63.9955 24.4173 64.1652 24.2633 64.1652 24.2633ZM64.8095 24.4173C64.8436 24.4173 64.8774 24.4001 64.8774 24.3965V24.708C64.8774 24.708 64.8095 24.7252 64.7418 24.7252C64.5044 24.7252 64.3515 24.4858 64.3515 24.4858C64.3515 24.4858 64.1314 24.7252 63.7581 24.7252C63.3172 24.7252 63.0459 24.4517 63.0459 24.1437C63.0459 23.699 63.4866 23.4252 63.4866 23.4252C63.4866 23.4252 63.1477 23.0831 63.1477 22.8095C63.1477 22.5016 63.3851 22.2621 63.724 22.2621C64.0634 22.2621 64.3008 22.5016 64.3008 22.7751C64.3008 23.1172 63.8937 23.4252 63.8937 23.4252L64.3515 23.9897C64.3515 23.9897 64.4706 23.8016 64.4706 23.5278H64.7756C64.7756 23.9384 64.5721 24.2461 64.5721 24.2461C64.5721 24.2461 64.6738 24.4173 64.8095 24.4173Z" fill="#7C7C7C"/>
<path d="M66.0576 22.9119C66.0576 22.5529 66.3458 22.2621 66.8377 22.2621C67.3125 22.2621 67.5498 22.5701 67.5498 22.5701L67.3125 22.8095C67.3125 22.8095 67.1598 22.6042 66.8377 22.6042C66.5832 22.6042 66.4306 22.7582 66.4306 22.9119C66.4306 23.4596 67.6857 23.1172 67.6857 24.0067C67.6857 24.4173 67.3804 24.7252 66.8377 24.7252C66.2611 24.7252 65.9896 24.349 65.9896 24.349L66.227 24.1093C66.227 24.1093 66.4135 24.3831 66.8377 24.3831C67.143 24.3831 67.3125 24.212 67.3125 24.0067C67.3125 23.4595 66.0576 23.8016 66.0576 22.9119Z" fill="#7C7C7C"/>
<path d="M70.3779 22.7243L70.1405 22.9637C70.1405 22.9637 69.9031 22.6047 69.4113 22.6047C68.9195 22.6047 68.5297 22.9981 68.5297 23.4939C68.5297 23.9902 68.9195 24.3834 69.4113 24.3834C69.9031 24.3834 70.1576 24.0069 70.1576 24.0069L70.3947 24.2463C70.3947 24.2463 70.0558 24.7254 69.4113 24.7254C68.6991 24.7254 68.1564 24.1781 68.1564 23.4939C68.1564 22.8098 68.6991 22.2627 69.4113 22.2627C70.0558 22.2627 70.3779 22.7243 70.3779 22.7243Z" fill="#7C7C7C"/>
<path d="M71.3403 22.2967H70.9673V24.6912H71.3403V22.2967Z" fill="#7C7C7C"/>
<path d="M73.83 24.3489V24.691H72.1171V22.2962H73.7959V22.6382H72.4904V23.2713H73.5247V23.6134H72.4904V24.3489H73.83Z" fill="#7C7C7C"/>
<path d="M76.4549 22.2962V24.6907H76.1328L74.8099 22.9631V24.6907H74.4366V22.2962H74.7588L76.0816 24.0237V22.2962H76.4549Z" fill="#7C7C7C"/>
<path d="M79.3171 22.7243L79.0794 22.9637C79.0794 22.9637 78.842 22.6047 78.3502 22.6047C77.8584 22.6047 77.4686 22.9981 77.4686 23.4939C77.4686 23.9902 77.8584 24.3834 78.3502 24.3834C78.842 24.3834 79.0968 24.0069 79.0968 24.0069L79.3339 24.2463C79.3339 24.2463 78.995 24.7254 78.3502 24.7254C77.638 24.7254 77.0953 24.1781 77.0953 23.4939C77.0953 22.8098 77.638 22.2627 78.3502 22.2627C78.995 22.2627 79.3171 22.7243 79.3171 22.7243Z" fill="#7C7C7C"/>
<path d="M81.6194 24.3489V24.691H79.9065V22.2962H81.5853V22.6382H80.2795V23.2713H81.3141V23.6134H80.2795V24.3489H81.6194Z" fill="#7C7C7C"/>
<path d="M82.0899 22.9119C82.0899 22.5529 82.3782 22.2621 82.8703 22.2621C83.3451 22.2621 83.5825 22.5701 83.5825 22.5701L83.3451 22.8095C83.3451 22.8095 83.1922 22.6042 82.8703 22.6042C82.6156 22.6042 82.4632 22.7582 82.4632 22.9119C82.4632 23.4596 83.7181 23.1172 83.7181 24.0067C83.7181 24.4173 83.4128 24.7252 82.8703 24.7252C82.2935 24.7252 82.0223 24.349 82.0223 24.349L82.2597 24.1093C82.2597 24.1093 82.4462 24.3831 82.8703 24.3831C83.1754 24.3831 83.3451 24.212 83.3451 24.0067C83.3451 23.4595 82.0899 23.8016 82.0899 22.9119Z" fill="#7C7C7C"/>
<path d="M24.8224 1.36967C24.788 1.30006 24.7541 1.23017 24.719 1.16192C24.5143 0.763053 24.2924 0.37593 24.056 0H22.9376C22.8011 0.576317 22.6515 1.14854 22.4915 1.70847C23.2499 1.5777 24.0417 1.45922 24.8224 1.36967Z" fill="#EFB71C"/>
<path d="M27.1027 1.7714C27.1955 1.91418 27.2499 2.08508 27.2499 2.26882C27.2499 2.77142 26.8461 3.17902 26.3477 3.17902C26.2968 3.17902 26.2476 3.17383 26.1991 3.16537C26.6866 4.6235 26.982 6.18509 27.0028 7.71339C27.2656 7.37568 27.5171 7.02459 27.7561 6.65849C28.53 5.45344 29.1252 4.13127 29.4793 2.74358C29.4447 2.45665 29.3989 2.1719 29.3407 1.89016C28.7717 1.76103 27.99 1.73263 27.1027 1.7714Z" fill="#EFB71C"/>
<path d="M25.7388 7.04031C25.9941 7.04031 26.2242 7.14788 26.3885 7.3196C26.2937 5.46206 25.8089 3.57531 25.0895 1.94164C24.1561 2.05221 23.1966 2.20155 22.3 2.36044C22.0505 3.18764 21.7865 3.981 21.5297 4.71239C21.2563 5.4768 20.9147 6.37227 20.5262 7.31659C20.7022 7.37338 20.8781 7.42962 21.0552 7.4834C21.1044 7.49842 21.1542 7.51234 21.2035 7.52736L21.0416 7.30567C21.0081 7.24561 21.0294 7.17654 21.0768 7.12713C21.1112 7.09136 21.2103 7.09519 21.2906 7.16289L21.5446 7.354L21.3686 7.09955C21.325 7.02502 21.3851 6.92893 21.465 6.8978C21.514 6.87869 21.5689 6.88907 21.6076 6.92428L22.9161 7.99665C22.9337 8.00102 22.9513 8.00566 22.9689 8.01003C22.98 8.00293 22.9873 7.9901 22.9843 7.97454L22.8225 7.17217C22.8133 7.12795 22.826 7.08235 22.8563 7.04932L22.8823 7.0212C22.9491 6.94776 23.0685 6.9666 23.1102 7.05697L23.5579 8.02887C23.5766 8.069 23.5915 8.1105 23.6034 8.15254C23.6093 8.15391 23.6153 8.15554 23.6213 8.15664C24.0438 8.24372 24.491 8.32535 24.9495 8.39087C24.8778 8.26038 24.8366 8.11022 24.8366 7.95052C24.8366 7.44764 25.2405 7.04031 25.7388 7.04031Z" fill="#EFB71C"/>
<path d="M18.9098 2.45101C19.6474 2.2711 20.6817 2.04068 21.8327 1.82719C22.0091 1.23395 22.1791 0.620505 22.3345 0.000507619H18.0008V2.68553C18.3124 2.60226 18.6185 2.52254 18.9098 2.45101Z" fill="#EFB71C"/>
<path d="M29.5016 5.07549C29.5262 4.83524 29.5395 4.59554 29.5479 4.35639C29.2157 5.27806 28.7791 6.16069 28.2572 6.98571C27.9097 7.52627 27.5258 8.04143 27.1139 8.53229C27.6347 8.51673 28.1425 8.45694 28.6205 8.33709C29.0831 7.31933 29.3841 6.22184 29.5016 5.07549Z" fill="#EFB71C"/>
<path d="M30.0397 5.13194C29.743 8.0299 28.3454 10.6379 26.1039 12.4753C25.929 12.6189 25.7496 12.754 25.5677 12.885C25.6997 13.1157 25.8069 13.303 25.8724 13.4182C26.2362 14.0565 26.8753 15.2769 27.0172 15.3771C27.1208 15.4505 28.7071 16.6719 29.8716 17.634C29.9281 17.3045 29.8691 16.9463 29.8358 16.8106C29.7993 16.6615 29.4815 16.1052 29.3941 15.9782C29.3066 15.8513 29.2782 15.7388 29.2955 15.6708C29.3724 15.368 29.7503 15.2771 29.8285 15.2113C29.8892 15.16 29.7527 14.9951 30.0776 14.9733C30.0776 14.9733 30.074 14.9408 30.073 14.8911C30.0719 14.8414 30.0862 14.7863 30.1238 14.7532C30.1612 14.7202 30.3033 14.6593 30.3309 14.5993C30.3491 14.5597 30.3704 14.4535 30.3861 14.4103C30.4021 14.3672 30.4484 14.27 30.5637 14.267C30.7107 14.2632 31.1478 14.4019 31.2537 14.3945C31.3595 14.3869 31.5539 14.279 31.7049 14.2045C31.7837 14.1657 32.8859 13.7084 33.4625 14.1286C33.6471 14.1376 33.8734 14.2804 34.1 14.5089C34.8736 15.2891 35.1259 16.0828 35.1259 16.7811C35.1259 17.937 34.2664 18.714 34.0859 18.8478C34.7702 19.1727 34.6624 20.0613 34.4946 20.2644L34.5961 20.3207C34.601 20.2704 36.7751 16.7601 37.4021 13.5487C37.4148 13.4827 37.4884 13.4499 37.5455 13.4854L38.5725 14.0784C38.5887 14.0876 38.6096 14.0803 38.6164 14.0631C40.2072 9.96361 40.5047 4.127 40.3747 0.000507619H29.3421C29.9752 1.61043 30.221 3.36012 30.0397 5.13194Z" fill="#EFB71C"/>
<path d="M26.3961 11.4844C27.183 10.7252 27.838 9.85675 28.3426 8.90668C27.8911 9.00415 27.4225 9.05875 26.9461 9.07813C26.8614 9.91162 26.6819 10.7214 26.3961 11.4844Z" fill="#EFB71C"/>
<path d="M18.7339 6.6857C19.1402 6.83913 19.5484 6.9871 19.9587 7.1277C20.355 6.15416 20.6982 5.24477 20.9573 4.50656C21.1755 3.89039 21.4061 3.20651 21.6321 2.48277C20.5886 2.6796 19.6729 2.87999 19.0495 3.03124C18.7182 3.11068 18.3655 3.19968 18.0006 3.29632V5.02609C18.1175 4.97013 18.2469 4.93655 18.3849 4.93655C18.8833 4.93655 19.2871 5.34387 19.2871 5.84648C19.2871 6.22432 19.059 6.5481 18.7339 6.6857Z" fill="#EFB71C"/>
<path d="M22.861 10.5622L22.8672 10.5559C22.7904 10.4418 22.697 10.3389 22.586 10.2556L22.0785 9.87393C21.9101 9.74725 21.765 9.59191 21.6492 9.41528L20.8837 8.24517C20.8531 8.20149 20.8471 8.14498 20.8674 8.09557C20.8717 8.08492 20.8763 8.07673 20.8809 8.06772C20.6836 8.00711 20.4863 7.94623 20.29 7.8818C19.6144 9.47752 18.8199 11.1625 18.0006 12.566V13.6627C19.8559 13.0632 21.6034 12.266 23.1756 11.2248C23.0318 10.8778 22.9111 10.616 22.861 10.5622Z" fill="#EFB71C"/>
<path d="M25.4732 12.2774C25.9187 11.4007 26.1911 10.428 26.3188 9.41024C25.9745 9.76269 25.6161 10.1007 25.242 10.4195C25.0003 10.6251 24.7559 10.8206 24.509 11.0095C24.7635 11.4693 25.0474 11.9708 25.2954 12.4068C25.3546 12.3631 25.4147 12.3219 25.4732 12.2774Z" fill="#EFB71C"/>
<path d="M39.7924 51.8386C39.5372 51.2931 39.1003 49.6646 39.0196 49.3204C37.9263 44.6541 34.2241 40.5301 30.6275 36.204C30.5553 36.1172 28.206 32.5861 27.156 28.2964C27.1151 28.1288 26.0619 23.5024 26.0329 23.2327C25.9999 22.9236 26.0486 22.7284 26.1902 22.5515C26.4554 22.2187 28.0124 21.0232 28.582 20.5782C29.5886 19.792 27.2575 18.7668 25.1729 16.0662C24.5793 15.2969 24.2632 14.4839 24.0553 13.8017C22.5819 14.5358 20.964 14.9202 19.3034 14.9202C18.9282 14.9202 18.5509 14.9005 18.1727 14.8612C18.1151 14.8552 18.0582 14.8459 18.0008 14.8391V52.5003H39.7662C39.8698 52.3338 39.9224 52.1168 39.7924 51.8386Z" fill="#EFB71C"/>
<path d="M18.3237 7.17578C18.2188 7.13529 18.1075 7.0902 17.9983 7.04663L18.0009 11.4393C18.6088 10.2612 19.205 8.94234 19.7271 7.69159C19.2558 7.52778 18.788 7.35575 18.3237 7.17578Z" fill="#EFB71C"/>
<path d="M25.8185 9.06172C25.0944 9.01974 24.3743 8.91544 23.691 8.78368L23.7912 9.6116C23.8146 9.71189 23.9829 10.0451 24.2158 10.4771C24.7778 10.0417 25.3145 9.57222 25.8185 9.06172Z" fill="#EFB71C"/>
<path d="M41.1425 0.000507619C43.0221 9.73155 39.6778 18.3299 39.0877 19.8724C39.0387 20.0004 38.9835 20.102 38.8576 20.0496L37.9213 19.6597C37.9126 19.6559 37.9026 19.6605 37.8988 19.669C35.3089 25.8979 35.4689 25.5449 35.3996 25.6148C35.3306 25.6844 35.2266 25.697 35.0019 25.6495C34.417 25.5261 33.5408 24.9978 32.7084 24.9978C31.6614 24.9978 30.7936 26.7764 30.7936 27.7262C30.7936 29.569 32.85 29.0312 34.4346 32.2497C36.2552 35.947 42.4493 41.1904 45.0306 42.0604C45.3091 42.1541 46.1023 42.5906 44.6121 44.0285C43.8696 44.7452 44.3506 44.8768 43.4233 45.7905C42.0558 47.1378 40.6292 46.7365 40.5997 46.7226C40.629 47.4029 40.9256 48.5394 41.1387 48.6926C41.352 48.8457 41.8035 48.7745 41.9583 49.1987C42.0571 49.4693 41.8427 50.1597 41.6495 50.5998C41.4559 51.0396 41.7142 52.2245 41.699 52.4909C41.6987 52.4942 41.6971 52.4972 41.6968 52.5005H46.4425V0.000507619H41.1425Z" fill="#EFB71C"/>
<path d="M23.9029 13.2654C23.8996 13.2531 23.8961 13.2403 23.8929 13.2282C23.7981 12.8755 23.6005 12.312 23.4013 11.7925C21.7431 12.8731 19.959 13.6405 18.0006 14.2203V14.2883C18.0764 14.2984 18.1519 14.3096 18.2282 14.3175C20.2113 14.5242 22.1656 14.1529 23.9029 13.2654Z" fill="#EFB71C"/>
<path d="M25.2419 0.888324C25.3123 1.0251 25.3808 1.16433 25.4479 1.30466C26.8931 1.16925 28.2511 1.15396 29.2202 1.37318C29.0981 0.905251 28.9406 0.447419 28.7543 0.000507619H24.743C24.9165 0.290167 25.0846 0.584468 25.2419 0.888324Z" fill="#EFB71C"/>
<path d="M44.9243 51.084H45.0723C45.1508 51.084 45.1855 51.0488 45.1855 50.9874C45.1855 50.9259 45.1508 50.8907 45.0723 50.8907H44.9243V51.084ZM45.3162 51.4354H45.2047L45.0723 51.1894H44.9243V51.4354H44.8198V50.785H45.0653C45.1944 50.785 45.2816 50.8732 45.2816 50.9874C45.2816 51.1192 45.1595 51.1629 45.1595 51.1629L45.3162 51.4354ZM45.0374 51.6374C45.3338 51.6374 45.5604 51.4089 45.5604 51.1105C45.5604 50.8115 45.3338 50.583 45.0374 50.583C44.7413 50.583 44.5147 50.8115 44.5147 51.1105C44.5147 51.4089 44.7413 51.6374 45.0374 51.6374ZM45.0374 51.743C44.682 51.743 44.4016 51.4618 44.4016 51.1105C44.4016 50.7588 44.682 50.4776 45.0374 50.4776C45.3928 50.4776 45.6735 50.7588 45.6735 51.1105C45.6735 51.4618 45.3928 51.743 45.0374 51.743Z" fill="white"/>
<path d="M48.6793 51.4355H87.9794V52.5H48.6793V51.4355Z" fill="#EFB71C"/>
<path d="M55.5154 36.8425H55.9918V38.1311H57.486V36.8425H57.9624V39.9002H57.486V38.5679H55.9918V39.9002H55.5154V36.8425Z" fill="#7C7C7C"/>
<path d="M58.8284 36.8425H60.9722V37.3011H59.3048V38.0874H60.6257V38.546H59.3048V39.4415H61.0155V39.9002H58.8284V36.8425Z" fill="#7C7C7C"/>
<path d="M63.2241 38.6771L62.726 37.4103L62.228 38.6771H63.2241ZM62.4662 36.8425H62.9859L64.1988 39.9002H63.7008L63.3976 39.1142H62.055L61.7518 39.9002H61.2538L62.4662 36.8425Z" fill="#7C7C7C"/>
<path d="M65.9314 38.3276C66.0841 38.3276 66.2091 38.2788 66.306 38.1813C66.4027 38.0836 66.4511 37.958 66.4511 37.8032C66.4511 37.6492 66.4027 37.5231 66.306 37.4254C66.2091 37.3279 66.0841 37.279 65.9314 37.279H65.1515V38.3276H65.9314ZM64.6751 36.8425H65.9314C66.0786 36.8425 66.2126 36.8671 66.3339 36.9165C66.4554 36.9662 66.5599 37.0339 66.6479 37.1196C66.7361 37.2059 66.8046 37.3069 66.8536 37.4232C66.9029 37.5397 66.9275 37.6664 66.9275 37.8032C66.9275 37.9752 66.8969 38.1166 66.8366 38.2272C66.7757 38.3377 66.7093 38.4265 66.6371 38.4934C66.5505 38.5723 66.4538 38.6331 66.3469 38.6768L67.0355 39.9002H66.4941L65.8664 38.7645H65.1515V39.9002H64.6751V36.8425Z" fill="#7C7C7C"/>
<path d="M68.14 37.3011H67.2305V36.8425H69.5259V37.3011H68.6164V39.9004H68.14V37.3011Z" fill="#7C7C7C"/>
<path d="M70.0457 36.8425H70.5222V39.4415H71.9947V39.9002H70.0457V36.8425Z" fill="#7C7C7C"/>
<path d="M74.0953 38.6771L73.5972 37.4103L73.0989 38.6771H74.0953ZM73.3374 36.8425H73.8571L75.0698 39.9002H74.5717L74.2685 39.1142H72.9259L72.6228 39.9002H72.1247L73.3374 36.8425Z" fill="#7C7C7C"/>
<path d="M75.5461 36.8425H75.9791L77.6466 39.0921V36.8425H78.123V39.9002H77.6899L76.0225 37.6506V39.9002H75.5461V36.8425Z" fill="#7C7C7C"/>
<path d="M80.007 39.4628C80.1629 39.4628 80.3086 39.4344 80.4444 39.3777C80.5801 39.3209 80.697 39.2439 80.7952 39.1464C80.8932 39.0487 80.9707 38.9338 81.027 38.8011C81.0833 38.6687 81.1114 38.5251 81.1114 38.3708C81.1114 38.2196 81.0833 38.0768 81.027 37.943C80.9707 37.8087 80.8932 37.6932 80.7952 37.5955C80.697 37.498 80.5801 37.421 80.4444 37.3642C80.3086 37.3072 80.1629 37.2788 80.007 37.2788H79.4656V39.4628H80.007ZM78.9892 36.842H80.007C80.2292 36.842 80.4363 36.8829 80.6285 36.9646C80.8204 37.0459 80.988 37.1568 81.1309 37.2963C81.2738 37.436 81.3856 37.5985 81.4665 37.7836C81.5472 37.9681 81.5878 38.1641 81.5878 38.3708C81.5878 38.5778 81.5472 38.7735 81.4665 38.9583C81.3856 39.1434 81.2738 39.3059 81.1309 39.4456C80.988 39.5851 80.8204 39.696 80.6285 39.7773C80.4363 39.859 80.2292 39.8999 80.007 39.8999H78.9892V36.842Z" fill="#7C7C7C"/>
<path d="M61.1998 44.1854C61.1102 44.299 61.0033 44.4011 60.879 44.4912C60.7724 44.5668 60.6416 44.637 60.4873 44.7011C60.3328 44.765 60.1517 44.7969 59.9435 44.7969C59.7156 44.7969 59.5039 44.7563 59.3093 44.6746C59.1144 44.5933 58.9455 44.4811 58.8026 44.3386C58.6597 44.1958 58.5471 44.029 58.4648 43.8384C58.3825 43.6476 58.3411 43.4428 58.3411 43.2244C58.3411 43.0063 58.3825 42.8015 58.4648 42.6107C58.5471 42.4201 58.6597 42.2533 58.8026 42.1106C58.9455 41.968 59.1144 41.8558 59.3093 41.7742C59.5039 41.6929 59.7156 41.6522 59.9435 41.6522C60.1517 41.6522 60.332 41.6825 60.4849 41.7439C60.6381 41.8048 60.7664 41.8733 60.8706 41.9492C60.9889 42.0363 61.0915 42.1338 61.1781 42.2416L60.875 42.5474C60.8143 42.463 60.7377 42.3874 60.6454 42.3202C60.5675 42.2621 60.47 42.2091 60.3531 42.1608C60.2359 42.1127 60.0997 42.0887 59.9435 42.0887C59.7879 42.0887 59.6412 42.1179 59.5039 42.1764C59.367 42.2345 59.2471 42.315 59.1447 42.4185C59.0421 42.522 58.962 42.6429 58.9044 42.7811C58.8467 42.9195 58.8177 43.0672 58.8177 43.2244C58.8177 43.3819 58.8467 43.5296 58.9044 43.6678C58.962 43.8062 59.0421 43.9271 59.1447 44.0306C59.2471 44.1341 59.367 44.2146 59.5039 44.2728C59.6412 44.3312 59.7879 44.3604 59.9435 44.3604C60.0997 44.3604 60.2367 44.3356 60.3552 44.2859C60.4735 44.2365 60.5731 44.181 60.6538 44.1202C60.7494 44.05 60.8303 43.97 60.8966 43.8796L61.1998 44.1854Z" fill="#7C7C7C"/>
<path d="M61.7627 41.6958H62.2391V42.9847H63.733V41.6958H64.2097V44.7535H63.733V43.4212H62.2391V44.7535H61.7627V41.6958Z" fill="#7C7C7C"/>
<path d="M66.6564 43.5307L66.1583 42.2637L65.6603 43.5307H66.6564ZM65.8985 41.6958H66.4182L67.6311 44.7535H67.1331L66.8299 43.9675H65.4873L65.1841 44.7535H64.6861L65.8985 41.6958Z" fill="#7C7C7C"/>
<path d="M69.3203 43.2249C69.3953 43.2249 69.466 43.211 69.5323 43.1834C69.5989 43.1559 69.6565 43.1171 69.7058 43.0677C69.7545 43.018 69.7929 42.9599 69.8206 42.893C69.8479 42.8261 69.8617 42.7546 69.8617 42.6789C69.8617 42.6033 69.8479 42.5318 69.8206 42.4649C69.7929 42.398 69.7545 42.3399 69.7058 42.2902C69.6565 42.2408 69.5989 42.202 69.5323 42.1744C69.466 42.1468 69.3953 42.1329 69.3203 42.1329H68.5838V43.2249H69.3203ZM68.1077 41.6958H69.3203C69.4676 41.6958 69.6032 41.7215 69.7274 41.7725C69.8514 41.8233 69.9589 41.8935 70.0498 41.9822C70.1408 42.0709 70.2117 42.175 70.262 42.2945C70.3127 42.4138 70.3381 42.5422 70.3381 42.6789C70.3381 42.8157 70.3127 42.944 70.262 43.0633C70.2117 43.1829 70.1408 43.2869 70.0498 43.3756C69.9589 43.4644 69.8514 43.5345 69.7274 43.5853C69.6032 43.6364 69.4676 43.6618 69.3203 43.6618H68.5838V44.7538H68.1077V41.6958Z" fill="#7C7C7C"/>
<path d="M71.5289 42.1548H70.6194V41.6958H72.9148V42.1548H72.0053V44.7538H71.5289V42.1548Z" fill="#7C7C7C"/>
<path d="M73.4346 41.6958H75.5784V42.1548H73.911V42.941H75.2322V43.3994H73.911V44.2951H75.6218V44.7535H73.4346V41.6958Z" fill="#7C7C7C"/>
<path d="M77.5056 43.181C77.6585 43.181 77.7833 43.1321 77.8802 43.0347C77.9769 42.9369 78.0253 42.8113 78.0253 42.6568C78.0253 42.5026 77.9769 42.3767 77.8802 42.279C77.7833 42.1815 77.6585 42.1326 77.5056 42.1326H76.726V43.181H77.5056ZM76.2496 41.6958H77.5056C77.6528 41.6958 77.7871 41.7204 77.9084 41.7701C78.0296 41.8198 78.1341 41.8875 78.2224 41.9732C78.3106 42.0592 78.3791 42.1605 78.4281 42.2768C78.4771 42.3934 78.5017 42.52 78.5017 42.6568C78.5017 42.8288 78.4714 42.97 78.4108 43.0805C78.3501 43.1911 78.2836 43.2798 78.2115 43.347C78.1249 43.4256 78.0283 43.4868 77.9214 43.5304L78.61 44.7535H78.0686L77.4406 43.6178H76.726V44.7535H76.2496V41.6958Z" fill="#7C7C7C"/>
</svg>
