<svg width="106" height="52" viewBox="0 0 106 52" fill="none" xmlns="http://www.w3.org/2000/svg">
<path d="M19.5695 18.6624V36.8183H24.8151V18.6624H30.3679V15.2568H19.5586L19.5695 18.6624Z" fill="url(#paint0_linear_4108_22774)"/>
<path d="M6.66981 19.2247C12.2769 23.8316 16.808 29.7707 19.5695 36.8183H24.8151C20.7246 28.1372 15.0982 20.8908 6.65894 15.5093L6.66981 19.2247Z" fill="url(#paint1_linear_4108_22774)"/>
<path d="M0.163086 15.2596V28.0529C0.163086 34.9185 3.94103 37.2314 8.27888 37.2314C12.2063 37.2314 15.6092 34.7038 16.7127 33.2279C16.2017 32.2114 15.8511 31.5618 15.3673 30.8307C14.3834 32.1136 11.5214 33.4671 10.1488 33.4671C6.67801 33.4671 5.44678 31.0073 5.44678 27.2973V15.2568L0.163086 15.2596Z" fill="url(#paint2_linear_4108_22774)"/>
<path fill-rule="evenodd" clip-rule="evenodd" d="M13.1875 18.6624H18.3516V15.2568H13.1875V18.6624Z" fill="#E4AC24"/>
<path d="M70.7347 32.434C70.7347 32.5074 70.7184 32.5862 70.6939 32.6569C70.5852 32.9776 70.2672 33.2929 69.7698 33.2929C69.4165 33.2929 69.1175 33.0809 69.1175 32.6297C69.1175 31.8877 69.9764 31.7545 70.7347 31.7708V32.434ZM71.4033 31.374C71.4033 30.613 71.1233 29.8166 69.9546 29.8166C69.4735 29.8166 69.0169 29.9525 68.7044 30.1536L68.8566 30.6157C69.1284 30.439 69.498 30.3276 69.8513 30.3276C70.6314 30.3276 70.7211 30.8983 70.7211 31.2109V31.2925C69.2425 31.2816 68.4217 31.7871 68.4217 32.7112C68.4217 33.2602 68.8158 33.8066 69.5904 33.8066C70.134 33.8066 70.5417 33.5348 70.7591 33.2358H70.7809L70.8352 33.7169H71.4658C71.4196 33.4587 71.4033 33.1352 71.4033 32.8036V31.374ZM66.1848 33.7196H66.8616V31.6866C66.8616 31.567 66.8779 31.4555 66.8942 31.3604C66.9893 30.844 67.3345 30.4716 67.8237 30.4716C67.9189 30.4716 67.9868 30.4798 68.0602 30.4934V29.8411C67.9977 29.8248 67.9433 29.8139 67.8645 29.8139C67.4025 29.8139 66.9839 30.14 66.81 30.651H66.7773L66.7556 29.9036H66.1468C66.174 30.2569 66.174 30.6456 66.174 31.0995L66.1848 33.7196ZM64.391 32.434C64.391 32.5074 64.3774 32.5862 64.3529 32.6569C64.2442 32.9776 63.9262 33.2929 63.4288 33.2929C63.0755 33.2929 62.7765 33.0809 62.7765 32.6297C62.7765 31.8877 63.6354 31.7545 64.391 31.7708V32.434ZM65.0623 31.374C65.0623 30.613 64.7796 29.8166 63.6109 29.8166C63.1299 29.8166 62.6732 29.9525 62.3607 30.1536L62.5156 30.6157C62.7874 30.439 63.1543 30.3276 63.5104 30.3276C64.2904 30.3276 64.3801 30.8983 64.3801 31.2109V31.2925C62.9015 31.2816 62.0807 31.7871 62.0807 32.7112C62.0807 33.2602 62.4748 33.8066 63.2494 33.8066C63.793 33.8066 64.2007 33.5348 64.4182 33.2358H64.4399L64.4943 33.7169H65.1275C65.0813 33.4587 65.065 33.1352 65.065 32.8036L65.0623 31.374ZM59.6536 30.3357C60.469 30.3357 60.7951 31.1566 60.7951 31.8034C60.7951 32.6623 60.2978 33.2874 59.6346 33.2874C58.9551 33.2874 58.4767 32.6623 58.4767 31.8197C58.4767 31.0968 58.8301 30.3385 59.6509 30.3385M59.6672 29.822C58.6072 29.822 57.7728 30.5668 57.7728 31.8469C57.7728 33.0537 58.5691 33.812 59.602 33.812C60.5261 33.812 61.5045 33.195 61.5045 31.7817C61.5045 30.613 60.7625 29.8193 59.6672 29.8193M54.658 33.5429C54.9624 33.7169 55.3565 33.8038 55.6636 33.8038H55.6908L55.381 34.3637C55.7506 34.3963 55.9871 34.4915 55.9952 34.6953C55.9952 34.8856 55.8322 34.9481 55.6555 34.9481C55.5142 34.9481 55.3565 34.91 55.2288 34.8312L55.1119 35.171C55.2478 35.2525 55.4598 35.3069 55.6473 35.3069C56.0904 35.3069 56.4682 35.1329 56.4682 34.6654C56.4682 34.3665 56.2072 34.1626 55.9164 34.1218L56.1339 33.7767C56.7916 33.6462 57.1558 33.2195 57.1558 32.6623C57.1558 32.0915 56.8133 31.7599 56.1502 31.5072C55.6528 31.3169 55.4245 31.1756 55.4245 30.8603C55.4245 30.5749 55.6528 30.3385 56.0632 30.3385C56.4165 30.3385 56.6937 30.4662 56.8432 30.5559L57.0172 30.0558C56.7997 29.9308 56.4627 29.822 56.0768 29.822C55.256 29.822 54.7586 30.3276 54.7586 30.9418C54.7586 31.3985 55.0793 31.779 55.7642 32.0236C56.2806 32.2138 56.4763 32.3932 56.4763 32.7248C56.4763 33.0401 56.2399 33.2956 55.7343 33.2956C55.3864 33.2956 55.0222 33.1515 54.8156 33.0156L54.658 33.5429ZM53.4241 28.406C53.1713 28.406 52.9892 28.5962 52.9892 28.8409C52.9892 29.0773 53.1631 29.2676 53.4077 29.2676C53.6795 29.2676 53.8562 29.0773 53.8508 28.8436C53.8508 28.599 53.6823 28.4087 53.4241 28.4087M53.7692 29.9036H53.0762V33.7196H53.7692V29.9036ZM46.496 33.7196H47.1755V31.4175C47.1755 31.2979 47.1891 31.181 47.2299 31.0777C47.3386 30.7298 47.6566 30.3847 48.0914 30.3847C48.6187 30.3847 48.8878 30.825 48.8878 31.4338V33.7169H49.5673V31.3604C49.5673 31.2327 49.589 31.1076 49.6217 31.0125C49.7385 30.6728 50.0457 30.3819 50.437 30.3819C50.9996 30.3819 51.2687 30.8222 51.2687 31.5561V33.7169H51.9482V31.4691C51.9482 30.1455 51.1981 29.8112 50.698 29.8112C50.331 29.8112 50.0783 29.909 49.85 30.083C49.6923 30.1998 49.5455 30.3656 49.426 30.5776H49.4096C49.2466 30.1292 48.8497 29.8166 48.3279 29.8166C47.6973 29.8166 47.3413 30.1509 47.132 30.5151H47.1048L47.0776 29.8981H46.4661C46.4933 30.2161 46.4987 30.5396 46.4987 30.931L46.496 33.7196ZM44.9957 28.4033C44.7456 28.4033 44.5608 28.5935 44.5608 28.8381C44.5608 29.0746 44.7375 29.2649 44.9821 29.2649C45.2539 29.2649 45.4306 29.0746 45.4224 28.8409C45.4224 28.5962 45.2593 28.406 44.9957 28.406M45.3436 29.9009H44.6505V33.7196H45.3436V29.9009ZM41.8565 33.7196H42.5523V28.9903H44.1749V28.4033H40.2339V28.9876H41.8565V33.7196ZM35.0942 33.7196H35.79V31.4256C35.79 31.306 35.8063 31.1892 35.8362 31.0995C35.9531 30.719 36.3119 30.3928 36.7685 30.3928C37.4208 30.3928 37.6518 30.9038 37.6518 31.5208V33.7223H38.3476V31.4447C38.3476 30.1346 37.5213 29.8193 36.9941 29.8193C36.3635 29.8193 35.9205 30.1727 35.7302 30.5369H35.7166L35.6759 29.9036H35.0616C35.0888 30.2216 35.0942 30.545 35.0942 30.9364V33.7196ZM33.5993 28.4033C33.3439 28.4033 33.1645 28.5935 33.1645 28.8381C33.1645 29.0746 33.3357 29.2649 33.5803 29.2649C33.8521 29.2649 34.0288 29.0746 34.0206 28.8409C34.0206 28.5962 33.8575 28.406 33.5966 28.406M33.95 29.9009H33.2514V33.7196H33.9472L33.95 29.9009ZM31.406 32.1214C31.406 32.2356 31.3978 32.3307 31.3733 32.4258C31.2483 32.9422 30.8216 33.2521 30.3568 33.2521C29.6067 33.2521 29.2289 32.6134 29.2289 31.8388C29.2289 30.9962 29.6556 30.3656 30.3704 30.3656C30.8923 30.3656 31.2673 30.7271 31.3761 31.1701C31.3978 31.2571 31.4032 31.374 31.4032 31.461L31.406 32.1214ZM31.406 28.126V30.4037H31.3896C31.2157 30.0966 30.8189 29.822 30.2372 29.822C29.3077 29.822 28.5195 30.6021 28.5249 31.8714C28.5249 33.0319 29.2316 33.8147 30.1557 33.8147C30.7808 33.8147 31.2483 33.4886 31.4603 33.0646H31.4766L31.5092 33.725H32.1344C32.1072 33.4668 32.099 33.0809 32.099 32.7411V28.1206L31.406 28.126Z" fill="#E4AC24"/>
<path d="M103.793 22.5763V23.3509H103.19V24.1446H103.793V26.1232C103.793 26.675 103.896 27.0555 104.119 27.2974C104.317 27.5148 104.646 27.6507 105.038 27.6507C105.372 27.6507 105.649 27.5964 105.804 27.542L105.785 26.7266C105.668 26.7619 105.573 26.781 105.377 26.781C104.97 26.781 104.834 26.5092 104.834 26.0009V24.1446H105.84V23.3509H104.834V22.2719L103.793 22.5763ZM99.7486 27.3463C100.061 27.5175 100.521 27.6507 101.026 27.6507C102.14 27.6507 102.738 27.0881 102.738 26.3271C102.733 25.7074 102.377 25.3214 101.616 25.0442C101.08 24.8539 100.882 24.7235 100.882 24.4571C100.882 24.1962 101.091 24.0168 101.469 24.0168C101.841 24.0168 102.176 24.1527 102.361 24.2614L102.57 23.5058C102.325 23.3781 101.918 23.2558 101.455 23.2558C100.477 23.2558 99.8682 23.8347 99.8682 24.5767C99.86 25.0659 100.203 25.5171 101.023 25.7998C101.54 25.9846 101.714 26.1314 101.714 26.4168C101.714 26.6886 101.507 26.8788 101.042 26.8788C100.662 26.8788 100.2 26.7266 99.9633 26.5798L99.7486 27.3463ZM96.3077 25.0089H98.1559C98.164 24.6175 97.9928 23.976 97.2861 23.976C96.6284 23.976 96.3512 24.574 96.3077 25.0089ZM99.1208 25.7481H96.305C96.3321 26.5092 96.9247 26.8353 97.5987 26.8353C98.0934 26.8353 98.4413 26.7674 98.7674 26.6451L98.9196 27.3789C98.5581 27.5284 98.0553 27.6507 97.4519 27.6507C96.0875 27.6507 95.2857 26.8027 95.2857 25.5144C95.2857 24.3511 95.9924 23.2531 97.3378 23.2531C98.7103 23.2531 99.1507 24.3756 99.1507 25.2997C99.1507 25.4981 99.1316 25.653 99.1153 25.7481M93.2772 27.5529L95.2884 21.7365H94.1578L93.3152 24.3919C93.0788 25.0986 92.8695 25.8052 92.7173 26.4956H92.6982C92.5406 25.7889 92.3503 25.1094 92.1275 24.3756L91.3311 21.731H90.1733L92.0595 27.5529H93.2772ZM85.5038 25.0061C85.55 24.5713 85.83 23.9788 86.4823 23.9788C87.189 23.9788 87.3629 24.6175 87.352 25.0061H85.5038ZM88.3332 25.7509C88.3495 25.6557 88.3604 25.5008 88.3604 25.3024C88.3604 24.3783 87.9255 23.2558 86.5502 23.2558C85.2049 23.2558 84.4955 24.3538 84.4955 25.5171C84.4955 26.8054 85.3 27.6534 86.6644 27.6534C87.2678 27.6534 87.7679 27.5311 88.1321 27.3816L87.9744 26.6478C87.6564 26.7701 87.3004 26.838 86.8112 26.838C86.1371 26.838 85.5392 26.5119 85.5147 25.7509H88.3332ZM82.5603 25.7346C82.5603 25.8433 82.5521 25.952 82.525 26.0444C82.4244 26.501 82.0439 26.7973 81.6117 26.7973C80.9404 26.7973 80.5599 26.2347 80.5599 25.4655C80.5599 24.6773 80.9404 24.0793 81.6199 24.0793C82.1037 24.0793 82.4407 24.4136 82.5358 24.8268C82.5521 24.9137 82.563 25.017 82.563 25.104L82.5603 25.7346ZM82.5603 21.4185V23.8103H82.544C82.3537 23.4977 81.9406 23.2558 81.3617 23.2558C80.3506 23.2558 79.4727 24.0929 79.4809 25.5008C79.4809 26.7973 80.2745 27.6534 81.2747 27.6534C81.889 27.6534 82.3972 27.3545 82.6473 26.8924H82.6663L82.7098 27.5556H83.6611C83.6448 27.2702 83.6257 26.8054 83.6257 26.3733V21.4185H82.5603ZM75.8035 26.0825C75.8035 26.1477 75.7926 26.2347 75.7681 26.3135C75.673 26.6125 75.3605 26.8924 74.9392 26.8924C74.6021 26.8924 74.3331 26.7021 74.3331 26.2863C74.3331 25.6476 75.0479 25.4845 75.8008 25.4981L75.8035 26.0825ZM76.8363 25.0279C76.8363 24.1119 76.4504 23.2558 75.1022 23.2558C74.4391 23.2558 73.8928 23.4379 73.5802 23.6281L73.7895 24.3185C74.0721 24.1391 74.5043 24.0114 74.9201 24.0114C75.6594 24.0114 75.7736 24.468 75.7736 24.7452V24.8132C74.2189 24.805 73.2785 25.3405 73.2785 26.4005C73.2785 27.0419 73.7514 27.6561 74.5994 27.6561C75.143 27.6561 75.5833 27.4197 75.8415 27.0935H75.8687L75.9367 27.561H76.8961C76.8526 27.3028 76.8336 26.9305 76.8336 26.5499L76.8363 25.0279ZM69.8702 25.0089C69.9137 24.574 70.1882 23.9815 70.8487 23.9815C71.5553 23.9815 71.7266 24.6202 71.7184 25.0089H69.8702ZM72.6833 25.7509C72.7023 25.6557 72.7186 25.5008 72.7186 25.3024C72.7186 24.3783 72.2783 23.2558 70.9057 23.2558C69.5603 23.2558 68.851 24.3538 68.851 25.5171C68.851 26.8054 69.6555 27.6534 71.0172 27.6534C71.6206 27.6534 72.1207 27.5311 72.4849 27.3816L72.3272 26.6478C72.0092 26.7701 71.6532 26.838 71.1639 26.838C70.4899 26.838 69.8919 26.5119 69.8675 25.7509H72.6833ZM66.3233 22.5709V23.3509H65.7172V24.1446H66.3178V26.1232C66.3178 26.675 66.4211 27.0555 66.644 27.2974C66.8451 27.5148 67.1713 27.6507 67.5599 27.6507C67.8942 27.6507 68.1715 27.5964 68.3264 27.542L68.3074 26.7266C68.1878 26.7619 68.0899 26.781 67.8942 26.781C67.4866 26.781 67.3507 26.5092 67.3507 26.0009V24.1446H68.3563V23.3509H67.3507V22.2719L66.3233 22.5709ZM64.0348 26.077C64.0348 26.1477 64.0239 26.2347 63.9994 26.3135C63.9043 26.6125 63.5917 26.8924 63.1704 26.8924C62.8334 26.8924 62.5671 26.7021 62.5671 26.2863C62.5671 25.6476 63.2846 25.4845 64.0348 25.4981V26.077ZM65.0676 25.0279C65.0676 24.1119 64.6816 23.2558 63.3335 23.2558C62.6703 23.2558 62.1268 23.4379 61.8115 23.6281L62.0208 24.3185C62.3034 24.1391 62.7383 24.0114 63.1514 24.0114C63.8934 24.0114 64.0049 24.468 64.0049 24.7452V24.8132C62.4502 24.805 61.5098 25.3405 61.5098 26.4005C61.5098 27.0419 61.9854 27.6561 62.8307 27.6561C63.3743 27.6561 63.8146 27.4197 64.0728 27.0935H64.1L64.1679 27.561H65.1274C65.0839 27.3028 65.0676 26.9305 65.0676 26.5499V25.0279ZM58.9576 22.5736V23.3482H58.3515V24.1418H58.9549V26.1205C58.9549 26.6723 59.0582 27.0528 59.2811 27.2947C59.4795 27.5121 59.8083 27.648 60.197 27.648C60.5313 27.648 60.8058 27.5936 60.9635 27.5393L60.9445 26.7239C60.8249 26.7592 60.727 26.7783 60.5313 26.7783C60.1236 26.7783 59.9877 26.5065 59.9877 25.9982V24.1418H60.9934V23.3482H59.9877V22.2692L58.9576 22.5736ZM57.1013 21.5951C56.7479 21.5951 56.5033 21.8452 56.5033 22.174C56.5033 22.4948 56.7343 22.7448 57.0904 22.7448C57.46 22.7448 57.6938 22.4948 57.6938 22.174C57.6856 21.8479 57.46 21.5951 57.0958 21.5951M57.634 23.3482H56.5631V27.5529H57.634V23.3482ZM52.7036 27.3436C53.0135 27.5175 53.4701 27.6507 53.9811 27.6507C55.0954 27.6507 55.6934 27.0881 55.6934 26.3271C55.6825 25.7074 55.3292 25.3214 54.5681 25.0442C54.0327 24.8539 53.8343 24.7235 53.8343 24.4571C53.8343 24.1962 54.0409 24.0168 54.4214 24.0168C54.791 24.0168 55.128 24.1527 55.3101 24.2614L55.5194 23.5058C55.2802 23.3781 54.8726 23.2558 54.4051 23.2558C53.432 23.2558 52.8178 23.8347 52.8178 24.5767C52.8096 25.0659 53.1548 25.5171 53.9756 25.7998C54.492 25.9846 54.6633 26.1314 54.6633 26.4168C54.6633 26.6886 54.454 26.8788 53.9892 26.8788C53.6087 26.8788 53.1521 26.7266 52.9102 26.5798L52.7036 27.3436ZM49.8878 27.5529H50.9478V25.3785C50.9478 25.2562 50.9669 25.1448 50.9859 25.0524C51.081 24.574 51.4262 24.2451 51.9372 24.2451C52.0649 24.2451 52.16 24.2641 52.247 24.2805V23.283C52.16 23.2639 52.1002 23.2558 51.9942 23.2558C51.5485 23.2558 51.0566 23.5548 50.8527 24.1527H50.8147L50.782 23.3509H49.8579C49.8851 23.7314 49.8906 24.1391 49.8906 24.7099L49.8878 27.5529ZM46.186 25.0061C46.2268 24.5713 46.504 23.9788 47.1645 23.9788C47.8711 23.9788 48.0396 24.6175 48.0342 25.0061H46.186ZM48.9991 25.7481C49.0127 25.653 49.0317 25.4981 49.0317 25.2997C49.0317 24.3756 48.5914 23.2531 47.2188 23.2531C45.8707 23.2531 45.164 24.3511 45.164 25.5144C45.164 26.8027 45.9631 27.6507 47.3275 27.6507C47.9336 27.6507 48.431 27.5284 48.7952 27.3789L48.6403 26.6451C48.3141 26.7674 47.9608 26.8353 47.4716 26.8353C46.7975 26.8353 46.2023 26.5092 46.1778 25.7481H48.9991ZM40.6821 23.3482L42.245 27.5529H43.2914L44.895 23.3482H43.7725L43.1093 25.4818C42.9951 25.8623 42.9 26.1885 42.8239 26.5336H42.7967C42.7206 26.1885 42.6336 25.8541 42.514 25.4818L41.8346 23.3482H40.6821ZM39.4808 21.5951C39.1275 21.5951 38.8829 21.8452 38.8829 22.174C38.8829 22.4948 39.1193 22.7448 39.4727 22.7448C39.845 22.7448 40.0788 22.4948 40.0788 22.174C40.0706 21.8479 39.845 21.5951 39.4808 21.5951ZM40.0162 23.3482H38.9481V27.5529H40.0162V23.3482ZM34.0096 27.5529H35.0777V25.085C35.0777 24.9627 35.0886 24.8322 35.1212 24.7371C35.2354 24.4191 35.5289 24.1174 35.9529 24.1174C36.5291 24.1174 36.752 24.574 36.752 25.1774V27.5529H37.812V25.0578C37.812 23.726 37.0564 23.2531 36.3226 23.2531C35.6213 23.2531 35.1647 23.6499 34.9853 23.9788H34.9581L34.9038 23.3482H33.9742C34.0014 23.7124 34.0096 24.1174 34.0096 24.5985V27.5529ZM28.291 21.7365V25.0659C28.291 26.8978 29.1662 27.648 30.5143 27.648C31.914 27.648 32.8354 26.8544 32.8354 25.0578V21.7337H31.7754V25.1312C31.7754 26.2727 31.3134 26.7973 30.5524 26.7973C29.8321 26.7973 29.3565 26.27 29.3565 25.1312V21.7337L28.291 21.7365Z" fill="#3471B8"/>
<defs>
<linearGradient id="paint0_linear_4108_22774" x1="53.0013" y1="15.2593" x2="53.0013" y2="37.2278" gradientUnits="userSpaceOnUse">
<stop stop-color="#3471B8"/>
<stop offset="0.19" stop-color="#3471B8"/>
<stop offset="0.7" stop-color="#034B77"/>
<stop offset="1" stop-color="#034B77"/>
</linearGradient>
<linearGradient id="paint1_linear_4108_22774" x1="38.9972" y1="35.505" x2="39.8692" y2="17.1368" gradientUnits="userSpaceOnUse">
<stop stop-color="#3471B8"/>
<stop offset="0.46" stop-color="#3471B8"/>
<stop offset="1" stop-color="#034B77"/>
</linearGradient>
<linearGradient id="paint2_linear_4108_22774" x1="23.3064" y1="14.2875" x2="24.3321" y2="38.7321" gradientUnits="userSpaceOnUse">
<stop stop-color="#3471B8"/>
<stop offset="0.46" stop-color="#3471B8"/>
<stop offset="1" stop-color="#034B77"/>
</linearGradient>
</defs>
</svg>
