<svg width="106" height="52" viewBox="0 0 106 52" fill="none" xmlns="http://www.w3.org/2000/svg">
<path d="M100.39 33.3309C100.39 31.7531 101.676 30.526 103.195 30.526C104.773 30.526 106 31.8116 106 33.3309C106 34.8501 104.714 36.1357 103.195 36.1357C101.676 36.1357 100.39 34.9086 100.39 33.3309Z" fill="#86BC25"/>
<path d="M16.1279 25.7933C16.1279 29.0656 15.3098 31.5199 13.5568 33.2729C11.8037 35.0259 9.3495 35.9025 6.19404 35.9025H0V16.4438H6.54465C9.64167 16.4438 11.979 17.2035 13.6152 18.8396C15.3098 20.4174 16.1279 22.7547 16.1279 25.7933ZM10.7519 25.9686C10.7519 24.1572 10.4013 22.8716 9.7001 21.9951C9.05732 21.177 7.94707 20.7095 6.54465 20.7095H5.14222V31.5783H6.31091C7.88864 31.5783 8.99889 31.1108 9.75854 30.1759C10.4013 29.2409 10.7519 27.8385 10.7519 25.9686Z" fill="black"/>
<path d="M37.9825 16.3853H33.1324V35.9023H37.9825V16.3853Z" fill="black"/>
<path d="M53.9934 28.5978C53.9934 30.9352 53.4091 32.8051 52.1235 34.1491C50.838 35.4931 49.0849 36.1358 46.8644 36.1358C44.7023 36.1358 43.0078 35.4931 41.7222 34.0906C40.4366 32.6882 39.7939 30.8768 39.7939 28.5978C39.7939 26.2604 40.3782 24.3905 41.6638 23.105C42.9493 21.761 44.7024 21.1182 46.9229 21.1182C48.3253 21.1182 49.5524 21.4104 50.6042 21.9947C51.7145 22.5791 52.4741 23.4556 53.0585 24.5658C53.7597 25.793 53.9934 27.0785 53.9934 28.5978ZM44.8192 28.5978C44.8192 29.8834 44.9945 30.7599 45.2867 31.4027C45.5789 32.0454 46.1048 32.3376 46.9229 32.3376C47.7409 32.3376 48.2084 32.0454 48.559 31.4027C48.8512 30.7599 49.0265 29.7665 49.0265 28.5978C49.0265 27.3123 48.8512 26.4357 48.559 25.793C48.2668 25.2086 47.7409 24.858 46.9229 24.858C46.2216 24.858 45.6373 25.1502 45.2867 25.793C44.9945 26.4357 44.8192 27.3123 44.8192 28.5978Z" fill="black"/>
<path d="M60.8303 21.3521H55.9802V35.8438H60.8303V21.3521Z" fill="black"/>
<path d="M60.8303 16.3853H55.9802V19.6576H60.8303V16.3853Z" fill="black"/>
<path d="M70.7057 32.1625C71.3485 32.1625 72.1666 31.9872 73.0431 31.695V35.3764C72.4003 35.6686 71.7575 35.8439 71.1732 35.9607C70.5888 36.0776 69.8876 36.136 69.0695 36.136C67.4334 36.136 66.2647 35.727 65.505 34.8505C64.8038 34.0324 64.3948 32.7468 64.3948 31.0522V25.0919H62.7002V21.3521H64.3948V17.7292L69.3033 16.9111V21.469H72.4587V25.1504H69.3033V30.7601C69.4201 31.7535 69.8292 32.1625 70.7057 32.1625Z" fill="black"/>
<path d="M82.0419 32.1625C82.6847 32.1625 83.5028 31.9872 84.3793 31.695V35.3764C83.7365 35.6686 83.0938 35.8439 82.5094 35.9607C81.9251 36.0776 81.2239 36.136 80.4058 36.136C78.7696 36.136 77.6009 35.727 76.8413 34.8505C76.1401 34.0324 75.731 32.7468 75.731 31.0522V25.0919H74.0364V21.3521H75.731V17.6708L80.6395 16.9111V21.469H83.795V25.1504H80.6395V30.7601C80.6979 31.7535 81.1654 32.1625 82.0419 32.1625Z" fill="black"/>
<path d="M97.4686 22.8128C96.2999 21.6441 94.6637 21.1182 92.5601 21.1182C90.3396 21.1182 88.5866 21.761 87.3594 23.105C86.1323 24.449 85.548 26.3189 85.548 28.7731C85.548 31.1105 86.1907 32.9804 87.4763 34.2659C88.8203 35.5515 90.6318 36.1943 92.9691 36.1943C94.1378 36.1943 95.0728 36.1358 95.8909 35.9605C96.6505 35.7852 97.527 35.5515 98.2282 35.1425L97.527 31.8701C97.0011 32.1039 96.4168 32.2792 95.9493 32.396C95.2481 32.5714 94.43 32.6298 93.6119 32.6298C92.677 32.6298 91.9173 32.396 91.3914 31.987C90.8655 31.5195 90.5733 30.8768 90.5733 30.0587H99.28V27.7797C99.2216 25.6177 98.5788 23.9815 97.4686 22.8128ZM90.5733 26.8448C90.6318 26.0851 90.8655 25.4424 91.2161 25.0918C91.5667 24.7411 92.0342 24.5658 92.677 24.5658C93.2613 24.5658 93.8456 24.7411 94.1963 25.1502C94.5469 25.5592 94.7222 26.0851 94.7806 26.8448H90.5733Z" fill="black"/>
<path d="M29.5095 22.8128C28.2824 21.6441 26.7047 21.1182 24.601 21.1182C22.3805 21.1182 20.6275 21.761 19.4004 23.105C18.1733 24.449 17.5889 26.3189 17.5889 28.7731C17.5889 31.1105 18.2317 32.9804 19.5172 34.2659C20.8612 35.5515 22.6727 36.1943 25.0101 36.1943C26.1788 36.1943 27.1137 36.1358 27.9318 35.9605C28.6914 35.7852 29.568 35.5515 30.2692 35.1425L29.568 31.8117C29.042 32.0454 28.4577 32.2207 27.9902 32.3376C27.289 32.5129 26.4709 32.5714 25.6529 32.5714C24.7179 32.5714 23.9583 32.3376 23.4323 31.9286C22.9064 31.4611 22.6143 30.8183 22.6143 30.0002H31.321V27.7797C31.2625 25.6177 30.6198 23.9815 29.5095 22.8128ZM22.5558 26.8448C22.6143 26.0851 22.848 25.4424 23.1986 25.0918C23.5492 24.7411 24.0167 24.5658 24.6595 24.5658C25.3022 24.5658 25.8282 24.7411 26.1788 25.1502C26.5294 25.5592 26.7047 26.0851 26.7631 26.8448H22.5558Z" fill="black"/>
</svg>
