<svg width="106" height="52" viewBox="0 0 106 52" fill="none" xmlns="http://www.w3.org/2000/svg">
<g clip-path="url(#clip0_4108_22527)">
<path d="M14.572 17.5556C6.00558 23.5335 0.000244141 31.6039 0.000244141 31.6039L11.2354 39.2976C11.2354 39.2976 12.2128 36.839 12.2407 36.7704C14.9121 42.3453 20.6418 43.8415 23.8448 43.7628H82.0693C85.3096 43.8523 91.0971 42.3759 93.7936 36.8077C93.8847 37.0387 94.7641 39.2058 94.7641 39.2058L106 31.5944C106 31.5944 99.9014 23.5142 91.274 17.5448C83.324 12.0457 70.2065 5.48831 52.8629 5.48831C39.1852 5.47508 25.8282 9.68451 14.572 17.5556Z" fill="white"/>
<path d="M35.8506 23.6606L36.8228 21.5572H24.3625L23.39 23.6606H28.2145L23.2192 33.9582H26.4441L31.4405 23.6606H35.8506Z" fill="#E1242A"/>
<path d="M80.8462 30.5429C79.9204 31.8626 78.6084 32.5305 77.9145 32.0361C77.221 31.5357 77.4121 30.0618 78.3384 28.7403C79.2647 27.4189 80.5778 26.7518 81.2715 27.2472C81.9632 27.7474 81.7729 29.2204 80.8462 30.5429ZM69.9395 30.4925C69.0113 31.8162 67.6997 32.482 67.0065 31.9877C66.3122 31.4873 66.5026 30.0133 67.4313 28.6866C68.357 27.3671 69.6691 26.6991 70.3638 27.1965C71.0585 27.6939 70.8644 29.171 69.9395 30.4925ZM56.3902 29.534C56.3902 29.534 56.9907 27.4819 58.9492 26.6607C58.9492 26.6607 59.5025 26.4668 59.7999 26.7132C59.7999 26.7132 60.2196 27.1258 59.7201 27.8783C59.274 28.5503 58.2053 29.768 57.0445 30.1766C57.0445 30.1766 55.9933 30.6389 56.3902 29.534ZM37.365 30.4925C36.4375 31.8162 35.1256 32.482 34.4319 31.9877C33.7389 31.4873 33.9304 30.0133 34.8566 28.6866C35.7829 27.3671 37.0956 26.6991 37.7887 27.1965C38.4818 27.6939 38.2911 29.171 37.365 30.4925ZM83.9504 32.103C83.9504 32.103 83.322 32.3955 83.0501 32.112C82.7782 31.8285 83.0206 31.3009 83.0206 31.3009L85.6559 25.6935H82.9704L82.5612 26.441C80.9925 25.0438 78.0445 25.7662 76.2159 27.7012C75.1627 28.818 74.5641 30.1375 74.4844 31.2866C74.0309 31.592 73.5474 31.849 73.0416 32.0534C73.0416 32.0534 72.4142 32.344 72.1424 32.0594C71.8706 31.7749 72.1119 31.2472 72.1119 31.2472L76.7884 21.5052H74.1052L71.652 26.3895C70.0854 24.9953 67.137 25.7167 65.3089 27.6517C64.9534 28.0292 64.6387 28.4441 64.3702 28.8894L64.3713 28.8804C64.3538 28.9136 64.3343 28.9479 64.3165 28.9822C64.2597 29.0821 64.2039 29.1829 64.1546 29.2805C62.6954 31.839 60.8814 32.2657 60.8814 32.2657C57.047 33.4278 56.6078 31.5252 56.6078 31.5252C60.9042 29.9146 62.5157 28.0123 62.3708 26.5555C62.2224 25.094 60.246 25.021 60.246 25.021C56.9987 24.8232 54.1906 27.1237 53.5069 29.3743C53.2944 30.0295 53.2448 30.7278 53.3624 31.4071C52.0629 32.1073 51.316 32.2193 51.316 32.2193C50.234 32.5653 50.101 32.0488 49.9703 31.7271C49.8396 31.4055 49.3534 28.6057 49.3534 28.6057L53.9128 25.586H51.1207L47.6944 27.737C46.9244 28.0579 47.2233 27.2406 47.2233 27.2406L50.0186 21.5017H47.3346L42.7975 30.8143C42.2759 31.1275 41.2263 31.7476 40.4693 32.0533C40.4693 32.0533 39.8405 32.3438 39.5676 32.0593C39.2946 31.7747 39.5381 31.2471 39.5381 31.2471L42.1725 25.6419H39.4889L39.0776 26.3894C37.5113 24.9952 34.5627 25.7165 32.735 27.6515C30.9072 29.5865 30.4398 32.138 31.6912 33.3476C32.6923 34.3201 34.4899 34.1416 36.1042 33.037C36.1042 33.037 36.5136 32.6798 36.7347 33.1005C36.9653 33.5293 37.8895 34.5079 40.0178 33.6563C40.6443 33.4051 41.2533 33.111 41.8405 32.7761L41.2823 33.9222H43.9673L45.3109 31.166L46.4792 30.4134C46.4792 30.4134 46.8355 30.128 46.9809 30.7372C46.9809 30.7372 47.5592 33.0526 47.7846 33.3563C48.01 33.6599 48.4568 34.3389 50.3428 33.7901C51.5332 33.4426 52.703 33.0266 53.8466 32.5441C54.4776 33.4229 55.6937 34.0242 57.6821 34.0242C59.8371 34.0145 61.9225 33.2499 63.5845 31.8602C63.6278 32.423 63.8696 32.9512 64.2659 33.3482C65.267 34.3207 67.0631 34.1422 68.6788 33.0376C68.6788 33.0376 69.0881 32.6804 69.3107 33.1011C69.5394 33.5298 70.4641 34.5085 72.5929 33.6569C73.3153 33.3806 74.0063 33.0265 74.654 32.6006C74.7673 32.9029 74.9448 33.1763 75.1739 33.4016C76.175 34.371 77.9711 34.1907 79.5864 33.0884C79.5864 33.0884 79.9952 32.7342 80.2184 33.1509C80.4475 33.5834 81.3712 34.5583 83.5 33.7078C85.6288 32.8573 86.2419 32.0855 86.2419 32.0855L85.7036 31.124C85.1606 31.5212 84.5717 31.8494 83.9504 32.103Z" fill="#E1242A"/>
<path d="M91.4693 31.8434C91.4693 31.8434 90.1995 39.3483 82.0094 39.3483H23.7652C15.5774 39.3483 14.4241 31.7748 14.4241 31.7748C14.1106 29.764 14.495 28.3895 15.1053 27.4376C21.0014 19.5725 32.6679 9.02093 52.8363 9.02093C73.1786 9.02093 84.9401 19.7261 90.8371 27.593C91.5179 28.4646 91.7714 29.8978 91.4693 31.8434ZM52.8628 7.72049C20.3757 7.72049 3.1467 31.0665 3.1467 31.0665L10.211 35.902C10.211 35.902 11.0649 33.7369 13.021 30.6376C13.0226 31.0803 13.0602 31.522 13.1334 31.9584C14.3818 41.7666 23.7923 41.5335 23.7923 41.5335H82.1305C82.1305 41.5335 91.6638 41.7959 92.9112 31.9927C92.9813 31.5703 93.0166 31.1427 93.0167 30.7144C94.935 33.7369 95.7785 35.8374 95.7785 35.8374L102.832 31.0545C102.832 31.0545 85.35 7.72049 52.8628 7.72049Z" fill="#E1242A"/>
</g>
<defs>
<clipPath id="clip0_4108_22527">
<rect width="106" height="52" fill="white"/>
</clipPath>
</defs>
</svg>
