<svg width="106" height="52" viewBox="0 0 106 52" fill="none" xmlns="http://www.w3.org/2000/svg">
<path d="M65.44 4.73457L59.7474 13.6202L67.5017 6.47246L65.44 4.73457ZM54.6386 0.455974L54.1505 11.0111L57.2979 0.939483L54.6386 0.455974ZM68.3684 7.29808L63.6656 12.4342C64.0396 12.4962 64.3915 12.6533 64.6874 12.8904L70.1017 9.42369L68.3684 7.29808ZM58.4702 1.25422L56.1621 11.5493L61.0109 2.18018L58.4702 1.25422ZM62.1193 2.69106L58.046 12.4297L64.4319 4.04124L62.1193 2.69106ZM73.9105 17.5384L67.1733 19.6412C67.3877 19.9427 67.6208 20.2306 67.8712 20.5033L74.3712 20.2023L73.9105 17.5384ZM70.8088 10.3907L65.5495 14.4002C65.5613 14.4786 65.5691 14.558 65.5723 14.6374C65.5723 14.9156 65.5723 15.1893 65.6133 15.4584L72.1452 12.7216L70.8088 10.3907ZM69.6775 22.0268C71.0952 22.9373 72.7412 23.429 74.426 23.4454H74.4761V21.4065L69.6775 22.0268ZM72.6607 13.8163L65.9919 17.283C66.074 17.5293 66.1607 17.7756 66.261 18.0128L73.5867 16.3707L72.6607 13.8163ZM36.6667 6.47246L44.421 13.6202L38.7193 4.73457L36.6667 6.47246ZM52.0979 10.8286L53.4663 0.364746H50.7295L52.0979 10.8286ZM32.0277 12.7307L38.6053 15.4676C38.6326 15.1893 38.6463 14.9111 38.6463 14.6283V14.423L33.3551 10.3816L32.0277 12.7307ZM29.7881 20.2023L36.3428 20.5261C36.588 20.2576 36.8165 19.9743 37.027 19.6777L30.2807 17.5384L29.7881 20.2023ZM29.6831 23.45H29.7379C31.4362 23.4427 33.0974 22.9522 34.5274 22.036L29.6831 21.4065V23.45ZM30.5726 16.3707L37.9438 18.0219C38.0442 17.7893 38.1309 17.5658 38.2084 17.3012L31.4986 13.83L30.5726 16.3707ZM43.1484 2.18018L48.0017 11.5493L45.6891 1.25422L43.1484 2.18018ZM34.0575 9.40089L39.481 12.8767C39.7666 12.6482 40.103 12.4917 40.4617 12.4205L35.7909 7.33001L34.0575 9.40089ZM46.8614 0.939483L50.0088 11.0111L49.5207 0.455974L46.8614 0.939483ZM39.7137 4.04124L46.0996 12.4297L42.0537 2.69106L39.7137 4.04124ZM73.874 33.3802L73.2445 31.4507C73.2445 31.4507 65.034 30.0367 62.7533 29.7858C60.4726 29.5349 54.5017 27.9339 52.6726 32.5226C50.8481 27.9384 44.8635 29.5395 42.5919 29.7858C40.3203 30.0321 32.1007 31.4507 32.1007 31.4507L31.5031 33.3802H50.1274C50.9393 33.4121 52.6863 33.6584 52.6863 35.2047C52.6863 33.6812 54.4333 33.4349 55.2407 33.3802H73.874Z" fill="#88CBDF"/>
<path d="M74.7908 34.288H55.8656C55.5616 34.2651 55.256 34.3034 54.9671 34.4006C54.6781 34.4978 54.4116 34.6519 54.1832 34.8539C53.9548 35.0559 53.7693 35.3017 53.6375 35.5766C53.5058 35.8515 53.4305 36.1501 53.4161 36.4546H51.961C51.9466 36.1501 51.8713 35.8515 51.7396 35.5766C51.6078 35.3017 51.4223 35.0559 51.1939 34.8539C50.9656 34.6519 50.699 34.4978 50.41 34.4006C50.1211 34.3034 49.8156 34.2651 49.5115 34.288H30.5863C30.531 34.2891 30.4783 34.3116 30.4392 34.3507C30.4001 34.3898 30.3776 34.4425 30.3765 34.4978L31.0424 36.035C31.0424 36.0906 31.0645 36.144 31.1039 36.1834C31.1432 36.2227 31.1966 36.2448 31.2522 36.2448H48.9824C49.0377 36.246 49.0904 36.2685 49.1295 36.3076C49.1686 36.3467 49.1911 36.3994 49.1922 36.4546L49.4386 37.6817C49.4386 37.7975 49.5325 37.8915 49.6484 37.8915H55.7014C55.7566 37.8903 55.8093 37.8678 55.8484 37.8287C55.8875 37.7896 55.91 37.7369 55.9112 37.6817L56.194 36.4455C56.1952 36.3902 56.2176 36.3375 56.2567 36.2984C56.2958 36.2593 56.3485 36.2369 56.4038 36.2357H74.1203C74.1756 36.2345 74.2283 36.2121 74.2674 36.173C74.3065 36.1339 74.329 36.0812 74.3301 36.0259L74.9824 34.5024C74.9827 34.4492 74.9633 34.3979 74.9279 34.3583C74.8925 34.3187 74.8437 34.2936 74.7908 34.288ZM28.2645 50.3532L29.7424 48.588C30.617 49.3109 31.714 49.7104 32.8487 49.7192C33.5603 49.7192 33.9435 49.4729 33.9435 49.0624V49.035C33.9435 48.6382 33.6287 48.4192 32.3287 48.1227C30.2898 47.6666 28.7161 47.0827 28.7161 45.1122V45.0848C28.7161 43.3059 30.1256 42.0196 32.4245 42.0196C33.8477 41.9648 35.2435 42.4164 36.3656 43.2922L35.0382 45.1578C34.2562 44.591 33.3215 44.273 32.3561 44.2455C31.7129 44.2455 31.3982 44.5192 31.3982 44.8613V44.8887C31.3982 45.3448 31.7266 45.5182 33.054 45.801C35.2572 46.2571 36.6256 46.9915 36.6256 48.7841V48.8069C36.6256 50.7638 35.0793 51.9269 32.7529 51.9269C31.1146 51.9697 29.5175 51.4098 28.2645 50.3532ZM38.4593 42.1975H46.1224V44.5238H41.1049V46.1522H45.6343V48.3508H41.114V51.7718H38.4593V42.1975ZM48.02 47.5753V42.1975H50.7158V47.5206C50.7158 48.889 51.4136 49.5596 52.481 49.5596C53.5484 49.5596 54.2463 48.9301 54.2463 47.589V42.1975H56.9421V47.5069C56.9421 50.5996 55.1768 51.9543 52.4536 51.9543C49.7305 51.9543 48.02 50.5722 48.02 47.5753ZM58.0596 50.3532L59.5375 48.588C60.4182 49.3159 61.5241 49.7157 62.6666 49.7192C63.3782 49.7192 63.7614 49.4729 63.7614 49.0624V49.035C63.7614 48.6382 63.4466 48.4192 62.1466 48.1227C60.1077 47.6666 58.534 47.0827 58.534 45.1122V45.0848C58.5158 43.3332 59.9298 42.0332 62.2105 42.0332C63.6336 41.9785 65.0294 42.4301 66.1515 43.3059L64.8333 45.1578C64.0513 44.591 63.1166 44.273 62.1512 44.2455C61.508 44.2455 61.1933 44.5192 61.1933 44.8613V44.8887C61.1933 45.3448 61.5217 45.5182 62.8491 45.801C65.0522 46.2571 66.4207 46.9915 66.4207 48.7841V48.8069C66.4207 50.7638 64.8743 51.9269 62.548 51.9269C60.9097 51.9697 59.3125 51.4098 58.0596 50.3532ZM67.9807 42.1975H71.6754C75.0965 42.1975 77.0807 44.168 77.0807 46.9322V46.9596C77.0807 49.7238 75.0691 51.7764 71.607 51.7764H67.9579L67.9807 42.1975ZM71.7164 49.4227C73.3038 49.4227 74.3575 48.5469 74.3575 47.0006V46.9824C74.3575 45.4497 73.3038 44.5603 71.7164 44.5603H70.6354V49.4318L71.7164 49.4227ZM40.22 28.5953C40.6761 28.5269 41.0729 28.4813 41.3512 28.4494L41.5884 28.4175V26.675H62.6347V28.422L62.8445 28.4494C63.1319 28.4813 63.5151 28.5315 64.0031 28.5999V26.675H74.4122V24.8139C68.8054 24.7697 64.2659 20.2443 64.2038 14.6375C64.2125 14.5181 64.1964 14.3981 64.1567 14.2852C64.1169 14.1723 64.0543 14.0688 63.9728 13.9811C63.8913 13.8934 63.7925 13.8235 63.6828 13.7757C63.573 13.7279 63.4546 13.7032 63.3349 13.7032C63.2152 13.7032 63.0967 13.7279 62.987 13.7757C62.8772 13.8235 62.7785 13.8934 62.6969 13.9811C62.6154 14.0688 62.5528 14.1723 62.5131 14.2852C62.4733 14.3981 62.4573 14.5181 62.4659 14.6375C62.4659 20.2525 57.7403 24.8185 52.1252 24.8185C46.4851 24.8185 41.8967 20.2772 41.8393 14.6375C41.8393 14.3955 41.7431 14.1635 41.5721 13.9924C41.401 13.8213 41.1689 13.7252 40.927 13.7252C40.685 13.7252 40.453 13.8213 40.2819 13.9924C40.1108 14.1635 40.0147 14.3955 40.0147 14.6375C39.9549 20.269 35.3789 24.8062 29.747 24.8185V26.675H40.2382L40.22 28.5953ZM64.0031 18.3915C64.5145 19.8444 65.3293 21.1719 66.3934 22.2855C67.4575 23.3992 68.7465 24.2735 70.1747 24.8504H64.0031V18.3915ZM62.6347 18.3641V24.8504H56.4586C57.8903 24.2711 59.1819 23.3928 60.247 22.2742C61.3121 21.1556 62.1261 19.8225 62.6347 18.3641ZM41.5884 18.2729C42.0892 19.7512 42.9031 21.1041 43.9745 22.2393C45.0459 23.3744 46.3495 24.2651 47.7965 24.8504H41.5884V18.2729ZM34.0347 24.8504C35.4709 24.2692 36.766 23.3872 37.8329 22.2636C38.8998 21.1401 39.7138 19.8011 40.22 18.3368V24.8504H34.0347Z" fill="#00355F"/>
</svg>
