<svg width="106" height="52" viewBox="0 0 106 52" fill="none" xmlns="http://www.w3.org/2000/svg">
<path d="M78.4621 37.2151H83.1072V28.7289C83.1072 26.7931 84.2387 25.4233 85.9062 25.4233C87.5141 25.4233 88.3479 26.5551 88.3479 28.163V37.2149H92.9931V27.2698C92.9931 23.9047 90.9685 21.5225 87.6928 21.5225C85.6087 21.5225 84.1495 22.4159 83.0477 24.0537H82.9582V21.9695H78.4621V37.2151ZM69.3503 21.5525C64.4967 21.5525 61.2512 25.0363 61.2512 29.6221C61.2512 34.1781 64.4967 37.6918 69.3503 37.6918C74.2039 37.6918 77.4494 34.1781 77.4494 29.6221C77.4494 25.0365 74.2039 21.5525 69.3503 21.5525ZM69.3206 34.2671C67.1168 34.2671 65.9559 32.4212 65.9559 29.6219C65.9559 26.7931 67.1168 24.9766 69.3206 24.9766C71.5244 24.9766 72.7448 26.7929 72.7448 29.6219C72.7448 32.4212 71.524 34.2671 69.3206 34.2671ZM48.0303 37.2149H61.0725V33.5526H53.6881V33.4628L60.7451 25.5423V21.9694H48.0303V25.6317H55.1767V25.7211L48.0303 33.7012V37.2149ZM42.0742 37.2149H46.7491V21.9697H42.0742V37.2149ZM31.2354 37.2149H35.8806V30.2178C35.8806 27.0314 37.7863 25.6317 40.7045 26.0192H40.7939V21.9994C40.5556 21.91 40.2878 21.8803 39.8411 21.8803C38.0248 21.8803 36.8038 22.7138 35.7615 24.5004H35.672V21.9695H31.2354V37.2149ZM22.6897 34.2971C20.6349 34.2971 19.3844 32.9567 19.1461 30.9026H30.1338C30.1635 27.6267 29.3 25.0063 27.4835 23.3687C26.2033 22.1776 24.5058 21.5225 22.3621 21.5225C17.7767 21.5225 14.5906 25.0063 14.5906 29.5622C14.5906 34.1476 17.6278 37.6613 22.6601 37.6613C24.5659 37.6613 26.0843 37.1552 27.335 36.2915C28.6751 35.3689 29.6277 34.0285 29.8955 32.6887H25.4292C24.9827 33.7011 24.0593 34.2971 22.6897 34.2971ZM22.4514 24.8575C24.089 24.8575 25.2205 26.0786 25.3992 27.865H19.1758C19.5334 26.0485 20.5159 24.8575 22.4514 24.8575ZM5.30026 37.2149H10.1834L15.484 21.9695H10.8091L7.83142 31.7658H7.77185L4.79416 21.9695H0L5.30026 37.2149ZM42.0742 16.5498H46.7491V20.6889H42.0742V16.5498Z" fill="#231F20"/>
<path d="M92.9155 21.9696H95.2945L97.6734 27.0712L103.621 14.3169H106L98.863 29.6222H96.4839L92.9155 21.9696Z" fill="#ED1C24"/>
</svg>
