<svg width="106" height="52" viewBox="0 0 106 52" fill="none" xmlns="http://www.w3.org/2000/svg">
<g clip-path="url(#clip0_4108_22808)">
<path d="M70.8981 20.4659C70.8981 20.4659 71.7087 20.4868 71.9271 20.4868C72.1456 20.4868 73.0809 20.4561 73.0809 20.4561V20.6121C72.5714 20.6847 72.4069 20.8198 72.6964 21.5164L74.3697 25.5386L75.9913 21.173C76.0526 20.9028 76.0847 20.7469 75.586 20.6118V20.4662C75.586 20.4662 76.3654 20.4871 76.6564 20.4871C77.0308 20.4766 77.4777 20.4662 77.4777 20.4662V20.6118C76.8748 20.6118 76.74 20.7469 76.4383 21.5265L74.1927 26.9316H74.0055C74.0055 26.9316 71.9376 21.8899 71.7608 21.5468C71.4385 20.882 71.4489 20.6837 70.8978 20.6114L70.8981 20.4659ZM0.819823 21.6402V24.2908C0.819823 26.4736 0.819823 26.4736 0.0922217 26.598V26.7956C0.0922217 26.7956 0.798991 26.7435 1.34829 26.7435C1.89759 26.7435 2.59578 26.7956 2.59578 26.7956V26.5977C1.86879 26.4736 1.86879 26.4736 1.86879 24.2905V21.6402C1.86879 19.4577 1.86879 19.4577 2.5964 19.3425V19.1443C2.5964 19.1443 1.89943 19.1749 1.34798 19.1749C0.79654 19.1749 0.0919153 19.1443 0.0919153 19.1443V19.3419C0.829626 19.4562 0.819517 19.4562 0.819517 21.6396M30.3708 19.3113C29.7977 19.1323 29.2039 19.0277 28.6041 19C27.1176 19 25.9743 20.0603 25.9743 21.1724C25.9743 23.6775 29.8513 22.9799 29.8513 24.9244C29.8513 26.4837 27.7726 27.0762 26.4418 26.0159C26.1612 25.7978 26.1195 25.3511 26.057 25.0702H25.8181L25.9014 26.4941C26.5668 26.7609 27.2739 26.9087 27.9904 26.9307C29.8513 26.9203 30.7762 25.6746 30.7762 24.5298C30.7762 22.0143 26.8683 22.7109 26.8784 20.7983C26.8888 19.4157 28.5416 19.0625 29.7581 19.7484C30.0596 19.894 30.1944 20.6632 30.1944 20.6632H30.4229L30.3712 19.3119L30.3708 19.3113ZM30.8175 21.6396L30.9214 20.4546C30.9214 20.4546 33.0729 20.4852 33.5512 20.4852C34.0294 20.4852 36.2229 20.4546 36.2229 20.4546L36.275 21.6396H36.1086C35.9423 20.9224 35.7238 20.8081 34.7156 20.8081H34.0089V25.6942C34.0089 26.4528 34.0297 26.5572 34.7156 26.6194V26.7962C34.7156 26.7962 34.0297 26.7656 33.5515 26.7656C33.0732 26.7656 32.3769 26.7962 32.3769 26.7962V26.6194C33.0729 26.5582 33.0938 26.4427 33.0938 25.6942V20.8075H32.3769C31.3684 20.8075 31.1606 20.9218 30.9735 21.639L30.8175 21.6396ZM46.9182 20.423C46.9182 20.423 48.2282 20.4439 48.8516 20.4439C49.495 20.4439 50.6496 20.423 50.816 20.423C50.8267 20.6311 50.9201 21.2652 50.941 21.4524L50.7955 21.4941C50.5669 20.9016 50.3488 20.6415 48.3529 20.7873V23.3028C50.203 23.3132 50.4523 23.3549 50.5041 22.6689H50.6705C50.6257 23.1978 50.6119 23.7288 50.6291 24.2593H50.4628C50.4321 23.6046 50.1928 23.6465 48.3529 23.6465V26.3596C50.1092 26.4739 50.8475 26.4117 51.1177 25.549L51.2945 25.6103L50.9826 26.7745C50.9826 26.7745 48.79 26.7438 48.4049 26.7438C47.7815 26.7438 46.9185 26.7745 46.9185 26.7745V26.6081C47.428 26.5355 47.5006 26.5248 47.5214 25.7034V21.5259C47.511 20.6733 47.3238 20.6528 46.9185 20.5903V20.424L46.9182 20.423ZM54.0802 19.1149C54.0802 19.1149 54.8284 19.1455 55.3587 19.1455C55.889 19.1455 56.6267 19.1149 56.6267 19.1149V19.3125C56.2839 19.4163 55.8678 19.3431 55.8678 20.6013V23.8549C55.8678 25.1541 56.1797 25.4452 56.1797 25.4452C56.3666 25.74 56.629 25.9794 56.9397 26.1385C57.2504 26.2976 57.598 26.3705 57.9465 26.3498C58.2762 26.3579 58.6023 26.2797 58.8925 26.1229C59.1827 25.9661 59.4269 25.7362 59.6008 25.4559C59.6008 25.4559 59.8707 25.1961 59.8919 23.9278V20.6114C59.871 19.4473 59.7669 19.4577 58.9458 19.3122V19.1149C58.9458 19.1149 59.4032 19.1455 60.1406 19.1455C60.7019 19.1455 61.1697 19.1149 61.1697 19.1149V19.3125C60.6918 19.4163 60.4007 19.4788 60.4111 20.5686V24.217C60.4215 25.4853 59.7678 26.0465 59.7678 26.0465C59.7678 26.0465 59.0509 26.8988 57.5124 26.8988C57.0686 26.9184 56.6266 26.8315 56.2234 26.6453C55.8201 26.459 55.4673 26.1789 55.1945 25.8284C55.1945 25.8284 54.7769 25.4029 54.7769 23.8641V20.6114C54.7769 19.4473 54.621 19.3952 54.0805 19.3122L54.0802 19.1149ZM61.3351 20.4555C61.3351 20.4555 61.7092 20.4763 62.1249 20.4763C62.326 20.4797 62.5271 20.4727 62.7275 20.4555L67.0619 25.3723V21.5262C67.0619 20.7986 66.9166 20.6841 66.3033 20.6114V20.4555C66.3033 20.4555 66.8241 20.4861 67.2389 20.4861C67.6648 20.4861 68.1329 20.4555 68.1329 20.4555V20.6114C67.6338 20.7778 67.499 20.809 67.499 21.5158V26.8998L67.1771 26.8691L62.6656 21.7447V25.6737C62.6656 26.2659 62.7486 26.5159 63.3828 26.6197V26.7757C63.3828 26.7757 62.8736 26.745 62.4368 26.745C62.0422 26.745 61.5324 26.7757 61.5324 26.7757V26.6197C62.1451 26.5159 62.2493 26.2662 62.2493 25.6737V21.5262C62.2493 20.8403 61.7818 20.726 61.3345 20.6114L61.3351 20.4555ZM100.501 20.4662C100.501 20.4662 101.073 20.4871 101.509 20.4871C101.946 20.4871 102.559 20.4662 102.559 20.4662V20.6326C102.164 20.7469 101.936 20.7674 102.206 21.2039L103.547 23.3867L104.815 21.2144C104.971 20.8921 105.054 20.7052 104.431 20.6118V20.4662C104.431 20.4662 104.857 20.4871 105.262 20.4871C105.626 20.4871 106 20.4662 106 20.4662V20.6118C105.595 20.7052 105.585 20.8094 105.314 21.2039L103.682 23.7302L103.703 25.6841C103.703 26.5367 103.922 26.5055 104.431 26.6197V26.7757C104.431 26.7757 103.776 26.745 103.297 26.745C102.818 26.745 102.143 26.7757 102.143 26.7757V26.6197C102.725 26.5055 102.798 26.5471 102.819 25.6945L102.829 23.7302L101.218 21.2251C100.834 20.7263 100.865 20.7159 100.501 20.6326V20.4662ZM12.1085 20.424C12.1085 20.424 12.701 20.4347 13.2114 20.4347C13.7102 20.4347 14.3143 20.424 14.3143 20.424V20.5903C13.8465 20.6424 13.6596 20.8188 13.7739 21.1825L15.5814 25.5377L17.1414 21.1825C17.2556 20.7358 17.1515 20.6424 16.5176 20.5903V20.424C16.5176 20.424 16.9959 20.4347 17.3907 20.4347C17.7961 20.4347 18.3267 20.424 18.3267 20.424V20.5903C17.8797 20.6424 17.7964 20.8188 17.6508 21.1724L15.4567 26.8893H15.2282L13.7209 23.2743L12.2032 26.8893H12.0264L9.70667 21.1727C9.54031 20.7986 9.48854 20.7361 8.95854 20.5906C8.95854 20.4034 8.94812 20.4243 8.94812 20.4243C8.94812 20.4243 9.53021 20.435 10.0293 20.435C10.5384 20.435 11.1518 20.4243 11.1518 20.4243V20.5906C10.6426 20.6427 10.4971 20.8192 10.6221 21.1935L12.3576 25.5383L13.5104 22.7838L12.8671 21.1828C12.6489 20.7361 12.6174 20.7049 12.1085 20.5906V20.424ZM41.0251 21.6405L41.1289 20.4555C41.1289 20.4555 43.2805 20.4861 43.759 20.4861C44.2375 20.4861 46.4305 20.4555 46.4305 20.4555L46.4825 21.6405H46.315C46.1486 20.9233 45.9305 20.809 44.922 20.809H44.2152V25.6942C44.2152 26.4528 44.236 26.5572 44.922 26.6194V26.7962C44.922 26.7962 44.236 26.7656 43.7578 26.7656C43.2796 26.7656 42.5832 26.7962 42.5832 26.7962V26.6194C43.2793 26.5582 43.3001 26.4427 43.3001 25.6942V20.8075H42.5838C41.5753 20.8075 41.3676 20.9218 41.1804 21.639L41.0251 21.6405ZM93.1731 22.5139V24.7072C93.1731 26.5147 93.1835 26.5147 92.5806 26.6197V26.7858C92.5806 26.7858 93.1731 26.7444 93.6201 26.7444C94.0775 26.7444 94.6595 26.7858 94.6595 26.7858V26.6197C94.0569 26.5159 94.0569 26.5159 94.0569 24.7072V22.5136C94.0569 20.7153 94.0569 20.7153 94.6595 20.6219V20.4555C94.6595 20.4555 94.0775 20.4763 93.6201 20.4763C93.1731 20.4763 92.5806 20.4555 92.5806 20.4555V20.6219C93.1933 20.7153 93.1731 20.7153 93.1731 22.5136M69.422 22.5136V24.7068C69.422 26.5144 69.4325 26.5144 68.8295 26.6194V26.7855C68.8295 26.7855 69.422 26.7441 69.869 26.7441C70.3264 26.7441 70.9085 26.7855 70.9085 26.7855V26.6194C70.3056 26.5156 70.3056 26.5156 70.3056 24.7068V22.5136C70.3056 20.7153 70.3056 20.7153 70.9085 20.6219V20.4555C70.9085 20.4555 70.3264 20.4763 69.869 20.4763C69.422 20.4763 68.8295 20.4555 68.8295 20.4555V20.6219C69.4423 20.7153 69.422 20.7153 69.422 22.5136ZM77.4658 20.4555C77.4658 20.4555 78.7755 20.4763 79.3989 20.4763C80.0423 20.4763 81.1972 20.4555 81.3636 20.4555C81.374 20.6632 81.4677 21.2977 81.4883 21.4846L81.3428 21.5262C81.1142 20.9337 80.8958 20.6736 78.8999 20.8195V23.335C80.75 23.3454 80.9993 23.3871 81.0514 22.7011H81.2175C81.1726 23.23 81.1587 23.761 81.1758 24.2914H81.0097C80.9791 23.6367 80.7392 23.6787 78.8999 23.6787V26.3918C80.6562 26.5061 81.3945 26.4439 81.6647 25.5812L81.8415 25.6425C81.7585 25.9543 81.5296 26.8066 81.5296 26.8066C81.5296 26.8066 79.3364 26.776 78.9516 26.776C78.3282 26.776 77.4652 26.8066 77.4652 26.8066V26.6403C77.9743 26.5677 78.0473 26.5576 78.0681 25.7359V21.5575C78.0577 20.7049 77.9434 20.6427 77.4652 20.6219V20.4555H77.4658ZM94.931 21.6405L95.0348 20.4555C95.0348 20.4555 97.1864 20.4861 97.6649 20.4861C98.1435 20.4861 100.336 20.4555 100.336 20.4555L100.388 21.6405H100.222C100.056 20.9233 99.8376 20.809 98.8291 20.809H98.1211V25.6942C98.1211 26.4528 98.1419 26.5572 98.8279 26.6194V26.7962C98.8279 26.7962 98.1419 26.7656 97.6637 26.7656C97.1855 26.7656 96.4891 26.7962 96.4891 26.7962V26.6194C97.1852 26.5582 97.206 26.4427 97.206 25.6942V20.8075H96.4891C95.4809 20.8075 95.2729 20.9218 95.0857 21.639L94.931 21.6405ZM91.5304 20.6007C91.0611 20.4576 90.5757 20.3738 90.0856 20.3513C88.8602 20.3513 87.9132 21.2245 87.9132 22.1389C87.9132 24.1971 91.1043 23.6254 91.1043 25.2264C91.1043 26.5049 89.3997 26.9935 88.2977 26.1204C88.0692 25.9436 88.0379 25.5689 87.9858 25.341H87.7882L87.8608 26.5159C88.4065 26.7383 88.9875 26.8615 89.5764 26.8795C91.1046 26.8691 91.8741 25.8401 91.8741 24.8943C91.8741 22.8258 88.6522 23.3975 88.6626 21.828C88.673 20.6945 90.0348 20.4037 91.0323 20.965C91.2816 21.0793 91.3855 21.7131 91.3855 21.7131H91.5831L91.531 20.6007H91.5304ZM18.8852 20.424C18.8852 20.424 19.2905 20.4344 19.6854 20.4344C20.0907 20.4344 20.4439 20.424 20.4439 20.424L22.5958 26.0462C22.6496 26.2079 22.7507 26.3498 22.8859 26.4535C23.021 26.5573 23.1842 26.6181 23.3543 26.6283V26.7947C23.3543 26.7947 22.7618 26.764 22.2628 26.764C21.7637 26.764 21.1504 26.7947 21.1504 26.7947V26.6283C21.545 26.5671 21.8051 26.5557 21.6078 26.0462L20.9323 24.1775H18.8432L18.1058 26.0462C17.9082 26.5557 18.3135 26.5762 18.6462 26.6283V26.7947C18.6462 26.7947 18.2096 26.764 17.804 26.764C17.4088 26.764 16.9514 26.7947 16.9514 26.7947C16.9514 26.7947 16.941 26.8363 16.941 26.6387C17.2942 26.5039 17.3466 26.5039 17.5439 26.0465L19.6226 21.1831C19.7889 20.726 19.3628 20.6948 18.8849 20.5805L18.8852 20.424ZM20.7769 23.7087L19.9439 21.3697L19.02 23.7087H20.7769ZM18.8852 20.424C18.8852 20.424 19.2905 20.4344 19.6854 20.4344C20.0907 20.4344 20.4439 20.424 20.4439 20.424L22.5958 26.0462C22.6496 26.2079 22.7507 26.3498 22.8859 26.4535C23.021 26.5573 23.1842 26.6181 23.3543 26.6283V26.7947C23.3543 26.7947 22.7618 26.764 22.2628 26.764C21.7637 26.764 21.1504 26.7947 21.1504 26.7947V26.6283C21.545 26.5671 21.8051 26.5557 21.6078 26.0462L20.9323 24.1775H18.8432L18.1058 26.0462C17.9082 26.5557 18.3135 26.5762 18.6462 26.6283V26.7947C18.6462 26.7947 18.2096 26.764 17.804 26.764C17.4088 26.764 16.9514 26.7947 16.9514 26.7947C16.9514 26.7947 16.941 26.8363 16.941 26.6387C17.2942 26.5039 17.3466 26.5039 17.5439 26.0465L19.6226 21.1831C19.7889 20.726 19.3628 20.6948 18.8849 20.5805L18.8852 20.424ZM20.7769 23.7087L19.9439 21.3697L19.02 23.7087H20.7769ZM37.3868 20.4555C37.3868 20.4555 37.7918 20.4659 38.187 20.4659C38.5923 20.4659 38.9455 20.4555 38.9455 20.4555L41.0971 26.0787C41.1509 26.2404 41.2519 26.3823 41.3871 26.486C41.5223 26.5897 41.6855 26.6506 41.8556 26.6608V26.8268C41.8556 26.8268 41.2634 26.7962 40.7644 26.7962C40.2653 26.7962 39.652 26.8268 39.652 26.8268V26.6608C40.0469 26.5995 40.3067 26.5882 40.1091 26.0787L39.4357 24.2081H37.3451L36.6098 26.0787C36.4122 26.5882 36.8175 26.6087 37.1503 26.6608V26.8268C37.1503 26.8268 36.7137 26.7962 36.3081 26.7962C35.9132 26.7962 35.4555 26.8268 35.4555 26.8268C35.4555 26.8268 35.4454 26.8685 35.4454 26.6712C35.7986 26.5361 35.8507 26.5361 36.048 26.0787L38.1266 21.2141C38.293 20.7567 37.8668 20.7257 37.3889 20.6114V20.4555H37.3868ZM39.2785 23.74L38.448 21.4009L37.5228 23.7397L39.2785 23.74ZM37.3868 20.4555C37.3868 20.4555 37.7918 20.4659 38.187 20.4659C38.5923 20.4659 38.9455 20.4555 38.9455 20.4555L41.0971 26.0787C41.1509 26.2404 41.2519 26.3823 41.3871 26.486C41.5223 26.5897 41.6855 26.6506 41.8556 26.6608V26.8268C41.8556 26.8268 41.2634 26.7962 40.7644 26.7962C40.2653 26.7962 39.652 26.8268 39.652 26.8268V26.6608C40.0469 26.5995 40.3067 26.5882 40.1091 26.0787L39.4357 24.2081H37.3451L36.6098 26.0787C36.4122 26.5882 36.8175 26.6087 37.1503 26.6608V26.8268C37.1503 26.8268 36.7137 26.7962 36.3081 26.7962C35.9132 26.7962 35.4555 26.8268 35.4555 26.8268C35.4555 26.8268 35.4454 26.8685 35.4454 26.6712C35.7986 26.5361 35.8507 26.5361 36.048 26.0787L38.1266 21.2141C38.293 20.7567 37.8668 20.7257 37.3889 20.6114V20.4555H37.3868ZM39.2785 23.74L38.448 21.4009L37.5228 23.7397L39.2785 23.74ZM17.4931 30.3769C17.4931 30.3769 18.0445 30.387 18.3037 30.387C18.5739 30.387 19.0518 30.3769 19.125 30.3769C19.125 30.4704 19.1667 30.7302 19.1771 30.8135L19.1159 30.8343C19.0224 30.5849 18.9287 30.4707 18.0972 30.5329V31.5828C18.8662 31.5932 18.9703 31.6134 18.9912 31.323H19.0638C19.0429 31.5828 19.0429 31.7387 19.0429 31.9884H18.9817C18.9713 31.7182 18.8674 31.7286 18.0981 31.7286V32.8719C18.8358 32.9136 19.1376 32.8927 19.2519 32.5291L19.3245 32.5499C19.2938 32.685 19.1998 33.0383 19.1998 33.0383C19.1998 33.0383 18.2746 33.0282 18.1187 33.0282C17.8589 33.0282 17.4952 33.0383 17.4952 33.0383V32.977C17.7029 32.9464 17.7342 32.9353 17.7446 32.5925V30.8463C17.7446 30.4826 17.6616 30.4826 17.4952 30.4514V30.3782L17.4931 30.3769ZM28.1994 30.3769C28.1994 30.3769 28.7508 30.387 29.01 30.387C29.2802 30.387 29.7581 30.3769 29.8314 30.3769C29.8314 30.4704 29.873 30.7302 29.8834 30.8135L29.8222 30.8343C29.7287 30.5849 29.635 30.4707 28.8035 30.5329V31.5828C29.5725 31.5932 29.6766 31.6134 29.6975 31.323H29.7701C29.7492 31.5828 29.7492 31.7387 29.7492 31.9884H29.688C29.6776 31.7182 29.5737 31.7286 28.8044 31.7286V32.8719C29.5421 32.9136 29.8439 32.8927 29.9582 32.5291L30.0308 32.5499C30.0002 32.685 29.9061 33.0383 29.9061 33.0383C29.9061 33.0383 28.9809 33.0282 28.825 33.0282C28.5652 33.0282 28.2015 33.0383 28.2015 33.0383V32.977C28.4092 32.9464 28.4405 32.9353 28.4509 32.5925V30.8463C28.4509 30.4826 28.3679 30.4826 28.2015 30.4514V30.3782L28.1994 30.3769ZM49.5924 30.387C49.5924 30.387 50.1438 30.3975 50.403 30.3975C50.6732 30.3975 51.1511 30.387 51.2241 30.387C51.2241 30.4808 51.2657 30.7406 51.2761 30.8236L51.2149 30.8444C51.1214 30.5947 51.0277 30.4808 50.1962 30.543V31.5913C50.9652 31.6017 51.0693 31.622 51.0902 31.3315H51.1628C51.1419 31.5913 51.1419 31.7473 51.1419 31.9963H51.0807C51.0703 31.7264 50.9664 31.7365 50.1971 31.7365V32.8799C50.9352 32.9215 51.2366 32.9007 51.3509 32.5371L51.4235 32.5579C51.3929 32.693 51.2988 33.0462 51.2988 33.0462C51.2988 33.0462 50.3736 33.0358 50.2177 33.0358C49.9579 33.0358 49.5942 33.0462 49.5942 33.0462V32.985C49.8019 32.9543 49.8332 32.9436 49.8436 32.6005V30.8542C49.8436 30.4906 49.7606 30.4906 49.5942 30.4596V30.3867L49.5924 30.387ZM20.5594 30.3769C20.5594 30.3769 20.7258 30.387 20.8921 30.387C21.0689 30.387 21.1623 30.3769 21.1623 30.3769L22.9607 32.435V30.8254C22.9607 30.524 22.8994 30.4722 22.6488 30.4406V30.3794C22.6488 30.3794 22.8669 30.3895 23.0333 30.3895C23.2204 30.3895 23.4073 30.3794 23.4073 30.3794V30.4406C23.1996 30.5136 23.1475 30.524 23.1475 30.8254V33.0808L23.0124 33.0704L21.1213 30.9173V32.5597C21.1213 32.8091 21.1519 32.913 21.4227 32.965V33.0263C21.4227 33.0263 21.2046 33.0159 21.0278 33.0159C20.8615 33.0159 20.6434 33.0263 20.6434 33.0263V32.965C20.9031 32.913 20.9448 32.8091 20.9448 32.5597V30.8254C20.9448 30.5448 20.7472 30.4927 20.5603 30.4406V30.3794L20.5594 30.3769ZM36.2655 30.3769C36.2655 30.3769 36.4318 30.387 36.5982 30.387C36.6849 30.3883 36.7716 30.3849 36.858 30.3769L38.6655 32.435V30.8254C38.6655 30.524 38.6042 30.4722 38.3536 30.4406V30.3794C38.3536 30.3794 38.5718 30.3895 38.7381 30.3895C38.9253 30.3895 39.1122 30.3794 39.1122 30.3794V30.4406C38.9045 30.5136 38.8524 30.524 38.8524 30.8254V33.0808L38.7173 33.0704L36.8264 30.9173V32.5597C36.8264 32.8091 36.8571 32.913 37.1279 32.965V33.0263C37.1279 33.0263 36.9098 33.0159 36.733 33.0159C36.5666 33.0159 36.3485 33.0263 36.3485 33.0263V32.965C36.6083 32.913 36.65 32.8091 36.65 32.5597V30.8254C36.65 30.5448 36.4524 30.4927 36.2655 30.4406V30.3769ZM60.3508 30.3769C60.3508 30.3769 60.5171 30.387 60.6835 30.387C60.7667 30.3886 60.85 30.3852 60.9329 30.3769L62.7517 32.435V30.8254C62.7517 30.524 62.6904 30.4722 62.4398 30.4406V30.3794C62.4398 30.3794 62.658 30.3895 62.8243 30.3895C63.0115 30.3895 63.1984 30.3794 63.1984 30.3794V30.4406C62.9907 30.5136 62.9386 30.524 62.9386 30.8254V33.0808L62.8035 33.0692L60.912 30.9173V32.5597C60.912 32.8091 60.9427 32.913 61.2135 32.965V33.0263C61.2135 33.0263 60.9954 33.0159 60.8186 33.0159C60.6522 33.0159 60.4341 33.0263 60.4341 33.0263V32.965C60.6939 32.913 60.7356 32.8091 60.7356 32.5597V30.8254C60.7356 30.5448 60.538 30.4927 60.3511 30.4406V30.3794L60.3508 30.3769ZM79.5579 30.387C79.5579 30.387 79.7969 30.3975 79.9841 30.3975C80.1712 30.3975 80.431 30.387 80.431 30.387V30.4599C80.2647 30.5016 80.1712 30.512 80.2855 30.6989L80.8468 31.6244L81.3872 30.7096C81.4598 30.5641 81.491 30.4912 81.2312 30.4498V30.3886C81.2312 30.3886 81.408 30.399 81.5845 30.399C81.73 30.399 81.8963 30.3886 81.8963 30.3886V30.4498C81.7196 30.4912 81.7196 30.5329 81.6053 30.6992L80.909 31.7715L80.9194 32.6032C80.9194 32.9669 81.0128 32.9565 81.2312 33.0085V33.0698C81.2312 33.0698 80.9506 33.0594 80.7429 33.0594C80.5453 33.0594 80.2546 33.0698 80.2546 33.0698V33.0085C80.504 32.9565 80.5352 32.9779 80.5456 32.6136V31.7702L79.8597 30.7099C79.6933 30.5022 79.7142 30.4915 79.5582 30.4606V30.387H79.5579ZM45.943 30.864L45.9951 30.3757C45.9951 30.3757 46.8891 30.3858 47.098 30.3858C47.2956 30.3858 48.2104 30.3757 48.2104 30.3757L48.2312 30.864H48.17C48.0974 30.573 48.0036 30.5212 47.5879 30.5212H47.2864V32.5686C47.2864 32.8805 47.2968 32.9323 47.5879 32.9534V33.026C47.5879 33.026 47.2968 33.0156 47.0995 33.0156C46.8918 33.0156 46.6008 33.026 46.6008 33.026V32.9534C46.8918 32.9326 46.9023 32.8805 46.9023 32.5686V30.5212H46.6008C46.1851 30.5212 46.0916 30.5733 46.0187 30.864H45.943ZM10.0409 30.4287C9.84262 30.3637 9.63658 30.3253 9.42819 30.3144C9.206 30.2976 8.98587 30.367 8.81356 30.5083C8.64125 30.6495 8.53001 30.8518 8.50298 31.073C8.50298 31.9565 9.86475 31.7068 9.86475 32.3931C9.86475 32.9332 9.13715 33.1412 8.66995 32.7671C8.56609 32.6945 8.55568 32.5386 8.53485 32.4448H8.45182L8.48246 32.9436C8.71489 33.0333 8.961 33.0824 9.21006 33.0888C9.44292 33.114 9.67624 33.0456 9.85871 32.8988C10.0412 32.7519 10.1578 32.5386 10.1831 32.3058C10.1851 32.2863 10.1865 32.2668 10.1873 32.2472C10.1873 31.3738 8.81516 31.6134 8.81516 30.948C8.82558 30.4596 9.39725 30.3353 9.82339 30.5739C9.93766 30.626 9.97933 30.8962 9.97933 30.8962H10.0624L10.0412 30.4272L10.0409 30.4287ZM15.3731 31.2399V32.1547C15.3731 32.9136 15.3731 32.9136 15.1237 32.9657V33.0269C15.1237 33.0269 15.3627 33.0061 15.5603 33.0061C15.7474 33.0061 15.9864 33.0269 15.9864 33.0269V32.9657C15.737 32.9136 15.737 32.9136 15.737 32.1547V31.2399C15.737 30.471 15.737 30.471 15.9864 30.4394V30.3659C15.9864 30.3659 15.7474 30.3763 15.5603 30.3763C15.3627 30.3763 15.1237 30.3659 15.1237 30.3659V30.4385C15.3731 30.4691 15.3731 30.4691 15.3731 31.239M13.8453 30.4489C13.5662 30.3776 13.2805 30.3358 12.9927 30.3242C12.6152 30.3132 12.2488 30.4525 11.974 30.7115C11.6992 30.9706 11.5386 31.3281 11.5274 31.7056V31.7274C11.5274 32.6005 12.1508 33.1099 13.0034 33.1099C13.2693 33.1139 13.5337 33.068 13.7828 32.9748L13.9283 32.5383L13.8453 32.5175C13.8112 32.6381 13.7382 32.7441 13.6376 32.8189C13.4578 32.9128 13.2583 32.9627 13.0555 32.9644C12.9056 32.9627 12.7575 32.9316 12.6196 32.8726C12.4818 32.8137 12.3569 32.7282 12.2521 32.621C12.1473 32.5138 12.0646 32.387 12.0088 32.2479C11.953 32.1087 11.9251 31.96 11.9268 31.8101C11.9268 31.7761 11.9293 31.7421 11.9327 31.7081C11.9327 30.6995 12.6186 30.4606 13.0242 30.4606C13.232 30.4465 13.4391 30.4974 13.6167 30.6061C13.6713 30.6458 13.7164 30.6972 13.7488 30.7565C13.7812 30.8158 13.8 30.8815 13.8039 30.9489L13.8869 30.9281L13.8453 30.4501V30.4489ZM26.7653 30.4385C26.4863 30.3673 26.2005 30.3256 25.9127 30.3141C25.5351 30.3031 25.1686 30.4425 24.8938 30.7016C24.619 30.9608 24.4585 31.3185 24.4474 31.6961V31.7179C24.4474 32.591 25.0708 33.1005 25.9234 33.1005C26.1894 33.1044 26.4537 33.0585 26.7028 32.9653L26.8483 32.5288L26.7653 32.508C26.7311 32.6285 26.6581 32.7345 26.5576 32.8094C26.3779 32.9035 26.1784 32.9533 25.9755 32.9549C25.8255 32.9534 25.6773 32.9223 25.5393 32.8635C25.4013 32.8046 25.2763 32.7192 25.1713 32.6119C25.0664 32.5047 24.9836 32.3779 24.9277 32.2387C24.8719 32.0995 24.844 31.9506 24.8457 31.8006C24.8457 31.7666 24.8481 31.7326 24.8515 31.6986C24.8515 30.6903 25.5374 30.4511 25.943 30.4511C26.1508 30.4369 26.3579 30.4876 26.5355 30.5963C26.5902 30.6361 26.6353 30.6875 26.6676 30.7468C26.7 30.8062 26.7188 30.8719 26.7227 30.9394L26.8064 30.9173L26.7647 30.4391L26.7653 30.4385ZM54.9132 30.4489C54.6342 30.3776 54.3484 30.3358 54.0606 30.3242C53.6831 30.3132 53.3166 30.4525 53.0419 30.7116C52.7671 30.9707 52.6064 31.3284 52.5953 31.7059V31.7274C52.5953 32.6005 53.2187 33.1099 54.0713 33.1099C54.3373 33.1139 54.6016 33.068 54.8507 32.9748L54.9962 32.5383L54.9132 32.5175C54.8791 32.6381 54.8061 32.7441 54.7055 32.8189C54.5257 32.9128 54.3262 32.9627 54.1234 32.9644C53.9735 32.9627 53.8254 32.9316 53.6876 32.8726C53.5497 32.8137 53.4248 32.7282 53.32 32.621C53.2152 32.5138 53.1326 32.387 53.0768 32.2479C53.0209 32.1087 52.9931 31.96 52.9948 31.8101C52.9948 31.7761 52.9973 31.7421 53.0006 31.7081C53.0006 30.6995 53.6866 30.4606 54.0922 30.4606C54.3 30.4465 54.507 30.4973 54.6847 30.6061C54.7393 30.6458 54.7844 30.6972 54.8168 30.7565C54.8491 30.8158 54.8679 30.8815 54.8719 30.9489L54.9549 30.9281L54.9132 30.4501V30.4489ZM3.99124 30.3876C3.99124 30.3876 4.42781 30.3981 4.6876 30.3981H5.63363L5.6949 30.845L5.64282 30.8552C5.51814 30.5954 5.45564 30.5123 5.03011 30.5123C4.89467 30.5093 4.7592 30.5163 4.62479 30.5332V31.656H4.9575C5.45625 31.656 5.47831 31.6253 5.52916 31.3753H5.59044C5.59044 31.3753 5.58002 31.6459 5.58002 31.7497C5.58002 31.9265 5.59044 32.0616 5.59044 32.0616H5.52916C5.47708 31.8122 5.45656 31.7911 4.9575 31.7911H4.62602V32.477C4.62602 32.9549 4.62602 32.9653 4.91706 32.9978V33.0499C4.91706 33.0499 4.55341 33.0395 4.44925 33.0395C4.34509 33.0395 3.99186 33.0499 3.99186 33.0499V32.9978C4.23082 32.9562 4.25165 32.9457 4.25165 32.477V30.9587C4.25165 30.4808 4.24123 30.4909 3.99186 30.4495V30.3883L3.99124 30.3876ZM68.5627 30.3876V30.4397C68.7082 30.4704 68.8121 30.4704 68.8121 30.8245V32.6225C68.8121 32.924 68.7704 32.9657 68.5627 32.9969V33.0582C68.5627 33.0582 69.0302 33.0373 69.2174 33.0478C69.4046 33.0478 70.2465 33.0582 70.2465 33.0582C70.2825 32.8885 70.3311 32.7218 70.392 32.5594L70.309 32.5386C70.2477 32.7255 70.1738 32.8814 69.8206 32.8814H69.1849V30.823C69.1849 30.4698 69.2992 30.4698 69.4551 30.4382V30.3861H68.563L68.5627 30.3876ZM56.9621 31.5729H58.3343V30.9382C58.3343 30.512 58.3135 30.4603 58.0954 30.4391V30.3778H58.948V30.4391C58.7402 30.4599 58.7194 30.512 58.7194 30.9382V32.4559C58.7194 32.8612 58.7402 32.9338 58.948 32.9546V33.0272C58.948 33.0272 58.6777 33.0168 58.5426 33.0168C58.418 33.0168 58.0957 33.0272 58.0957 33.0272V32.9546C58.3138 32.9338 58.3346 32.8612 58.3346 32.4559V31.7595H56.9625V32.4559C56.9625 32.8612 56.9833 32.9338 57.2014 32.9546V33.0272C57.2014 33.0272 56.8791 33.0168 56.744 33.0168C56.6193 33.0168 56.3491 33.0272 56.3491 33.0272V32.9546C56.5568 32.9338 56.5777 32.8612 56.5777 32.4559V30.9382C56.5777 30.512 56.5568 30.4603 56.3491 30.4391V30.3778H57.2017V30.4391C56.9836 30.4599 56.9628 30.512 56.9628 30.9382L56.9621 31.5729ZM77.9887 30.5022C77.7312 30.3984 77.4559 30.3454 77.1781 30.3463C76.993 30.3416 76.8089 30.3734 76.6361 30.44C76.4633 30.5065 76.3053 30.6064 76.1712 30.734C76.037 30.8616 75.9294 31.0144 75.8543 31.1836C75.7792 31.3529 75.7382 31.5352 75.7336 31.7203V31.7598C75.7336 32.5812 76.4076 33.0487 77.1472 33.0487C77.4776 33.0502 77.8055 32.9903 78.114 32.8719V32.0604C78.1062 32.0054 78.1205 31.9495 78.1538 31.905C78.1871 31.8605 78.2367 31.8311 78.2917 31.8232C78.2982 31.8232 78.3049 31.8232 78.3113 31.8214V31.7488C78.3113 31.7488 78.0515 31.7592 77.9164 31.7592C77.7813 31.7592 77.4799 31.7488 77.4799 31.7488V31.8214C77.5942 31.852 77.7709 31.8419 77.7709 32.0604V32.7772C77.5993 32.8821 77.4001 32.9328 77.1993 32.9228C76.6901 32.9228 76.1494 32.5901 76.1494 31.7586C76.1494 30.584 76.9496 30.4698 77.1576 30.4698C77.4278 30.4698 77.9266 30.6049 77.937 30.9685H78.02L77.9894 30.501L77.9887 30.5022ZM7.81823e-06 31.7283C-0.00528744 31.4482 0.0729884 31.173 0.224843 30.9376C0.376698 30.7022 0.595243 30.5175 0.85258 30.4069C1.10992 30.2963 1.39437 30.2649 1.66964 30.3167C1.9449 30.3685 2.19848 30.5011 2.39802 30.6977C2.59755 30.8943 2.73398 31.1459 2.78989 31.4203C2.8458 31.6948 2.81866 31.9797 2.71193 32.2386C2.6052 32.4976 2.42372 32.7189 2.19066 32.8742C1.9576 33.0296 1.68353 33.112 1.40344 33.1109C1.22138 33.1131 1.04067 33.0795 0.87161 33.0119C0.702552 32.9444 0.548461 32.8441 0.418138 32.717C0.287815 32.5899 0.183812 32.4383 0.112069 32.271C0.0403253 32.1036 0.00224689 31.9238 7.81823e-06 31.7418V31.7283ZM2.38011 31.7283C2.38011 30.8548 1.9123 30.4808 1.40282 30.4808C0.893349 30.4808 0.425846 30.8561 0.425846 31.7283C0.425846 32.6005 0.893655 32.9758 1.40313 32.9758C1.9126 32.9758 2.38011 32.6017 2.38011 31.7283ZM33.4596 30.3745C33.4596 30.3745 33.6284 30.3788 33.7926 30.3788C33.9568 30.3788 34.1081 30.3745 34.1081 30.3745L35.0033 32.7135C35.0257 32.7808 35.0677 32.8398 35.124 32.8829C35.1802 32.926 35.2481 32.9513 35.3188 32.9555V33.0248C35.3188 33.0248 35.0738 33.0119 34.8648 33.0119C34.6559 33.0119 34.4022 33.0248 34.4022 33.0248V32.9555C34.5667 32.9295 34.6746 32.9249 34.5925 32.7135L34.3121 31.9354H33.443L33.1367 32.7135C33.0542 32.9252 33.223 32.9341 33.3615 32.9555V33.0248C33.3615 33.0248 33.1798 33.0119 33.0114 33.0119C32.8429 33.0119 32.6569 33.0248 32.6569 33.0248C32.6569 33.0248 32.6526 33.0419 32.6526 32.9598C32.7997 32.9035 32.8214 32.9035 32.9035 32.7147L33.7684 30.6928C33.8376 30.5025 33.6602 30.4897 33.462 30.4419V30.3772L33.4596 30.3745ZM34.2463 31.7408L33.9004 30.7678L33.5156 31.7408H34.2463ZM40.6106 30.3769V30.4495C40.8495 30.4704 40.8495 30.5108 40.8599 30.9483V32.4556C40.8599 32.913 40.8599 32.9335 40.6106 32.9647V33.026C40.6106 33.026 40.8183 33.0156 40.9534 33.0156C41.0885 33.0156 41.4108 33.0462 41.681 33.0462C42.8556 33.0462 43.2296 32.3186 43.2296 31.6949C43.2342 31.3408 43.098 30.9994 42.851 30.7458C42.604 30.4921 42.2663 30.3468 41.9123 30.342C41.8841 30.342 41.8559 30.342 41.8277 30.3435C41.6614 30.3435 41.329 30.3849 40.9546 30.3849C40.8403 30.3849 40.6118 30.3748 40.6118 30.3748L40.6106 30.3769ZM41.234 30.5537C41.3831 30.513 41.5369 30.4924 41.6914 30.4924C42.0967 30.4924 42.8142 30.6588 42.8142 31.7179C42.8142 32.7365 42.2628 32.9029 41.7643 32.9029C41.586 32.9004 41.4085 32.8799 41.2343 32.8416V30.5537H41.234ZM64.4048 31.7179C64.3995 31.4378 64.4778 31.1625 64.6296 30.9272C64.7815 30.6918 65 30.5071 65.2574 30.3965C65.5147 30.2859 65.7992 30.2545 66.0744 30.3063C66.3497 30.3581 66.6033 30.4907 66.8028 30.6873C67.0024 30.8839 67.1388 31.1354 67.1947 31.4099C67.2506 31.6844 67.2235 31.9693 67.1167 32.2282C67.01 32.4872 66.8285 32.7085 66.5955 32.8638C66.3624 33.0192 66.0883 33.1016 65.8082 33.1005C65.6262 33.1027 65.4455 33.0691 65.2764 33.0015C65.1074 32.9339 64.9533 32.8337 64.8229 32.7066C64.6926 32.5794 64.5886 32.4279 64.5169 32.2606C64.4451 32.0932 64.4071 31.9134 64.4048 31.7313V31.7179ZM66.7849 31.7179C66.7849 30.8447 66.3171 30.4704 65.8076 30.4704C65.2982 30.4704 64.8303 30.8444 64.8303 31.7179C64.8303 32.5913 65.2978 32.9653 65.8076 32.9653C66.3174 32.9653 66.7861 32.5907 66.7861 31.7176M71.5555 31.7176C71.5502 31.4375 71.6285 31.1622 71.7804 30.9269C71.9322 30.6915 72.1508 30.5068 72.4081 30.3962C72.6654 30.2856 72.9499 30.2542 73.2252 30.306C73.5004 30.3578 73.754 30.4904 73.9535 30.687C74.1531 30.8836 74.2895 31.1351 74.3454 31.4096C74.4013 31.6841 74.3742 31.9689 74.2674 32.2279C74.1607 32.4869 73.9792 32.7082 73.7462 32.8635C73.5131 33.0189 73.239 33.1013 72.959 33.1001C72.7769 33.1024 72.5962 33.0688 72.4271 33.0012C72.2581 32.9336 72.104 32.8334 71.9737 32.7063C71.8433 32.5791 71.7393 32.4276 71.6676 32.2602C71.5958 32.0929 71.5578 31.9131 71.5555 31.731V31.7176ZM73.9356 31.7176C73.9356 30.8444 73.4681 30.4701 72.9583 30.4701C72.4486 30.4701 71.9811 30.8441 71.9811 31.7176C71.9811 32.591 72.4489 32.965 72.9583 32.965C73.4678 32.965 73.9356 32.591 73.9356 31.7176ZM2.83597 23.6049C2.82563 22.947 3.0106 22.3008 3.3675 21.7481C3.72439 21.1953 4.23718 20.7608 4.84102 20.4995C5.44486 20.2382 6.11263 20.1618 6.75988 20.28C7.40714 20.3981 8.00482 20.7056 8.47733 21.1635C8.94985 21.6213 9.27598 22.209 9.4145 22.8523C9.55301 23.4955 9.49768 24.1653 9.2555 24.7771C9.01332 25.3888 8.59518 25.9151 8.05394 26.2892C7.5127 26.6633 6.87267 26.8685 6.21479 26.8789H6.1621C5.29147 26.8903 4.45197 26.5554 3.82827 25.9478C3.20456 25.3402 2.84774 24.5098 2.83627 23.6392V23.6049M8.45948 23.6049C8.45948 21.5572 7.35659 20.6528 6.16179 20.6528C4.95597 20.6528 3.8543 21.5572 3.8543 23.6049C3.8543 25.6734 4.95719 26.5671 6.16179 26.5671C7.35659 26.5671 8.45948 25.6731 8.45948 23.6049ZM86.5836 25.4767C86.3238 25.061 85.6272 23.9694 85.1802 23.6058C85.5751 23.429 86.6354 23.2939 86.6354 22.1089C86.6354 20.8718 85.3986 20.4546 84.3377 20.4457C83.8806 20.4457 83.2566 20.5183 82.9554 20.5183C82.7057 20.5183 82.1552 20.4975 82.1552 20.4975V20.643C82.5709 20.6951 82.7581 20.8403 82.7581 21.5265V25.6737C82.7581 26.4635 82.5918 26.6093 82.1552 26.6614V26.8069C82.1552 26.8069 82.8412 26.7861 83.1843 26.7861C83.7664 26.7965 84.255 26.7965 84.255 26.7965V26.6614C83.7875 26.5677 83.6938 26.5471 83.6521 25.6737V23.7715C84.3484 23.7103 84.8058 24.239 85.3046 25.0086C85.663 25.6302 86.0622 26.2275 86.4994 26.7965C86.6449 26.7965 87.0202 26.7861 87.2061 26.7861C87.4139 26.7861 87.7987 26.8069 87.7987 26.8069V26.6614C87.2285 26.5778 87.2383 26.5156 86.5836 25.4767ZM83.6527 23.4707V20.9135C84.3178 20.6433 85.6587 20.7159 85.69 22.1298C85.7206 23.5635 84.2345 23.6153 83.6527 23.4698V23.4707Z" fill="#C8102E"/>
</g>
<defs>
<clipPath id="clip0_4108_22808">
<rect width="106" height="52" fill="white"/>
</clipPath>
</defs>
</svg>
