<svg width="106" height="52" viewBox="0 0 106 52" fill="none" xmlns="http://www.w3.org/2000/svg">
<path fill-rule="evenodd" clip-rule="evenodd" d="M0 25.5908V44.416H106V6.76562H0V25.5908ZM102.715 25.5908V41.131H3.28498V10.0506H102.715V25.5908ZM85.8977 19.7027C84.5435 20.2027 83.4104 21.1667 82.6999 22.4234C81.9894 23.68 81.7475 25.1478 82.0172 26.566C82.2869 27.9842 83.0507 29.2608 84.1729 30.1689C85.2951 31.077 86.7029 31.5578 88.1461 31.5258C89.1511 31.5493 90.1485 31.3462 91.0642 30.9316C91.9131 30.4654 92.6369 29.801 93.174 28.995L93.3636 28.6291L92.2516 27.9085C91.8363 27.6216 91.4014 27.3641 90.95 27.138C90.8114 27.1003 90.6596 27.2134 90.5077 27.4662C90.2818 27.8272 89.9637 28.1214 89.5862 28.3184C89.2087 28.5155 88.7855 28.6083 88.3602 28.5874C87.8496 28.6693 87.3262 28.5947 86.8588 28.3733C86.299 28.0366 85.8521 27.5407 85.5753 26.9489C85.2984 26.3571 85.2042 25.6962 85.3045 25.0506C85.2985 24.6531 85.3778 24.2589 85.5369 23.8945C85.696 23.5302 85.9314 23.2042 86.2271 22.9384C86.5228 22.6726 86.872 22.4733 87.2512 22.3538C87.6304 22.2343 88.0308 22.1975 88.4254 22.2457C89.1263 22.3319 89.7725 22.6685 90.2447 23.1936C90.4221 23.3974 90.6106 23.5727 90.6738 23.5727C91.5327 23.0877 92.3484 22.5298 93.1118 21.9053C92.9008 21.6038 92.6597 21.3244 92.3922 21.0715C91.8191 20.4804 91.1217 20.0241 90.3504 19.7357C89.5792 19.4473 88.7535 19.334 87.9331 19.4041C87.242 19.3691 86.5497 19.4706 85.8977 19.7027ZM13.2653 31.4025V19.5131L16.3352 19.5509L19.3929 19.5886L20.1767 19.9545C21.1428 20.4198 21.9256 21.1947 22.4007 22.156C22.7736 23.274 22.8304 24.4732 22.5647 25.6214C22.3654 26.3154 21.9966 26.9489 21.4914 27.4649C20.9863 27.9809 20.3608 28.3631 19.6712 28.5772C19.0522 28.718 18.4225 28.8067 17.7886 28.8422L16.5503 28.9176V31.4065H13.2653V31.4025ZM18.6978 25.7682C18.9373 25.574 19.1301 25.3283 19.2616 25.0494C19.3932 24.7706 19.4603 24.4656 19.4578 24.1572C19.4554 23.8489 19.3835 23.545 19.2475 23.2683C19.1115 22.9915 18.9149 22.749 18.6723 22.5586C18.2857 22.35 17.8455 22.262 17.4085 22.3058H16.5492V26.131L17.4339 26.0556C17.8683 26.028 18.2954 25.9306 18.6988 25.7671L18.6978 25.7682ZM27.6935 23.7868C27.7312 27.931 27.7445 28.0828 28.035 28.8024C28.3285 29.4797 28.7859 30.0733 29.3659 30.5299C29.9459 30.9864 30.6304 31.2915 31.3577 31.4178C32.6798 31.6101 34.0276 31.5198 35.3123 31.1528C35.8828 30.9266 36.3972 30.5789 36.8196 30.1337C37.2421 29.6886 37.5624 29.1567 37.7584 28.5751C37.999 27.7791 38.0234 27.4132 38.0234 23.6227V19.5254H34.7435V23.481C34.7435 27.9035 34.7181 28.0421 33.8466 28.5221C33.4867 28.6991 33.0846 28.7727 32.6853 28.7348C32.286 28.6968 31.9051 28.5487 31.5849 28.3071C31.3542 28.0812 31.1796 27.8044 31.0753 27.4988C31.0121 27.246 30.9489 25.3768 30.9489 23.2792V19.5254H27.6558L27.6935 23.7868ZM43.9666 31.431V19.5264H46.9733C50.296 19.5264 50.8525 19.6151 51.7637 20.2715C52.0619 20.5159 52.3068 20.8189 52.4835 21.1617C52.6601 21.5045 52.7647 21.8798 52.7908 22.2645C52.8168 22.6493 52.7638 23.0353 52.6351 23.3987C52.5063 23.7622 52.3044 24.0954 52.0419 24.3779L51.6628 24.6939L52.1428 24.9467C52.6794 25.1727 53.1276 25.5676 53.4195 26.0714C53.7114 26.5752 53.8311 27.1604 53.7603 27.7383C53.8425 28.4786 53.6517 29.2234 53.2236 29.833C52.7955 30.4425 52.1597 30.8748 51.4355 31.0488C50.7781 31.3138 50.4876 31.327 47.3586 31.377L43.9666 31.431ZM49.5254 23.0295C49.5254 22.5117 49.4123 22.3599 48.9822 22.1958C48.6199 22.0972 48.2456 22.0495 47.8702 22.0541H47.1252V23.8225H48.0425C49.1595 23.8214 49.5254 23.6196 49.5254 23.0254V23.0295ZM50.3969 26.8322C50.2528 26.6427 50.0612 26.4947 49.8414 26.4031C49.3279 26.2604 48.795 26.2006 48.2626 26.2258H47.1252V28.7739L48.5276 28.7229C49.8791 28.6852 49.9423 28.672 50.2328 28.3315C50.3972 28.121 50.4996 27.8687 50.5286 27.6032C50.5576 27.3376 50.512 27.0692 50.3969 26.8282V26.8322ZM59.253 25.4675V31.4055H67.4649V28.623H62.539V19.5264H59.254L59.253 25.4675ZM73.0238 31.4055V19.5264H76.3098V31.4025H73.0248L73.0238 31.4055Z" fill="black"/>
</svg>
