<svg width="106" height="52" viewBox="0 0 106 52" fill="none" xmlns="http://www.w3.org/2000/svg">
<path d="M1.55545 19.402H0V18.177H4.70504V19.402H3.22762L3.18828 24.3982H10.2652L10.3039 19.402H8.74842V18.177H13.4535V19.402H11.9754L11.898 30.5609H13.4535V31.7859H8.74842V30.5609H10.2258L10.2652 25.6231H3.18828L3.14959 30.5609H4.70504V31.7859H0V30.5609H1.47807L1.55545 19.402Z" fill="#231F20"/>
<path d="M21.3771 27.1785C19.0052 27.1785 16.6137 27.1785 16.6137 29.0638C16.6137 30.1917 17.4694 30.7943 18.4996 30.7943C19.5882 30.7943 21.3771 30.1917 21.3771 27.1785ZM16.8471 24.7096H15.4084V22.2984C16.5166 21.8518 17.7022 21.5207 18.9272 21.5207C21.5128 21.5207 22.8932 22.4735 22.8932 25.1371C22.8932 26.0119 22.7764 28.753 22.7764 30.5609H24.2152V31.7858H21.3377V31.378C21.3377 30.7943 21.4544 29.9969 21.5325 29.6081H21.4938C20.8912 31.2225 19.899 32.0193 18.1304 32.0193C16.9829 32.0193 15.0195 31.5917 15.0195 29.1418C15.0195 26.3424 18.0137 26.0703 21.3771 26.0703V25.3509C21.3771 23.465 20.6577 22.7456 19.0832 22.7456C18.5193 22.7456 17.5665 22.8427 16.8471 23.1541V24.7096Z" fill="#231F20"/>
<path d="M27.1222 22.9791H25.4114V21.7542H28.7164V22.2984C28.7164 22.882 28.5997 24.0677 28.5026 24.8841H28.561C28.9492 23.4067 29.4744 21.5791 31.963 21.5791C32.0988 21.5791 32.8962 21.6571 32.9735 21.7351L32.8181 23.1739C32.546 23.0762 32.1184 23.0178 31.7296 23.0178C29.6685 23.0178 28.7551 25.0401 28.7164 26.8094L28.6383 30.5609H30.3302V31.7859H25.6252V30.5609H27.0442L27.1222 22.9791Z" fill="#231F20"/>
<path d="M33.9543 21.7543H35.5675L35.6455 19.3044L37.2397 19.2073L37.1623 21.7543H40.3112V22.9792H37.1426C37.1039 24.6507 37.0646 26.3419 37.0646 28.0141C37.0646 29.4528 37.0646 30.6968 38.6004 30.6968C39.4168 30.6968 40.1558 30.464 40.5834 30.2889L40.525 31.5525C40.0201 31.8057 39.0863 32.0188 38.2699 32.0188C35.4704 32.0188 35.4705 30.0168 35.4705 28.7335C35.4705 27.5085 35.5288 24.437 35.5485 22.9792H33.9543V21.7543Z" fill="#231F20"/>
<path d="M49.0956 18.2354C48.7848 18.099 48.0261 18.0019 47.4628 18.0019C45.0909 18.0019 44.8378 19.2656 44.8378 20.9377V21.7542H47.4234L47.4044 22.9791H44.8378L44.7991 30.5609H46.4326V31.7859H41.8443V30.5609H43.205L43.2436 22.9791H41.5918V21.7542H43.2436V20.7823C43.2436 17.8465 44.7604 16.6799 47.249 16.6799C47.5985 16.6799 48.8038 16.7776 49.154 16.9134L49.0956 18.2354Z" fill="#231F20"/>
<path d="M52.9516 30.6973C55.09 30.6973 56.1399 28.9477 56.1399 26.77C56.1399 24.5929 55.09 22.8433 52.9516 22.8433C50.8132 22.8433 49.7633 24.5929 49.7633 26.77C49.7633 28.9477 50.8132 30.6973 52.9516 30.6973ZM52.9516 21.5213C56.0035 21.5213 57.812 23.621 57.812 26.4978C57.812 29.6868 56.0035 32.0193 52.9516 32.0193C49.8997 32.0193 48.0918 29.9196 48.0918 27.0421C48.0918 23.8538 49.8997 21.5213 52.9516 21.5213Z" fill="#231F20"/>
<path d="M60.4798 22.9791H58.7683V21.7542H62.074V22.2984C62.074 22.882 61.9579 24.0677 61.8602 24.8841H61.9186C62.3068 23.4067 62.832 21.5791 65.3206 21.5791C65.4564 21.5791 66.2537 21.6571 66.3311 21.7351L66.1764 23.1739C65.9036 23.0762 65.4754 23.0178 65.0865 23.0178C63.0261 23.0178 62.1127 25.0401 62.074 26.8094L61.9959 30.5609H63.6878V31.7859H58.9827V30.5609H60.4018L60.4798 22.9791Z" fill="#231F20"/>
<path d="M74.2343 23.29C73.8651 23.1536 73.4959 22.8428 72.271 22.8428C69.8991 22.8428 68.4997 24.3786 68.4997 27.1977C68.4997 29.064 69.3745 30.6968 71.3188 30.6968C73.7484 30.6968 74.2343 28.4417 74.2343 26.4783V23.29ZM75.7898 30.5604H77.2875V31.786H74.1963C74.1963 30.9689 74.2927 30.2502 74.3904 29.7637L74.3517 29.725C74.0015 30.7355 72.9903 32.0188 70.9883 32.0188C68.6938 32.0188 66.8269 30.4056 66.8269 27.178C66.8269 23.873 68.6742 21.5208 72.1543 21.5208C72.7379 21.5208 73.7484 21.6375 74.2343 21.968L74.273 18.0604H72.271V16.8355H75.8678L75.7898 30.5604Z" fill="#231F20"/>
<path d="M1.55545 37.6622H0V36.4373H4.70504V37.6622H3.22762L3.18828 42.6584H10.2652L10.3039 37.6622H8.74842V36.4373H13.4535V37.6622H11.9754L11.898 48.8212H13.4535V50.0461H8.74842V48.8212H10.2258L10.2652 43.8834H3.18828L3.14959 48.8212H4.70504V50.0461H0V48.8212H1.47807L1.55545 37.6622Z" fill="#231F20"/>
<path d="M21.8981 43.9418C21.8981 42.3667 20.9066 41.006 19.2351 41.006C17.5242 41.006 16.3576 42.2887 16.2606 43.9418H21.8981ZM16.2606 45.1661C16.3189 47.2272 17.2127 48.957 20.0705 48.957C21.1597 48.957 22.2482 48.6265 23.0837 48.199L23.026 49.5794C22.2869 49.9485 20.7315 50.279 19.721 50.279C16.5517 50.279 14.5884 48.5485 14.5884 45.0494C14.5884 42.0939 16.1825 39.7804 19.2351 39.7804C23.2004 39.7804 23.5702 43.3772 23.5702 45.1661H16.2606Z" fill="#231F20"/>
<path d="M31.4752 45.4383C29.1034 45.4383 26.7118 45.4383 26.7118 47.3236C26.7118 48.4515 27.5676 49.0541 28.5978 49.0541C29.6863 49.0541 31.4752 48.4515 31.4752 45.4383ZM26.9453 42.9693H25.5065V40.5581C26.6148 40.1116 27.8004 39.7804 29.0253 39.7804C31.611 39.7804 32.9913 40.7332 32.9913 43.3969C32.9913 44.2717 32.8746 47.0127 32.8746 48.8206H34.3133V50.0456H31.4359V49.6377C31.4359 49.0541 31.5526 48.2567 31.6306 47.8678H31.5919C30.9893 49.4823 29.9971 50.279 28.2286 50.279C27.081 50.279 25.1177 49.8515 25.1177 47.4016C25.1177 44.6022 28.1119 44.33 31.4752 44.33V43.61C31.4752 41.7247 30.7559 41.0054 29.1814 41.0054C28.6174 41.0054 27.6646 41.1031 26.9453 41.4139V42.9693Z" fill="#231F20"/>
<path d="M37.2322 36.3205H35.2878V35.0956H38.8263L38.7483 48.8205H40.3424V50.0461H35.7154V48.8205H37.1541L37.2322 36.3205Z" fill="#231F20"/>
<path d="M40.7793 40.0139H42.3931L42.4705 37.5646L44.0646 37.4676L43.9872 40.0139H47.1362V41.2388H43.9676C43.9289 42.911 43.8895 44.6022 43.8895 46.2744C43.8895 47.7124 43.8895 48.957 45.4253 48.957C46.2417 48.957 46.9808 48.7242 47.4083 48.5485L47.35 49.8121C46.845 50.0653 45.9112 50.279 45.0948 50.279C42.2954 50.279 42.2954 48.2764 42.2954 46.9937C42.2954 45.7681 42.3538 42.6966 42.3734 41.2388H40.7793V40.0139Z" fill="#231F20"/>
<path d="M50.0534 36.3205H48.1091V35.0956H51.6476L51.6279 40.3639C51.6279 40.8111 51.5112 41.8033 51.4338 42.2302H51.4725C51.9 40.7141 53.5139 39.7803 55.0306 39.7803C57.7907 39.7803 58.4714 41.6479 58.4714 43.5529C58.4714 45.2637 58.3933 47.2657 58.3933 48.8205H59.8707V50.0461H55.5159V48.8205H56.7992C56.7992 47.2657 56.8772 45.6329 56.8772 44.0191C56.8772 43.0466 56.8379 41.103 54.6024 41.103C53.1834 41.103 51.6279 41.9581 51.6279 44.6801L51.5695 48.8205H53.047V50.0461H48.5367V48.8205H49.9754L50.0534 36.3205Z" fill="#231F20"/>
<path d="M72.2865 39.9948H70.7704V37.8564C70.3035 37.7207 69.35 37.5259 68.2228 37.5259C64.9178 37.5259 62.702 39.4702 62.702 43.1451C62.702 46.858 64.6069 48.9577 68.3008 48.9577C69.1362 48.9577 69.914 48.8213 70.5756 48.6659L70.6524 46.4107H72.1691L72.0924 49.7158C71.2943 50.0659 69.4674 50.279 68.1841 50.279C63.7125 50.279 60.9131 48.0239 60.9131 43.3392C60.9131 39.5293 63.2266 36.2039 68.3198 36.2039C69.7592 36.2039 71.3534 36.5344 72.2865 36.8846V39.9948Z" fill="#231F20"/>
<path d="M80.286 45.4383C77.9141 45.4383 75.5226 45.4383 75.5226 47.3236C75.5226 48.4515 76.3784 49.0541 77.4086 49.0541C78.4978 49.0541 80.286 48.4515 80.286 45.4383ZM75.7561 42.9693H74.3173V40.5581C75.4262 40.1116 76.6118 39.7804 77.8361 39.7804C80.4224 39.7804 81.8021 40.7332 81.8021 43.3969C81.8021 44.2717 81.6854 47.0127 81.6854 48.8206H83.1241V50.0456H80.2467V49.6377C80.2467 49.0541 80.364 48.2567 80.4408 47.8678H80.4027C79.8001 49.4823 78.8079 50.279 77.0387 50.279C75.8918 50.279 73.9285 49.8515 73.9285 47.4016C73.9285 44.6022 76.9226 44.33 80.286 44.33V43.61C80.286 41.7247 79.566 41.0054 77.9909 41.0054C77.4276 41.0054 76.4748 41.1031 75.7561 41.4139V42.9693Z" fill="#231F20"/>
<path d="M86.0307 41.2394H84.3198V40.0144H87.6255V40.558C87.6255 41.1416 87.5081 42.3279 87.411 43.1443H87.4688C87.857 41.6669 88.3835 39.8393 90.8715 39.8393C91.0072 39.8393 91.8046 39.9174 91.8813 39.9947L91.7266 41.4335C91.4551 41.3357 91.0269 41.278 90.638 41.278C88.5776 41.278 87.6629 43.2997 87.6255 45.069L87.5468 48.8205H89.238V50.0461H84.5343V48.8205H85.9527L86.0307 41.2394Z" fill="#231F20"/>
<path d="M99.7323 43.9418C99.7323 42.3667 98.7408 41.006 97.0693 41.006C95.3584 41.006 94.1918 42.2887 94.0954 43.9418H99.7323ZM94.0954 45.1661C94.1531 47.2272 95.0476 48.957 97.906 48.957C98.9939 48.957 100.082 48.6265 100.919 48.199L100.86 49.5794C100.122 49.9485 98.5657 50.279 97.5559 50.279C94.3859 50.279 92.4226 48.5485 92.4226 45.0494C92.4226 42.0939 94.0167 39.7804 97.0693 39.7804C101.035 39.7804 101.405 43.3772 101.405 45.1661H94.0954Z" fill="#231F20"/>
<path d="M99.8535 4.08277V10.2292H102.925C102.925 11.9276 101.551 13.3033 99.8535 13.3033V16.3782C103.248 16.3782 106 13.626 106 10.2292V4.08277H99.8535Z" fill="#649B23"/>
<path d="M88.3263 21.7595V15.6105H85.2495C85.2495 13.9121 86.6265 12.5357 88.3263 12.5357V9.46412C84.9301 9.46412 82.1772 12.2157 82.1772 15.6105V21.7595H88.3263Z" fill="#A4138E"/>
<path d="M102.925 18.6847H96.7763V21.7596C95.0792 21.7596 93.7047 20.3818 93.7047 18.6847H90.6299C90.6299 22.0802 93.3821 24.8337 96.7763 24.8337H102.925V18.6847Z" fill="#EE4524"/>
<path d="M85.2493 7.156H91.3983V4.08248C93.0954 4.08248 94.4731 5.45759 94.4731 7.156H97.5473C97.5473 3.7605 94.7951 1.0083 91.3983 1.0083H85.2493V7.156Z" fill="#00A6D7"/>
</svg>
