<svg width="353" height="738" viewBox="0 0 353 738" fill="none" xmlns="http://www.w3.org/2000/svg">
<g clip-path="url(#clip0_4302_12268)">
<path d="M-404.263 443.575L-405.039 443.553C-404.469 421.774 -396.255 399.59 -381.909 381.088C-367.678 362.735 -348.318 349.118 -327.396 342.744C-309.625 337.328 -290.649 336.531 -272.297 335.759C-253.638 334.975 -234.343 334.163 -216.374 328.484C-184.865 318.523 -156.673 293.694 -132.584 254.682C-122.67 238.625 -114.048 221.459 -105.709 204.86C-97.2091 187.937 -88.4191 170.44 -78.2506 154.09C-53.9445 115.015 -25.4572 90.2684 6.42037 80.5364C20.0906 76.3633 34.5789 74.974 48.5909 73.6316C53.7601 73.1361 59.1049 72.6238 64.3279 71.9798C81.1079 69.91 102.412 65.8007 118.351 52.2822C132.039 40.6695 141.634 18.5217 132.452 0.34845L133.144 0C142.505 18.5264 132.767 41.0696 118.852 52.8731C102.758 66.5251 81.3102 70.6676 64.4233 72.7497C59.189 73.395 53.839 73.9087 48.6652 74.4042C34.692 75.7437 20.2423 77.1283 6.64638 81.2785C-25.0463 90.9532 -53.3883 115.589 -77.5914 154.499C-87.7417 170.818 -96.524 188.3 -105.016 205.207C-113.362 221.822 -121.992 239.003 -131.924 255.087C-156.114 294.263 -184.448 319.206 -216.141 329.223C-234.207 334.934 -253.554 335.748 -272.265 336.534C-290.568 337.304 -309.494 338.099 -327.171 343.486C-347.94 349.813 -367.162 363.337 -381.296 381.563C-395.541 399.935 -403.698 421.957 -404.263 443.574L-404.263 443.575Z" fill="url(#paint0_linear_4302_12268)"/>
<path d="M-405.007 450.412L-405.781 450.376C-404.795 429.866 -396.243 408.974 -381.702 391.546C-367.228 374.199 -347.721 361.338 -326.775 355.333C-309.386 350.407 -290.855 349.522 -272.936 348.666C-253.519 347.74 -233.441 346.781 -214.822 340.669C-183.746 330.39 -154.87 305.248 -128.997 265.939C-118.476 249.953 -109.391 232.862 -100.605 216.334C-92.109 200.35 -83.3237 183.824 -73.2204 168.245C-48.2899 129.805 -20.0079 104.711 10.8401 93.6572C26.162 88.1676 41.7168 85.7041 58.1842 83.0933C61.5283 82.5629 64.8883 82.0312 68.2617 81.4688C86.8478 78.3731 107.95 73.4805 123.532 60.6636C142.678 44.9146 146.073 22.273 139.531 8.04505L140.235 7.7207C144.194 16.3301 144.492 26.2896 141.097 36.525C137.951 46.0101 131.888 54.7951 124.024 61.2637C108.301 74.1959 87.0767 79.1219 68.3891 82.2358C65.0133 82.7965 61.6517 83.3298 58.3059 83.8603C41.8749 86.4632 26.3548 88.9225 11.1022 94.3878C-19.583 105.384 -47.7339 130.374 -72.569 168.666C-82.6549 184.218 -91.4318 200.729 -99.92 216.698C-108.714 233.242 -117.808 250.351 -128.349 266.366C-154.32 305.824 -183.333 331.07 -214.579 341.405C-233.299 347.551 -253.43 348.512 -272.899 349.442C-290.775 350.295 -309.26 351.178 -326.562 356.079C-347.36 362.041 -366.732 374.814 -381.107 392.043C-395.54 409.343 -404.028 430.07 -405.007 450.412Z" fill="url(#paint1_linear_4302_12268)"/>
<path d="M-405.753 457.254L-406.527 457.196C-405.118 437.941 -396.234 418.324 -381.511 401.956C-366.775 385.577 -347.116 373.49 -326.155 367.925C-309.178 363.416 -291.101 362.482 -273.619 361.579C-253.421 360.535 -232.536 359.456 -213.271 352.855C-182.411 342.277 -153.672 317.531 -125.411 277.199C-114.281 261.315 -104.723 244.328 -95.4784 227.902C-86.9927 212.824 -78.218 197.231 -68.1919 182.4C-42.5903 144.528 -14.5137 119.086 15.2577 106.781C33.0978 99.4064 50.8453 95.4139 72.1925 90.9593C92.1104 86.803 112.882 81.6877 128.709 69.0495C143.671 57.1022 154.623 34.9543 146.606 15.7414L147.323 15.4414C155.486 35.0104 144.382 57.5261 129.194 69.6554C113.232 82.4013 92.3605 87.5439 72.3516 91.7199C51.044 96.1654 33.3321 100.149 15.5548 107.499C-14.0742 119.744 -42.0343 145.09 -67.5496 182.834C-77.5573 197.639 -86.3245 213.218 -94.8027 228.282C-104.056 244.725 -113.625 261.729 -124.776 277.645C-153.134 318.116 -181.999 342.956 -213.02 353.588C-232.388 360.227 -253.328 361.308 -273.579 362.354C-291.021 363.255 -309.056 364.187 -325.956 368.674C-346.774 374.203 -366.299 386.206 -380.934 402.476C-395.543 418.715 -404.357 438.169 -405.753 457.254Z" fill="url(#paint2_linear_4302_12268)"/>
<path d="M-406.494 464.094L-407.266 464.016C-405.432 446.027 -396.212 427.695 -381.304 412.393C-366.31 397.004 -346.503 385.683 -325.529 380.514C-309.016 376.446 -291.459 375.468 -274.48 374.525C-253.441 373.354 -231.685 372.143 -211.716 365.041C-171.67 350.797 -141.233 314.512 -121.822 288.458C-110.074 272.691 -100.022 255.83 -90.3019 239.523C-81.838 225.327 -73.087 210.646 -63.1592 196.555C-36.8145 159.158 -8.94297 133.37 19.6815 119.904C36.4632 112.01 53.8721 106.011 76.1296 100.452L76.8828 100.264C95.9561 95.4985 117.574 90.0998 133.892 77.4344C149.33 65.4506 161.087 43.0559 153.689 23.437L154.414 23.1641C161.946 43.1329 150.03 65.8884 134.367 78.0462C117.921 90.8132 96.2185 96.2332 77.0707 101.015L76.3178 101.203C54.1109 106.75 36.746 112.734 20.012 120.607C-8.48878 134.013 -36.2588 159.716 -62.524 197C-72.4351 211.069 -81.1793 225.736 -89.635 239.921C-99.3655 256.243 -109.428 273.122 -121.199 288.922C-135.259 307.794 -147.838 322.093 -160.785 333.923C-177.455 349.156 -194.03 359.574 -211.455 365.771C-231.53 372.911 -253.343 374.125 -274.437 375.299C-291.38 376.241 -308.9 377.217 -325.345 381.269C-346.178 386.401 -365.854 397.647 -380.748 412.934C-395.535 428.11 -404.678 446.28 -406.494 464.094Z" fill="url(#paint3_linear_4302_12268)"/>
<path d="M-407.24 470.938L-408.008 470.835C-405.745 454.118 -396.188 437.07 -381.098 422.832C-365.841 408.437 -345.886 397.881 -324.908 393.107C-308.909 389.467 -291.93 388.464 -275.509 387.496C-253.57 386.2 -230.884 384.861 -210.162 377.227C-172.116 363.209 -142.341 330.18 -118.233 299.72C-105.85 284.072 -95.2774 267.342 -85.0526 251.161C-76.6335 237.837 -67.9276 224.061 -58.1283 210.711C-30.9354 173.661 -3.26873 147.525 24.1026 133.029C43.8971 122.547 61.1569 115.426 80.0644 109.942C81.9652 109.391 83.885 108.844 85.8186 108.291C104.397 102.986 123.607 97.5008 139.072 85.8203C154.504 74.1623 167.876 52.0767 160.769 31.1351L161.504 30.8867C164.689 40.2717 164.003 50.7722 159.52 61.2498C155.405 70.8684 148.31 79.814 139.54 86.4385C123.959 98.2073 104.678 103.713 86.0315 109.038C84.0989 109.589 82.1799 110.136 80.2812 110.688C61.4261 116.156 44.2119 123.258 24.4663 133.714C-2.80126 148.156 -30.3794 174.216 -57.5024 211.169C-67.2861 224.498 -75.985 238.264 -84.3972 251.576C-94.6324 267.774 -105.216 284.521 -117.626 300.202C-141.8 330.747 -171.667 363.871 -209.894 377.955C-230.723 385.629 -253.468 386.972 -275.463 388.27C-291.853 389.237 -308.8 390.239 -324.735 393.864C-345.58 398.607 -365.408 409.095 -380.565 423.396C-395.527 437.513 -405 454.397 -407.239 470.938L-407.24 470.938Z" fill="url(#paint4_linear_4302_12268)"/>
<path d="M-407.986 477.783L-408.75 477.65C-406.054 462.208 -396.159 446.447 -380.89 433.271C-365.363 419.873 -345.261 410.081 -324.287 405.697C-308.865 402.476 -292.525 401.465 -276.723 400.489C-253.818 399.074 -230.134 397.611 -208.61 389.412C-170.501 374.895 -141.295 342.706 -114.647 310.979C-101.59 295.434 -90.451 278.817 -79.6789 262.749C-71.3416 250.31 -62.7207 237.449 -53.0993 224.865C-24.5023 187.461 2.19648 161.714 28.5232 146.153C45.5343 136.097 62.5773 126.488 83.9995 119.433C87.2995 118.346 90.7445 117.262 94.0748 116.213C111.487 110.731 129.493 105.063 144.251 94.2032C166.946 77.501 172.393 53.7926 167.848 38.8317L168.59 38.6074C171.518 48.2472 170.505 58.9264 165.66 69.4889C161.228 79.1483 153.788 88.147 144.71 94.8278C129.849 105.765 111.781 111.453 94.3082 116.953C90.9791 118.001 87.5374 119.085 84.2417 120.169C62.8941 127.2 45.8911 136.788 28.9187 146.82C2.67846 162.331 -23.9476 188.014 -52.4826 225.335C-62.0896 237.901 -70.7038 250.753 -79.0351 263.18C-89.8178 279.267 -100.969 295.901 -114.053 311.479C-140.767 343.282 -170.052 375.553 -208.334 390.136C-229.968 398.377 -253.713 399.846 -276.675 401.264C-292.45 402.238 -308.762 403.247 -324.128 406.458C-366.375 415.286 -402.427 445.949 -407.986 477.783H-407.986Z" fill="url(#paint5_linear_4302_12268)"/>
<path d="M-408.731 484.631L-409.488 484.464C-402.923 454.815 -366.026 426.367 -323.663 418.291C-308.885 415.472 -293.256 414.475 -278.141 413.51C-254.199 411.981 -229.44 410.401 -207.056 401.598C-168.102 386.279 -137.951 352.431 -111.35 322.569L-111.057 322.24C-97.2745 306.769 -86.0346 290.974 -74.1349 274.251C-65.931 262.722 -57.4472 250.8 -48.0666 239.021C-17.7702 200.977 7.97181 175.64 32.9468 159.28L36.5228 156.933C52.7103 146.301 67.9995 136.257 87.9374 128.926C92.4586 127.263 97.0256 125.714 101.86 124.076C118.291 118.505 135.283 112.742 149.431 102.589C166.376 90.4295 180.832 68.3803 174.931 46.531L175.68 46.3281C181.677 68.5364 167.045 90.9038 149.884 103.219C135.641 113.441 118.594 119.22 102.108 124.811C97.2794 126.447 92.7178 127.995 88.2057 129.654C68.3512 136.956 53.0976 146.974 36.9484 157.582L33.3725 159.929C8.4678 176.242 -17.2164 201.527 -47.459 239.503C-56.8268 251.267 -65.3042 263.18 -73.503 274.701C-85.4154 291.441 -96.6668 307.254 -110.478 322.756L-110.77 323.085C-137.429 353.013 -167.646 386.932 -206.772 402.319C-229.27 411.168 -254.09 412.753 -278.092 414.285C-293.182 415.248 -308.788 416.244 -323.518 419.052C-365.594 427.073 -402.228 455.267 -408.73 484.631L-408.731 484.631Z" fill="url(#paint6_linear_4302_12268)"/>
<path d="M-409.479 491.482L-410.227 491.273C-402.672 464.118 -365.19 438.155 -323.041 430.882C-308.982 428.454 -294.142 427.488 -279.791 426.553C-254.729 424.921 -228.812 423.233 -205.502 413.784C-168.916 398.953 -139.61 367.732 -113.755 340.186C-111.638 337.932 -109.544 335.7 -107.468 333.501C-92.8719 318.043 -80.9493 302.271 -68.3262 285.572C-60.3382 275.005 -52.0779 264.077 -43.0352 253.176C-21.1594 226.797 7.74917 193.778 37.3701 172.405C40.0869 170.445 42.7483 168.488 45.3893 166.545C59.8541 155.907 73.5176 145.858 91.8758 138.417C97.4751 136.147 103.205 134.088 109.27 131.909C124.865 126.307 140.991 120.513 154.61 110.973C172.065 98.7487 187.306 76.4617 182.012 54.2276L182.767 54.0488C185.182 64.1917 183.514 75.23 177.942 85.9682C172.89 95.7049 164.762 104.811 155.056 111.61C141.351 121.209 125.175 127.02 109.532 132.639C103.475 134.817 97.7524 136.871 92.1666 139.135C73.8985 146.54 60.2738 156.561 45.8492 167.169C43.2067 169.113 40.5423 171.073 37.8248 173.035C8.27443 194.356 -20.5908 227.327 -42.4379 253.669C-51.4691 264.559 -59.7242 275.479 -67.7078 286.04C-80.3429 302.756 -92.2783 318.544 -106.905 334.034C-108.979 336.231 -111.073 338.461 -113.189 340.716C-139.1 368.32 -168.466 399.607 -205.211 414.502C-228.637 423.998 -254.616 425.69 -279.741 427.326C-294.071 428.26 -308.89 429.225 -322.909 431.645C-364.782 438.871 -402 464.596 -409.479 491.481L-409.479 491.482Z" fill="url(#paint7_linear_4302_12268)"/>
<path d="M-410.228 498.335L-410.961 498.081C-402.371 473.431 -364.306 449.955 -322.417 443.473C-309.166 441.421 -295.211 440.506 -281.714 439.621C-255.434 437.897 -228.26 436.113 -203.947 425.969C-169.384 411.546 -140.926 382.497 -115.818 356.867C-111.696 352.659 -107.803 348.685 -103.878 344.762C-88.3249 329.214 -75.5894 313.365 -62.1056 296.586C-54.4621 287.072 -46.5582 277.237 -38.0026 267.33C-11.1722 236.264 15.1203 206.633 41.7956 185.531C45.3147 182.747 48.7631 179.911 52.099 177.168C65.5337 166.121 78.2227 155.686 95.8148 147.91C102.387 145.004 109.2 142.441 116.413 139.728C131.277 134.136 146.646 128.354 159.792 119.36C184.734 102.292 192.482 78.2148 189.096 61.925L189.855 61.7676C192.016 72.1603 190.02 83.3774 184.084 94.2051C178.727 103.978 170.255 113.139 160.23 120C147.007 129.049 131.592 134.847 116.686 140.453C109.483 143.163 102.68 145.722 96.1284 148.619C78.6331 156.353 65.9834 166.755 52.5913 177.769C49.2532 180.513 45.8016 183.352 42.2773 186.14C15.6545 207.2 -10.6101 236.801 -37.4156 267.837C-45.9621 277.733 -53.8616 287.564 -61.5014 297.071C-74.998 313.867 -87.7463 329.733 -103.33 345.311C-107.252 349.23 -111.144 353.203 -115.264 357.409C-140.424 383.092 -168.939 412.202 -203.649 426.685C-228.08 436.88 -255.32 438.667 -281.664 440.396C-295.144 441.279 -309.082 442.194 -322.299 444.24C-363.925 450.681 -401.727 473.938 -410.228 498.336V498.335Z" fill="url(#paint8_linear_4302_12268)"/>
<path d="M-410.985 505.196L-411.695 504.884C-402.011 482.756 -363.363 461.769 -321.798 456.065C-309.459 454.373 -296.494 453.527 -283.954 452.711C-256.347 450.914 -227.799 449.053 -202.396 438.156C-169.589 424.083 -141.965 396.857 -117.592 372.837C-111.617 366.949 -105.975 361.388 -100.291 356.024C-83.5514 340.225 -69.8008 324.13 -55.2419 307.09C-48.1485 298.789 -40.8134 290.203 -32.9736 281.487C-29.332 277.438 -25.6508 273.318 -21.9391 269.163C0.450983 244.103 23.6026 218.192 46.2186 198.658C50.1952 195.224 54.0453 191.702 57.7681 188.294C70.5019 176.642 82.5289 165.636 99.7515 157.402C107.207 153.838 115.039 150.78 123.331 147.544C137.549 141.994 152.251 136.254 164.969 127.746C182.114 116.276 200.574 94.1724 196.176 69.6245L196.94 69.4883C201.404 94.4043 182.74 116.791 165.401 128.392C152.612 136.947 137.87 142.701 123.614 148.267C115.336 151.499 107.516 154.55 100.087 158.102C82.9679 166.285 70.9821 177.254 58.2921 188.867C54.5654 192.277 50.7108 195.805 46.7266 199.246C24.1487 218.747 1.01361 244.64 -21.3597 269.68C-25.0727 273.835 -28.7539 277.956 -32.3957 282.005C-40.2293 290.714 -47.5613 299.296 -54.6518 307.595C-69.2235 324.65 -82.9876 340.76 -99.7586 356.587C-105.436 361.947 -111.076 367.504 -117.046 373.388C-141.468 397.457 -169.148 424.737 -202.089 438.867C-227.615 449.818 -256.231 451.683 -283.904 453.485C-296.428 454.301 -309.38 455.145 -321.691 456.835C-368.768 463.293 -402.833 486.572 -410.984 505.196L-410.985 505.196Z" fill="url(#paint9_linear_4302_12268)"/>
<path d="M-411.743 512.057L-412.422 511.681C-407.427 502.676 -395.847 493.38 -379.814 485.501C-362.528 477.009 -342.251 471.183 -321.175 468.657C-309.868 467.301 -298.019 466.548 -286.559 465.817C-257.494 463.969 -227.44 462.057 -200.84 450.34C-169.585 436.571 -143.926 412.008 -119.113 388.253C-111.383 380.852 -104.081 373.861 -96.702 367.285C-78.3672 350.944 -63.2476 334.294 -47.2421 316.668C-41.0607 309.862 -34.6689 302.824 -27.9413 295.64C-19.3206 286.437 -10.4156 276.573 -1.80393 267.035C15.6527 247.699 33.704 227.706 50.645 211.784C54.8844 207.801 58.9431 203.69 62.8673 199.714C75.08 187.342 86.6152 175.657 103.691 166.893C111.962 162.649 120.766 159.107 130.089 155.357C143.725 149.87 157.825 144.197 170.149 136.13C198.374 117.655 205.626 92.9047 203.26 77.3221L204.027 77.207C205.68 88.0923 203.031 99.6684 196.365 110.681C190.408 120.524 181.249 129.792 170.573 136.779C158.186 144.888 144.049 150.576 130.378 156.076C121.073 159.819 112.284 163.355 104.046 167.584C87.0802 176.291 75.5875 187.934 63.4196 200.26C59.49 204.24 55.4261 208.357 51.1766 212.351C34.258 228.249 16.2181 248.231 -1.22828 267.554C-9.84214 277.096 -18.7491 286.961 -27.3745 296.171C-34.0991 303.35 -40.488 310.384 -46.6669 317.189C-62.6879 334.833 -77.8203 351.495 -96.1853 367.864C-103.555 374.431 -110.851 381.418 -118.576 388.813C-143.438 412.614 -169.147 437.227 -200.528 451.048C-227.253 462.822 -257.377 464.738 -286.509 466.591C-297.958 467.32 -309.798 468.073 -321.083 469.427C-355.883 473.598 -399.484 489.957 -411.743 512.057L-411.743 512.057Z" fill="url(#paint10_linear_4302_12268)"/>
<path d="M-412.509 518.925L-413.141 518.474C-407.712 510.881 -395.485 502.673 -379.593 495.955C-367.279 490.749 -347.04 483.971 -320.552 481.247C-310.419 480.206 -299.829 479.56 -289.588 478.937C-258.916 477.069 -227.201 475.139 -199.287 462.526C-169.41 449.026 -144.499 425.74 -120.409 403.221C-111.013 394.439 -102.139 386.143 -93.1117 378.546C-72.41 361.121 -55.2522 343.309 -37.0853 324.451C-32.483 319.672 -27.7851 314.794 -22.9091 309.796C-9.45256 296.001 4.17066 280.735 17.3454 265.973C30.5626 251.163 43.0463 237.175 55.0716 224.912C59.4534 220.444 63.6046 215.812 67.619 211.333C79.4195 198.169 90.5645 185.734 107.632 176.385C116.657 171.442 126.395 167.427 136.705 163.175C149.814 157.771 163.37 152.181 175.329 144.516C194.342 132.329 213.525 110.301 210.343 85.0227L211.113 84.9258C214.34 110.562 194.96 132.855 175.747 145.17C163.73 152.872 150.142 158.475 137.001 163.893C126.711 168.136 116.992 172.144 108.005 177.066C91.0541 186.35 79.9514 198.737 68.1971 211.851C64.1765 216.336 60.0195 220.974 55.6264 225.454C43.6123 237.705 31.1346 251.687 17.9242 266.489C4.74412 281.258 -8.88501 296.53 -22.3531 310.338C-27.2282 315.335 -31.9252 320.211 -36.5269 324.988C-54.707 343.861 -71.8796 361.69 -92.6115 379.14C-101.623 386.724 -110.491 395.013 -119.878 403.79C-144.016 426.351 -168.974 449.681 -198.967 463.233C-227.012 475.904 -258.8 477.839 -289.541 479.712C-299.774 480.334 -310.356 480.978 -320.473 482.019C-366.497 486.751 -402.242 504.566 -412.509 518.925H-412.509Z" fill="url(#paint11_linear_4302_12268)"/>
<path d="M-413.284 525.797L-413.848 525.264C-407.866 518.953 -395.299 512.082 -379.369 506.412C-366.76 501.924 -346.212 496.099 -319.928 493.84C-311.135 493.084 -301.976 492.564 -293.119 492.061C-260.664 490.217 -227.104 488.311 -197.729 474.712C-169.088 461.45 -144.891 439.268 -121.49 417.819C-110.518 407.761 -100.156 398.263 -89.5198 389.809C-64.743 370.116 -44.9613 350.632 -22.0553 328.069L-17.8742 323.952C0.230225 306.132 17.8688 285.748 34.9261 266.035C43.5388 256.082 51.6731 246.682 59.5021 238.039C63.9456 233.134 68.1147 228.034 72.1463 223.102C83.6036 209.088 94.4252 195.851 111.575 185.878C121.308 180.219 131.951 175.74 143.219 170.998C155.843 165.688 168.897 160.195 180.51 152.902C200.058 140.626 220.022 118.371 217.429 92.7232L218.201 92.6445C220.83 118.645 200.668 141.16 180.922 153.56C169.256 160.886 156.173 166.391 143.521 171.714C132.276 176.444 121.655 180.914 111.965 186.548C94.9367 196.451 84.1584 209.635 72.7466 223.593C68.7086 228.532 64.5335 233.64 60.0765 238.56C52.2542 247.195 44.1221 256.594 35.5126 266.543C18.4455 286.268 0.79655 306.662 -17.33 324.504L-21.5111 328.623C-44.4326 351.201 -64.2285 370.698 -89.0361 390.416C-99.6509 398.852 -110.004 408.344 -120.965 418.391C-144.41 439.881 -168.652 462.103 -197.403 475.416C-226.912 489.078 -260.547 490.989 -293.075 492.836C-301.927 493.339 -311.079 493.859 -319.861 494.613C-354.038 497.551 -398.328 510.018 -413.284 525.797H-413.284Z" fill="url(#paint12_linear_4302_12268)"/>
<path d="M-414.073 532.672L-414.543 532.054C-403.097 523.363 -365.982 509.669 -319.306 506.434C-312.053 505.931 -304.528 505.546 -297.25 505.174C-262.801 503.414 -227.18 501.594 -196.175 486.898C-168.646 473.849 -145.129 452.63 -122.387 432.11C-109.921 420.862 -98.1466 410.238 -85.9295 401.071C-59.8439 381.499 -38.6242 362.469 -12.8431 338.108C9.70706 316.801 31.4472 290.453 50.6281 267.207C55.2662 261.585 59.6467 256.276 63.9292 251.168C68.3717 245.866 72.5055 240.347 76.5024 235.007C87.668 220.093 98.214 206.006 115.517 195.371C125.92 188.977 137.447 184.046 149.651 178.825C161.821 173.62 174.405 168.237 185.689 161.29C216.329 142.422 225.833 117.477 224.513 100.424L225.286 100.363C226.186 111.979 222.556 124.091 214.79 135.393C207.863 145.472 197.941 154.656 186.095 161.95C174.763 168.928 162.152 174.322 149.955 179.539C137.779 184.748 126.277 189.668 115.922 196.032C98.7462 206.589 88.243 220.619 77.1228 235.472C73.1197 240.819 68.9799 246.348 64.5231 251.665C60.2433 256.773 55.8635 262.081 51.2264 267.701C32.0309 290.963 10.2744 317.331 -12.31 338.671C-38.1114 363.051 -59.3487 382.097 -85.4647 401.692C-97.653 410.837 -109.415 421.45 -121.867 432.685C-144.651 453.243 -168.211 474.5 -195.843 487.598C-226.987 502.362 -262.687 504.185 -297.21 505.948C-304.485 506.319 -312.007 506.704 -319.253 507.206C-361.467 510.133 -400.614 522.452 -414.074 532.672L-414.073 532.672Z" fill="url(#paint13_linear_4302_12268)"/>
<path d="M-414.878 539.54L-415.227 538.846C-402.558 532.487 -365.146 521.483 -318.684 519.024C-313.225 518.736 -307.587 518.491 -302.135 518.254C-265.43 516.66 -227.476 515.012 -194.621 499.082C-168.102 486.224 -145.231 465.848 -123.114 446.143C-109.23 433.773 -96.1161 422.089 -82.3407 412.334C-55.8223 393.556 -33.5331 375.591 -7.81108 352.262C18.9868 327.958 44.1566 295.5 64.3802 269.42L68.3575 264.294C72.7556 258.632 76.8169 252.729 80.7443 247.02C91.6508 231.164 101.953 216.188 119.458 204.862C130.497 197.719 142.888 192.347 156.007 186.658C167.753 181.566 179.899 176.3 190.867 169.676C217.6 153.527 232.825 130.516 231.596 108.122L232.37 108.08C233.616 130.764 218.251 154.039 191.268 170.34C180.256 176.991 168.085 182.269 156.316 187.371C143.227 193.045 130.865 198.405 119.879 205.514C102.504 216.757 92.2446 231.671 81.3827 247.459C77.4494 253.177 73.3816 259.09 68.9696 264.77L64.9928 269.896C44.7505 296 19.5586 328.488 -7.28999 352.839C-33.0364 376.188 -55.3477 394.17 -81.8926 412.968C-95.6331 422.697 -108.731 434.367 -122.599 446.722C-144.755 466.463 -167.667 486.876 -194.283 499.78C-227.282 515.78 -265.318 517.432 -302.101 519.029C-307.552 519.267 -313.188 519.511 -318.644 519.8C-364.987 522.252 -402.266 533.21 -414.878 539.54Z" fill="url(#paint14_linear_4302_12268)"/>
<path d="M-415.692 546.397L-415.898 545.649C-411.434 544.417 -370.755 533.55 -318.063 531.617C-314.707 531.494 -311.327 531.38 -307.928 531.267C-268.652 529.953 -228.039 528.595 -193.067 511.269C-167.464 498.581 -145.204 478.942 -123.676 459.949C-108.449 446.514 -94.0663 433.824 -78.7514 423.597C-52.2452 405.895 -29.1816 389.397 -2.77911 366.419C25.5188 341.791 51.0636 307.567 72.7863 277.42C77.1017 271.432 81.0615 265.187 84.8905 259.147C95.5658 242.308 105.649 226.405 123.398 214.355C135.045 206.448 148.902 200.374 162.304 194.5C173.649 189.527 185.382 184.384 196.045 178.061C223.497 161.782 239.435 138.516 238.679 115.824L239.455 115.797C240.22 138.777 224.14 162.303 196.441 178.728C185.736 185.075 173.982 190.228 162.615 195.21C148.63 201.341 135.422 207.131 123.835 214.998C106.219 226.957 96.1764 242.795 85.5459 259.563C81.7102 265.613 77.7442 271.868 73.4153 277.875C51.6673 308.055 26.0908 342.321 -2.27009 367.004C-28.7036 390.009 -51.79 406.524 -78.3211 424.243C-93.5922 434.441 -107.955 447.115 -123.163 460.532C-144.728 479.558 -167.028 499.232 -192.723 511.964C-227.845 529.366 -268.543 530.727 -307.901 532.043C-311.3 532.157 -314.68 532.271 -318.035 532.393C-370.638 534.322 -411.236 545.168 -415.692 546.398V546.397Z" fill="url(#paint15_linear_4302_12268)"/>
<path d="M-416.511 553.241L-416.57 552.468C-412.513 552.159 -406.749 551.484 -399.45 550.628C-379.977 548.346 -350.55 544.895 -317.444 544.211L-314.876 544.157C-272.631 543.291 -228.947 542.395 -191.515 523.455C-166.744 510.92 -145.057 491.927 -124.084 473.559C-107.584 459.108 -91.9988 445.458 -75.164 434.86C-44.7242 415.697 -22.8904 401.566 2.25155 380.574C31.6632 356.017 56.6503 321.285 77.214 290.549C81.4177 284.265 85.2551 277.715 88.9666 271.38C99.4292 253.518 109.31 236.65 127.34 223.846C139.568 215.164 154.303 208.649 168.552 202.347C179.517 197.498 190.854 192.486 201.221 186.448C229.402 170.034 246.053 146.512 245.761 123.525L246.537 123.516C246.832 146.786 230.037 170.563 201.612 187.118C191.208 193.177 179.85 198.2 168.866 203.056C154.651 209.343 139.953 215.841 127.788 224.48C109.896 237.186 100.055 253.985 89.6355 271.771C85.9186 278.116 82.0753 284.677 77.8584 290.979C57.2645 321.762 32.2349 356.549 2.74829 381.17C-22.4306 402.193 -44.2845 416.338 -74.7504 435.517C-91.5338 446.083 -107.096 459.712 -123.573 474.143C-144.582 492.542 -166.307 511.568 -191.165 524.146C-228.754 543.168 -274.5 544.106 -314.86 544.933L-317.428 544.986C-350.497 545.671 -379.902 549.117 -399.36 551.399C-406.667 552.255 -412.44 552.932 -416.512 553.241H-416.511Z" fill="url(#paint16_linear_4302_12268)"/>
<path d="M-407.225 560.462C-411.216 560.462 -414.609 560.347 -417.32 560.071L-417.241 559.299C-408.94 560.146 -394.101 559.464 -375.316 558.603C-358.855 557.849 -338.37 556.908 -316.818 556.803C-271.13 556.579 -227.049 554.793 -189.957 535.64C-165.947 523.241 -144.798 504.816 -124.346 486.999C-106.638 471.571 -89.912 457 -71.5703 446.125C-68.2073 444.131 -64.8959 442.18 -61.6283 440.254C-38.1413 426.415 -15.9568 413.345 7.28774 394.731C38.9994 369.336 64.9147 330.601 81.6487 303.676C85.7137 297.135 89.4109 290.318 92.9869 283.726C103.251 264.801 112.946 246.924 131.286 233.339C144.077 223.864 159.682 216.917 174.772 210.199C185.37 205.481 196.328 200.602 206.404 194.835C235.321 178.284 252.684 154.506 252.85 131.227L253.626 131.232C253.384 165.19 220.791 187.493 206.789 195.508C196.679 201.294 185.702 206.181 175.088 210.907C160.036 217.608 144.47 224.539 131.748 233.963C113.546 247.446 103.891 265.248 93.6691 284.095C90.088 290.697 86.3853 297.525 82.3081 304.085C65.544 331.061 39.5777 369.867 7.77316 395.337C-15.5149 413.985 -37.7225 427.07 -61.2339 440.924C-64.5015 442.848 -67.8114 444.798 -71.1744 446.792C-89.4546 457.63 -106.155 472.181 -123.836 487.584C-144.323 505.432 -165.507 523.888 -189.601 536.328C-226.846 555.56 -271.028 557.355 -316.814 557.579C-338.349 557.683 -358.827 558.623 -375.28 559.379C-387.995 559.962 -398.906 560.462 -407.225 560.462L-407.225 560.462Z" fill="url(#paint17_linear_4302_12268)"/>
<path d="M-305.156 570.236C-308.88 570.236 -312.564 570.21 -316.204 570.171C-328.107 570.045 -339.405 570.054 -350.333 570.068C-381.303 570.101 -405.752 570.129 -418.121 566.891L-417.924 566.139C-405.653 569.351 -381.242 569.321 -350.334 569.292C-339.407 569.277 -328.104 569.268 -316.196 569.395C-275.012 569.849 -227.793 568.57 -188.402 547.823C-165.086 535.547 -144.44 517.621 -124.474 500.285C-105.62 483.914 -87.8118 468.451 -67.9792 457.387C-62.1426 454.132 -56.3948 451.007 -50.8353 447.984C-29.2762 436.262 -8.9134 425.191 12.3206 408.887C37.2079 389.778 61.3355 359.656 86.0816 316.802C89.9878 310.035 93.5325 302.989 96.9607 296.175C106.593 277.026 116.553 257.226 135.231 242.83C148.565 232.552 165.03 225.182 180.955 218.056C191.199 213.471 201.793 208.73 211.584 203.221C225.827 195.205 259.05 172.895 259.935 138.928L260.711 138.949C259.815 173.312 226.322 195.816 211.964 203.897C202.143 209.423 191.532 214.173 181.271 218.764C165.389 225.873 148.967 233.222 135.705 243.445C117.167 257.733 107.688 276.575 97.6532 296.524C94.2204 303.348 90.6709 310.405 86.7526 317.19C61.9557 360.135 37.7631 390.33 12.7933 409.502C-8.48995 425.842 -28.8786 436.929 -50.4647 448.666C-56.022 451.687 -61.7683 454.812 -67.6017 458.066C-87.3637 469.089 -105.142 484.526 -123.966 500.871C-143.964 518.236 -164.645 536.193 -188.039 548.51C-224.104 567.502 -266.647 570.237 -305.155 570.237L-305.156 570.236Z" fill="url(#paint18_linear_4302_12268)"/>
<path d="M-298.411 583.005C-304.234 583.005 -309.969 582.911 -315.596 582.764L-321.551 582.609C-364.772 581.492 -402.099 580.529 -418.914 573.704L-418.622 572.986C-401.938 579.756 -364.677 580.72 -321.53 581.834L-315.576 581.988C-274.181 583.07 -226.525 581.302 -186.848 560.01C-164.166 547.84 -143.99 530.35 -124.479 513.436C-104.536 496.15 -85.6991 479.823 -64.3911 468.651C-56.9649 464.758 -49.6603 461.129 -42.5964 457.619C-22.0796 447.426 -2.70097 437.797 17.352 423.042C43.149 404.061 67.0796 373.604 90.5113 329.928C94.2417 322.973 97.623 315.738 100.892 308.74C110.351 288.493 120.132 267.56 139.173 252.322C153.035 241.228 170.356 233.446 187.108 225.92C197.011 221.471 207.251 216.87 216.759 211.607C247.627 194.52 265.946 170.838 267.018 146.631L267.794 146.664C267.207 159.899 261.771 172.733 251.636 184.806C243.04 195.049 231.109 204.551 217.135 212.286C207.598 217.565 197.343 222.173 187.426 226.627C170.718 234.134 153.443 241.896 139.657 252.928C120.758 268.051 111.45 287.975 101.595 309.068C98.3208 316.076 94.9352 323.322 91.1942 330.295C67.7072 374.073 43.7033 404.615 17.8108 423.666C-2.29597 438.462 -21.7041 448.105 -42.2518 458.314C-49.3121 461.822 -56.6123 465.449 -64.0306 469.339C-85.2602 480.468 -104.063 496.767 -123.971 514.022C-143.514 530.964 -163.724 548.482 -186.482 560.695C-220.916 579.171 -261.297 583.005 -298.411 583.005H-298.411Z" fill="url(#paint19_linear_4302_12268)"/>
<path d="M-294.178 595.817C-301.559 595.817 -308.542 595.623 -314.985 595.358C-365.091 593.286 -402.071 589.969 -419.691 580.519L-419.325 579.834C-401.834 589.216 -364.952 592.515 -314.953 594.582C-241.036 597.638 -205.552 583.268 -185.292 572.196C-163.189 560.117 -143.448 543.01 -124.357 526.466C-103.381 508.288 -83.5694 491.119 -60.7989 479.917C-52.2434 475.708 -43.8058 471.911 -35.6466 468.238C-15.7277 459.271 3.0866 450.803 22.3866 437.199C48.6123 418.714 73.0247 387.04 94.9453 343.057C98.4861 335.95 101.695 328.562 104.799 321.418C114.087 300.034 123.693 277.921 143.119 261.814C157.491 249.896 175.66 241.712 193.231 233.797C202.806 229.485 212.706 225.024 221.94 219.993C253.578 202.759 272.591 178.827 274.105 154.332L274.879 154.38C273.349 179.146 254.188 203.309 222.311 220.675C213.051 225.719 203.137 230.186 193.55 234.504C176.026 242.399 157.906 250.561 143.614 262.411C124.331 278.4 115.189 299.446 105.51 321.727C102.403 328.882 99.1896 336.278 95.639 343.402C73.6608 387.502 49.1653 419.273 22.8332 437.833C3.47268 451.48 -15.3751 459.964 -35.3287 468.946C-43.4819 472.616 -51.9126 476.412 -60.4569 480.615C-83.1373 491.773 -102.913 508.91 -123.849 527.053C-142.971 543.623 -162.744 560.758 -184.92 572.878C-219.681 591.876 -260.901 595.817 -294.178 595.817L-294.178 595.817Z" fill="url(#paint20_linear_4302_12268)"/>
<path d="M-291.114 608.626C-298.618 608.626 -306.365 608.4 -314.376 607.949C-370.08 604.809 -403.791 598.259 -420.465 587.332L-420.039 586.683C-403.484 597.532 -369.895 604.044 -314.332 607.173C-259.574 610.268 -216.854 602.806 -183.737 584.381C-162.162 572.379 -142.824 555.604 -124.123 539.383C-102.165 520.335 -81.4258 502.345 -57.2092 491.181C-47.7927 486.842 -38.466 483.072 -29.4461 479.426C-9.86974 471.515 8.62093 464.043 27.4195 451.356C54.3588 433.173 78.5688 401.152 99.3772 356.181C102.717 348.966 105.745 341.47 108.675 334.223C117.796 311.652 127.228 288.315 147.063 271.305C161.936 258.549 180.953 249.97 199.345 241.673C208.595 237.5 218.16 233.185 227.118 228.38C246.168 218.164 278.523 195.959 281.19 162.035L281.963 162.096C279.268 196.388 246.674 218.774 227.485 229.065C218.503 233.882 208.926 238.202 199.664 242.38C181.323 250.655 162.357 259.212 147.568 271.894C127.877 288.781 118.481 312.03 109.394 334.514C106.462 341.77 103.428 349.275 100.082 356.507C79.2131 401.609 54.9121 433.737 27.853 451.998C8.98808 464.732 -9.53976 472.218 -29.1557 480.146C-38.1667 483.789 -47.4851 487.554 -56.8846 491.886C-81.0007 503.003 -101.7 520.958 -123.614 539.968C-142.345 556.217 -161.714 573.019 -183.359 585.061C-211.759 600.859 -247.172 608.627 -291.114 608.627L-291.114 608.626Z" fill="url(#paint21_linear_4302_12268)"/>
<path d="M-288.2 621.476C-296.475 621.476 -304.995 621.166 -313.765 620.54C-367.123 616.741 -403.28 607.861 -421.23 594.145L-420.759 593.53C-402.931 607.15 -366.914 615.978 -313.71 619.767C-260.345 623.566 -216.098 615.763 -182.181 596.566C-161.089 584.631 -142.123 568.144 -123.782 552.2C-100.89 532.299 -79.2672 513.503 -53.6196 502.447C-43.5155 498.09 -33.4521 494.477 -23.7201 490.981C-4.32469 484.014 13.9949 477.434 32.4516 465.512C60.048 447.689 84.0566 415.321 103.811 369.307C106.939 362.022 109.782 354.461 112.533 347.15C121.486 323.351 130.743 298.741 151.008 280.797C166.371 267.192 186.235 258.226 205.445 249.555C214.377 245.523 223.613 241.354 232.296 236.768C251.807 226.46 285.024 204.045 288.275 169.738L289.047 169.811C285.762 204.482 252.307 227.074 232.658 237.453C223.954 242.051 214.707 246.226 205.764 250.262C186.607 258.909 166.798 267.851 151.521 281.378C131.401 299.194 122.178 323.713 113.258 347.423C110.505 354.743 107.658 362.311 104.523 369.613C84.7065 415.771 60.5998 448.255 32.8724 466.163C14.3406 478.134 -4.01999 484.728 -23.4584 491.71C-33.1793 495.202 -43.231 498.813 -53.3125 503.159C-78.8496 514.168 -100.428 532.926 -123.273 552.785C-141.644 568.755 -160.64 585.267 -181.8 597.242C-210.272 613.355 -245.982 621.476 -288.201 621.476H-288.2Z" fill="url(#paint22_linear_4302_12268)"/>
<path d="M-285.802 634.336C-294.439 634.336 -303.547 633.959 -313.157 633.133C-349.422 630.019 -397.742 621.91 -421.992 600.962L-421.485 600.374C-397.392 621.187 -349.241 629.256 -313.09 632.36C-276.797 635.477 -224.352 633.913 -180.627 608.753C-159.977 596.869 -141.354 580.633 -123.345 564.929C-100.607 545.101 -77.0947 524.6 -50.03 513.712C-39.351 509.415 -28.6499 506.039 -18.3016 502.774C1.01655 496.681 19.2625 490.925 37.4842 479.668C65.6966 462.244 89.5035 429.527 108.244 382.432C111.154 375.121 113.809 367.539 116.376 360.207C120.768 347.664 125.31 334.692 131.24 322.777C137.897 309.404 145.653 298.777 154.952 290.288C170.796 275.824 191.504 266.48 211.53 257.443C220.15 253.553 229.064 249.532 237.474 245.154C284.011 220.931 293.717 192.333 295.36 177.441L296.131 177.526C294.564 191.721 287.86 205.252 276.205 217.745C266.426 228.225 253.516 237.678 237.831 245.843C229.403 250.23 220.479 254.256 211.849 258.151C191.878 267.163 171.227 276.481 155.475 290.861C134.904 309.642 125.857 335.477 117.108 360.463C114.539 367.804 111.881 375.394 108.966 382.72C90.1611 429.973 66.2489 462.814 37.892 480.329C19.5881 491.636 1.29663 497.406 -18.0683 503.515C-28.4027 506.774 -39.0886 510.146 -49.7405 514.432C-76.683 525.27 -99.1004 544.818 -122.835 565.512C-140.872 581.242 -159.524 597.505 -180.24 609.426C-200.94 621.337 -235.15 634.336 -285.802 634.336Z" fill="url(#paint23_linear_4302_12268)"/>
<path d="M-283.344 647.211C-293.837 647.211 -303.687 646.615 -312.546 645.726C-363.346 640.627 -402.484 627.151 -422.75 607.779L-422.214 607.218C-402.071 626.47 -363.097 639.872 -312.469 644.953C-276.521 648.565 -224.195 647.326 -179.072 620.938C-158.823 609.097 -140.515 593.071 -122.809 577.573C-99.257 556.957 -74.9039 535.64 -46.4407 524.977C-35.2659 520.792 -23.9982 517.716 -13.1016 514.742C6.21285 509.469 24.4557 504.489 42.5178 493.826C71.3127 476.827 94.918 443.766 112.679 395.559C115.366 388.267 117.828 380.71 120.209 373.402C128.813 346.997 137.709 319.692 158.898 299.779C175.213 284.445 196.766 274.731 217.609 265.337C225.921 261.589 234.516 257.715 242.652 253.541C290.281 229.104 300.558 200.199 302.445 185.145L303.215 185.241C301.406 199.674 294.385 213.38 282.347 225.979C272.312 236.481 259.076 245.986 243.007 254.232C234.853 258.415 226.249 262.293 217.928 266.044C197.142 275.413 175.65 285.099 159.43 300.345C138.385 320.122 129.52 347.329 120.946 373.642C118.563 380.957 116.098 388.521 113.407 395.826C95.5826 444.205 71.8652 477.402 42.912 494.493C24.7606 505.21 6.46833 510.204 -12.8975 515.491C-23.7767 518.461 -35.0269 521.53 -46.1677 525.705C-74.4988 536.317 -97.7164 556.641 -122.298 578.156C-140.03 593.678 -158.366 609.729 -178.681 621.608C-212.854 641.592 -251.123 647.211 -283.343 647.211L-283.344 647.211Z" fill="url(#paint24_linear_4302_12268)"/>
<path d="M-281.688 660.069C-291.614 660.069 -301.717 659.49 -311.936 658.317C-362.349 652.535 -401.971 637.009 -423.504 614.598L-422.945 614.061C-401.537 636.341 -362.082 651.785 -311.848 657.548C-261.466 663.325 -213.76 654.653 -177.516 633.124C-157.633 621.313 -139.614 605.467 -122.188 590.144C-97.857 568.747 -72.6978 546.624 -42.8504 536.243C-31.2394 532.205 -19.458 529.475 -8.06368 526.835C11.3012 522.347 29.5922 518.108 47.551 507.983C76.902 491.434 100.307 458.025 117.113 408.683C119.575 401.457 121.843 393.972 124.036 386.735C132.455 358.951 141.161 330.221 162.843 309.27C179.62 293.059 202.014 282.983 223.671 273.239C231.682 269.634 239.965 265.907 247.83 261.928C273.379 249.001 304.823 226.525 309.53 192.85L310.298 192.956C307.674 211.727 294.767 239.05 248.18 262.619C240.299 266.607 232.007 270.337 223.989 273.946C202.393 283.663 180.061 293.711 163.382 309.828C141.845 330.638 133.169 359.27 124.778 386.959C122.583 394.204 120.314 401.695 117.848 408.934C100.978 458.462 77.4543 492.014 47.9315 508.659C29.8763 518.838 10.6778 523.288 -7.88886 527.59C-19.2625 530.226 -31.0245 532.952 -42.5961 536.977C-72.2994 547.306 -96.2836 568.397 -121.676 590.725C-139.129 606.073 -157.176 621.942 -177.121 633.791C-206.153 651.036 -242.506 660.069 -281.688 660.069L-281.688 660.069Z" fill="url(#paint25_linear_4302_12268)"/>
<path d="M-279.556 672.971C-290.002 672.971 -300.616 672.29 -311.326 670.909C-360.684 664.548 -401.846 646.51 -424.258 621.418L-423.679 620.9C-401.39 645.855 -360.402 663.803 -311.227 670.139C-261.232 676.585 -213.195 667.765 -175.962 645.31C-156.413 633.518 -138.657 617.823 -121.486 602.645C-108.921 591.538 -95.9278 580.053 -82.4841 570.36C-67.414 559.495 -53.2756 552.019 -39.2623 547.508C-27.2552 543.644 -14.994 541.292 -3.13742 539.02C15.4595 535.455 34.6889 531.767 52.5825 522.141C82.4708 506.061 105.674 472.304 121.547 421.807C123.784 414.693 125.856 407.33 127.86 400.211C136.086 370.994 144.592 340.784 166.787 318.761C184.021 301.662 207.258 291.231 229.731 281.143C237.441 277.682 245.414 274.103 253.006 270.314C279.135 257.274 311.381 234.587 316.614 200.551L317.381 200.669C312.098 235.032 279.646 257.886 253.353 271.008C245.746 274.803 237.766 278.387 230.048 281.85C207.639 291.91 184.467 302.312 167.334 319.312C145.283 341.19 136.806 371.302 128.607 400.421C126.601 407.547 124.527 414.914 122.286 422.04C106.351 472.737 83.0228 506.644 52.9506 522.822C34.9515 532.506 15.6624 536.204 -2.99135 539.782C-14.8251 542.05 -27.0617 544.397 -39.0243 548.247C-70.0835 558.245 -95.9544 581.112 -120.972 603.227C-138.169 618.427 -155.952 634.146 -175.562 645.974C-204.962 663.706 -241.073 672.971 -279.556 672.971Z" fill="url(#paint26_linear_4302_12268)"/>
<path d="M-278.431 685.798C-289.137 685.798 -299.944 685.041 -310.715 683.501C-359.785 676.49 -401.442 656.347 -425.008 628.239L-424.414 627.741C-400.969 655.704 -359.487 675.748 -310.606 682.735C-261.672 689.726 -212.031 680.527 -174.406 657.496C-155.161 645.714 -137.646 630.145 -120.707 615.087C-94.9102 592.156 -68.2348 568.443 -35.6718 558.777C-23.2988 555.103 -10.5877 553.159 1.70521 551.279C20.4121 548.418 39.7558 545.459 57.6165 536.298C88.0251 520.702 111.027 486.597 125.983 434.934C127.995 427.983 129.873 420.795 131.689 413.843C139.71 383.138 148.004 351.387 170.735 328.252C188.417 310.255 212.497 299.477 235.784 289.056C243.199 285.737 250.865 282.307 258.185 278.701C306.585 254.867 320.527 227.237 323.701 208.256L324.466 208.383C321.263 227.544 307.222 255.418 258.528 279.398C251.195 283.009 243.522 286.442 236.102 289.764C212.88 300.156 188.868 310.904 171.288 328.795C148.703 351.782 140.435 383.432 132.439 414.039C130.623 420.995 128.744 428.19 126.729 435.149C111.71 487.027 88.5769 521.291 57.9711 536.989C39.9978 546.207 20.5911 549.176 1.82201 552.047C-10.4443 553.923 -23.1289 555.862 -35.4505 559.52C-67.8487 569.137 -94.4585 592.792 -120.192 615.667C-137.155 630.746 -154.697 646.339 -174.001 658.156C-203.491 676.208 -240.328 685.798 -278.431 685.798Z" fill="url(#paint27_linear_4302_12268)"/>
<path d="M-276.731 698.689C-287.832 698.689 -299.006 697.833 -310.105 696.094C-358.911 688.444 -401.064 666.199 -425.758 635.063L-425.15 634.581C-400.576 665.566 -358.6 687.707 -309.986 695.327C-261.468 702.93 -211.484 693.583 -172.851 669.679C-153.961 657.905 -136.717 642.488 -120.039 627.577C-93.4935 603.842 -66.0447 579.301 -32.0823 570.043C-19.3697 566.577 -6.23213 565.062 6.4719 563.597C25.3128 561.426 44.7945 559.179 62.649 550.456C93.5614 535.354 116.362 500.901 130.418 448.057C132.21 441.322 133.894 434.361 135.523 427.629C143.325 395.376 151.394 362.027 174.679 337.742C192.805 318.84 217.729 307.723 241.833 296.974C248.953 293.798 256.315 290.515 263.363 287.089C312.827 263.046 327.329 235.137 330.786 215.961L331.549 216.097C326.476 244.25 303.649 268.369 263.702 287.786C256.643 291.218 249.274 294.505 242.148 297.682C218.113 308.402 193.26 319.487 175.24 338.279C152.098 362.413 144.055 395.66 136.277 427.811C134.647 434.548 132.961 441.513 131.168 448.257C117.051 501.328 94.113 535.948 62.9899 551.153C45.0158 559.934 25.4667 562.188 6.56069 564.369C-6.11456 565.831 -19.2219 567.341 -31.8777 570.792C-65.6638 580.001 -93.0433 604.48 -119.522 628.156C-136.224 643.088 -153.495 658.529 -172.442 670.339C-202.391 688.87 -239.128 698.69 -276.732 698.69L-276.731 698.689Z" fill="url(#paint28_linear_4302_12268)"/>
<path d="M-275.018 711.593C-286.514 711.593 -298.057 710.636 -309.495 708.685C-358.059 700.41 -400.708 676.062 -426.508 641.886L-425.888 641.419C-400.207 675.437 -357.736 699.677 -309.365 707.922C-261.078 716.149 -210.754 706.655 -171.296 681.865C-152.633 670.083 -135.57 654.726 -119.07 639.877C-91.8733 615.402 -63.7511 590.094 -28.4931 581.31C-15.4578 578.062 -1.91178 576.995 11.1886 575.963C30.178 574.467 49.8149 572.921 67.6822 564.614C99.0869 550.015 121.686 515.215 134.854 461.18C136.429 454.715 137.922 448.034 139.366 441.575C146.935 407.719 154.762 372.71 178.625 347.234C197.189 327.416 222.958 315.969 247.879 304.898C254.706 301.864 261.766 298.728 268.54 295.476C309.113 276.003 332.439 251.843 337.87 223.666L338.633 223.811C333.152 252.243 309.682 276.591 268.876 296.176C262.092 299.432 255.026 302.57 248.193 305.607C223.344 316.646 197.648 328.062 179.192 347.764C155.473 373.086 147.67 407.99 140.124 441.745C138.679 448.207 137.186 454.89 135.607 461.365C122.382 515.639 99.6385 550.615 68.0095 565.317C50.015 573.683 30.3074 575.236 11.2491 576.736C-1.81933 577.766 -15.3329 578.83 -28.3052 582.062C-63.3762 590.8 -91.4247 616.042 -118.551 640.453C-135.075 655.325 -152.163 670.703 -170.883 682.521C-201.151 701.539 -237.795 711.593 -275.018 711.593H-275.018Z" fill="url(#paint29_linear_4302_12268)"/>
<path d="M-273.344 724.521C-285.224 724.521 -297.131 723.453 -308.885 721.277C-357.171 712.451 -400.316 686 -427.254 648.709L-426.625 648.255C-399.803 685.385 -356.837 711.722 -308.744 720.513C-260.719 729.405 -210.055 719.757 -169.74 694.05C-151.281 682.25 -134.381 666.939 -118.038 652.131C-90.2124 626.919 -61.4396 600.849 -24.9028 592.576C-11.5567 589.554 2.38541 588.95 15.8692 588.365C35.0192 587.535 54.8213 586.675 72.7167 578.77C104.603 564.684 127.002 529.536 139.291 474.302C140.652 468.187 141.953 461.874 143.212 455.771C150.541 420.229 158.119 383.476 182.573 356.722C201.601 335.99 228.226 324.203 253.974 312.805C260.493 309.919 267.235 306.934 273.719 303.861C315.157 284.219 339.125 259.829 344.957 231.369L345.718 231.524C339.833 260.237 315.721 284.81 274.051 304.561C267.558 307.64 260.812 310.626 254.287 313.514C228.613 324.88 202.064 336.633 183.146 357.246C158.836 383.841 151.279 420.488 143.972 455.927C142.713 462.034 141.411 468.349 140.049 474.471C127.703 529.958 105.154 565.288 73.0307 579.479C55.0013 587.445 35.1249 588.305 15.9029 589.14C2.4538 589.722 -11.4525 590.325 -24.7312 593.333C-61.0688 601.559 -89.7658 627.56 -117.518 652.706C-133.884 667.534 -150.807 682.868 -169.322 694.705C-199.934 714.224 -236.491 724.521 -273.343 724.521L-273.344 724.521Z" fill="url(#paint30_linear_4302_12268)"/>
<path d="M-271.854 737.404C-284.05 737.404 -296.257 736.238 -308.272 733.867C-356.388 724.374 -400.027 695.822 -428 655.534L-427.362 655.092C-399.504 695.216 -356.041 723.652 -308.122 733.107C-260.2 742.561 -209.196 732.769 -168.183 706.236C-149.905 694.41 -133.15 679.123 -116.946 664.339C-88.5105 638.394 -59.1072 611.566 -21.3119 603.843C-7.66677 601.055 6.65875 600.926 20.5121 600.802C39.833 600.629 59.8119 600.45 77.7503 592.929C110.108 579.362 132.307 543.867 143.729 487.427C144.894 481.664 146.019 475.722 147.106 469.973C154.152 432.72 161.436 394.199 186.521 366.214C205.942 344.546 233.401 332.455 259.957 320.762C266.207 318.01 272.671 315.165 278.898 312.248C321.205 292.437 345.816 267.818 352.044 239.074L352.801 239.238C346.519 268.231 321.765 293.031 279.227 312.951C272.992 315.871 266.524 318.72 260.269 321.473C233.789 333.132 206.408 345.189 187.098 366.732C162.158 394.556 154.894 432.969 147.867 470.119C146.78 475.868 145.655 481.813 144.488 487.582C133.012 544.287 110.659 579.973 78.0496 593.644C59.9703 601.225 39.9142 601.404 20.5181 601.578C6.70105 601.702 -7.58589 601.829 -21.1585 604.604C-58.7431 612.285 -88.0667 639.039 -116.425 664.912C-132.652 679.717 -149.431 695.027 -167.763 706.888C-198.659 726.876 -235.206 737.404 -271.855 737.404L-271.854 737.404Z" fill="url(#paint31_linear_4302_12268)"/>
</g>
<defs>
<linearGradient id="paint0_linear_4302_12268" x1="-221.139" y1="538.427" x2="311.454" y2="-390.584" gradientUnits="userSpaceOnUse">
<stop stop-color="#C8CACC"/>
<stop offset="0.141" stop-color="#D5D6D7"/>
<stop offset="0.382" stop-color="#E4E6E6"/>
<stop offset="0.571" stop-color="#EAEBEB"/>
<stop offset="0.748" stop-color="#EEEFEF"/>
<stop offset="0.928" stop-color="#FAFBFB"/>
<stop offset="0.976" stop-color="white"/>
</linearGradient>
<linearGradient id="paint1_linear_4302_12268" x1="-219.391" y1="545.076" x2="307.963" y2="-389.115" gradientUnits="userSpaceOnUse">
<stop stop-color="#C8CACC"/>
<stop offset="0.141" stop-color="#D5D6D7"/>
<stop offset="0.382" stop-color="#E4E6E6"/>
<stop offset="0.571" stop-color="#EAEBEB"/>
<stop offset="0.748" stop-color="#EEEFEF"/>
<stop offset="0.928" stop-color="#FAFBFB"/>
<stop offset="0.976" stop-color="white"/>
</linearGradient>
<linearGradient id="paint2_linear_4302_12268" x1="-217.629" y1="551.729" x2="304.475" y2="-387.468" gradientUnits="userSpaceOnUse">
<stop stop-color="#C8CACC"/>
<stop offset="0.141" stop-color="#D5D6D7"/>
<stop offset="0.382" stop-color="#E4E6E6"/>
<stop offset="0.571" stop-color="#EAEBEB"/>
<stop offset="0.748" stop-color="#EEEFEF"/>
<stop offset="0.928" stop-color="#FAFBFB"/>
<stop offset="0.976" stop-color="white"/>
</linearGradient>
<linearGradient id="paint3_linear_4302_12268" x1="-215.861" y1="558.381" x2="300.999" y2="-385.606" gradientUnits="userSpaceOnUse">
<stop stop-color="#C8CACC"/>
<stop offset="0.141" stop-color="#D5D6D7"/>
<stop offset="0.382" stop-color="#E4E6E6"/>
<stop offset="0.571" stop-color="#EAEBEB"/>
<stop offset="0.748" stop-color="#EEEFEF"/>
<stop offset="0.928" stop-color="#FAFBFB"/>
<stop offset="0.976" stop-color="white"/>
</linearGradient>
<linearGradient id="paint4_linear_4302_12268" x1="-214.063" y1="565.037" x2="297.524" y2="-383.612" gradientUnits="userSpaceOnUse">
<stop stop-color="#C8CACC"/>
<stop offset="0.141" stop-color="#D5D6D7"/>
<stop offset="0.382" stop-color="#E4E6E6"/>
<stop offset="0.571" stop-color="#EAEBEB"/>
<stop offset="0.748" stop-color="#EEEFEF"/>
<stop offset="0.928" stop-color="#FAFBFB"/>
<stop offset="0.976" stop-color="white"/>
</linearGradient>
<linearGradient id="paint5_linear_4302_12268" x1="-212.261" y1="571.695" x2="294.071" y2="-381.422" gradientUnits="userSpaceOnUse">
<stop stop-color="#C8CACC"/>
<stop offset="0.141" stop-color="#D5D6D7"/>
<stop offset="0.382" stop-color="#E4E6E6"/>
<stop offset="0.571" stop-color="#EAEBEB"/>
<stop offset="0.748" stop-color="#EEEFEF"/>
<stop offset="0.928" stop-color="#FAFBFB"/>
<stop offset="0.976" stop-color="white"/>
</linearGradient>
<linearGradient id="paint6_linear_4302_12268" x1="-210.434" y1="578.356" x2="290.64" y2="-379.079" gradientUnits="userSpaceOnUse">
<stop stop-color="#C8CACC"/>
<stop offset="0.141" stop-color="#D5D6D7"/>
<stop offset="0.382" stop-color="#E4E6E6"/>
<stop offset="0.571" stop-color="#EAEBEB"/>
<stop offset="0.748" stop-color="#EEEFEF"/>
<stop offset="0.928" stop-color="#FAFBFB"/>
<stop offset="0.976" stop-color="white"/>
</linearGradient>
<linearGradient id="paint7_linear_4302_12268" x1="-208.616" y1="585.022" x2="287.242" y2="-376.522" gradientUnits="userSpaceOnUse">
<stop stop-color="#C8CACC"/>
<stop offset="0.141" stop-color="#D5D6D7"/>
<stop offset="0.382" stop-color="#E4E6E6"/>
<stop offset="0.571" stop-color="#EAEBEB"/>
<stop offset="0.748" stop-color="#EEEFEF"/>
<stop offset="0.928" stop-color="#FAFBFB"/>
<stop offset="0.976" stop-color="white"/>
</linearGradient>
<linearGradient id="paint8_linear_4302_12268" x1="-206.773" y1="591.69" x2="283.873" y2="-373.82" gradientUnits="userSpaceOnUse">
<stop stop-color="#C8CACC"/>
<stop offset="0.141" stop-color="#D5D6D7"/>
<stop offset="0.382" stop-color="#E4E6E6"/>
<stop offset="0.571" stop-color="#EAEBEB"/>
<stop offset="0.748" stop-color="#EEEFEF"/>
<stop offset="0.928" stop-color="#FAFBFB"/>
<stop offset="0.976" stop-color="white"/>
</linearGradient>
<linearGradient id="paint9_linear_4302_12268" x1="-204.914" y1="598.366" x2="280.537" y2="-370.964" gradientUnits="userSpaceOnUse">
<stop stop-color="#C8CACC"/>
<stop offset="0.141" stop-color="#D5D6D7"/>
<stop offset="0.382" stop-color="#E4E6E6"/>
<stop offset="0.571" stop-color="#EAEBEB"/>
<stop offset="0.748" stop-color="#EEEFEF"/>
<stop offset="0.928" stop-color="#FAFBFB"/>
<stop offset="0.976" stop-color="white"/>
</linearGradient>
<linearGradient id="paint10_linear_4302_12268" x1="-203.054" y1="605.044" x2="277.248" y2="-367.918" gradientUnits="userSpaceOnUse">
<stop stop-color="#C8CACC"/>
<stop offset="0.141" stop-color="#D5D6D7"/>
<stop offset="0.382" stop-color="#E4E6E6"/>
<stop offset="0.571" stop-color="#EAEBEB"/>
<stop offset="0.748" stop-color="#EEEFEF"/>
<stop offset="0.928" stop-color="#FAFBFB"/>
<stop offset="0.976" stop-color="white"/>
</linearGradient>
<linearGradient id="paint11_linear_4302_12268" x1="-201.166" y1="611.73" x2="274.007" y2="-364.734" gradientUnits="userSpaceOnUse">
<stop stop-color="#C8CACC"/>
<stop offset="0.141" stop-color="#D5D6D7"/>
<stop offset="0.382" stop-color="#E4E6E6"/>
<stop offset="0.571" stop-color="#EAEBEB"/>
<stop offset="0.748" stop-color="#EEEFEF"/>
<stop offset="0.928" stop-color="#FAFBFB"/>
<stop offset="0.976" stop-color="white"/>
</linearGradient>
<linearGradient id="paint12_linear_4302_12268" x1="-199.269" y1="618.421" x2="270.821" y2="-361.378" gradientUnits="userSpaceOnUse">
<stop stop-color="#C8CACC"/>
<stop offset="0.141" stop-color="#D5D6D7"/>
<stop offset="0.382" stop-color="#E4E6E6"/>
<stop offset="0.571" stop-color="#EAEBEB"/>
<stop offset="0.748" stop-color="#EEEFEF"/>
<stop offset="0.928" stop-color="#FAFBFB"/>
<stop offset="0.976" stop-color="white"/>
</linearGradient>
<linearGradient id="paint13_linear_4302_12268" x1="-197.357" y1="625.116" x2="267.69" y2="-357.863" gradientUnits="userSpaceOnUse">
<stop stop-color="#C8CACC"/>
<stop offset="0.141" stop-color="#D5D6D7"/>
<stop offset="0.382" stop-color="#E4E6E6"/>
<stop offset="0.571" stop-color="#EAEBEB"/>
<stop offset="0.748" stop-color="#EEEFEF"/>
<stop offset="0.928" stop-color="#FAFBFB"/>
<stop offset="0.976" stop-color="white"/>
</linearGradient>
<linearGradient id="paint14_linear_4302_12268" x1="-195.426" y1="631.802" x2="264.598" y2="-354.201" gradientUnits="userSpaceOnUse">
<stop stop-color="#C8CACC"/>
<stop offset="0.141" stop-color="#D5D6D7"/>
<stop offset="0.382" stop-color="#E4E6E6"/>
<stop offset="0.571" stop-color="#EAEBEB"/>
<stop offset="0.748" stop-color="#EEEFEF"/>
<stop offset="0.928" stop-color="#FAFBFB"/>
<stop offset="0.976" stop-color="white"/>
</linearGradient>
<linearGradient id="paint15_linear_4302_12268" x1="-193.481" y1="638.476" x2="261.541" y2="-350.387" gradientUnits="userSpaceOnUse">
<stop stop-color="#C8CACC"/>
<stop offset="0.141" stop-color="#D5D6D7"/>
<stop offset="0.382" stop-color="#E4E6E6"/>
<stop offset="0.571" stop-color="#EAEBEB"/>
<stop offset="0.748" stop-color="#EEEFEF"/>
<stop offset="0.928" stop-color="#FAFBFB"/>
<stop offset="0.976" stop-color="white"/>
</linearGradient>
<linearGradient id="paint16_linear_4302_12268" x1="-191.529" y1="645.132" x2="258.495" y2="-346.425" gradientUnits="userSpaceOnUse">
<stop stop-color="#C8CACC"/>
<stop offset="0.141" stop-color="#D5D6D7"/>
<stop offset="0.382" stop-color="#E4E6E6"/>
<stop offset="0.571" stop-color="#EAEBEB"/>
<stop offset="0.748" stop-color="#EEEFEF"/>
<stop offset="0.928" stop-color="#FAFBFB"/>
<stop offset="0.976" stop-color="white"/>
</linearGradient>
<linearGradient id="paint17_linear_4302_12268" x1="-189.62" y1="652.249" x2="256.073" y2="-342.501" gradientUnits="userSpaceOnUse">
<stop stop-color="#C8CACC"/>
<stop offset="0.141" stop-color="#D5D6D7"/>
<stop offset="0.382" stop-color="#E4E6E6"/>
<stop offset="0.571" stop-color="#EAEBEB"/>
<stop offset="0.748" stop-color="#EEEFEF"/>
<stop offset="0.928" stop-color="#FAFBFB"/>
<stop offset="0.976" stop-color="white"/>
</linearGradient>
<linearGradient id="paint18_linear_4302_12268" x1="-187.744" y1="662.466" x2="258.053" y2="-339.373" gradientUnits="userSpaceOnUse">
<stop stop-color="#C8CACC"/>
<stop offset="0.141" stop-color="#D5D6D7"/>
<stop offset="0.382" stop-color="#E4E6E6"/>
<stop offset="0.571" stop-color="#EAEBEB"/>
<stop offset="0.748" stop-color="#EEEFEF"/>
<stop offset="0.928" stop-color="#FAFBFB"/>
<stop offset="0.976" stop-color="white"/>
</linearGradient>
<linearGradient id="paint19_linear_4302_12268" x1="-185.865" y1="676.318" x2="265.21" y2="-337.239" gradientUnits="userSpaceOnUse">
<stop stop-color="#C8CACC"/>
<stop offset="0.141" stop-color="#D5D6D7"/>
<stop offset="0.382" stop-color="#E4E6E6"/>
<stop offset="0.571" stop-color="#EAEBEB"/>
<stop offset="0.748" stop-color="#EEEFEF"/>
<stop offset="0.928" stop-color="#FAFBFB"/>
<stop offset="0.976" stop-color="white"/>
</linearGradient>
<linearGradient id="paint20_linear_4302_12268" x1="-183.973" y1="690.223" x2="272.464" y2="-335.118" gradientUnits="userSpaceOnUse">
<stop stop-color="#C8CACC"/>
<stop offset="0.141" stop-color="#D5D6D7"/>
<stop offset="0.382" stop-color="#E4E6E6"/>
<stop offset="0.571" stop-color="#EAEBEB"/>
<stop offset="0.748" stop-color="#EEEFEF"/>
<stop offset="0.928" stop-color="#FAFBFB"/>
<stop offset="0.976" stop-color="white"/>
</linearGradient>
<linearGradient id="paint21_linear_4302_12268" x1="-182.08" y1="704.124" x2="279.713" y2="-332.989" gradientUnits="userSpaceOnUse">
<stop stop-color="#C8CACC"/>
<stop offset="0.141" stop-color="#D5D6D7"/>
<stop offset="0.382" stop-color="#E4E6E6"/>
<stop offset="0.571" stop-color="#EAEBEB"/>
<stop offset="0.748" stop-color="#EEEFEF"/>
<stop offset="0.928" stop-color="#FAFBFB"/>
<stop offset="0.976" stop-color="white"/>
</linearGradient>
<linearGradient id="paint22_linear_4302_12268" x1="-180.182" y1="718.075" x2="287.042" y2="-330.871" gradientUnits="userSpaceOnUse">
<stop stop-color="#C8CACC"/>
<stop offset="0.141" stop-color="#D5D6D7"/>
<stop offset="0.382" stop-color="#E4E6E6"/>
<stop offset="0.571" stop-color="#EAEBEB"/>
<stop offset="0.748" stop-color="#EEEFEF"/>
<stop offset="0.928" stop-color="#FAFBFB"/>
<stop offset="0.976" stop-color="white"/>
</linearGradient>
<linearGradient id="paint23_linear_4302_12268" x1="-178.281" y1="732.037" x2="294.391" y2="-328.754" gradientUnits="userSpaceOnUse">
<stop stop-color="#C8CACC"/>
<stop offset="0.141" stop-color="#D5D6D7"/>
<stop offset="0.382" stop-color="#E4E6E6"/>
<stop offset="0.571" stop-color="#EAEBEB"/>
<stop offset="0.748" stop-color="#EEEFEF"/>
<stop offset="0.928" stop-color="#FAFBFB"/>
<stop offset="0.976" stop-color="white"/>
</linearGradient>
<linearGradient id="paint24_linear_4302_12268" x1="-176.378" y1="746.017" x2="301.771" y2="-326.64" gradientUnits="userSpaceOnUse">
<stop stop-color="#C8CACC"/>
<stop offset="0.141" stop-color="#D5D6D7"/>
<stop offset="0.382" stop-color="#E4E6E6"/>
<stop offset="0.571" stop-color="#EAEBEB"/>
<stop offset="0.748" stop-color="#EEEFEF"/>
<stop offset="0.928" stop-color="#FAFBFB"/>
<stop offset="0.976" stop-color="white"/>
</linearGradient>
<linearGradient id="paint25_linear_4302_12268" x1="-174.472" y1="759.977" x2="309.123" y2="-324.516" gradientUnits="userSpaceOnUse">
<stop stop-color="#C8CACC"/>
<stop offset="0.141" stop-color="#D5D6D7"/>
<stop offset="0.382" stop-color="#E4E6E6"/>
<stop offset="0.571" stop-color="#EAEBEB"/>
<stop offset="0.748" stop-color="#EEEFEF"/>
<stop offset="0.928" stop-color="#FAFBFB"/>
<stop offset="0.976" stop-color="white"/>
</linearGradient>
<linearGradient id="paint26_linear_4302_12268" x1="-172.566" y1="773.992" x2="316.559" y2="-322.411" gradientUnits="userSpaceOnUse">
<stop stop-color="#C8CACC"/>
<stop offset="0.141" stop-color="#D5D6D7"/>
<stop offset="0.382" stop-color="#E4E6E6"/>
<stop offset="0.571" stop-color="#EAEBEB"/>
<stop offset="0.748" stop-color="#EEEFEF"/>
<stop offset="0.928" stop-color="#FAFBFB"/>
<stop offset="0.976" stop-color="white"/>
</linearGradient>
<linearGradient id="paint27_linear_4302_12268" x1="-170.657" y1="787.914" x2="323.861" y2="-320.275" gradientUnits="userSpaceOnUse">
<stop stop-color="#C8CACC"/>
<stop offset="0.141" stop-color="#D5D6D7"/>
<stop offset="0.382" stop-color="#E4E6E6"/>
<stop offset="0.571" stop-color="#EAEBEB"/>
<stop offset="0.748" stop-color="#EEEFEF"/>
<stop offset="0.928" stop-color="#FAFBFB"/>
<stop offset="0.976" stop-color="white"/>
</linearGradient>
<linearGradient id="paint28_linear_4302_12268" x1="-168.749" y1="801.915" x2="331.276" y2="-318.16" gradientUnits="userSpaceOnUse">
<stop stop-color="#C8CACC"/>
<stop offset="0.141" stop-color="#D5D6D7"/>
<stop offset="0.382" stop-color="#E4E6E6"/>
<stop offset="0.571" stop-color="#EAEBEB"/>
<stop offset="0.748" stop-color="#EEEFEF"/>
<stop offset="0.928" stop-color="#FAFBFB"/>
<stop offset="0.976" stop-color="white"/>
</linearGradient>
<linearGradient id="paint29_linear_4302_12268" x1="-166.84" y1="815.93" x2="338.711" y2="-316.048" gradientUnits="userSpaceOnUse">
<stop stop-color="#C8CACC"/>
<stop offset="0.141" stop-color="#D5D6D7"/>
<stop offset="0.382" stop-color="#E4E6E6"/>
<stop offset="0.571" stop-color="#EAEBEB"/>
<stop offset="0.748" stop-color="#EEEFEF"/>
<stop offset="0.928" stop-color="#FAFBFB"/>
<stop offset="0.976" stop-color="white"/>
</linearGradient>
<linearGradient id="paint30_linear_4302_12268" x1="-164.929" y1="829.975" x2="346.196" y2="-313.946" gradientUnits="userSpaceOnUse">
<stop stop-color="#C8CACC"/>
<stop offset="0.141" stop-color="#D5D6D7"/>
<stop offset="0.382" stop-color="#E4E6E6"/>
<stop offset="0.571" stop-color="#EAEBEB"/>
<stop offset="0.748" stop-color="#EEEFEF"/>
<stop offset="0.928" stop-color="#FAFBFB"/>
<stop offset="0.976" stop-color="white"/>
</linearGradient>
<linearGradient id="paint31_linear_4302_12268" x1="-163.018" y1="843.965" x2="353.599" y2="-311.826" gradientUnits="userSpaceOnUse">
<stop stop-color="#C8CACC"/>
<stop offset="0.141" stop-color="#D5D6D7"/>
<stop offset="0.382" stop-color="#E4E6E6"/>
<stop offset="0.571" stop-color="#EAEBEB"/>
<stop offset="0.748" stop-color="#EEEFEF"/>
<stop offset="0.928" stop-color="#FAFBFB"/>
<stop offset="0.976" stop-color="white"/>
</linearGradient>
<clipPath id="clip0_4302_12268">
<rect width="780.802" height="737.404" fill="white" transform="translate(-428)"/>
</clipPath>
</defs>
</svg>
