<svg width="395" height="738" viewBox="0 0 395 738" fill="none" xmlns="http://www.w3.org/2000/svg">
<g clip-path="url(#clip0_4302_12235)">
<path d="M757.064 443.575L757.84 443.553C757.27 421.774 749.056 399.59 734.71 381.088C720.479 362.735 701.119 349.118 680.197 342.744C662.425 337.328 643.45 336.531 625.098 335.759C606.439 334.975 587.143 334.163 569.175 328.484C537.666 318.523 509.474 293.694 485.385 254.682C475.471 238.625 466.849 221.459 458.51 204.86C450.01 187.937 441.22 170.44 431.051 154.09C406.745 115.015 378.258 90.2684 346.38 80.5364C332.71 76.3633 318.222 74.974 304.21 73.6316C299.041 73.1361 293.696 72.6238 288.473 71.9798C271.693 69.91 250.388 65.8007 234.45 52.2822C220.762 40.6695 211.167 18.5217 220.349 0.34845L219.656 0C210.296 18.5264 220.034 41.0696 233.948 52.8731C250.043 66.5251 271.491 70.6676 288.377 72.7497C293.612 73.395 298.962 73.9087 304.136 74.4042C318.109 75.7437 332.558 77.1283 346.154 81.2785C377.847 90.9532 406.189 115.589 430.392 154.499C440.542 170.818 449.325 188.3 457.817 205.207C466.163 221.822 474.793 239.003 484.724 255.087C508.915 294.263 537.249 319.206 568.942 329.223C587.007 334.934 606.355 335.748 625.066 336.534C643.369 337.304 662.294 338.099 679.971 343.486C700.741 349.813 719.963 363.337 734.097 381.563C748.342 399.935 756.499 421.957 757.064 443.574L757.064 443.575Z" fill="url(#paint0_linear_4302_12235)"/>
<path d="M757.808 450.412L758.582 450.376C757.595 429.866 749.044 408.974 734.503 391.546C720.029 374.199 700.522 361.338 679.575 355.333C662.186 350.407 643.656 349.522 625.736 348.666C606.32 347.74 586.242 346.781 567.622 340.669C536.547 330.39 507.671 305.248 481.798 265.939C471.277 249.953 462.192 232.862 453.406 216.334C444.91 200.35 436.125 183.824 426.021 168.245C401.091 129.805 372.809 104.711 341.961 93.6572C326.639 88.1676 311.084 85.7041 294.617 83.0933C291.273 82.5629 287.912 82.0312 284.539 81.4688C265.953 78.3731 244.851 73.4805 229.269 60.6636C210.123 44.9146 206.728 22.273 213.27 8.04505L212.565 7.7207C208.607 16.3301 208.309 26.2896 211.704 36.525C214.85 46.0101 220.913 54.7951 228.777 61.2637C244.5 74.1959 265.724 79.1219 284.412 82.2358C287.788 82.7965 291.149 83.3298 294.495 83.8603C310.926 86.4632 326.446 88.9225 341.699 94.3878C372.384 105.384 400.535 130.374 425.37 168.666C435.456 184.218 444.233 200.729 452.721 216.698C461.515 233.242 470.608 250.351 481.15 266.366C507.121 305.824 536.133 331.07 567.379 341.405C586.1 347.551 606.231 348.512 625.7 349.442C643.576 350.295 662.061 351.178 679.363 356.079C700.161 362.041 719.532 374.814 733.908 392.043C748.341 409.343 756.829 430.07 757.808 450.412Z" fill="url(#paint1_linear_4302_12235)"/>
<path d="M758.554 457.254L759.328 457.196C757.919 437.941 749.034 418.324 734.311 401.956C719.576 385.577 699.917 373.49 678.956 367.925C661.978 363.416 643.901 362.482 626.42 361.579C606.222 360.535 585.337 359.456 566.072 352.855C535.212 342.277 506.473 317.531 478.212 277.199C467.082 261.315 457.524 244.328 448.279 227.902C439.793 212.824 431.019 197.231 420.993 182.4C395.391 144.528 367.314 119.086 337.543 106.781C319.703 99.4064 301.955 95.4139 280.608 90.9593C260.69 86.803 239.919 81.6877 224.091 69.0495C209.13 57.1022 198.178 34.9543 206.195 15.7414L205.478 15.4414C197.315 35.0104 208.419 57.5261 223.607 69.6554C239.568 82.4013 260.44 87.5439 280.449 91.7199C301.757 96.1654 319.469 100.149 337.246 107.499C366.875 119.744 394.835 145.09 420.35 182.834C430.358 197.639 439.125 213.218 447.603 228.282C456.857 244.725 466.425 261.729 477.577 277.645C505.935 318.116 534.8 342.956 565.821 353.588C585.189 360.227 606.129 361.308 626.379 362.354C643.822 363.255 661.857 364.187 678.757 368.674C699.575 374.203 719.1 386.206 733.735 402.476C748.343 418.715 757.158 438.169 758.554 457.254Z" fill="url(#paint2_linear_4302_12235)"/>
<path d="M759.295 464.094L760.066 464.016C758.233 446.027 749.013 427.695 734.105 412.393C719.111 397.004 699.304 385.683 678.33 380.514C661.817 376.446 644.259 375.468 627.281 374.525C606.242 373.354 584.486 372.143 564.517 365.041C524.471 350.797 494.034 314.512 474.622 288.458C462.875 272.691 452.823 255.83 443.103 239.523C434.639 225.327 425.888 210.646 415.96 196.555C389.615 159.158 361.744 133.37 333.119 119.904C316.338 112.01 298.929 106.011 276.671 100.452L275.918 100.264C256.845 95.4985 235.227 90.0998 218.909 77.4344C203.471 65.4506 191.714 43.0559 199.112 23.437L198.387 23.1641C190.855 43.1329 202.771 65.8884 218.433 78.0462C234.88 90.8132 256.582 96.2332 275.73 101.015L276.483 101.203C298.69 106.75 316.055 112.734 332.789 120.607C361.29 134.013 389.06 159.716 415.325 197C425.236 211.069 433.98 225.736 442.436 239.921C452.166 256.243 462.229 273.122 474 288.922C488.06 307.794 500.638 322.093 513.586 333.923C530.256 349.156 546.831 359.574 564.256 365.771C584.331 372.911 606.143 374.125 627.238 375.299C644.181 376.241 661.701 377.217 678.145 381.269C698.979 386.401 718.655 397.647 733.549 412.934C748.335 428.11 757.479 446.28 759.295 464.094Z" fill="url(#paint3_linear_4302_12235)"/>
<path d="M760.04 470.938L760.809 470.835C758.546 454.118 748.989 437.07 733.899 422.832C718.642 408.437 698.686 397.881 677.709 393.107C661.71 389.467 644.731 388.464 628.31 387.496C606.371 386.2 583.684 384.861 562.963 377.227C524.916 363.209 495.142 330.18 471.034 299.72C458.651 284.072 448.078 267.342 437.853 251.161C429.434 237.837 420.728 224.061 410.929 210.711C383.736 173.661 356.07 147.525 328.698 133.029C308.904 122.547 291.644 115.426 272.736 109.942C270.836 109.391 268.916 108.844 266.982 108.291C248.404 102.986 229.194 97.5008 213.729 85.8203C198.297 74.1623 184.925 52.0767 192.032 31.1351L191.297 30.8867C188.112 40.2717 188.798 50.7722 193.28 61.2498C197.396 70.8684 204.491 79.814 213.26 86.4385C228.841 98.2073 248.122 103.713 266.769 109.038C268.702 109.589 270.621 110.136 272.52 110.688C291.375 116.156 308.589 123.258 328.334 133.714C355.602 148.156 383.18 174.216 410.303 211.169C420.087 224.498 428.786 238.264 437.198 251.576C447.433 267.774 458.017 284.521 470.426 300.202C494.601 330.747 524.468 363.871 562.695 377.955C583.524 385.629 606.268 386.972 628.264 388.27C644.654 389.237 661.601 390.239 677.536 393.864C698.381 398.607 718.208 409.095 733.366 423.396C748.328 437.513 757.801 454.397 760.04 470.938L760.04 470.938Z" fill="url(#paint4_linear_4302_12235)"/>
<path d="M760.787 477.783L761.551 477.65C758.854 462.208 748.96 446.447 733.691 433.271C718.164 419.873 698.062 410.081 677.087 405.697C661.666 402.476 645.326 401.465 629.524 400.489C606.619 399.074 582.935 397.611 561.411 389.412C523.302 374.895 494.096 342.706 467.448 310.979C454.391 295.434 443.252 278.817 432.48 262.749C424.142 250.31 415.521 237.449 405.9 224.865C377.303 187.461 350.604 161.714 324.278 146.153C307.266 136.097 290.223 126.488 268.801 119.433C265.501 118.346 262.056 117.262 258.726 116.213C241.313 110.731 223.308 105.063 208.55 94.2032C185.855 77.501 180.408 53.7926 184.953 38.8317L184.211 38.6074C181.282 48.2472 182.296 58.9264 187.141 69.4889C191.572 79.1483 199.013 88.147 208.091 94.8278C222.952 105.765 241.02 111.453 258.493 116.953C261.822 118.001 265.263 119.085 268.559 120.169C289.907 127.2 306.91 136.788 323.882 146.82C350.122 162.331 376.748 188.014 405.283 225.335C414.89 237.901 423.505 250.753 431.836 263.18C442.619 279.267 453.77 295.901 466.854 311.479C493.567 343.282 522.852 375.553 561.135 390.136C582.769 398.377 606.514 399.846 629.476 401.264C645.251 402.238 661.562 403.247 676.928 406.458C719.176 415.286 755.227 445.949 760.787 477.783H760.787Z" fill="url(#paint5_linear_4302_12235)"/>
<path d="M761.531 484.631L762.289 484.464C755.724 454.815 718.827 426.367 676.464 418.291C661.686 415.472 646.057 414.475 630.942 413.51C607 411.981 582.241 410.401 559.856 401.598C520.903 386.279 490.752 352.431 464.151 322.569L463.858 322.24C450.075 306.769 438.835 290.974 426.936 274.251C418.732 262.722 410.248 250.8 400.867 239.021C370.571 200.977 344.829 175.64 319.854 159.28L316.278 156.933C300.09 146.301 284.801 136.257 264.863 128.926C260.342 127.263 255.775 125.714 250.941 124.076C234.509 118.505 217.518 112.742 203.37 102.589C186.425 90.4295 171.969 68.3803 177.869 46.531L177.121 46.3281C171.124 68.5364 185.755 90.9038 202.917 103.219C217.159 113.441 234.206 119.22 250.693 124.811C255.521 126.447 260.083 127.995 264.595 129.654C284.45 136.956 299.703 146.974 315.852 157.582L319.428 159.929C344.333 176.242 370.017 201.527 400.26 239.503C409.628 251.267 418.105 263.18 426.304 274.701C438.216 291.441 449.468 307.254 463.278 322.756L463.571 323.085C490.23 353.013 520.446 386.932 559.573 402.319C582.071 411.168 606.89 412.753 630.893 414.285C645.983 415.248 661.588 416.244 676.318 419.052C718.395 427.073 755.029 455.267 761.531 484.631L761.531 484.631Z" fill="url(#paint6_linear_4302_12235)"/>
<path d="M762.28 491.482L763.027 491.273C755.473 464.118 717.991 438.155 675.842 430.882C661.783 428.454 646.943 427.488 632.592 426.553C607.53 424.921 581.613 423.233 558.303 413.784C521.717 398.953 492.411 367.732 466.556 340.186C464.439 337.932 462.344 335.7 460.269 333.501C445.673 318.043 433.75 302.271 421.127 285.572C413.139 275.005 404.879 264.077 395.836 253.176C373.96 226.797 345.052 193.778 315.431 172.405C312.714 170.445 310.052 168.488 307.411 166.545C292.947 155.907 279.283 145.858 260.925 138.417C255.326 136.147 249.596 134.088 243.531 131.909C227.935 126.307 211.81 120.513 198.191 110.973C180.736 98.7487 165.495 76.4617 170.789 54.2276L170.034 54.0488C167.619 64.1917 169.287 75.23 174.858 85.9682C179.911 95.7049 188.039 104.811 197.745 111.61C211.45 121.209 227.625 127.02 243.268 132.639C249.326 134.817 255.048 136.871 260.634 139.135C278.902 146.54 292.527 156.561 306.952 167.169C309.594 169.113 312.258 171.073 314.976 173.035C344.526 194.356 373.392 227.327 395.239 253.669C404.27 264.559 412.525 275.479 420.509 286.04C433.144 302.756 445.079 318.544 459.705 334.034C461.78 336.231 463.874 338.461 465.99 340.716C491.9 368.32 521.267 399.607 558.012 414.502C581.437 423.998 607.417 425.69 632.541 427.326C646.872 428.26 661.691 429.225 675.71 431.645C717.583 438.871 754.8 464.596 762.28 491.481L762.28 491.482Z" fill="url(#paint7_linear_4302_12235)"/>
<path d="M763.029 498.335L763.762 498.081C755.172 473.431 717.107 449.955 675.218 443.473C661.967 441.421 648.012 440.506 634.515 439.621C608.235 437.897 581.061 436.113 556.748 425.969C522.184 411.546 493.727 382.497 468.619 356.867C464.497 352.659 460.603 348.685 456.679 344.762C441.126 329.214 428.39 313.365 414.906 296.586C407.263 287.072 399.359 277.237 390.803 267.33C363.973 236.264 337.68 206.633 311.005 185.531C307.486 182.747 304.038 179.911 300.702 177.168C287.267 166.121 274.578 155.686 256.986 147.91C250.414 145.004 243.601 142.441 236.388 139.728C221.524 134.136 206.155 128.354 193.009 119.36C168.067 102.292 160.319 78.2148 163.705 61.925L162.946 61.7676C160.785 72.1603 162.781 83.3774 168.716 94.2051C174.073 103.978 182.546 113.139 192.571 120C205.794 129.049 221.208 134.847 236.115 140.453C243.317 143.163 250.121 145.722 256.672 148.619C274.168 156.353 286.817 166.755 300.209 177.769C303.548 180.513 306.999 183.352 310.524 186.14C337.146 207.2 363.411 236.801 390.216 267.837C398.763 277.733 406.662 287.564 414.302 297.071C427.799 313.867 440.547 329.733 456.131 345.311C460.053 349.23 463.945 353.203 468.065 357.409C493.224 383.092 521.74 412.202 556.449 426.685C580.881 436.88 608.121 438.667 634.464 440.396C647.944 441.279 661.883 442.194 675.1 444.24C716.726 450.681 754.528 473.938 763.029 498.336V498.335Z" fill="url(#paint8_linear_4302_12235)"/>
<path d="M763.785 505.196L764.496 504.884C754.812 482.756 716.164 461.769 674.599 456.065C662.26 454.373 649.294 453.527 636.755 452.711C609.148 450.914 580.6 449.053 555.196 438.156C522.39 424.083 494.766 396.857 470.393 372.837C464.418 366.949 458.775 361.388 453.092 356.024C436.352 340.225 422.602 324.13 408.043 307.09C400.949 298.789 393.614 290.203 385.774 281.487C382.133 277.438 378.452 273.318 374.74 269.163C352.35 244.103 329.198 218.192 306.582 198.658C302.606 195.224 298.755 191.702 295.033 188.294C282.299 176.642 270.272 165.636 253.049 157.402C245.594 153.838 237.762 150.78 229.47 147.544C215.252 141.994 200.55 136.254 187.832 127.746C170.687 116.276 152.227 94.1724 156.625 69.6245L155.861 69.4883C151.397 94.4043 170.061 116.791 187.4 128.392C200.189 136.947 214.93 142.701 229.187 148.267C237.465 151.499 245.285 154.55 252.714 158.102C269.833 166.285 281.819 177.254 294.509 188.867C298.235 192.277 302.09 195.805 306.074 199.246C328.652 218.747 351.787 244.64 374.16 269.68C377.873 273.835 381.555 277.956 385.197 282.005C393.03 290.714 400.362 299.296 407.453 307.595C422.024 324.65 435.788 340.76 452.559 356.587C458.237 361.947 463.877 367.504 469.847 373.388C494.268 397.457 521.949 424.737 554.89 438.867C580.416 449.818 609.032 451.683 636.704 453.485C649.229 454.301 662.181 455.145 674.492 456.835C721.569 463.293 755.634 486.572 763.784 505.196L763.785 505.196Z" fill="url(#paint9_linear_4302_12235)"/>
<path d="M764.544 512.057L765.223 511.681C760.228 502.676 748.648 493.38 732.615 485.501C715.329 477.009 695.052 471.183 673.976 468.657C662.669 467.301 650.82 466.548 639.359 465.817C610.295 463.969 580.24 462.057 553.641 450.34C522.386 436.571 496.727 412.008 471.913 388.253C464.184 380.852 456.882 373.861 449.503 367.285C431.168 350.944 416.048 334.294 400.043 316.668C393.861 309.862 387.47 302.824 380.742 295.64C372.121 286.437 363.216 276.573 354.605 267.035C337.148 247.699 319.097 227.706 302.156 211.784C297.916 207.801 293.858 203.69 289.934 199.714C277.721 187.342 266.186 175.657 249.109 166.893C240.839 162.649 232.035 159.107 222.712 155.357C209.076 149.87 194.976 144.197 182.652 136.13C154.426 117.655 147.175 92.9047 149.541 77.3221L148.774 77.207C147.121 88.0923 149.77 99.6684 156.436 110.681C162.393 120.524 171.552 129.792 182.227 136.779C194.615 144.888 208.752 150.576 222.423 156.076C231.728 159.819 240.517 163.355 248.755 167.584C265.721 176.291 277.213 187.934 289.381 200.26C293.311 204.24 297.375 208.357 301.624 212.351C318.543 228.249 336.583 248.231 354.029 267.554C362.643 277.096 371.55 286.961 380.175 296.171C386.9 303.35 393.289 310.384 399.468 317.189C415.489 334.833 430.621 351.495 448.986 367.864C456.355 374.431 463.652 381.418 471.377 388.813C496.239 412.614 521.948 437.227 553.329 451.048C580.054 462.822 610.178 464.738 639.31 466.591C650.759 467.32 662.599 468.073 673.883 469.427C708.684 473.598 752.285 489.957 764.544 512.057L764.544 512.057Z" fill="url(#paint10_linear_4302_12235)"/>
<path d="M765.31 518.925L765.941 518.474C760.512 510.881 748.285 502.673 732.394 495.955C720.08 490.749 699.841 483.971 673.353 481.247C663.22 480.206 652.63 479.56 642.389 478.937C611.717 477.069 580.002 475.139 552.087 462.526C522.21 449.026 497.3 425.74 473.21 403.221C463.814 394.439 454.939 386.143 445.912 378.546C425.211 361.121 408.053 343.309 389.886 324.451C385.284 319.672 380.586 314.794 375.71 309.796C362.253 296.001 348.63 280.735 335.455 265.973C322.238 251.163 309.755 237.175 297.729 224.912C293.347 220.444 289.196 215.812 285.182 211.333C273.381 198.169 262.236 185.734 245.169 176.385C236.144 171.442 226.405 167.427 216.096 163.175C202.987 157.771 189.431 152.181 177.472 144.516C158.459 132.329 139.276 110.301 142.458 85.0227L141.688 84.9258C138.461 110.562 157.841 132.855 177.054 145.17C189.071 152.872 202.659 158.475 215.8 163.893C226.089 168.136 235.809 172.144 244.796 177.066C261.747 186.35 272.849 198.737 284.604 211.851C288.624 216.336 292.781 220.974 297.174 225.454C309.188 237.705 321.666 251.687 334.877 266.489C348.057 281.258 361.686 296.53 375.154 310.338C380.029 315.335 384.726 320.211 389.328 324.988C407.508 343.861 424.68 361.69 445.412 379.14C454.424 386.724 463.292 395.013 472.679 403.79C496.816 426.351 521.775 449.681 551.767 463.233C579.812 475.904 611.6 477.839 642.342 479.712C652.575 480.334 663.157 480.978 673.274 482.019C719.298 486.751 755.043 504.566 765.309 518.925H765.31Z" fill="url(#paint11_linear_4302_12235)"/>
<path d="M766.085 525.797L766.648 525.264C760.667 518.953 748.099 512.082 732.17 506.412C719.561 501.924 699.013 496.099 672.729 493.84C663.936 493.084 654.777 492.564 645.92 492.061C613.465 490.217 579.905 488.311 550.53 474.712C521.889 461.45 497.691 439.268 474.291 417.819C463.319 407.761 452.957 398.263 442.321 389.809C417.544 370.116 397.762 350.632 374.856 328.069L370.675 323.952C352.571 306.132 334.932 285.748 317.875 266.035C309.262 256.082 301.128 246.682 293.299 238.039C288.855 233.134 284.686 228.034 280.654 223.102C269.197 209.088 258.376 195.851 241.226 185.878C231.493 180.219 220.85 175.74 209.582 170.998C196.958 165.688 183.904 160.195 172.291 152.902C152.743 140.626 132.779 118.371 135.371 92.7232L134.6 92.6445C131.971 118.645 152.133 141.16 171.878 153.56C183.545 160.886 196.628 166.391 209.28 171.714C220.525 176.444 231.146 180.914 240.836 186.548C257.864 196.451 268.642 209.635 280.054 223.593C284.092 228.532 288.267 233.64 292.724 238.56C300.547 247.195 308.679 256.594 317.288 266.543C334.355 286.268 352.004 306.662 370.131 324.504L374.312 328.623C397.233 351.201 417.029 370.698 441.837 390.416C452.452 398.852 462.805 408.344 473.766 418.391C497.211 439.881 521.453 462.103 550.204 475.416C579.713 489.078 613.348 490.989 645.876 492.836C654.728 493.339 663.88 493.859 672.661 494.613C706.839 497.551 751.129 510.018 766.084 525.797H766.085Z" fill="url(#paint12_linear_4302_12235)"/>
<path d="M766.874 532.672L767.344 532.054C755.897 523.363 718.782 509.669 672.106 506.434C664.854 505.931 657.329 505.546 650.05 505.174C615.602 503.414 579.98 501.594 548.976 486.898C521.447 473.849 497.93 452.63 475.188 432.11C462.722 420.862 450.947 410.238 438.73 401.071C412.645 381.499 391.425 362.469 365.644 338.108C343.094 316.801 321.354 290.453 302.173 267.207C297.535 261.585 293.154 256.276 288.872 251.168C284.429 245.866 280.295 240.347 276.298 235.007C265.133 220.093 254.587 206.006 237.284 195.371C226.881 188.977 215.354 184.046 203.15 178.825C190.979 173.62 178.396 168.237 167.112 161.29C136.472 142.422 126.967 117.477 128.288 100.424L127.515 100.363C126.615 111.979 130.244 124.091 138.01 135.393C144.938 145.472 154.86 154.656 166.705 161.95C178.038 168.928 190.649 174.322 202.845 179.539C215.022 184.748 226.523 189.668 236.878 196.032C254.055 206.589 264.558 220.619 275.678 235.472C279.681 240.819 283.821 246.348 288.278 251.665C292.557 256.773 296.937 262.081 301.574 267.701C320.77 290.963 342.526 317.331 365.111 338.671C390.912 363.051 412.149 382.097 438.265 401.692C450.454 410.837 462.216 421.45 474.668 432.685C497.452 453.243 521.012 474.5 548.644 487.598C579.788 502.362 615.487 504.185 650.011 505.948C657.286 506.319 664.808 506.704 672.053 507.206C714.267 510.133 753.415 522.452 766.874 532.672L766.874 532.672Z" fill="url(#paint13_linear_4302_12235)"/>
<path d="M767.679 539.54L768.027 538.846C755.358 532.487 717.947 521.483 671.485 519.024C666.026 518.736 660.388 518.491 654.935 518.254C618.231 516.66 580.277 515.012 547.422 499.082C520.903 486.224 498.032 465.848 475.915 446.143C462.031 433.773 448.917 422.089 435.141 412.334C408.623 393.556 386.334 375.591 360.612 352.262C333.814 327.958 308.644 295.5 288.421 269.42L284.443 264.294C280.045 258.632 275.984 252.729 272.056 247.02C261.15 231.164 250.847 216.188 233.343 204.862C222.303 197.719 209.913 192.347 196.793 186.658C185.048 181.566 172.902 176.3 161.934 169.676C135.201 153.527 119.975 130.516 121.205 108.122L120.431 108.08C119.185 130.764 134.55 154.039 161.532 170.34C172.545 176.991 184.716 182.269 196.485 187.371C209.573 193.045 221.936 198.405 232.922 205.514C250.297 216.757 260.556 231.671 271.418 247.459C275.351 253.177 279.419 259.09 283.831 264.77L287.808 269.896C308.05 296 333.242 328.488 360.091 352.839C385.837 376.188 408.149 394.17 434.693 412.968C448.434 422.697 461.532 434.367 475.399 446.722C497.556 466.463 520.468 486.876 547.084 499.78C580.083 515.78 618.119 517.432 654.901 519.029C660.352 519.267 665.989 519.511 671.445 519.8C717.788 522.252 755.067 533.21 767.679 539.54Z" fill="url(#paint14_linear_4302_12235)"/>
<path d="M768.493 546.397L768.699 545.649C764.235 544.417 723.555 533.55 670.864 531.617C667.508 531.494 664.127 531.38 660.728 531.267C621.453 529.953 580.84 528.595 545.868 511.269C520.265 498.581 498.004 478.942 476.477 459.949C461.249 446.514 446.867 433.824 431.552 423.597C405.046 405.895 381.982 389.397 355.58 366.419C327.282 341.791 301.737 307.567 280.015 277.42C275.699 271.432 271.739 265.187 267.91 259.147C257.235 242.308 247.151 226.405 229.402 214.355C217.756 206.448 203.898 200.374 190.497 194.5C179.151 189.527 167.419 184.384 156.756 178.061C129.303 161.782 113.366 138.516 114.122 115.824L113.346 115.797C112.581 138.777 128.661 162.303 156.36 178.728C167.064 185.075 178.819 190.228 190.186 195.21C204.17 201.341 217.379 207.131 228.966 214.998C246.582 226.957 256.624 242.795 267.255 259.563C271.091 265.613 275.057 271.868 279.386 277.875C301.133 308.055 326.71 342.321 355.071 367.004C381.504 390.009 404.591 406.524 431.122 424.243C446.393 434.441 460.756 447.115 475.963 460.532C497.529 479.558 519.828 499.232 545.524 511.964C580.646 529.366 621.344 530.727 660.702 532.043C664.101 532.157 667.481 532.271 670.835 532.393C723.439 534.322 764.037 545.168 768.493 546.398V546.397Z" fill="url(#paint15_linear_4302_12235)"/>
<path d="M769.312 553.241L769.371 552.468C765.314 552.159 759.55 551.484 752.251 550.628C732.778 548.346 703.351 544.895 670.245 544.211L667.677 544.157C625.431 543.291 581.748 542.395 544.316 523.455C519.545 510.92 497.858 491.927 476.885 473.559C460.385 459.108 444.8 445.458 427.965 434.86C397.525 415.697 375.691 401.566 350.549 380.574C321.138 356.017 296.151 321.285 275.587 290.549C271.383 284.265 267.546 277.715 263.834 271.38C253.372 253.518 243.49 236.65 225.461 223.846C213.232 215.164 198.498 208.649 184.249 202.347C173.284 197.498 161.947 192.486 151.58 186.448C123.398 170.034 106.748 146.512 107.04 123.525L106.264 123.516C105.969 146.786 122.763 170.563 151.189 187.118C161.593 193.177 172.951 198.2 183.935 203.056C198.149 209.343 212.847 215.841 225.012 224.48C242.905 237.186 252.746 253.985 263.165 271.771C266.882 278.116 270.726 284.677 274.942 290.979C295.536 321.762 320.566 356.549 350.052 381.17C375.231 402.193 397.085 416.338 427.551 435.517C444.335 446.083 459.897 459.712 476.373 474.143C497.383 492.542 519.108 511.568 543.966 524.146C581.555 543.168 627.301 544.106 667.661 544.933L670.229 544.986C703.298 545.671 732.703 549.117 752.161 551.399C759.468 552.255 765.24 552.932 769.312 553.241H769.312Z" fill="url(#paint16_linear_4302_12235)"/>
<path d="M760.026 560.462C764.017 560.462 767.409 560.347 770.121 560.071L770.042 559.299C761.74 560.146 746.902 559.464 728.117 558.603C711.656 557.849 691.171 556.908 669.619 556.803C623.931 556.579 579.85 554.793 542.758 535.64C518.748 523.241 497.599 504.816 477.146 486.999C459.438 471.571 442.713 457 424.371 446.125C421.008 444.131 417.697 442.18 414.429 440.254C390.942 426.415 368.758 413.345 345.513 394.731C313.801 369.336 287.886 330.601 271.152 303.676C267.087 297.135 263.39 290.318 259.814 283.726C249.55 264.801 239.855 246.924 221.515 233.339C208.723 223.864 193.119 216.917 178.029 210.199C167.431 205.481 156.473 200.602 146.397 194.835C117.48 178.284 100.116 154.506 99.9507 131.227L99.1749 131.232C99.4166 165.19 132.01 187.493 146.012 195.508C156.121 201.294 167.098 206.181 177.713 210.907C192.765 217.608 208.33 224.539 221.053 233.963C239.255 247.446 248.91 265.248 259.132 284.095C262.713 290.697 266.416 297.525 270.493 304.085C287.257 331.061 313.223 369.867 345.028 395.337C368.316 413.985 390.523 427.07 414.035 440.924C417.302 442.848 420.612 444.798 423.975 446.792C442.255 457.63 458.956 472.181 476.637 487.584C497.124 505.432 518.308 523.888 542.401 536.328C579.647 555.56 623.829 557.355 669.615 557.579C691.15 557.683 711.628 558.623 728.08 559.379C740.796 559.962 751.707 560.462 760.025 560.462L760.026 560.462Z" fill="url(#paint17_linear_4302_12235)"/>
<path d="M657.956 570.236C661.681 570.236 665.365 570.21 669.004 570.171C680.908 570.045 692.205 570.054 703.134 570.068C734.104 570.101 758.553 570.129 770.922 566.891L770.725 566.139C758.454 569.351 734.043 569.321 703.135 569.292C692.208 569.277 680.904 569.268 668.997 569.395C627.813 569.849 580.594 568.57 541.202 547.823C517.886 535.547 497.241 517.621 477.275 500.285C458.421 483.914 440.613 468.451 420.78 457.387C414.943 454.132 409.196 451.007 403.636 447.984C382.077 436.262 361.714 425.191 340.48 408.887C315.593 389.778 291.465 359.656 266.719 316.802C262.813 310.035 259.268 302.989 255.84 296.175C246.208 277.026 236.247 257.226 217.57 242.83C204.235 232.552 187.77 225.182 171.846 218.056C161.601 213.471 151.008 208.73 141.217 203.221C126.974 195.205 93.751 172.895 92.8655 138.928L92.0897 138.949C92.9858 173.312 126.479 195.816 140.837 203.897C150.658 209.423 161.269 214.173 171.53 218.764C187.412 225.873 203.834 233.222 217.096 243.445C235.634 257.733 245.112 276.575 255.148 296.524C258.58 303.348 262.13 310.405 266.048 317.19C290.845 360.135 315.038 390.33 340.008 409.502C361.291 425.842 381.679 436.929 403.266 448.666C408.823 451.687 414.569 454.812 420.402 458.066C440.165 469.089 457.943 484.526 476.767 500.871C496.765 518.236 517.445 536.193 540.84 548.51C576.905 567.502 619.448 570.237 657.956 570.237L657.956 570.236Z" fill="url(#paint18_linear_4302_12235)"/>
<path d="M651.211 583.005C657.035 583.005 662.77 582.911 668.397 582.764L674.352 582.609C717.573 581.492 754.9 580.529 771.715 573.704L771.422 572.986C754.739 579.756 717.477 580.72 674.331 581.834L668.377 581.988C626.982 583.07 579.325 581.302 539.649 560.01C516.967 547.84 496.791 530.35 477.279 513.436C457.337 496.15 438.5 479.823 417.192 468.651C409.766 464.758 402.461 461.129 395.397 457.619C374.88 447.426 355.502 437.797 335.449 423.042C309.652 404.061 285.721 373.604 262.289 329.928C258.559 322.973 255.178 315.738 251.909 308.74C242.449 288.493 232.669 267.56 213.628 252.322C199.765 241.228 182.444 233.446 165.693 225.92C155.79 221.471 145.55 216.87 136.041 211.607C105.174 194.52 86.855 170.838 85.7829 146.631L85.007 146.664C85.5942 159.899 91.03 172.733 101.165 184.806C109.761 195.049 121.692 204.551 135.666 212.286C145.203 217.565 155.458 222.173 165.375 226.627C182.082 234.134 199.358 241.896 213.144 252.928C232.043 268.051 241.351 287.975 251.206 309.068C254.48 316.076 257.866 323.322 261.607 330.295C285.094 374.073 309.097 404.615 334.99 423.666C355.097 438.462 374.505 448.105 395.053 458.314C402.113 461.822 409.413 465.449 416.831 469.339C438.061 480.468 456.864 496.767 476.771 514.022C496.315 530.964 516.525 548.482 539.283 560.695C573.717 579.171 614.098 583.005 651.212 583.005H651.211Z" fill="url(#paint19_linear_4302_12235)"/>
<path d="M646.979 595.817C654.359 595.817 661.343 595.623 667.786 595.358C717.891 593.286 754.872 589.969 772.492 580.519L772.126 579.834C754.635 589.216 717.753 592.515 667.754 594.582C593.837 597.638 558.353 583.268 538.093 572.196C515.99 560.117 496.249 543.01 477.158 526.466C456.182 508.288 436.37 491.119 413.6 479.917C405.044 475.708 396.607 471.911 388.447 468.238C368.528 459.271 349.714 450.803 330.414 437.199C304.189 418.714 279.776 387.04 257.855 343.057C254.315 335.95 251.105 328.562 248.002 321.418C238.713 300.034 229.108 277.921 209.682 261.814C195.31 249.896 177.141 241.712 159.57 233.797C149.995 229.485 140.095 225.024 130.861 219.993C99.2229 202.759 80.2094 178.827 78.6959 154.332L77.9215 154.38C79.4518 179.146 98.6123 203.309 130.49 220.675C139.749 225.719 149.664 230.186 159.251 234.504C176.775 242.399 194.895 250.561 209.187 262.411C228.47 278.4 237.612 299.446 247.291 321.727C250.398 328.882 253.611 336.278 257.162 343.402C279.14 387.502 303.635 419.273 329.968 437.833C349.328 451.48 368.176 459.964 388.129 468.946C396.283 472.616 404.713 476.412 413.258 480.615C435.938 491.773 455.714 508.91 476.65 527.053C495.772 543.623 515.545 560.758 537.721 572.878C572.482 591.876 613.702 595.817 646.979 595.817L646.979 595.817Z" fill="url(#paint20_linear_4302_12235)"/>
<path d="M643.915 608.626C651.419 608.626 659.166 608.4 667.176 607.949C722.88 604.809 756.591 598.259 773.266 587.332L772.84 586.683C756.285 597.532 722.696 604.044 667.132 607.173C612.374 610.268 569.655 602.806 536.538 584.381C514.963 572.379 495.625 555.604 476.924 539.383C454.966 520.335 434.227 502.345 410.01 491.181C400.593 486.842 391.267 483.072 382.247 479.426C362.671 471.515 344.18 464.043 325.381 451.356C298.442 433.173 274.232 401.152 253.424 356.181C250.084 348.966 247.055 341.47 244.125 334.223C235.005 311.652 225.573 288.315 205.738 271.305C190.865 258.549 171.847 249.97 153.456 241.673C144.206 237.5 134.641 233.185 125.683 228.38C106.633 218.164 74.2773 195.959 71.6104 162.035L70.8378 162.096C73.5332 196.388 106.127 218.774 125.316 229.065C134.297 233.882 143.875 238.202 153.137 242.38C171.478 250.655 190.444 259.212 205.233 271.894C224.924 288.781 234.32 312.03 243.406 334.514C246.339 341.77 249.373 349.275 252.719 356.507C273.588 401.609 297.889 433.737 324.948 451.998C343.813 464.732 362.341 472.218 381.957 480.146C390.968 483.789 400.286 487.554 409.685 491.886C433.801 503.003 454.501 520.958 476.415 539.968C495.146 556.217 514.515 573.019 536.16 585.061C564.56 600.859 599.973 608.627 643.915 608.627L643.915 608.626Z" fill="url(#paint21_linear_4302_12235)"/>
<path d="M641.001 621.476C649.276 621.476 657.796 621.166 666.565 620.54C719.924 616.741 756.081 607.861 774.031 594.145L773.56 593.53C755.732 607.15 719.715 615.978 666.511 619.767C613.145 623.566 568.898 615.763 534.982 596.566C513.89 584.631 494.924 568.144 476.582 552.2C453.691 532.299 432.068 513.503 406.42 502.447C396.316 498.09 386.253 494.477 376.521 490.981C357.125 484.014 338.806 477.434 320.349 465.512C292.753 447.689 268.744 415.321 248.989 369.307C245.862 362.022 243.019 354.461 240.268 347.15C231.315 323.351 222.058 298.741 201.793 280.797C186.429 267.192 166.565 258.226 147.356 249.555C138.423 245.523 129.188 241.354 120.505 236.768C100.994 226.46 67.7771 204.045 64.5262 169.738L63.7535 169.811C67.0391 204.482 100.493 227.074 120.143 237.453C128.847 242.051 138.094 246.226 147.037 250.262C166.194 258.909 186.003 267.851 201.279 281.378C221.4 299.194 230.623 323.713 239.542 347.423C242.295 354.743 245.142 362.311 248.277 369.613C268.094 415.771 292.201 448.255 319.928 466.163C338.46 478.134 356.821 484.728 376.259 491.71C385.98 495.202 396.032 498.813 406.113 503.159C431.65 514.168 453.228 532.926 476.074 552.785C494.444 568.755 513.44 585.267 534.601 597.242C563.073 613.355 598.783 621.476 641.002 621.476H641.001Z" fill="url(#paint22_linear_4302_12235)"/>
<path d="M638.603 634.336C647.24 634.336 656.348 633.959 665.957 633.133C702.223 630.019 750.543 621.91 774.793 600.962L774.285 600.374C750.193 621.187 702.042 629.256 665.891 632.36C629.598 635.477 577.153 633.913 533.428 608.753C512.777 596.869 494.155 580.633 476.146 564.929C453.408 545.101 429.895 524.6 402.831 513.712C392.152 509.415 381.451 506.039 371.102 502.774C351.784 496.681 333.538 490.925 315.317 479.668C287.104 462.244 263.297 429.527 244.556 382.432C241.647 375.121 238.992 367.539 236.424 360.207C232.032 347.664 227.491 334.692 221.56 322.777C214.904 309.404 207.148 298.777 197.849 290.288C182.005 275.824 161.297 266.48 141.27 257.443C132.65 253.553 123.737 249.532 115.327 245.154C68.7898 220.931 59.0842 192.333 57.441 177.441L56.6696 177.526C58.2363 191.721 64.9404 205.252 76.5962 217.745C86.3744 228.225 99.2849 237.678 114.969 245.843C123.398 250.23 132.322 254.256 140.951 258.151C160.923 267.163 181.573 276.481 197.326 290.861C217.897 309.642 226.944 335.477 235.693 360.463C238.262 367.804 240.92 375.394 243.835 382.72C262.64 429.973 286.552 462.814 314.909 480.329C333.213 491.636 351.504 497.406 370.869 503.515C381.204 506.774 391.889 510.146 402.541 514.432C429.484 525.27 451.901 544.818 475.636 565.512C493.673 581.242 512.325 597.505 533.041 609.426C553.741 621.337 587.951 634.336 638.603 634.336Z" fill="url(#paint23_linear_4302_12235)"/>
<path d="M636.145 647.211C646.638 647.211 656.488 646.615 665.347 645.726C716.146 640.627 755.284 627.151 775.551 607.779L775.014 607.218C754.872 626.47 715.897 639.872 665.27 644.953C629.321 648.565 576.996 647.326 531.873 620.938C511.624 609.097 493.315 593.071 475.61 577.573C452.058 556.957 427.705 535.64 399.241 524.977C388.067 520.792 376.799 517.716 365.902 514.742C346.588 509.469 328.345 504.489 310.283 493.826C281.488 476.827 257.883 443.766 240.121 395.559C237.435 388.267 234.973 380.71 232.592 373.402C223.988 346.997 215.092 319.692 193.903 299.779C177.588 284.445 156.035 274.731 135.192 265.337C126.88 261.589 118.284 257.715 110.149 253.541C62.5199 229.104 52.2429 200.199 50.3556 185.145L49.5859 185.241C51.3951 199.674 58.4157 213.38 70.4541 225.979C80.4885 236.481 93.7247 245.986 109.794 254.232C117.948 258.415 126.552 262.293 134.873 266.044C155.658 275.413 177.151 285.099 193.371 300.345C214.416 320.122 223.281 347.329 231.854 373.642C234.238 380.957 236.702 388.521 239.394 395.826C257.218 444.205 280.936 477.402 309.889 494.493C328.04 505.21 346.332 510.204 365.698 515.491C376.577 518.461 387.828 521.53 398.968 525.705C427.3 536.317 450.517 556.641 475.098 578.156C492.831 593.678 511.167 609.729 531.481 621.608C565.655 641.592 603.924 647.211 636.144 647.211L636.145 647.211Z" fill="url(#paint24_linear_4302_12235)"/>
<path d="M634.488 660.069C644.415 660.069 654.518 659.49 664.736 658.317C715.15 652.535 754.772 637.009 776.305 614.598L775.745 614.061C754.338 636.341 714.883 651.785 664.649 657.548C614.267 663.325 566.56 654.653 530.317 633.124C510.434 621.313 492.415 605.467 474.989 590.144C450.658 568.747 425.499 546.624 395.651 536.243C384.04 532.205 372.259 529.475 360.864 526.835C341.5 522.347 323.209 518.108 305.25 507.983C275.899 491.434 252.494 458.025 235.688 408.683C233.226 401.457 230.958 393.972 228.764 386.735C220.345 358.951 211.64 330.221 189.958 309.27C173.181 293.059 150.787 282.983 129.13 273.239C121.119 269.634 112.836 265.907 104.971 261.928C79.4222 249.001 47.9779 226.525 43.271 192.85L42.5028 192.956C45.1264 211.727 58.0338 239.05 104.621 262.619C112.502 266.607 120.794 270.337 128.812 273.946C150.407 283.663 172.739 293.711 189.419 309.828C210.956 330.638 219.632 359.27 228.022 386.959C230.218 394.204 232.487 401.695 234.953 408.934C251.823 458.462 275.347 492.014 304.869 508.659C322.925 518.838 342.123 523.288 360.69 527.59C372.063 530.226 383.825 532.952 395.397 536.977C425.1 547.306 449.084 568.397 474.477 590.725C491.93 606.073 509.977 621.942 529.922 633.791C558.953 651.036 595.307 660.069 634.489 660.069L634.488 660.069Z" fill="url(#paint25_linear_4302_12235)"/>
<path d="M632.357 672.971C642.802 672.971 653.417 672.29 664.127 670.909C713.485 664.548 754.646 646.51 777.059 621.418L776.48 620.9C754.191 645.855 713.203 663.803 664.028 670.139C614.033 676.585 565.996 667.765 528.763 645.31C509.214 633.518 491.458 617.823 474.287 602.645C461.722 591.538 448.729 580.053 435.285 570.36C420.215 559.495 406.076 552.019 392.063 547.508C380.056 543.644 367.795 541.292 355.938 539.02C337.341 535.455 318.112 531.767 300.218 522.141C270.33 506.061 247.127 472.304 231.254 421.807C229.017 414.693 226.945 407.33 224.941 400.211C216.715 370.994 208.209 340.784 186.014 318.761C168.78 301.662 145.543 291.231 123.07 281.143C115.36 277.682 107.387 274.103 99.7949 270.314C73.6653 257.274 41.4196 234.587 36.1867 200.551L35.4199 200.669C40.7027 235.032 73.1545 257.886 99.4479 271.008C107.055 274.803 115.035 278.387 122.752 281.85C145.162 291.91 168.334 302.312 185.467 319.312C207.517 341.19 215.995 371.302 224.194 400.421C226.2 407.547 228.274 414.914 230.514 422.04C246.45 472.737 269.778 506.644 299.85 522.822C317.849 532.506 337.138 536.204 355.792 539.782C367.626 542.05 379.862 544.397 391.825 548.247C422.884 558.245 448.755 581.112 473.773 603.227C490.97 618.427 508.752 634.146 528.363 645.974C557.763 663.706 593.873 672.971 632.357 672.971Z" fill="url(#paint26_linear_4302_12235)"/>
<path d="M631.232 685.798C641.938 685.798 652.744 685.041 663.516 683.501C712.585 676.49 754.243 656.347 777.809 628.239L777.215 627.741C753.77 655.704 712.288 675.748 663.407 682.735C614.473 689.726 564.832 680.527 527.207 657.496C507.961 645.714 490.446 630.145 473.508 615.087C447.711 592.156 421.036 568.443 388.473 558.777C376.1 555.103 363.388 553.159 351.096 551.279C332.389 548.418 313.045 545.459 295.184 536.298C264.776 520.702 241.774 486.597 226.818 434.934C224.805 427.983 222.927 420.795 221.111 413.843C213.091 383.138 204.796 351.387 182.066 328.252C164.384 310.255 140.304 299.477 117.017 289.056C109.602 285.737 101.936 282.307 94.6153 278.701C46.2157 254.867 32.2738 227.237 29.1001 208.256L28.3349 208.383C31.5381 227.544 45.5788 255.418 94.2727 279.398C101.606 283.009 109.279 286.442 116.699 289.764C139.921 300.156 163.933 310.904 181.513 328.795C204.098 351.782 212.365 383.432 220.361 414.039C222.178 420.995 224.057 428.19 226.072 435.149C241.091 487.027 264.224 521.291 294.83 536.989C312.803 546.207 332.21 549.176 350.979 552.047C363.245 553.923 375.93 555.862 388.251 559.52C420.65 569.137 447.259 592.792 472.993 615.667C489.956 630.746 507.498 646.339 526.802 658.156C556.292 676.208 593.129 685.798 631.232 685.798Z" fill="url(#paint27_linear_4302_12235)"/>
<path d="M629.532 698.689C640.633 698.689 651.807 697.833 662.906 696.094C711.712 688.444 753.865 666.199 778.559 635.063L777.951 634.581C753.377 665.566 711.401 687.707 662.787 695.327C614.269 702.93 564.284 693.583 525.652 669.679C506.762 657.905 489.518 642.488 472.84 627.577C446.294 603.842 418.845 579.301 384.883 570.043C372.17 566.577 359.033 565.062 346.329 563.597C327.488 561.426 308.006 559.179 290.152 550.456C259.239 535.354 236.439 500.901 222.383 448.057C220.591 441.322 218.907 434.361 217.278 427.629C209.475 395.376 201.407 362.027 178.121 337.742C159.996 318.84 135.071 307.723 110.968 296.974C103.848 293.798 96.4854 290.515 89.4382 287.089C39.9736 263.046 25.4717 235.137 22.0152 215.961L21.2517 216.097C26.3247 244.25 49.152 268.369 89.0988 287.786C96.1583 291.218 103.527 294.505 110.653 297.682C134.687 308.402 159.541 319.487 177.561 338.279C200.703 362.413 208.746 395.66 216.524 427.811C218.154 434.548 219.839 441.513 221.633 448.257C235.749 501.328 258.688 535.948 289.811 551.153C307.785 559.934 327.334 562.188 346.24 564.369C358.915 565.831 372.023 567.341 384.679 570.792C418.465 580.001 445.844 604.48 472.323 628.156C489.025 643.088 506.296 658.529 525.243 670.339C555.191 688.87 591.929 698.69 629.533 698.69L629.532 698.689Z" fill="url(#paint28_linear_4302_12235)"/>
<path d="M627.819 711.593C639.315 711.593 650.858 710.636 662.296 708.685C710.86 700.41 753.509 676.062 779.309 641.886L778.689 641.419C753.007 675.437 710.536 699.677 662.166 707.922C613.879 716.149 563.555 706.655 524.096 681.865C505.434 670.083 488.371 654.726 471.871 639.877C444.674 615.402 416.552 590.094 381.294 581.31C368.259 578.062 354.713 576.995 341.612 575.963C322.623 574.467 302.986 572.921 285.119 564.614C253.714 550.015 231.114 515.215 217.947 461.18C216.371 454.715 214.878 448.034 213.434 441.575C205.865 407.719 198.039 372.71 174.175 347.234C155.612 327.416 129.843 315.969 104.922 304.898C98.0945 301.864 91.0346 298.728 84.2608 295.476C43.6882 276.003 20.3615 251.843 14.9304 223.666L14.1682 223.811C19.6487 252.243 43.1185 276.591 83.9244 296.176C90.7085 299.432 97.7749 302.57 104.608 305.607C129.457 316.646 155.153 328.062 173.609 347.764C197.328 373.086 205.131 407.99 212.677 441.745C214.121 448.207 215.615 454.89 217.193 461.365C230.419 515.639 253.162 550.615 284.791 565.317C302.786 573.683 322.493 575.236 341.552 576.736C354.62 577.766 368.134 578.83 381.106 582.062C416.177 590.8 444.226 616.042 471.351 640.453C487.876 655.325 504.964 670.703 523.684 682.521C553.952 701.539 590.596 711.593 627.819 711.593H627.819Z" fill="url(#paint29_linear_4302_12235)"/>
<path d="M626.145 724.521C638.025 724.521 649.932 723.453 661.685 721.277C709.972 712.451 753.117 686 780.055 648.709L779.426 648.255C752.604 685.385 709.638 711.722 661.545 720.513C613.519 729.405 562.856 719.757 522.54 694.05C504.081 682.25 487.182 666.939 470.839 652.131C443.013 626.919 414.24 600.849 377.704 592.576C364.358 589.554 350.415 588.95 336.932 588.365C317.782 587.535 297.979 586.675 280.084 578.77C248.197 564.684 225.799 529.536 213.51 474.302C212.148 468.187 210.848 461.874 209.589 455.771C202.26 420.229 194.682 383.476 170.227 356.722C151.199 335.99 124.575 324.203 98.8271 312.805C92.3079 309.919 85.5661 306.934 79.0818 303.861C37.6439 284.219 13.6756 259.829 7.84367 231.369L7.08307 231.524C12.9674 260.237 37.0797 284.81 78.7498 304.561C85.2425 307.64 91.989 310.626 98.5134 313.514C124.188 324.88 150.737 336.633 169.655 357.246C193.965 383.841 201.521 420.488 208.829 455.927C210.088 462.034 211.39 468.349 212.752 474.471C225.098 529.958 247.646 565.288 279.77 579.479C297.799 587.445 317.676 588.305 336.898 589.14C350.347 589.722 364.253 590.325 377.532 593.333C413.87 601.559 442.567 627.56 470.318 652.706C486.685 667.534 503.608 682.868 522.123 694.705C552.735 714.224 589.291 724.521 626.144 724.521L626.145 724.521Z" fill="url(#paint30_linear_4302_12235)"/>
<path d="M624.654 737.404C636.851 737.404 649.057 736.238 661.072 733.867C709.188 724.374 752.828 695.822 780.801 655.534L780.163 655.092C752.304 695.216 708.842 723.652 660.923 733.107C613.001 742.561 561.996 732.769 520.984 706.236C502.706 694.41 485.95 679.123 469.747 664.339C441.311 638.394 411.908 611.566 374.113 603.843C360.468 601.055 346.142 600.926 332.289 600.802C312.968 600.629 292.989 600.45 275.05 592.929C242.692 579.362 220.494 543.867 209.072 487.427C207.906 481.664 206.782 475.722 205.695 469.973C198.649 432.72 191.364 394.199 166.279 366.214C146.859 344.546 119.4 332.455 92.8443 320.762C86.5941 318.01 80.1302 315.165 73.9028 312.248C31.5954 292.437 6.98525 267.818 0.757178 239.074L-0.000473147 239.238C6.2817 268.231 31.0354 293.031 73.574 312.951C79.809 315.871 86.2766 318.72 92.5315 321.473C119.012 333.132 146.393 345.189 165.702 366.732C190.643 394.556 197.907 432.969 204.933 470.119C206.021 475.868 207.146 481.813 208.312 487.582C219.789 544.287 242.141 579.973 274.751 593.644C292.83 601.225 312.887 601.404 332.283 601.578C346.1 601.702 360.387 601.829 373.959 604.604C411.544 612.285 440.867 639.039 469.225 664.912C485.453 679.717 502.232 695.027 520.564 706.888C551.46 726.876 588.007 737.404 624.656 737.404L624.654 737.404Z" fill="url(#paint31_linear_4302_12235)"/>
</g>
<defs>
<linearGradient id="paint0_linear_4302_12235" x1="573.94" y1="538.427" x2="41.3472" y2="-390.584" gradientUnits="userSpaceOnUse">
<stop stop-color="#C8CACC"/>
<stop offset="0.141" stop-color="#D5D6D7"/>
<stop offset="0.382" stop-color="#E4E6E6"/>
<stop offset="0.571" stop-color="#EAEBEB"/>
<stop offset="0.748" stop-color="#EEEFEF"/>
<stop offset="0.928" stop-color="#FAFBFB"/>
<stop offset="0.976" stop-color="white"/>
</linearGradient>
<linearGradient id="paint1_linear_4302_12235" x1="572.191" y1="545.076" x2="44.8377" y2="-389.115" gradientUnits="userSpaceOnUse">
<stop stop-color="#C8CACC"/>
<stop offset="0.141" stop-color="#D5D6D7"/>
<stop offset="0.382" stop-color="#E4E6E6"/>
<stop offset="0.571" stop-color="#EAEBEB"/>
<stop offset="0.748" stop-color="#EEEFEF"/>
<stop offset="0.928" stop-color="#FAFBFB"/>
<stop offset="0.976" stop-color="white"/>
</linearGradient>
<linearGradient id="paint2_linear_4302_12235" x1="570.43" y1="551.729" x2="48.3262" y2="-387.468" gradientUnits="userSpaceOnUse">
<stop stop-color="#C8CACC"/>
<stop offset="0.141" stop-color="#D5D6D7"/>
<stop offset="0.382" stop-color="#E4E6E6"/>
<stop offset="0.571" stop-color="#EAEBEB"/>
<stop offset="0.748" stop-color="#EEEFEF"/>
<stop offset="0.928" stop-color="#FAFBFB"/>
<stop offset="0.976" stop-color="white"/>
</linearGradient>
<linearGradient id="paint3_linear_4302_12235" x1="568.661" y1="558.381" x2="51.8018" y2="-385.606" gradientUnits="userSpaceOnUse">
<stop stop-color="#C8CACC"/>
<stop offset="0.141" stop-color="#D5D6D7"/>
<stop offset="0.382" stop-color="#E4E6E6"/>
<stop offset="0.571" stop-color="#EAEBEB"/>
<stop offset="0.748" stop-color="#EEEFEF"/>
<stop offset="0.928" stop-color="#FAFBFB"/>
<stop offset="0.976" stop-color="white"/>
</linearGradient>
<linearGradient id="paint4_linear_4302_12235" x1="566.863" y1="565.037" x2="55.2766" y2="-383.612" gradientUnits="userSpaceOnUse">
<stop stop-color="#C8CACC"/>
<stop offset="0.141" stop-color="#D5D6D7"/>
<stop offset="0.382" stop-color="#E4E6E6"/>
<stop offset="0.571" stop-color="#EAEBEB"/>
<stop offset="0.748" stop-color="#EEEFEF"/>
<stop offset="0.928" stop-color="#FAFBFB"/>
<stop offset="0.976" stop-color="white"/>
</linearGradient>
<linearGradient id="paint5_linear_4302_12235" x1="565.062" y1="571.695" x2="58.7296" y2="-381.422" gradientUnits="userSpaceOnUse">
<stop stop-color="#C8CACC"/>
<stop offset="0.141" stop-color="#D5D6D7"/>
<stop offset="0.382" stop-color="#E4E6E6"/>
<stop offset="0.571" stop-color="#EAEBEB"/>
<stop offset="0.748" stop-color="#EEEFEF"/>
<stop offset="0.928" stop-color="#FAFBFB"/>
<stop offset="0.976" stop-color="white"/>
</linearGradient>
<linearGradient id="paint6_linear_4302_12235" x1="563.235" y1="578.356" x2="62.1612" y2="-379.079" gradientUnits="userSpaceOnUse">
<stop stop-color="#C8CACC"/>
<stop offset="0.141" stop-color="#D5D6D7"/>
<stop offset="0.382" stop-color="#E4E6E6"/>
<stop offset="0.571" stop-color="#EAEBEB"/>
<stop offset="0.748" stop-color="#EEEFEF"/>
<stop offset="0.928" stop-color="#FAFBFB"/>
<stop offset="0.976" stop-color="white"/>
</linearGradient>
<linearGradient id="paint7_linear_4302_12235" x1="561.417" y1="585.022" x2="65.5589" y2="-376.522" gradientUnits="userSpaceOnUse">
<stop stop-color="#C8CACC"/>
<stop offset="0.141" stop-color="#D5D6D7"/>
<stop offset="0.382" stop-color="#E4E6E6"/>
<stop offset="0.571" stop-color="#EAEBEB"/>
<stop offset="0.748" stop-color="#EEEFEF"/>
<stop offset="0.928" stop-color="#FAFBFB"/>
<stop offset="0.976" stop-color="white"/>
</linearGradient>
<linearGradient id="paint8_linear_4302_12235" x1="559.574" y1="591.69" x2="68.9276" y2="-373.82" gradientUnits="userSpaceOnUse">
<stop stop-color="#C8CACC"/>
<stop offset="0.141" stop-color="#D5D6D7"/>
<stop offset="0.382" stop-color="#E4E6E6"/>
<stop offset="0.571" stop-color="#EAEBEB"/>
<stop offset="0.748" stop-color="#EEEFEF"/>
<stop offset="0.928" stop-color="#FAFBFB"/>
<stop offset="0.976" stop-color="white"/>
</linearGradient>
<linearGradient id="paint9_linear_4302_12235" x1="557.715" y1="598.366" x2="72.2641" y2="-370.964" gradientUnits="userSpaceOnUse">
<stop stop-color="#C8CACC"/>
<stop offset="0.141" stop-color="#D5D6D7"/>
<stop offset="0.382" stop-color="#E4E6E6"/>
<stop offset="0.571" stop-color="#EAEBEB"/>
<stop offset="0.748" stop-color="#EEEFEF"/>
<stop offset="0.928" stop-color="#FAFBFB"/>
<stop offset="0.976" stop-color="white"/>
</linearGradient>
<linearGradient id="paint10_linear_4302_12235" x1="555.855" y1="605.044" x2="75.5528" y2="-367.918" gradientUnits="userSpaceOnUse">
<stop stop-color="#C8CACC"/>
<stop offset="0.141" stop-color="#D5D6D7"/>
<stop offset="0.382" stop-color="#E4E6E6"/>
<stop offset="0.571" stop-color="#EAEBEB"/>
<stop offset="0.748" stop-color="#EEEFEF"/>
<stop offset="0.928" stop-color="#FAFBFB"/>
<stop offset="0.976" stop-color="white"/>
</linearGradient>
<linearGradient id="paint11_linear_4302_12235" x1="553.967" y1="611.73" x2="78.7941" y2="-364.734" gradientUnits="userSpaceOnUse">
<stop stop-color="#C8CACC"/>
<stop offset="0.141" stop-color="#D5D6D7"/>
<stop offset="0.382" stop-color="#E4E6E6"/>
<stop offset="0.571" stop-color="#EAEBEB"/>
<stop offset="0.748" stop-color="#EEEFEF"/>
<stop offset="0.928" stop-color="#FAFBFB"/>
<stop offset="0.976" stop-color="white"/>
</linearGradient>
<linearGradient id="paint12_linear_4302_12235" x1="552.07" y1="618.421" x2="81.9796" y2="-361.378" gradientUnits="userSpaceOnUse">
<stop stop-color="#C8CACC"/>
<stop offset="0.141" stop-color="#D5D6D7"/>
<stop offset="0.382" stop-color="#E4E6E6"/>
<stop offset="0.571" stop-color="#EAEBEB"/>
<stop offset="0.748" stop-color="#EEEFEF"/>
<stop offset="0.928" stop-color="#FAFBFB"/>
<stop offset="0.976" stop-color="white"/>
</linearGradient>
<linearGradient id="paint13_linear_4302_12235" x1="550.158" y1="625.116" x2="85.1112" y2="-357.863" gradientUnits="userSpaceOnUse">
<stop stop-color="#C8CACC"/>
<stop offset="0.141" stop-color="#D5D6D7"/>
<stop offset="0.382" stop-color="#E4E6E6"/>
<stop offset="0.571" stop-color="#EAEBEB"/>
<stop offset="0.748" stop-color="#EEEFEF"/>
<stop offset="0.928" stop-color="#FAFBFB"/>
<stop offset="0.976" stop-color="white"/>
</linearGradient>
<linearGradient id="paint14_linear_4302_12235" x1="548.227" y1="631.802" x2="88.2028" y2="-354.201" gradientUnits="userSpaceOnUse">
<stop stop-color="#C8CACC"/>
<stop offset="0.141" stop-color="#D5D6D7"/>
<stop offset="0.382" stop-color="#E4E6E6"/>
<stop offset="0.571" stop-color="#EAEBEB"/>
<stop offset="0.748" stop-color="#EEEFEF"/>
<stop offset="0.928" stop-color="#FAFBFB"/>
<stop offset="0.976" stop-color="white"/>
</linearGradient>
<linearGradient id="paint15_linear_4302_12235" x1="546.282" y1="638.476" x2="91.2599" y2="-350.387" gradientUnits="userSpaceOnUse">
<stop stop-color="#C8CACC"/>
<stop offset="0.141" stop-color="#D5D6D7"/>
<stop offset="0.382" stop-color="#E4E6E6"/>
<stop offset="0.571" stop-color="#EAEBEB"/>
<stop offset="0.748" stop-color="#EEEFEF"/>
<stop offset="0.928" stop-color="#FAFBFB"/>
<stop offset="0.976" stop-color="white"/>
</linearGradient>
<linearGradient id="paint16_linear_4302_12235" x1="544.33" y1="645.132" x2="94.3058" y2="-346.425" gradientUnits="userSpaceOnUse">
<stop stop-color="#C8CACC"/>
<stop offset="0.141" stop-color="#D5D6D7"/>
<stop offset="0.382" stop-color="#E4E6E6"/>
<stop offset="0.571" stop-color="#EAEBEB"/>
<stop offset="0.748" stop-color="#EEEFEF"/>
<stop offset="0.928" stop-color="#FAFBFB"/>
<stop offset="0.976" stop-color="white"/>
</linearGradient>
<linearGradient id="paint17_linear_4302_12235" x1="542.421" y1="652.249" x2="96.7281" y2="-342.501" gradientUnits="userSpaceOnUse">
<stop stop-color="#C8CACC"/>
<stop offset="0.141" stop-color="#D5D6D7"/>
<stop offset="0.382" stop-color="#E4E6E6"/>
<stop offset="0.571" stop-color="#EAEBEB"/>
<stop offset="0.748" stop-color="#EEEFEF"/>
<stop offset="0.928" stop-color="#FAFBFB"/>
<stop offset="0.976" stop-color="white"/>
</linearGradient>
<linearGradient id="paint18_linear_4302_12235" x1="540.545" y1="662.466" x2="94.748" y2="-339.373" gradientUnits="userSpaceOnUse">
<stop stop-color="#C8CACC"/>
<stop offset="0.141" stop-color="#D5D6D7"/>
<stop offset="0.382" stop-color="#E4E6E6"/>
<stop offset="0.571" stop-color="#EAEBEB"/>
<stop offset="0.748" stop-color="#EEEFEF"/>
<stop offset="0.928" stop-color="#FAFBFB"/>
<stop offset="0.976" stop-color="white"/>
</linearGradient>
<linearGradient id="paint19_linear_4302_12235" x1="538.665" y1="676.318" x2="87.5909" y2="-337.239" gradientUnits="userSpaceOnUse">
<stop stop-color="#C8CACC"/>
<stop offset="0.141" stop-color="#D5D6D7"/>
<stop offset="0.382" stop-color="#E4E6E6"/>
<stop offset="0.571" stop-color="#EAEBEB"/>
<stop offset="0.748" stop-color="#EEEFEF"/>
<stop offset="0.928" stop-color="#FAFBFB"/>
<stop offset="0.976" stop-color="white"/>
</linearGradient>
<linearGradient id="paint20_linear_4302_12235" x1="536.774" y1="690.223" x2="80.3372" y2="-335.118" gradientUnits="userSpaceOnUse">
<stop stop-color="#C8CACC"/>
<stop offset="0.141" stop-color="#D5D6D7"/>
<stop offset="0.382" stop-color="#E4E6E6"/>
<stop offset="0.571" stop-color="#EAEBEB"/>
<stop offset="0.748" stop-color="#EEEFEF"/>
<stop offset="0.928" stop-color="#FAFBFB"/>
<stop offset="0.976" stop-color="white"/>
</linearGradient>
<linearGradient id="paint21_linear_4302_12235" x1="534.881" y1="704.124" x2="73.0873" y2="-332.989" gradientUnits="userSpaceOnUse">
<stop stop-color="#C8CACC"/>
<stop offset="0.141" stop-color="#D5D6D7"/>
<stop offset="0.382" stop-color="#E4E6E6"/>
<stop offset="0.571" stop-color="#EAEBEB"/>
<stop offset="0.748" stop-color="#EEEFEF"/>
<stop offset="0.928" stop-color="#FAFBFB"/>
<stop offset="0.976" stop-color="white"/>
</linearGradient>
<linearGradient id="paint22_linear_4302_12235" x1="532.983" y1="718.075" x2="65.7589" y2="-330.871" gradientUnits="userSpaceOnUse">
<stop stop-color="#C8CACC"/>
<stop offset="0.141" stop-color="#D5D6D7"/>
<stop offset="0.382" stop-color="#E4E6E6"/>
<stop offset="0.571" stop-color="#EAEBEB"/>
<stop offset="0.748" stop-color="#EEEFEF"/>
<stop offset="0.928" stop-color="#FAFBFB"/>
<stop offset="0.976" stop-color="white"/>
</linearGradient>
<linearGradient id="paint23_linear_4302_12235" x1="531.082" y1="732.037" x2="58.4096" y2="-328.754" gradientUnits="userSpaceOnUse">
<stop stop-color="#C8CACC"/>
<stop offset="0.141" stop-color="#D5D6D7"/>
<stop offset="0.382" stop-color="#E4E6E6"/>
<stop offset="0.571" stop-color="#EAEBEB"/>
<stop offset="0.748" stop-color="#EEEFEF"/>
<stop offset="0.928" stop-color="#FAFBFB"/>
<stop offset="0.976" stop-color="white"/>
</linearGradient>
<linearGradient id="paint24_linear_4302_12235" x1="529.178" y1="746.017" x2="51.0297" y2="-326.64" gradientUnits="userSpaceOnUse">
<stop stop-color="#C8CACC"/>
<stop offset="0.141" stop-color="#D5D6D7"/>
<stop offset="0.382" stop-color="#E4E6E6"/>
<stop offset="0.571" stop-color="#EAEBEB"/>
<stop offset="0.748" stop-color="#EEEFEF"/>
<stop offset="0.928" stop-color="#FAFBFB"/>
<stop offset="0.976" stop-color="white"/>
</linearGradient>
<linearGradient id="paint25_linear_4302_12235" x1="527.273" y1="759.977" x2="43.6775" y2="-324.516" gradientUnits="userSpaceOnUse">
<stop stop-color="#C8CACC"/>
<stop offset="0.141" stop-color="#D5D6D7"/>
<stop offset="0.382" stop-color="#E4E6E6"/>
<stop offset="0.571" stop-color="#EAEBEB"/>
<stop offset="0.748" stop-color="#EEEFEF"/>
<stop offset="0.928" stop-color="#FAFBFB"/>
<stop offset="0.976" stop-color="white"/>
</linearGradient>
<linearGradient id="paint26_linear_4302_12235" x1="525.367" y1="773.992" x2="36.2417" y2="-322.411" gradientUnits="userSpaceOnUse">
<stop stop-color="#C8CACC"/>
<stop offset="0.141" stop-color="#D5D6D7"/>
<stop offset="0.382" stop-color="#E4E6E6"/>
<stop offset="0.571" stop-color="#EAEBEB"/>
<stop offset="0.748" stop-color="#EEEFEF"/>
<stop offset="0.928" stop-color="#FAFBFB"/>
<stop offset="0.976" stop-color="white"/>
</linearGradient>
<linearGradient id="paint27_linear_4302_12235" x1="523.458" y1="787.914" x2="28.9393" y2="-320.275" gradientUnits="userSpaceOnUse">
<stop stop-color="#C8CACC"/>
<stop offset="0.141" stop-color="#D5D6D7"/>
<stop offset="0.382" stop-color="#E4E6E6"/>
<stop offset="0.571" stop-color="#EAEBEB"/>
<stop offset="0.748" stop-color="#EEEFEF"/>
<stop offset="0.928" stop-color="#FAFBFB"/>
<stop offset="0.976" stop-color="white"/>
</linearGradient>
<linearGradient id="paint28_linear_4302_12235" x1="521.55" y1="801.915" x2="21.5251" y2="-318.16" gradientUnits="userSpaceOnUse">
<stop stop-color="#C8CACC"/>
<stop offset="0.141" stop-color="#D5D6D7"/>
<stop offset="0.382" stop-color="#E4E6E6"/>
<stop offset="0.571" stop-color="#EAEBEB"/>
<stop offset="0.748" stop-color="#EEEFEF"/>
<stop offset="0.928" stop-color="#FAFBFB"/>
<stop offset="0.976" stop-color="white"/>
</linearGradient>
<linearGradient id="paint29_linear_4302_12235" x1="519.641" y1="815.93" x2="14.09" y2="-316.048" gradientUnits="userSpaceOnUse">
<stop stop-color="#C8CACC"/>
<stop offset="0.141" stop-color="#D5D6D7"/>
<stop offset="0.382" stop-color="#E4E6E6"/>
<stop offset="0.571" stop-color="#EAEBEB"/>
<stop offset="0.748" stop-color="#EEEFEF"/>
<stop offset="0.928" stop-color="#FAFBFB"/>
<stop offset="0.976" stop-color="white"/>
</linearGradient>
<linearGradient id="paint30_linear_4302_12235" x1="517.73" y1="829.975" x2="6.60516" y2="-313.946" gradientUnits="userSpaceOnUse">
<stop stop-color="#C8CACC"/>
<stop offset="0.141" stop-color="#D5D6D7"/>
<stop offset="0.382" stop-color="#E4E6E6"/>
<stop offset="0.571" stop-color="#EAEBEB"/>
<stop offset="0.748" stop-color="#EEEFEF"/>
<stop offset="0.928" stop-color="#FAFBFB"/>
<stop offset="0.976" stop-color="white"/>
</linearGradient>
<linearGradient id="paint31_linear_4302_12235" x1="515.819" y1="843.965" x2="-0.798576" y2="-311.826" gradientUnits="userSpaceOnUse">
<stop stop-color="#C8CACC"/>
<stop offset="0.141" stop-color="#D5D6D7"/>
<stop offset="0.382" stop-color="#E4E6E6"/>
<stop offset="0.571" stop-color="#EAEBEB"/>
<stop offset="0.748" stop-color="#EEEFEF"/>
<stop offset="0.928" stop-color="#FAFBFB"/>
<stop offset="0.976" stop-color="white"/>
</linearGradient>
<clipPath id="clip0_4302_12235">
<rect width="780.802" height="737.404" fill="white" transform="matrix(-1 0 0 1 780.801 0)"/>
</clipPath>
</defs>
</svg>
