<svg width="24" height="24" viewBox="0 0 24 24" fill="none" xmlns="http://www.w3.org/2000/svg">
<g clip-path="url(#clip0_4601_71)">
<path d="M18.9294 5.94236L16.5152 2.71182L19.9779 2L20.6652 5.57733L18.9294 5.94236ZM16.339 6.46254L13.9248 3.24111L12.189 3.59702L14.612 6.81844L16.339 6.46254ZM12.0216 7.35687L9.60739 4.11719L7.87162 4.49135L10.2946 7.71278L12.0216 7.35687ZM5.28119 5.02978L4.41772 5.20317C4.19074 5.24953 3.97483 5.34183 3.78238 5.4748C3.58992 5.60776 3.42469 5.77876 3.29618 5.978C3.16766 6.17724 3.07838 6.40079 3.03346 6.63584C2.98854 6.8709 2.98885 7.11282 3.03439 7.34774L3.37802 9.13641L7.6954 8.2512L5.28119 5.02978ZM21 9.13641V19.1748C21 20.1878 20.2158 21 19.2378 21H5.14022C4.67285 21 4.22463 20.8077 3.89415 20.4654C3.56368 20.1231 3.37802 19.6589 3.37802 19.1748V9.13641H21ZM19.2378 10.9616H5.14022V19.1748H19.2378V10.9616Z" fill="#8097A3"/>
</g>
<defs>
<clipPath id="clip0_4601_71">
<rect width="24" height="24" fill="white"/>
</clipPath>
</defs>
</svg>
