<svg width="24" height="24" viewBox="0 0 24 24" fill="none" xmlns="http://www.w3.org/2000/svg">
<g clip-path="url(#clip0_4601_73)">
<mask id="path-1-outside-1_4601_73" maskUnits="userSpaceOnUse" x="1.70703" y="1" width="20" height="20" fill="black">
<rect fill="white" x="1.70703" y="1" width="20" height="20"/>
<path d="M11.2828 20.1122C11.4231 20.1189 11.5633 20.1222 11.7036 20.1222C11.8439 20.1222 11.9846 20.1189 12.1252 20.1122H11.2828H11.2828ZM20.578 9.54075C20.544 9.34579 20.3922 9.19116 20.1996 9.1561L18.732 8.89174L18.1851 7.57061L19.0285 6.34072C19.1424 6.17725 19.1429 5.95773 19.0278 5.79188C18.4445 4.96892 17.7327 4.25508 16.9131 3.67081C16.8331 3.61322 16.7386 3.58449 16.6435 3.58449C16.5484 3.58449 16.4529 3.61322 16.3706 3.67069L15.15 4.52549L13.836 3.98048L13.5675 2.50722C13.5329 2.31036 13.3784 2.15585 13.1825 2.12317C12.6931 2.04102 12.2003 2 11.7077 2C11.2022 2 10.6969 2.04318 10.1955 2.12959C10.0111 2.16036 9.85948 2.30725 9.81827 2.49481L9.55096 3.98953L8.23918 4.53956L7.01625 3.68905C6.93406 3.63171 6.83873 3.60307 6.74421 3.60307C6.64969 3.60307 6.55542 3.6318 6.47631 3.68917C5.65331 4.28106 4.94343 4.99825 4.36608 5.82084C4.25239 5.98299 4.25192 6.20157 4.36477 6.36419L5.21594 7.5959L4.67494 8.91797L3.2129 9.18816C3.01536 9.22297 2.86149 9.37882 2.83047 9.5734C2.66408 10.5679 2.66595 11.58 2.83579 12.5798C2.868 12.7752 3.0215 12.9312 3.21975 12.9679L4.68216 13.2316L5.22848 14.5524L4.38205 15.7872C4.27085 15.9493 4.27212 16.1671 4.38665 16.3308C4.97241 17.1564 5.68409 17.8702 6.50093 18.4516C6.53031 18.4727 6.56143 18.49 6.59389 18.5035C6.65109 18.5272 6.71184 18.539 6.7726 18.539C6.86733 18.539 6.96185 18.5101 7.04181 18.4529L8.15045 17.6761V16.8046L7.85743 17.0098L6.77484 17.7684C6.12453 17.285 5.55026 16.7088 5.0641 16.0518L5.81331 14.9587L6.03347 14.6376L5.88448 14.2773L5.33816 12.9567L5.18905 12.5962L4.80746 12.5274L3.50978 12.2935C3.38862 11.4835 3.38684 10.6671 3.50458 9.86154L4.8032 9.62153L5.18432 9.55118L5.332 9.19038L5.873 7.86843L6.02058 7.50763L5.79924 7.18725L5.04517 6.096C5.52424 5.44236 6.09674 4.86408 6.75025 4.37355L7.83533 5.12818L8.1544 5.35009L8.51244 5.19997L9.82419 4.64995L10.1818 4.50008L10.2504 4.11628L10.4844 2.80743C10.8896 2.74626 11.3002 2.71537 11.7077 2.71537C12.1041 2.71537 12.504 2.74457 12.8988 2.80254L13.137 4.1096L13.207 4.49331L13.5653 4.64199L14.8793 5.187L15.2377 5.33558L15.5558 5.11286L16.6391 4.35416C17.2915 4.83957 17.8659 5.41582 18.3502 6.07066L17.6003 7.16428L17.38 7.48551L17.5292 7.84597L18.0761 9.1671L18.2254 9.52731L18.607 9.59599L19.9045 9.8298C20.0253 10.6369 20.0271 11.4534 19.9097 12.2621L18.6114 12.5015L18.2302 12.5718L18.0825 12.9328L17.5415 14.2547L17.3939 14.6155L17.6152 14.9358L18.369 16.0265C17.8876 16.682 17.3151 17.2601 16.6637 17.7486L15.5787 16.995L15.2636 16.776V17.6452L16.3962 18.432C16.4784 18.4897 16.5739 18.5185 16.6691 18.5185C16.7633 18.5185 16.8571 18.4903 16.9368 18.4335C17.7576 17.8439 18.4682 17.1265 19.0493 16.3004C19.1602 16.1421 19.1616 15.9263 19.0528 15.7634L18.1986 14.5272L18.7395 13.2052L20.2081 12.9343C20.4002 12.8976 20.5512 12.7432 20.5843 12.5488C20.7501 11.5498 20.748 10.5381 20.578 9.54078L20.578 9.54075Z"/>
</mask>
<path d="M11.2828 20.1122C11.4231 20.1189 11.5633 20.1222 11.7036 20.1222C11.8439 20.1222 11.9846 20.1189 12.1252 20.1122H11.2828H11.2828ZM20.578 9.54075C20.544 9.34579 20.3922 9.19116 20.1996 9.1561L18.732 8.89174L18.1851 7.57061L19.0285 6.34072C19.1424 6.17725 19.1429 5.95773 19.0278 5.79188C18.4445 4.96892 17.7327 4.25508 16.9131 3.67081C16.8331 3.61322 16.7386 3.58449 16.6435 3.58449C16.5484 3.58449 16.4529 3.61322 16.3706 3.67069L15.15 4.52549L13.836 3.98048L13.5675 2.50722C13.5329 2.31036 13.3784 2.15585 13.1825 2.12317C12.6931 2.04102 12.2003 2 11.7077 2C11.2022 2 10.6969 2.04318 10.1955 2.12959C10.0111 2.16036 9.85948 2.30725 9.81827 2.49481L9.55096 3.98953L8.23918 4.53956L7.01625 3.68905C6.93406 3.63171 6.83873 3.60307 6.74421 3.60307C6.64969 3.60307 6.55542 3.6318 6.47631 3.68917C5.65331 4.28106 4.94343 4.99825 4.36608 5.82084C4.25239 5.98299 4.25192 6.20157 4.36477 6.36419L5.21594 7.5959L4.67494 8.91797L3.2129 9.18816C3.01536 9.22297 2.86149 9.37882 2.83047 9.5734C2.66408 10.5679 2.66595 11.58 2.83579 12.5798C2.868 12.7752 3.0215 12.9312 3.21975 12.9679L4.68216 13.2316L5.22848 14.5524L4.38205 15.7872C4.27085 15.9493 4.27212 16.1671 4.38665 16.3308C4.97241 17.1564 5.68409 17.8702 6.50093 18.4516C6.53031 18.4727 6.56143 18.49 6.59389 18.5035C6.65109 18.5272 6.71184 18.539 6.7726 18.539C6.86733 18.539 6.96185 18.5101 7.04181 18.4529L8.15045 17.6761V16.8046L7.85743 17.0098L6.77484 17.7684C6.12453 17.285 5.55026 16.7088 5.0641 16.0518L5.81331 14.9587L6.03347 14.6376L5.88448 14.2773L5.33816 12.9567L5.18905 12.5962L4.80746 12.5274L3.50978 12.2935C3.38862 11.4835 3.38684 10.6671 3.50458 9.86154L4.8032 9.62153L5.18432 9.55118L5.332 9.19038L5.873 7.86843L6.02058 7.50763L5.79924 7.18725L5.04517 6.096C5.52424 5.44236 6.09674 4.86408 6.75025 4.37355L7.83533 5.12818L8.1544 5.35009L8.51244 5.19997L9.82419 4.64995L10.1818 4.50008L10.2504 4.11628L10.4844 2.80743C10.8896 2.74626 11.3002 2.71537 11.7077 2.71537C12.1041 2.71537 12.504 2.74457 12.8988 2.80254L13.137 4.1096L13.207 4.49331L13.5653 4.64199L14.8793 5.187L15.2377 5.33558L15.5558 5.11286L16.6391 4.35416C17.2915 4.83957 17.8659 5.41582 18.3502 6.07066L17.6003 7.16428L17.38 7.48551L17.5292 7.84597L18.0761 9.1671L18.2254 9.52731L18.607 9.59599L19.9045 9.8298C20.0253 10.6369 20.0271 11.4534 19.9097 12.2621L18.6114 12.5015L18.2302 12.5718L18.0825 12.9328L17.5415 14.2547L17.3939 14.6155L17.6152 14.9358L18.369 16.0265C17.8876 16.682 17.3151 17.2601 16.6637 17.7486L15.5787 16.995L15.2636 16.776V17.6452L16.3962 18.432C16.4784 18.4897 16.5739 18.5185 16.6691 18.5185C16.7633 18.5185 16.8571 18.4903 16.9368 18.4335C17.7576 17.8439 18.4682 17.1265 19.0493 16.3004C19.1602 16.1421 19.1616 15.9263 19.0528 15.7634L18.1986 14.5272L18.7395 13.2052L20.2081 12.9343C20.4002 12.8976 20.5512 12.7432 20.5843 12.5488C20.7501 11.5498 20.748 10.5381 20.578 9.54078L20.578 9.54075Z" fill="#8097A3"/>
<path d="M11.2828 20.1122C11.4231 20.1189 11.5633 20.1222 11.7036 20.1222C11.8439 20.1222 11.9846 20.1189 12.1252 20.1122H11.2828H11.2828ZM20.578 9.54075C20.544 9.34579 20.3922 9.19116 20.1996 9.1561L18.732 8.89174L18.1851 7.57061L19.0285 6.34072C19.1424 6.17725 19.1429 5.95773 19.0278 5.79188C18.4445 4.96892 17.7327 4.25508 16.9131 3.67081C16.8331 3.61322 16.7386 3.58449 16.6435 3.58449C16.5484 3.58449 16.4529 3.61322 16.3706 3.67069L15.15 4.52549L13.836 3.98048L13.5675 2.50722C13.5329 2.31036 13.3784 2.15585 13.1825 2.12317C12.6931 2.04102 12.2003 2 11.7077 2C11.2022 2 10.6969 2.04318 10.1955 2.12959C10.0111 2.16036 9.85948 2.30725 9.81827 2.49481L9.55096 3.98953L8.23918 4.53956L7.01625 3.68905C6.93406 3.63171 6.83873 3.60307 6.74421 3.60307C6.64969 3.60307 6.55542 3.6318 6.47631 3.68917C5.65331 4.28106 4.94343 4.99825 4.36608 5.82084C4.25239 5.98299 4.25192 6.20157 4.36477 6.36419L5.21594 7.5959L4.67494 8.91797L3.2129 9.18816C3.01536 9.22297 2.86149 9.37882 2.83047 9.5734C2.66408 10.5679 2.66595 11.58 2.83579 12.5798C2.868 12.7752 3.0215 12.9312 3.21975 12.9679L4.68216 13.2316L5.22848 14.5524L4.38205 15.7872C4.27085 15.9493 4.27212 16.1671 4.38665 16.3308C4.97241 17.1564 5.68409 17.8702 6.50093 18.4516C6.53031 18.4727 6.56143 18.49 6.59389 18.5035C6.65109 18.5272 6.71184 18.539 6.7726 18.539C6.86733 18.539 6.96185 18.5101 7.04181 18.4529L8.15045 17.6761V16.8046L7.85743 17.0098L6.77484 17.7684C6.12453 17.285 5.55026 16.7088 5.0641 16.0518L5.81331 14.9587L6.03347 14.6376L5.88448 14.2773L5.33816 12.9567L5.18905 12.5962L4.80746 12.5274L3.50978 12.2935C3.38862 11.4835 3.38684 10.6671 3.50458 9.86154L4.8032 9.62153L5.18432 9.55118L5.332 9.19038L5.873 7.86843L6.02058 7.50763L5.79924 7.18725L5.04517 6.096C5.52424 5.44236 6.09674 4.86408 6.75025 4.37355L7.83533 5.12818L8.1544 5.35009L8.51244 5.19997L9.82419 4.64995L10.1818 4.50008L10.2504 4.11628L10.4844 2.80743C10.8896 2.74626 11.3002 2.71537 11.7077 2.71537C12.1041 2.71537 12.504 2.74457 12.8988 2.80254L13.137 4.1096L13.207 4.49331L13.5653 4.64199L14.8793 5.187L15.2377 5.33558L15.5558 5.11286L16.6391 4.35416C17.2915 4.83957 17.8659 5.41582 18.3502 6.07066L17.6003 7.16428L17.38 7.48551L17.5292 7.84597L18.0761 9.1671L18.2254 9.52731L18.607 9.59599L19.9045 9.8298C20.0253 10.6369 20.0271 11.4534 19.9097 12.2621L18.6114 12.5015L18.2302 12.5718L18.0825 12.9328L17.5415 14.2547L17.3939 14.6155L17.6152 14.9358L18.369 16.0265C17.8876 16.682 17.3151 17.2601 16.6637 17.7486L15.5787 16.995L15.2636 16.776V17.6452L16.3962 18.432C16.4784 18.4897 16.5739 18.5185 16.6691 18.5185C16.7633 18.5185 16.8571 18.4903 16.9368 18.4335C17.7576 17.8439 18.4682 17.1265 19.0493 16.3004C19.1602 16.1421 19.1616 15.9263 19.0528 15.7634L18.1986 14.5272L18.7395 13.2052L20.2081 12.9343C20.4002 12.8976 20.5512 12.7432 20.5843 12.5488C20.7501 11.5498 20.748 10.5381 20.578 9.54078L20.578 9.54075Z" stroke="#8097A3" stroke-width="0.564706" mask="url(#path-1-outside-1_4601_73)"/>
<path d="M15.4669 7.27346C15.9567 7.76564 16.3415 8.33944 16.6104 8.97846L16.6105 8.97845C16.8889 9.64029 17.03 10.3433 17.03 11.0673C17.03 11.7191 16.915 12.3565 16.6879 12.9615L16.6879 12.9615C16.4686 13.5458 16.1515 14.0833 15.7454 14.559L15.638 14.4673L15.7454 14.559C15.4427 14.9135 15.1658 15.4125 14.9724 15.9204C14.8165 16.3305 14.7185 16.7376 14.7026 17.0705L14.7025 17.0711C14.7009 17.1027 14.7001 17.1338 14.7001 17.164V17.2854C14.7001 17.6072 14.5531 17.8953 14.3235 18.0848C14.1986 18.188 14.0486 18.2625 13.8842 18.2973C13.8842 18.2973 13.8841 18.2973 13.8841 18.2973L13.8549 18.1592C13.7959 18.1717 13.7348 18.1783 13.6721 18.1783H9.73614C9.68286 18.1783 9.63061 18.1735 9.57982 18.1645L15.4669 7.27346ZM15.4669 7.27346C14.9771 6.78117 14.4063 6.39472 13.7709 6.12526L15.4669 7.27346ZM7.93416 7.28816L7.93417 7.28815C8.42268 6.7945 8.99145 6.40593 9.62461 6.13386L7.93416 7.28816ZM7.93416 7.28816C7.44576 7.78183 7.06218 8.35597 6.79451 8.99413C6.51692 9.65593 6.3769 10.3572 6.37837 11.0781L7.93416 7.28816ZM8.43736 15.9203L8.43735 15.9203C8.24534 15.4136 7.97007 14.9175 7.6695 14.5667L7.7767 14.4749L7.6695 14.5667C7.26257 14.0918 6.94445 13.5549 6.72406 12.9711M8.43736 15.9203L6.37837 11.0782C6.37958 11.7296 6.49583 12.3667 6.72406 12.9711M8.43736 15.9203C8.59279 16.33 8.69027 16.7377 8.70595 17.0721L8.43736 15.9203ZM6.72406 12.9711L6.85603 12.9213L6.72406 12.9711C6.72406 12.9711 6.72406 12.9711 6.72406 12.9711ZM14.9917 13.9095L14.9917 13.9095C14.9919 13.9092 14.9922 13.909 14.9924 13.9087C15.666 13.1192 16.0371 12.1102 16.0371 11.0674C16.0371 9.89983 15.5853 8.80342 14.7648 7.97888L14.8648 7.87929L14.7648 7.97887C13.9463 7.15642 12.8601 6.70422 11.7042 6.70422H11.6957C10.5434 6.70644 9.45805 7.16308 8.63838 7.99155C7.81877 8.82009 7.36905 9.91515 7.37134 11.0762V11.0762C7.3733 12.119 7.74661 13.1275 8.42199 13.9157L8.31478 14.0076L8.42199 13.9157C8.76391 14.3148 9.0802 14.8542 9.31561 15.4347L9.31562 15.4348C9.36861 15.5655 9.41661 15.6963 9.45922 15.8262C9.61522 16.3005 9.70114 16.7649 9.70114 17.1642V17.2855C9.70114 17.2922 9.70276 17.2978 9.70534 17.3025L9.70559 17.303C9.71198 17.3148 9.72386 17.3218 9.73621 17.3218H13.6722C13.6844 17.3218 13.6962 17.315 13.7027 17.3034C13.7027 17.3034 13.7027 17.3033 13.7027 17.3033L14.9917 13.9095ZM14.9917 13.9095C14.6492 14.3108 14.332 14.8511 14.0958 15.4306M14.9917 13.9095L14.0958 15.4306M14.0958 15.4306C14.048 15.5478 13.9977 15.6811 13.9497 15.8258L14.0958 15.4306ZM11.6939 5.7065C10.9774 5.70786 10.281 5.85161 9.62464 6.13385L11.6939 5.7065Z" fill="#8097A3" stroke="#8097A3" stroke-width="0.282353"/>
<path d="M9.64607 19.1216C9.68659 19.1131 9.72831 19.1088 9.77059 19.1088H13.6417C13.6752 19.1088 13.7157 19.1146 13.7409 19.1186C13.755 19.1209 13.7675 19.1231 13.7765 19.1248L13.7874 19.1268L13.7905 19.1274L13.7914 19.1276L13.7917 19.1277L13.7918 19.1277L13.7919 19.1277L13.7919 19.1277L13.764 19.2661L13.7919 19.1277L13.8007 19.1295L13.8006 19.1297C14.0636 19.2003 14.2566 19.4412 14.2566 19.7269C14.2566 20.0675 13.9822 20.345 13.6417 20.345H9.77059C9.43013 20.345 9.1557 20.0675 9.1557 19.7269C9.1557 19.429 9.36559 19.1796 9.64607 19.1216ZM9.64607 19.1216C9.64612 19.1215 9.64617 19.1215 9.64621 19.1215L9.6748 19.2598L9.64593 19.1216C9.64598 19.1216 9.64603 19.1216 9.64607 19.1216Z" fill="#8097A3" stroke="#8097A3" stroke-width="0.282353"/>
<path d="M13.6417 22.2064C13.9822 22.2064 14.2566 21.9287 14.2566 21.5883C14.2566 21.2477 13.9822 20.9702 13.6417 20.9702H9.77059C9.4301 20.9702 9.1557 21.2478 9.1557 21.5883C9.1557 21.9287 9.43011 22.2064 9.77059 22.2064H13.6417Z" fill="#8097A3" stroke="#8097A3" stroke-width="0.282353"/>
<path d="M14.9715 11.1503H14.9127C14.6376 11.1503 14.4163 10.926 14.4163 10.6514C14.4163 10.0297 14.1759 9.4464 13.7391 9.0075C13.3024 8.56872 12.7232 8.32856 12.1061 8.32927L12.106 8.32927L12.1053 8.32927C11.8306 8.32927 11.6093 8.10564 11.6088 7.83132C11.6083 7.55671 11.8293 7.33204 12.1043 7.33149L14.9715 11.1503ZM14.9715 11.1503L14.9755 11.1463M14.9715 11.1503L14.9755 11.1463M14.9755 11.1463C15.2207 11.1153 15.4092 10.9048 15.4092 10.6514C15.4092 9.76398 15.0654 8.92914 14.4412 8.30195L14.4412 8.30195C13.8171 7.67481 12.9867 7.3295 12.1044 7.33149L14.9755 11.1463Z" fill="#8097A3" stroke="#8097A3" stroke-width="0.282353"/>
</g>
<defs>
<clipPath id="clip0_4601_73">
<rect width="24" height="24" fill="white"/>
</clipPath>
</defs>
</svg>
