<svg width="24" height="25" viewBox="0 0 24 25" fill="none" xmlns="http://www.w3.org/2000/svg">
<g clip-path="url(#clip0_4423_219)">
<path d="M16 6.78C15.9999 7.38172 15.7619 7.959 15.338 8.386C14.362 9.37 13.415 10.396 12.402 11.344C12.2889 11.447 12.1405 11.5027 11.9876 11.4996C11.8346 11.4964 11.6887 11.4346 11.58 11.327L8.66196 8.387C8.23779 7.95972 7.99976 7.38207 7.99976 6.78C7.99976 6.17793 8.23779 5.60028 8.66196 5.173C8.87361 4.95978 9.12536 4.79056 9.40271 4.67508C9.68006 4.5596 9.97753 4.50014 10.278 4.50014C10.5784 4.50014 10.8758 4.5596 11.1532 4.67508C11.4305 4.79056 11.6823 4.95978 11.894 5.173L12 5.28L12.106 5.173C12.4237 4.85187 12.8297 4.63253 13.2725 4.54293C13.7152 4.45332 14.1746 4.49749 14.5922 4.66981C15.0098 4.84214 15.3666 5.13482 15.6173 5.51061C15.868 5.88639 16.0012 6.32827 16 6.78Z" stroke="#2677BD" stroke-width="1.5" stroke-linejoin="round"/>
<path d="M18 20.5L21.824 16.676C21.9366 16.5636 21.9999 16.4111 22 16.252V11C22 10.6022 21.842 10.2206 21.5607 9.93934C21.2794 9.65804 20.8978 9.5 20.5 9.5C20.1022 9.5 19.7206 9.65804 19.4393 9.93934C19.158 10.2206 19 10.6022 19 11V15.5" stroke="#2677BD" stroke-width="1.5" stroke-linecap="round" stroke-linejoin="round"/>
<path d="M18 16.5L18.858 15.642C18.9031 15.597 18.9388 15.5435 18.9632 15.4847C18.9876 15.4258 19.0001 15.3627 19 15.299C18.9999 15.2091 18.9747 15.121 18.9274 15.0445C18.8801 14.968 18.8124 14.9062 18.732 14.866L18.289 14.645C17.9137 14.4573 17.4889 14.3925 17.0747 14.4596C16.6604 14.5267 16.2778 14.7224 15.981 15.019L15.086 15.914C14.7109 16.289 14.5001 16.7976 14.5 17.328V20.5M6 20.5L2.176 16.676C2.06345 16.5636 2.00014 16.4111 2 16.252V11C2 10.6022 2.15804 10.2206 2.43934 9.93934C2.72064 9.65804 3.10218 9.5 3.5 9.5C3.89782 9.5 4.27936 9.65804 4.56066 9.93934C4.84196 10.2206 5 10.6022 5 11V15.5" stroke="#2677BD" stroke-width="1.5" stroke-linecap="round" stroke-linejoin="round"/>
<path d="M6 16.5L5.142 15.642C5.09697 15.597 5.06125 15.5435 5.03688 15.4846C5.01252 15.4258 4.99999 15.3627 5 15.299C5 15.116 5.104 14.949 5.268 14.866L5.711 14.645C6.08631 14.4573 6.51114 14.3925 6.92534 14.4596C7.33955 14.5267 7.72216 14.7224 8.019 15.019L8.914 15.914C9.2891 16.289 9.49989 16.7976 9.5 17.328V20.5" stroke="#2677BD" stroke-width="1.5" stroke-linecap="round" stroke-linejoin="round"/>
</g>
<defs>
<clipPath id="clip0_4423_219">
<rect width="24" height="24" fill="white" transform="translate(0 0.5)"/>
</clipPath>
</defs>
</svg>
