<svg width="24" height="25" viewBox="0 0 24 25" fill="none" xmlns="http://www.w3.org/2000/svg">
<g clip-path="url(#clip0_4603_84)">
<path d="M6.60735 8.90359C6.60735 8.74437 6.6706 8.59167 6.78319 8.47908C6.89577 8.36649 7.04847 8.30324 7.2077 8.30324H13.2112C13.3704 8.30324 13.5231 8.36649 13.6357 8.47908C13.7483 8.59167 13.8115 8.74437 13.8115 8.90359C13.8115 9.06281 13.7483 9.21552 13.6357 9.3281C13.5231 9.44069 13.3704 9.50394 13.2112 9.50394H7.2077C7.04847 9.50394 6.89577 9.44069 6.78319 9.3281C6.6706 9.21552 6.60735 9.06281 6.60735 8.90359ZM7.2077 11.9053C7.04847 11.9053 6.89577 11.9686 6.78319 12.0812C6.6706 12.1938 6.60735 12.3465 6.60735 12.5057C6.60735 12.6649 6.6706 12.8176 6.78319 12.9302C6.89577 13.0428 7.04847 13.106 7.2077 13.106H13.2112C13.3704 13.106 13.5231 13.0428 13.6357 12.9302C13.7483 12.8176 13.8115 12.6649 13.8115 12.5057C13.8115 12.3465 13.7483 12.1938 13.6357 12.0812C13.5231 11.9686 13.3704 11.9053 13.2112 11.9053H7.2077ZM6.60735 16.1078C6.60735 15.9486 6.6706 15.7959 6.78319 15.6833C6.89577 15.5707 7.04847 15.5074 7.2077 15.5074H9.6091C9.76832 15.5074 9.92102 15.5707 10.0336 15.6833C10.1462 15.7959 10.2094 15.9486 10.2094 16.1078C10.2094 16.267 10.1462 16.4197 10.0336 16.5323C9.92102 16.6449 9.76832 16.7081 9.6091 16.7081H7.2077C7.04847 16.7081 6.89577 16.6449 6.78319 16.5323C6.6706 16.4197 6.60735 16.267 6.60735 16.1078ZM5.40665 2.90009C5.40665 2.74087 5.4699 2.58817 5.58249 2.47558C5.69507 2.36299 5.84778 2.29974 6.007 2.29974C6.16622 2.29974 6.31892 2.36299 6.43151 2.47558C6.5441 2.58817 6.60735 2.74087 6.60735 2.90009V3.50044H9.6091V2.90009C9.6091 2.74087 9.67235 2.58817 9.78493 2.47558C9.89752 2.36299 10.0502 2.29974 10.2094 2.29974C10.3687 2.29974 10.5214 2.36299 10.634 2.47558C10.7465 2.58817 10.8098 2.74087 10.8098 2.90009V3.50044H13.8115V2.90009C13.8115 2.74087 13.8748 2.58817 13.9874 2.47558C14.1 2.36299 14.2527 2.29974 14.4119 2.29974C14.5711 2.29974 14.7238 2.36299 14.8364 2.47558C14.949 2.58817 15.0122 2.74087 15.0122 2.90009V3.50044H15.6126C16.0903 3.50044 16.5484 3.6902 16.8861 4.02796C17.2239 4.36572 17.4136 4.82382 17.4136 5.30149V10.9832C17.0222 11.1513 16.6548 11.3938 16.3354 11.7144L16.2129 11.8369V5.30149C16.2129 5.14227 16.1497 4.98957 16.0371 4.87698C15.9245 4.76439 15.7718 4.70114 15.6126 4.70114H4.8063C4.64708 4.70114 4.49437 4.76439 4.38179 4.87698C4.2692 4.98957 4.20595 5.14227 4.20595 5.30149V19.7099C4.20595 19.8691 4.2692 20.0218 4.38179 20.1344C4.49437 20.247 4.64708 20.3102 4.8063 20.3102H9.2729L9.07719 21.0943C9.043 21.2309 9.0213 21.3704 9.01235 21.5109H4.8063C4.32863 21.5109 3.87053 21.3212 3.53276 20.9834C3.195 20.6457 3.00525 20.1876 3.00525 19.7099V5.30149C3.00525 4.82382 3.195 4.36572 3.53276 4.02796C3.87053 3.6902 4.32863 3.50044 4.8063 3.50044H5.40665V2.90009ZM17.1855 12.5633L11.3861 18.3627C11.0481 18.7005 10.8083 19.1239 10.6921 19.5874L10.2419 21.3861C10.1975 21.565 10.2001 21.7523 10.2495 21.9299C10.2989 22.1074 10.3933 22.2692 10.5237 22.3995C10.6541 22.5298 10.816 22.6241 10.9936 22.6733C11.1712 22.7225 11.3586 22.725 11.5374 22.6804L13.3361 22.2314C13.7997 22.1154 14.2231 21.8755 14.5608 21.5374L20.3602 15.738C20.7758 15.3157 21.0076 14.7463 21.0052 14.1538C21.0028 13.5614 20.7663 12.9938 20.3473 12.575C19.9283 12.1561 19.3607 11.9198 18.7682 11.9177C18.1757 11.9155 17.6064 12.1476 17.1843 12.5633H17.1855Z" fill="#2677BD"/>
</g>
<defs>
<clipPath id="clip0_4603_84">
<rect width="24" height="24" fill="white" transform="translate(0 0.5)"/>
</clipPath>
</defs>
</svg>
