<svg width="24" height="25" viewBox="0 0 24 25" fill="none" xmlns="http://www.w3.org/2000/svg">
<g clip-path="url(#clip0_4603_94)">
<path d="M4.47073 20.9706C3.95308 20.9706 3.5101 20.7864 3.14179 20.4181C2.77285 20.0492 2.58838 19.6059 2.58838 19.0882V5.91177C2.58838 5.39412 2.77285 4.95083 3.14179 4.58189C3.5101 4.21358 3.95308 4.02942 4.47073 4.02942H19.5296C20.0472 4.02942 20.4905 4.21358 20.8594 4.58189C21.2278 4.95083 21.4119 5.39412 21.4119 5.91177V19.0882C21.4119 19.6059 21.2278 20.0492 20.8594 20.4181C20.4905 20.7864 20.0472 20.9706 19.5296 20.9706H4.47073ZM4.47073 19.0882H19.5296V5.91177H4.47073V19.0882ZM5.41191 17.2059H10.1178V15.3235H5.41191V17.2059ZM14.4001 15.3235L19.059 10.6647L17.7178 9.32354L14.4001 12.6647L13.059 11.3235L11.7413 12.6647L14.4001 15.3235ZM5.41191 13.4412H10.1178V11.5588H5.41191V13.4412ZM5.41191 9.67648H10.1178V7.79413H5.41191V9.67648Z" fill="#2677BD"/>
</g>
<defs>
<clipPath id="clip0_4603_94">
<rect width="24" height="24" fill="white" transform="translate(0 0.5)"/>
</clipPath>
</defs>
</svg>
