<svg width="24" height="24" viewBox="0 0 24 24" fill="none" xmlns="http://www.w3.org/2000/svg">
<g clip-path="url(#clip0_4435_232)">
<path d="M6.60735 8.40359C6.60735 8.24437 6.6706 8.09167 6.78319 7.97908C6.89577 7.86649 7.04847 7.80324 7.2077 7.80324H13.2112C13.3704 7.80324 13.5231 7.86649 13.6357 7.97908C13.7483 8.09167 13.8115 8.24437 13.8115 8.40359C13.8115 8.56281 13.7483 8.71552 13.6357 8.8281C13.5231 8.94069 13.3704 9.00394 13.2112 9.00394H7.2077C7.04847 9.00394 6.89577 8.94069 6.78319 8.8281C6.6706 8.71552 6.60735 8.56281 6.60735 8.40359ZM7.2077 11.4053C7.04847 11.4053 6.89577 11.4686 6.78319 11.5812C6.6706 11.6938 6.60735 11.8465 6.60735 12.0057C6.60735 12.1649 6.6706 12.3176 6.78319 12.4302C6.89577 12.5428 7.04847 12.606 7.2077 12.606H13.2112C13.3704 12.606 13.5231 12.5428 13.6357 12.4302C13.7483 12.3176 13.8115 12.1649 13.8115 12.0057C13.8115 11.8465 13.7483 11.6938 13.6357 11.5812C13.5231 11.4686 13.3704 11.4053 13.2112 11.4053H7.2077ZM6.60735 15.6078C6.60735 15.4486 6.6706 15.2959 6.78319 15.1833C6.89577 15.0707 7.04847 15.0074 7.2077 15.0074H9.6091C9.76832 15.0074 9.92102 15.0707 10.0336 15.1833C10.1462 15.2959 10.2094 15.4486 10.2094 15.6078C10.2094 15.767 10.1462 15.9197 10.0336 16.0323C9.92102 16.1449 9.76832 16.2081 9.6091 16.2081H7.2077C7.04847 16.2081 6.89577 16.1449 6.78319 16.0323C6.6706 15.9197 6.60735 15.767 6.60735 15.6078ZM5.40665 2.40009C5.40665 2.24087 5.4699 2.08817 5.58249 1.97558C5.69507 1.86299 5.84778 1.79974 6.007 1.79974C6.16622 1.79974 6.31892 1.86299 6.43151 1.97558C6.5441 2.08817 6.60735 2.24087 6.60735 2.40009V3.00044H9.6091V2.40009C9.6091 2.24087 9.67235 2.08817 9.78493 1.97558C9.89752 1.86299 10.0502 1.79974 10.2094 1.79974C10.3687 1.79974 10.5214 1.86299 10.634 1.97558C10.7465 2.08817 10.8098 2.24087 10.8098 2.40009V3.00044H13.8115V2.40009C13.8115 2.24087 13.8748 2.08817 13.9874 1.97558C14.1 1.86299 14.2527 1.79974 14.4119 1.79974C14.5711 1.79974 14.7238 1.86299 14.8364 1.97558C14.949 2.08817 15.0122 2.24087 15.0122 2.40009V3.00044H15.6126C16.0903 3.00044 16.5484 3.1902 16.8861 3.52796C17.2239 3.86572 17.4136 4.32382 17.4136 4.80149V10.4832C17.0222 10.6513 16.6548 10.8938 16.3354 11.2144L16.2129 11.3369V4.80149C16.2129 4.64227 16.1497 4.48957 16.0371 4.37698C15.9245 4.26439 15.7718 4.20114 15.6126 4.20114H4.8063C4.64708 4.20114 4.49437 4.26439 4.38179 4.37698C4.2692 4.48957 4.20595 4.64227 4.20595 4.80149V19.2099C4.20595 19.3691 4.2692 19.5218 4.38179 19.6344C4.49437 19.747 4.64708 19.8102 4.8063 19.8102H9.2729L9.07719 20.5943C9.043 20.7309 9.0213 20.8704 9.01235 21.0109H4.8063C4.32863 21.0109 3.87053 20.8212 3.53276 20.4834C3.195 20.1457 3.00525 19.6876 3.00525 19.2099V4.80149C3.00525 4.32382 3.195 3.86572 3.53276 3.52796C3.87053 3.1902 4.32863 3.00044 4.8063 3.00044H5.40665V2.40009ZM17.1855 12.0633L11.3861 17.8627C11.0481 18.2005 10.8083 18.6239 10.6921 19.0874L10.2419 20.8861C10.1975 21.065 10.2001 21.2523 10.2495 21.4299C10.2989 21.6074 10.3933 21.7692 10.5237 21.8995C10.6541 22.0298 10.816 22.1241 10.9936 22.1733C11.1712 22.2225 11.3586 22.225 11.5374 22.1804L13.3361 21.7314C13.7997 21.6154 14.2231 21.3755 14.5608 21.0374L20.3602 15.238C20.7758 14.8157 21.0076 14.2463 21.0052 13.6538C21.0028 13.0614 20.7663 12.4938 20.3473 12.075C19.9283 11.6561 19.3607 11.4198 18.7682 11.4177C18.1757 11.4155 17.6064 11.6476 17.1843 12.0633H17.1855Z" fill="#8097A3"/>
</g>
<defs>
<clipPath id="clip0_4435_232">
<rect width="24" height="24" fill="white"/>
</clipPath>
</defs>
</svg>
