<svg width="24" height="25" viewBox="0 0 24 25" fill="none" xmlns="http://www.w3.org/2000/svg">
<g clip-path="url(#clip0_4603_90)">
<path d="M17.3111 19.8111H4.02222C3.75111 19.8111 3.49111 19.7034 3.2994 19.5117C3.1077 19.32 3 19.06 3 18.7889V6.52222C3 6.25111 3.1077 5.99111 3.2994 5.7994C3.49111 5.6077 3.75111 5.5 4.02222 5.5H17.3111M17.3111 19.8111H20.3778C20.6489 19.8111 20.9089 19.7034 21.1006 19.5117C21.2923 19.32 21.4 19.06 21.4 18.7889V6.52222C21.4 6.25111 21.2923 5.99111 21.1006 5.7994C20.9089 5.6077 20.6489 5.5 20.3778 5.5H17.3111M17.3111 19.8111V18.7889M17.3111 5.5V6.52222M17.3111 9.58991V9.58889M17.3111 12.6566V12.6556M17.3111 15.7232V15.7222M7.08889 12.6556H13.2222M7.08889 15.7222H10.1556" stroke="#2677BD" stroke-width="1.53333" stroke-linecap="round" stroke-linejoin="round"/>
</g>
<defs>
<clipPath id="clip0_4603_90">
<rect width="24" height="24" fill="white" transform="translate(0 0.5)"/>
</clipPath>
</defs>
</svg>
