<svg width="24" height="25" viewBox="0 0 24 25" fill="none" xmlns="http://www.w3.org/2000/svg">
<g clip-path="url(#clip0_4603_92)">
<path d="M20 4.5C20.5046 4.49984 20.9906 4.69041 21.3605 5.0335C21.7305 5.37659 21.9572 5.84684 21.995 6.35L22 6.5V18.5C22.0002 19.0046 21.8096 19.4906 21.4665 19.8605C21.1234 20.2305 20.6532 20.4572 20.15 20.495L20 20.5H4C3.49542 20.5002 3.00943 20.3096 2.63945 19.9665C2.26947 19.6234 2.04284 19.1532 2.005 18.65L2 18.5V17.5H4V18.5H20V7.914L13.06 14.854C12.7975 15.1165 12.447 15.2723 12.0763 15.2913C11.7056 15.3103 11.341 15.1912 11.053 14.957L10.939 14.854L4 7.914V8.5H2V6.5C1.99984 5.99542 2.19041 5.50943 2.5335 5.13945C2.87659 4.76947 3.34684 4.54284 3.85 4.505L4 4.5H20ZM6 13.5C6.26522 13.5 6.51957 13.6054 6.70711 13.7929C6.89464 13.9804 7 14.2348 7 14.5C7 14.7652 6.89464 15.0196 6.70711 15.2071C6.51957 15.3946 6.26522 15.5 6 15.5H1C0.734784 15.5 0.48043 15.3946 0.292893 15.2071C0.105357 15.0196 0 14.7652 0 14.5C0 14.2348 0.105357 13.9804 0.292893 13.7929C0.48043 13.6054 0.734784 13.5 1 13.5H6ZM18.586 6.5H5.414L12 13.086L18.586 6.5ZM5 10.5C5.25488 10.5003 5.50003 10.5979 5.68537 10.7728C5.8707 10.9478 5.98223 11.187 5.99717 11.4414C6.01211 11.6958 5.92933 11.9464 5.76574 12.1418C5.60214 12.3373 5.3701 12.4629 5.117 12.493L5 12.5H2C1.74512 12.4997 1.49997 12.4021 1.31463 12.2272C1.1293 12.0522 1.01777 11.813 1.00283 11.5586C0.987891 11.3042 1.07067 11.0536 1.23426 10.8582C1.39786 10.6627 1.6299 10.5371 1.883 10.507L2 10.5H5Z" fill="#2677BD"/>
</g>
<defs>
<clipPath id="clip0_4603_92">
<rect width="24" height="24" fill="white" transform="translate(0 0.5)"/>
</clipPath>
</defs>
</svg>
