<svg width="24" height="24" viewBox="0 0 24 24" fill="none" xmlns="http://www.w3.org/2000/svg">
<g clip-path="url(#clip0_4435_235)">
<path d="M4.47061 20.4706C3.95296 20.4706 3.50998 20.2864 3.14167 19.9181C2.77273 19.5492 2.58826 19.1059 2.58826 18.5882V5.41177C2.58826 4.89412 2.77273 4.45083 3.14167 4.08189C3.50998 3.71358 3.95296 3.52942 4.47061 3.52942H19.5294C20.0471 3.52942 20.4904 3.71358 20.8593 4.08189C21.2276 4.45083 21.4118 4.89412 21.4118 5.41177V18.5882C21.4118 19.1059 21.2276 19.5492 20.8593 19.9181C20.4904 20.2864 20.0471 20.4706 19.5294 20.4706H4.47061ZM4.47061 18.5882H19.5294V5.41177H4.47061V18.5882ZM5.41179 16.7059H10.1177V14.8235H5.41179V16.7059ZM14.4 14.8235L19.0588 10.1647L17.7177 8.82354L14.4 12.1647L13.0588 10.8235L11.7412 12.1647L14.4 14.8235ZM5.41179 12.9412H10.1177V11.0588H5.41179V12.9412ZM5.41179 9.17648H10.1177V7.29413H5.41179V9.17648Z" fill="#8097A3"/>
</g>
<defs>
<clipPath id="clip0_4435_235">
<rect width="24" height="24" fill="white"/>
</clipPath>
</defs>
</svg>
