<svg width="16" height="17" viewBox="0 0 16 17" fill="none" xmlns="http://www.w3.org/2000/svg">
<g clip-path="url(#clip0_4616_110)">
<path d="M2.98043 14.147C2.63533 14.147 2.34001 14.0243 2.09447 13.7787C1.84851 13.5327 1.72552 13.2372 1.72552 12.8921V4.10781C1.72552 3.76271 1.84851 3.46718 2.09447 3.22122C2.34001 2.97568 2.63533 2.85291 2.98043 2.85291H13.0196C13.3647 2.85291 13.6603 2.97568 13.9062 3.22122C14.1518 3.46718 14.2745 3.76271 14.2745 4.10781V12.8921C14.2745 13.2372 14.1518 13.5327 13.9062 13.7787C13.6603 14.0243 13.3647 14.147 13.0196 14.147H2.98043ZM2.98043 12.8921H13.0196V4.10781H2.98043V12.8921ZM3.60788 11.6372H6.74513V10.3823H3.60788V11.6372ZM9.60003 10.3823L12.7059 7.27643L11.8118 6.38232L9.60003 8.60977L8.70592 7.71565L7.82749 8.60977L9.60003 10.3823ZM3.60788 9.12742H6.74513V7.87251H3.60788V9.12742ZM3.60788 6.61761H6.74513V5.36271H3.60788V6.61761Z" fill="#8097A3"/>
</g>
<defs>
<clipPath id="clip0_4616_110">
<rect width="16" height="16" fill="white" transform="translate(0 0.5)"/>
</clipPath>
</defs>
</svg>
