<svg width="16" height="17" viewBox="0 0 16 17" fill="none" xmlns="http://www.w3.org/2000/svg">
<g clip-path="url(#clip0_4616_107)">
<path d="M4.40488 6.10239C4.40488 5.99625 4.44705 5.89444 4.5221 5.81939C4.59716 5.74433 4.69896 5.70216 4.80511 5.70216H8.80744C8.91359 5.70216 9.01539 5.74433 9.09045 5.81939C9.16551 5.89444 9.20768 5.99625 9.20768 6.10239C9.20768 6.20854 9.16551 6.31034 9.09045 6.3854C9.01539 6.46046 8.91359 6.50263 8.80744 6.50263H4.80511C4.69896 6.50263 4.59716 6.46046 4.5221 6.3854C4.44705 6.31034 4.40488 6.20854 4.40488 6.10239ZM4.80511 8.10356C4.69896 8.10356 4.59716 8.14573 4.5221 8.22079C4.44705 8.29584 4.40488 8.39764 4.40488 8.50379C4.40488 8.60994 4.44705 8.71174 4.5221 8.7868C4.59716 8.86186 4.69896 8.90403 4.80511 8.90403H8.80744C8.91359 8.90403 9.01539 8.86186 9.09045 8.7868C9.16551 8.71174 9.20768 8.60994 9.20768 8.50379C9.20768 8.39764 9.16551 8.29584 9.09045 8.22079C9.01539 8.14573 8.91359 8.10356 8.80744 8.10356H4.80511ZM4.40488 10.9052C4.40488 10.799 4.44705 10.6972 4.5221 10.6222C4.59716 10.5471 4.69896 10.505 4.80511 10.505H6.40604C6.51219 10.505 6.61399 10.5471 6.68905 10.6222C6.76411 10.6972 6.80628 10.799 6.80628 10.9052C6.80628 11.0113 6.76411 11.1131 6.68905 11.1882C6.61399 11.2633 6.51219 11.3054 6.40604 11.3054H4.80511C4.69896 11.3054 4.59716 11.2633 4.5221 11.1882C4.44705 11.1131 4.40488 11.0113 4.40488 10.9052ZM3.60441 2.10006C3.60441 1.99391 3.64658 1.89211 3.72164 1.81705C3.7967 1.742 3.8985 1.69983 4.00464 1.69983C4.11079 1.69983 4.21259 1.742 4.28765 1.81705C4.36271 1.89211 4.40488 1.99391 4.40488 2.10006V2.5003H6.40604V2.10006C6.40604 1.99391 6.44821 1.89211 6.52327 1.81705C6.59833 1.742 6.70013 1.69983 6.80628 1.69983C6.91243 1.69983 7.01423 1.742 7.08928 1.81705C7.16434 1.89211 7.20651 1.99391 7.20651 2.10006V2.5003H9.20768V2.10006C9.20768 1.99391 9.24984 1.89211 9.3249 1.81705C9.39996 1.742 9.50176 1.69983 9.60791 1.69983C9.71406 1.69983 9.81586 1.742 9.89092 1.81705C9.96598 1.89211 10.0081 1.99391 10.0081 2.10006V2.5003H10.4084C10.7268 2.5003 11.0322 2.6268 11.2574 2.85197C11.4826 3.07715 11.6091 3.38255 11.6091 3.701V7.4888C11.3481 7.60087 11.1032 7.76256 10.8903 7.97629L10.8086 8.05793V3.701C10.8086 3.59485 10.7664 3.49305 10.6914 3.41799C10.6163 3.34293 10.5145 3.30076 10.4084 3.30076H3.20418C3.09803 3.30076 2.99623 3.34293 2.92117 3.41799C2.84611 3.49305 2.80395 3.59485 2.80395 3.701V13.3066C2.80395 13.4127 2.84611 13.5145 2.92117 13.5896C2.99623 13.6647 3.09803 13.7068 3.20418 13.7068H6.18191L6.05144 14.2295C6.02864 14.3206 6.01418 14.4136 6.00821 14.5073H3.20418C2.88573 14.5073 2.58033 14.3808 2.35516 14.1556C2.12998 13.9304 2.00348 13.625 2.00348 13.3066V3.701C2.00348 3.38255 2.12998 3.07715 2.35516 2.85197C2.58033 2.6268 2.88573 2.5003 3.20418 2.5003H3.60441V2.10006ZM11.457 8.54222L7.59073 12.4085C7.3654 12.6337 7.20548 12.9159 7.12807 13.2249L6.82789 14.424C6.79829 14.5433 6.80003 14.6682 6.83296 14.7866C6.86589 14.905 6.92887 15.0128 7.0158 15.0997C7.10273 15.1865 7.21064 15.2494 7.32906 15.2822C7.44747 15.315 7.57236 15.3167 7.69159 15.2869L8.89069 14.9876C9.19978 14.9103 9.48202 14.7503 9.70717 14.5249L13.5734 10.6586C13.8505 10.3771 14.0051 9.99754 14.0035 9.60255C14.0019 9.20757 13.8442 8.82923 13.5649 8.54998C13.2855 8.27074 12.9071 8.11322 12.5121 8.11177C12.1171 8.11031 11.7376 8.26504 11.4562 8.54222H11.457Z" fill="#8097A3"/>
</g>
<defs>
<clipPath id="clip0_4616_107">
<rect width="16" height="16" fill="white" transform="translate(0 0.5)"/>
</clipPath>
</defs>
</svg>
