<svg width="16" height="17" viewBox="0 0 16 17" fill="none" xmlns="http://www.w3.org/2000/svg">
<g clip-path="url(#clip0_4616_112)">
<path d="M13.9259 4.94446V12.0556H2.07404V4.94446H13.9259ZM13.9259 3.75928H2.07404C1.75971 3.75928 1.45825 3.88414 1.23599 4.10641C1.01372 4.32868 0.888855 4.63013 0.888855 4.94446L0.888855 12.0556C0.888855 12.3699 1.01372 12.6714 1.23599 12.8936C1.45825 13.1159 1.75971 13.2408 2.07404 13.2408H13.9259C14.2402 13.2408 14.5417 13.1159 14.7639 12.8936C14.9862 12.6714 15.1111 12.3699 15.1111 12.0556V4.94446C15.1111 4.63013 14.9862 4.32868 14.7639 4.10641C14.5417 3.88414 14.2402 3.75928 13.9259 3.75928Z" fill="#8097A3"/>
<path d="M5.22204 6.72232H4.25967L2.96307 10.2779H3.91537L4.17967 9.55135H5.30204L5.56633 10.2779H6.51863L5.22204 6.72232ZM4.39596 8.95876L4.74085 8.01417L5.08574 8.95935L4.39596 8.95876ZM9.62618 6.72232H7.55211V10.2779H8.441V9.09269H9.62618C9.74351 9.09486 9.86007 9.07335 9.9689 9.02945C10.0777 8.98555 10.1766 8.92015 10.2596 8.83717C10.3425 8.7542 10.4079 8.65534 10.4518 8.54651C10.4957 8.43769 10.5172 8.32113 10.5151 8.2038V7.61121C10.5172 7.49388 10.4957 7.37732 10.4518 7.26849C10.4079 7.15967 10.3425 7.06081 10.2596 6.97783C10.1766 6.89485 10.0777 6.82946 9.9689 6.78556C9.86007 6.74165 9.74351 6.72015 9.62618 6.72232ZM9.62618 8.2038H8.441V7.61121H9.62618V8.2038ZM11.5557 6.72232H12.4446V10.2779H11.5557V6.72232Z" fill="#8097A3"/>
</g>
<defs>
<clipPath id="clip0_4616_112">
<rect width="16" height="16" fill="white" transform="translate(0 0.5)"/>
</clipPath>
</defs>
</svg>
