<svg width="16" height="17" viewBox="0 0 16 17" fill="none" xmlns="http://www.w3.org/2000/svg">
<g clip-path="url(#clip0_4616_109)">
<path d="M13.3333 3.16675C13.6697 3.16664 13.9937 3.29369 14.2404 3.52241C14.487 3.75114 14.6381 4.06464 14.6633 4.40008L14.6667 4.50008V12.5001C14.6668 12.8365 14.5397 13.1605 14.311 13.4071C14.0823 13.6538 13.7688 13.8049 13.4333 13.8301L13.3333 13.8334H2.66667C2.33028 13.8335 2.00629 13.7065 1.75963 13.4778C1.51298 13.249 1.3619 12.9355 1.33667 12.6001L1.33333 12.5001V11.8334H2.66667V12.5001H13.3333V5.44275L8.70667 10.0694C8.53167 10.2444 8.29801 10.3483 8.05087 10.3609C7.80372 10.3736 7.56066 10.2942 7.36867 10.1381L7.29267 10.0694L2.66667 5.44275V5.83341H1.33333V4.50008C1.33323 4.1637 1.46027 3.8397 1.689 3.59305C1.91772 3.3464 2.23123 3.19531 2.56667 3.17008L2.66667 3.16675H13.3333ZM4 9.16675C4.17681 9.16675 4.34638 9.23699 4.4714 9.36201C4.59643 9.48703 4.66667 9.6566 4.66667 9.83342C4.66667 10.0102 4.59643 10.1798 4.4714 10.3048C4.34638 10.4298 4.17681 10.5001 4 10.5001H0.666667C0.489856 10.5001 0.320286 10.4298 0.195262 10.3048C0.0702379 10.1798 0 10.0102 0 9.83342C0 9.6566 0.0702379 9.48703 0.195262 9.36201C0.320286 9.23699 0.489856 9.16675 0.666667 9.16675H4ZM12.3907 4.50008H3.60933L8 8.89075L12.3907 4.50008ZM3.33333 7.16675C3.50325 7.16694 3.66669 7.232 3.79025 7.34865C3.9138 7.46529 3.98816 7.62472 3.99811 7.79434C4.00807 7.96397 3.95288 8.131 3.84382 8.2613C3.73476 8.39161 3.58006 8.47535 3.41133 8.49541L3.33333 8.50008H1.33333C1.16341 8.49989 0.999979 8.43483 0.876421 8.31818C0.752864 8.20154 0.67851 8.04211 0.668552 7.87249C0.658594 7.70286 0.713783 7.53583 0.822843 7.40553C0.931903 7.27522 1.0866 7.19148 1.25533 7.17141L1.33333 7.16675H3.33333Z" fill="#8097A3"/>
</g>
<defs>
<clipPath id="clip0_4616_109">
<rect width="16" height="16" fill="white" transform="translate(0 0.5)"/>
</clipPath>
</defs>
</svg>
