<svg width="16" height="17" viewBox="0 0 16 17" fill="none" xmlns="http://www.w3.org/2000/svg">
<g clip-path="url(#clip0_4616_111)">
<path d="M6 11.8333H4.66667V7.16667H6V11.8333ZM8.66667 11.8333H7.33333V5.16667H8.66667V11.8333ZM11.3333 11.8333H10V9.16667H11.3333V11.8333ZM12.6667 13.1667H3.33333V3.83333H12.6667V13.2333M12.6667 2.5H3.33333C2.6 2.5 2 3.1 2 3.83333V13.1667C2 13.9 2.6 14.5 3.33333 14.5H12.6667C13.4 14.5 14 13.9 14 13.1667V3.83333C14 3.1 13.4 2.5 12.6667 2.5Z" fill="#8097A3"/>
</g>
<defs>
<clipPath id="clip0_4616_111">
<rect width="16" height="16" fill="white" transform="translate(0 0.5)"/>
</clipPath>
</defs>
</svg>
