<svg width="18" height="18" viewBox="0 0 18 18" fill="none" xmlns="http://www.w3.org/2000/svg">
<path fill-rule="evenodd" clip-rule="evenodd" d="M9.00001 0C8.22376 0 6.92663 0.298125 5.70601 0.63C4.45726 0.9675 3.19838 1.36687 2.45813 1.60875C2.14863 1.71096 1.87425 1.8984 1.66649 2.14954C1.45873 2.40068 1.32603 2.70533 1.28363 3.0285C0.613131 8.06513 2.16901 11.7979 4.05676 14.2673C4.85729 15.3236 5.81179 16.2538 6.88838 17.0269C7.32263 17.334 7.72538 17.5691 8.06738 17.73C8.38238 17.8785 8.72101 18 9.00001 18C9.27901 18 9.61651 17.8785 9.93263 17.73C10.3449 17.5296 10.7394 17.2944 11.1116 17.0269C12.1882 16.2538 13.1428 15.3236 13.9433 14.2673C15.831 11.7979 17.3869 8.06513 16.7164 3.0285C16.6741 2.70518 16.5414 2.40035 16.3336 2.14901C16.1259 1.89768 15.8515 1.71003 15.5419 1.60763C14.4673 1.25529 13.3843 0.928945 12.294 0.628875C11.0734 0.29925 9.77626 0 9.00001 0ZM9.00001 5.625C9.39852 5.62441 9.78439 5.76487 10.0893 6.02152C10.3941 6.27817 10.5984 6.63443 10.6657 7.02721C10.7331 7.42 10.6593 7.82395 10.4574 8.16753C10.2554 8.5111 9.93844 8.77213 9.56251 8.90437L9.99563 11.1431C10.0114 11.2246 10.0089 11.3085 9.98848 11.3888C9.96801 11.4692 9.93002 11.5441 9.87723 11.608C9.82444 11.672 9.75816 11.7235 9.68314 11.7588C9.60811 11.7942 9.52619 11.8125 9.44326 11.8125H8.55676C8.47391 11.8124 8.39213 11.7939 8.31724 11.7585C8.24235 11.7231 8.17621 11.6715 8.12355 11.6076C8.07088 11.5436 8.033 11.4688 8.01259 11.3886C7.99218 11.3083 7.98977 11.2245 8.00551 11.1431L8.43751 8.90437C8.06157 8.77213 7.74457 8.5111 7.54264 8.16753C7.34072 7.82395 7.26691 7.42 7.33428 7.02721C7.40165 6.63443 7.60586 6.27817 7.91074 6.02152C8.21562 5.76487 8.60149 5.62441 9.00001 5.625Z" fill="#F8F8F8"/>
</svg>
