<svg width="36" height="29" viewBox="0 0 36 29" fill="none" xmlns="http://www.w3.org/2000/svg">
<g clip-path="url(#clip0_2203_18303)">
<path fill-rule="evenodd" clip-rule="evenodd" d="M27.0413 2.59009L25.1532 0.702017C24.8036 0.352424 24.2368 0.352424 23.8872 0.702017L7.28407 17.3051C6.93448 17.6547 6.93448 18.2215 7.28407 18.5711L17.0799 28.367C17.4295 28.7166 17.9963 28.7166 18.3459 28.367L34.949 11.7639C35.2986 11.4143 35.2986 10.8475 34.949 10.4979L33.061 8.60979C31.3758 9.0933 29.5441 8.63717 28.279 7.37205C27.0139 6.10693 26.5578 4.27528 27.0413 2.59009Z" fill="#2677BD"/>
<path fill-rule="evenodd" clip-rule="evenodd" d="M8.91027 2.56859L10.8259 0.652945C11.187 0.29189 11.7724 0.29189 12.1334 0.652945L17.3945 5.91406L6.33269 16.9759L1.07158 11.7148C0.710522 11.3537 0.710522 10.7683 1.07158 10.4073L2.98723 8.49164C4.64365 8.92007 6.41425 8.45639 7.64464 7.22601C8.87502 5.99562 9.3387 4.22501 8.91027 2.56859Z" fill="#2677BD"/>
</g>
<defs>
<clipPath id="clip0_2203_18303">
<rect width="35.1642" height="29.0008" fill="white" transform="translate(0.417969)"/>
</clipPath>
</defs>
</svg>
