<svg width="118" height="35" viewBox="0 0 118 35" fill="none" xmlns="http://www.w3.org/2000/svg">
<g clip-path="url(#clip0_2246_17408)">
<g clip-path="url(#clip1_2246_17408)">
<path d="M117.249 30.9456C117.249 31.3887 117.162 31.8275 116.994 32.2368C116.825 32.6461 116.578 33.018 116.267 33.3312C115.955 33.6443 115.585 33.8926 115.178 34.0619C114.772 34.2311 114.336 34.318 113.895 34.3175H4.13757C3.24798 34.3184 2.39445 33.9637 1.76467 33.3314C1.1349 32.6991 0.780456 31.8409 0.779297 30.9456V4.05597C0.780456 3.16027 1.13476 2.30165 1.76441 1.66862C2.39405 1.0356 3.24758 0.67992 4.13757 0.679688H113.894C114.335 0.679687 114.771 0.767024 115.178 0.936709C115.585 1.10639 115.955 1.3551 116.266 1.66863C116.578 1.98216 116.825 2.35437 116.993 2.76399C117.162 3.17361 117.248 3.61263 117.248 4.05597L117.249 30.9456Z" fill="white"/>
<path d="M113.895 35.1023H4.13683C3.04096 35.102 1.98993 34.6643 1.21438 33.8851C0.438821 33.1059 0.00208515 32.0489 0 30.946L0 4.05719C0.00162119 2.95375 0.438069 1.896 1.2136 1.116C1.98913 0.33599 3.04041 -0.102584 4.13683 -0.103516L113.894 -0.103516C114.99 -0.10212 116.041 0.336604 116.816 1.11651C117.592 1.89642 118.028 2.95389 118.03 4.05719V30.946C118.032 33.2385 116.173 35.1023 113.895 35.1023V35.1023Z" fill="#A6A6A6"/>
<path d="M117.249 30.9456C117.249 31.3887 117.162 31.8275 116.994 32.2368C116.825 32.6461 116.578 33.018 116.267 33.3312C115.955 33.6443 115.585 33.8926 115.178 34.0619C114.772 34.2311 114.336 34.318 113.895 34.3175H4.13757C3.24798 34.3184 2.39445 33.9637 1.76467 33.3314C1.1349 32.6991 0.780456 31.8409 0.779297 30.9456V4.05597C0.780456 3.16027 1.13476 2.30165 1.76441 1.66862C2.39405 1.0356 3.24758 0.67992 4.13757 0.679688H113.894C114.335 0.679687 114.771 0.767024 115.178 0.936709C115.585 1.10639 115.955 1.3551 116.266 1.66863C116.578 1.98216 116.825 2.35437 116.993 2.76399C117.162 3.17361 117.248 3.61263 117.248 4.05597L117.249 30.9456Z" fill="white"/>
<path d="M26.3547 17.3134C26.3293 14.4759 28.6633 13.0954 28.77 13.0311C27.4482 11.0917 25.3995 10.8267 24.6795 10.8055C22.9588 10.6233 21.2897 11.8417 20.4132 11.8417C19.5192 11.8417 18.1694 10.8231 16.7146 10.8531C14.8426 10.8821 13.0913 11.9729 12.1308 13.6668C10.1485 17.1205 11.6269 22.196 13.5261 24.9877C14.4761 26.3558 15.5862 27.8815 17.0392 27.8278C18.4607 27.7697 18.9917 26.9166 20.7071 26.9166C22.4068 26.9166 22.9055 27.8278 24.3873 27.7935C25.9129 27.7697 26.8735 26.4201 27.7902 25.0405C28.8881 23.4743 29.329 21.9301 29.3465 21.8509C29.3115 21.8385 26.3845 20.7134 26.3547 17.3134V17.3134ZM23.5554 8.96904C24.32 8.00678 24.8431 6.69764 24.6979 5.36914C23.5913 5.41844 22.2074 6.13948 21.4105 7.08061C20.7054 7.90994 20.0755 9.26925 20.2383 10.5476C21.4813 10.6409 22.7576 9.91634 23.5554 8.96904V8.96904Z" fill="#04121F"/>
<path d="M46.9453 27.6338H44.9587L43.8705 24.1923H40.0879L39.0513 27.6338H37.1172L40.8656 15.9176H43.1803L46.9453 27.6338V27.6338ZM43.5424 22.7485L42.5583 19.6892C42.4542 19.3766 42.2583 18.6406 41.9713 17.482H41.9363C41.8209 17.9803 41.6363 18.7163 41.3835 19.6892L40.416 22.7485H43.5424ZM56.5662 23.3058C56.5662 24.7426 56.1786 25.8783 55.4027 26.712C54.7081 27.4542 53.8447 27.8248 52.8151 27.8248C51.7033 27.8248 50.9037 27.426 50.4182 26.6266V31.0594H48.5532V21.9623C48.5532 21.0599 48.5296 20.1346 48.4841 19.1856H50.1243L50.2284 20.5246H50.2634C50.8853 19.5157 51.8292 19.0113 53.0959 19.0113C54.0862 19.0113 54.9128 19.4048 55.5742 20.1927C56.2346 20.9824 56.5662 22.0195 56.5662 23.3058ZM54.6661 23.3745C54.6661 22.5522 54.4824 21.8743 54.1133 21.3399C53.71 20.7844 53.1685 20.5062 52.4897 20.5062C52.0295 20.5062 51.6114 20.6611 51.2379 20.9666C50.8635 21.2747 50.6185 21.6771 50.5039 22.1754C50.4528 22.3617 50.4237 22.5535 50.4173 22.7467V24.1562C50.4173 24.7699 50.6045 25.2884 50.9789 25.7128C51.3533 26.1353 51.8397 26.3475 52.4381 26.3475C53.1405 26.3475 53.6873 26.0737 54.0783 25.5305C54.4702 24.9856 54.6661 24.2672 54.6661 23.3745V23.3745ZM66.2211 23.3058C66.2211 24.7426 65.8336 25.8783 65.0576 26.712C64.3622 27.4542 63.4997 27.8248 62.4692 27.8248C61.3573 27.8248 60.5578 27.426 60.0723 26.6266V31.0594H58.2072V21.9623C58.2072 21.0599 58.1836 20.1346 58.1381 19.1856H59.7783L59.8824 20.5246H59.9174C60.5385 19.5157 61.4824 19.0113 62.75 19.0113C63.7393 19.0113 64.566 19.4048 65.2291 20.1927C65.8887 20.9824 66.2211 22.0195 66.2211 23.3058V23.3058ZM64.3202 23.3745C64.3202 22.5522 64.1356 21.8743 63.7665 21.3399C63.3632 20.7844 62.8235 20.5062 62.1446 20.5062C61.6845 20.5062 61.2663 20.6611 60.8911 20.9666C60.5167 21.2747 60.2726 21.6771 60.158 22.1754C60.1011 22.4078 60.0705 22.5971 60.0705 22.7467V24.1562C60.0705 24.7699 60.2586 25.2884 60.6313 25.7128C61.0057 26.1345 61.492 26.3475 62.0921 26.3475C62.7955 26.3475 63.3422 26.0737 63.7323 25.5305C64.1243 24.9856 64.3202 24.2672 64.3202 23.3745V23.3745ZM77.0159 24.3473C77.0159 25.3448 76.6695 26.1556 75.981 26.7815C75.2234 27.4647 74.1658 27.8072 72.8099 27.8072C71.5572 27.8072 70.553 27.5642 69.7954 27.0774L70.2267 25.5129C71.0446 26.0006 71.943 26.2436 72.921 26.2436C73.6244 26.2436 74.1711 26.0834 74.5612 25.7656C74.9523 25.4469 75.15 25.0208 75.15 24.489C75.15 24.0127 74.9864 23.6139 74.6653 23.2891C74.3425 22.9651 73.8089 22.6631 73.0592 22.3858C71.021 21.6207 70.001 20.5018 70.001 19.0297C70.001 18.0684 70.3614 17.2813 71.0805 16.6659C71.7996 16.0514 72.7531 15.7441 73.9393 15.7441C74.9986 15.7441 75.8813 15.9299 76.582 16.3005L76.114 17.8307C75.4544 17.4715 74.71 17.2919 73.8772 17.2919C73.2193 17.2919 72.7032 17.4547 72.3341 17.7787C72.0235 18.0684 71.866 18.4214 71.866 18.8405C71.866 19.3027 72.0454 19.6865 72.4023 19.9876C72.712 20.2649 73.2771 20.5669 74.0941 20.8909C75.0966 21.2976 75.8332 21.7713 76.3047 22.3153C76.7797 22.8594 77.0159 23.5382 77.0159 24.3473ZM83.1979 20.5942H81.1422V24.6959C81.1422 25.7392 81.5044 26.2595 82.2304 26.2595C82.5637 26.2595 82.8401 26.2313 83.0588 26.1723L83.1105 27.5977C82.7431 27.7359 82.2593 27.8054 81.6601 27.8054C80.9235 27.8054 80.3479 27.5792 79.9324 27.1267C79.5186 26.6741 79.3104 25.9161 79.3104 24.8491V20.5907H78.0857V19.1821H79.3104V17.6352L81.1422 17.0788V19.1821H83.1979V20.5942V20.5942ZM92.4549 23.3401C92.4549 24.6387 92.0857 25.7048 91.3491 26.5386C90.5785 27.3969 89.5532 27.8248 88.2752 27.8248C87.0417 27.8248 86.0611 27.4137 85.3298 26.5923C84.5985 25.7691 84.2328 24.732 84.2328 23.481C84.2328 22.1718 84.6107 21.0995 85.3639 20.2658C86.1188 19.4312 87.1353 19.0139 88.4134 19.0139C89.6451 19.0139 90.6344 19.4259 91.3832 20.2482C92.0988 21.0458 92.4549 22.0759 92.4549 23.3401ZM90.5216 23.3833C90.5216 22.6094 90.3554 21.9456 90.0221 21.3901C89.6311 20.7192 89.0712 20.3838 88.346 20.3838C87.5989 20.3838 87.026 20.7192 86.6358 21.3901C86.3017 21.9456 86.1354 22.6208 86.1354 23.4185C86.1354 24.1932 86.3017 24.8588 86.6358 25.4125C87.0391 26.0834 87.6016 26.4188 88.3303 26.4188C89.0432 26.4188 89.6022 26.0764 90.0063 25.3958C90.3493 24.8271 90.5216 24.1589 90.5216 23.3833ZM98.5197 20.8363C98.3257 20.8011 98.129 20.7837 97.9318 20.7844C97.2758 20.7844 96.7684 21.0326 96.4115 21.5327C96.1018 21.9729 95.9461 22.5293 95.9461 23.201V27.6338H94.0811V21.8461C94.0827 20.9593 94.0646 20.0725 94.0268 19.1865H95.6513L95.7195 20.8028H95.7711C95.9688 20.2473 96.2785 19.7992 96.7037 19.4638C97.0928 19.1707 97.5656 19.012 98.0517 19.0113C98.224 19.0113 98.3797 19.0236 98.5179 19.0456L98.5197 20.8363V20.8363ZM106.861 23.01C106.865 23.2953 106.843 23.5804 106.792 23.8613H101.197C101.218 24.6959 101.49 25.3351 102.009 25.7753C102.481 26.1679 103.09 26.3651 103.839 26.3651C104.668 26.3651 105.423 26.2331 106.103 25.9663L106.395 27.2684C105.601 27.617 104.663 27.7905 103.581 27.7905C102.279 27.7905 101.258 27.4049 100.514 26.6354C99.7724 25.8651 99.4006 24.8297 99.4006 23.5329C99.4006 22.2599 99.7461 21.199 100.438 20.353C101.162 19.4497 102.141 18.998 103.373 18.998C104.583 18.998 105.499 19.4497 106.121 20.353C106.613 21.0687 106.861 21.9562 106.861 23.01V23.01ZM105.082 22.5231C105.095 21.9658 104.973 21.486 104.72 21.0802C104.397 20.5572 103.9 20.2966 103.235 20.2966C102.625 20.2966 102.128 20.5511 101.75 21.0617C101.44 21.4675 101.255 21.9553 101.198 22.5214L105.082 22.5231Z" fill="#04121F"/>
<path d="M39.5481 11.7741C39.0293 11.7741 38.5806 11.7486 38.207 11.7055V6.04106C38.7295 5.95984 39.2574 5.91981 39.786 5.92133C41.9248 5.92133 42.9098 6.98043 42.9098 8.70687C42.9098 10.6983 41.7464 11.7741 39.5481 11.7741ZM39.8612 6.64765C39.5726 6.64765 39.3267 6.66525 39.1229 6.70751V11.0135C39.2331 11.0311 39.4448 11.039 39.7423 11.039C41.1437 11.039 41.9415 10.2361 41.9415 8.7324C41.9415 7.39157 41.2198 6.64765 39.8612 6.64765V6.64765ZM45.9794 11.8173C44.774 11.8173 43.9928 10.9114 43.9928 9.68146C43.9928 8.39962 44.7906 7.48578 46.0477 7.48578C47.2356 7.48578 48.0343 8.34855 48.0343 9.61367C48.0343 10.9114 47.2111 11.8173 45.9794 11.8173ZM46.0144 8.16015C45.3522 8.16015 44.928 8.78347 44.928 9.65505C44.928 10.5099 45.361 11.1332 46.0057 11.1332C46.6504 11.1332 47.0834 10.4668 47.0834 9.63744C47.0834 8.79227 46.6591 8.16015 46.0144 8.16015ZM54.9083 7.57117L53.618 11.7231H52.7774L52.2429 9.92005C52.11 9.47901 51.9993 9.0315 51.9113 8.57922H51.8938C51.8265 9.03174 51.6987 9.48513 51.5632 9.92005L50.9946 11.7231H50.1451L48.9309 7.57117H49.8731L50.3402 9.545C50.4504 10.0151 50.5432 10.4588 50.6201 10.8779H50.6376C50.705 10.5284 50.8152 10.0917 50.9771 9.5538L51.5632 7.57205H52.3102L52.871 9.51155C53.0065 9.98167 53.1168 10.443 53.2025 10.8788H53.227C53.2865 10.4518 53.3801 9.9984 53.5069 9.51155L54.0082 7.57205L54.9083 7.57117V7.57117ZM59.6584 11.7231H58.7416V9.33899C58.7416 8.60475 58.4617 8.23675 57.9097 8.23675C57.3664 8.23675 56.9929 8.70687 56.9929 9.25359V11.7231H56.0761V8.75793C56.0761 8.39081 56.0674 7.99728 56.042 7.57029H56.8486L56.8914 8.21121H56.9168C57.1635 7.7675 57.6639 7.48578 58.2246 7.48578C59.0906 7.48578 59.6592 8.15223 59.6592 9.23687L59.6584 11.7231V11.7231ZM62.1865 11.7231H61.2688V5.66602H62.1865V11.7231ZM65.529 11.8173C64.3244 11.8173 63.5424 10.9114 63.5424 9.68146C63.5424 8.39962 64.3402 7.48578 65.5964 7.48578C66.7852 7.48578 67.583 8.34855 67.583 9.61367C67.5839 10.9114 66.7598 11.8173 65.529 11.8173ZM65.5631 8.16015C64.9009 8.16015 64.4767 8.78347 64.4767 9.65505C64.4767 10.5099 64.9105 11.1332 65.5535 11.1332C66.1991 11.1332 66.6312 10.4668 66.6312 9.63744C66.6321 8.79227 66.2087 8.16015 65.5631 8.16015V8.16015ZM71.1976 11.7231L71.1311 11.245H71.1066C70.8267 11.6298 70.4181 11.8173 69.9003 11.8173C69.1611 11.8173 68.6362 11.2961 68.6362 10.5953C68.6362 9.57053 69.5189 9.04054 71.0471 9.04054V8.96394C71.0471 8.41722 70.7593 8.14342 70.1907 8.14342C69.7839 8.14342 69.427 8.24643 69.113 8.45156L68.9267 7.84497C69.3081 7.60551 69.7839 7.48578 70.3429 7.48578C71.4206 7.48578 71.9648 8.05803 71.9648 9.20341V10.7326C71.9648 11.1517 71.9831 11.4766 72.0242 11.724L71.1976 11.7231V11.7231ZM71.0716 9.65505C70.0534 9.65505 69.5425 9.90332 69.5425 10.4923C69.5425 10.9281 69.8058 11.1411 70.1715 11.1411C70.6377 11.1411 71.0716 10.7828 71.0716 10.296V9.65505V9.65505ZM76.4165 11.7231L76.3736 11.0566H76.3483C76.085 11.5602 75.6423 11.8173 75.0239 11.8173C74.0292 11.8173 73.2927 10.9369 73.2927 9.69819C73.2927 8.39962 74.0564 7.4849 75.0991 7.4849C75.6511 7.4849 76.0421 7.67242 76.2626 8.04922H76.2809V5.66602H77.1986V10.6041C77.1986 11.0056 77.2082 11.3815 77.2327 11.7231H76.4165ZM76.2809 9.28C76.2809 8.69895 75.8986 8.20329 75.3152 8.20329C74.6355 8.20329 74.2199 8.80988 74.2199 9.66385C74.2199 10.5011 74.6512 11.0742 75.2968 11.0742C75.8733 11.0742 76.2809 10.5698 76.2809 9.97199V9.28ZM83.0167 11.8173C81.8122 11.8173 81.031 10.9114 81.031 9.68146C81.031 8.39962 81.8288 7.48578 83.085 7.48578C84.2738 7.48578 85.0716 8.34855 85.0716 9.61367C85.0725 10.9114 84.2493 11.8173 83.0167 11.8173ZM83.0508 8.16015C82.3895 8.16015 81.9652 8.78347 81.9652 9.65505C81.9652 10.5099 82.3983 11.1332 83.0421 11.1332C83.6877 11.1332 84.1198 10.4668 84.1198 9.63744C84.1216 8.79227 83.6973 8.16015 83.0508 8.16015ZM90.0018 11.7231H89.0842V9.33899C89.0842 8.60475 88.8043 8.23675 88.2523 8.23675C87.709 8.23675 87.3364 8.70687 87.3364 9.25359V11.7231H86.4187V8.75793C86.4187 8.39081 86.41 7.99728 86.3846 7.57029H87.1912L87.234 8.21121H87.2594C87.5052 7.7675 88.0065 7.4849 88.5663 7.4849C89.4324 7.4849 90.0018 8.15135 90.0018 9.23598V11.7231ZM96.1699 8.26316H95.1613V10.2792C95.1613 10.7925 95.338 11.0487 95.6949 11.0487C95.8567 11.0487 95.9923 11.0311 96.1017 11.0056L96.127 11.7064C95.9495 11.775 95.7115 11.8094 95.4158 11.8094C94.6933 11.8094 94.2611 11.4079 94.2611 10.3567V8.26316H93.6593V7.57117H94.2611V6.81052L95.1613 6.53672V7.57029H96.1699V8.26316V8.26316ZM101.023 11.7231H100.107V9.3566C100.107 8.61355 99.8282 8.23763 99.2754 8.23763C98.8004 8.23763 98.3577 8.56249 98.3577 9.22014V11.7231H97.4418V5.66602H98.3577V8.16015H98.3761C98.6648 7.70763 99.0829 7.4849 99.6165 7.4849C100.49 7.4849 101.023 8.16808 101.023 9.25359V11.7231V11.7231ZM105.995 9.86898H103.244C103.262 10.6552 103.779 11.0989 104.544 11.0989C104.951 11.0989 105.325 11.0302 105.656 10.9026L105.799 11.5435C105.408 11.7143 104.949 11.7997 104.415 11.7997C103.124 11.7997 102.361 10.9792 102.361 9.70699C102.361 8.43395 103.143 7.47697 104.311 7.47697C105.366 7.47697 106.027 8.26316 106.027 9.4508C106.033 9.59096 106.022 9.73133 105.995 9.86898V9.86898ZM105.155 9.21133C105.155 8.57041 104.834 8.11789 104.248 8.11789C103.721 8.11789 103.305 8.57922 103.245 9.21133H105.155V9.21133Z" fill="#04121F"/>
</g>
</g>
<defs>
<clipPath id="clip0_2246_17408">
<rect width="118" height="35" fill="white"/>
</clipPath>
<clipPath id="clip1_2246_17408">
<rect width="118" height="35" fill="white"/>
</clipPath>
</defs>
</svg>
