<svg width="106" height="52" viewBox="0 0 106 52" fill="none" xmlns="http://www.w3.org/2000/svg">
<path d="M32.3743 17.3075C31.0315 17.3075 28.8683 17.6805 27.2272 18.7994V11.7129C27.2272 11.0415 26.8542 10.6685 26.2574 10.6685H22.6023C21.9309 10.6685 21.5579 10.9669 21.5579 11.7129V35.8072C21.5579 36.4785 21.9309 36.8515 22.5277 36.8515H26.1828C26.8542 36.8515 27.1526 36.4785 27.1526 35.8072V24.0957C27.1526 22.753 28.8683 21.8579 30.6586 21.8579C31.7775 21.8579 32.598 22.0816 33.1202 22.6038C33.5678 23.0514 33.7916 23.7227 33.7916 24.6179V35.8072C33.7916 36.4785 34.1646 36.8515 34.7613 36.8515H38.4165C39.0878 36.8515 39.3862 36.4785 39.3862 35.8072V24.6179C39.4608 19.5454 36.4024 17.3075 32.3743 17.3075Z" fill="#0082BB"/>
<path d="M11.2639 21.9322C7.01196 20.5895 6.34061 19.7689 6.34061 18.3516C6.34061 16.9343 7.68332 16.2629 9.99578 16.2629C12.159 16.2629 15.0683 16.9343 16.038 17.1581C16.784 17.3073 17.1569 16.9343 17.1569 16.3375V13.8013C17.1569 13.2791 17.0077 12.757 16.1872 12.5332C14.3969 11.9364 12.159 11.5634 9.32442 11.5634C4.99789 11.5634 0.447572 13.4283 0.447572 18.7992C0.447572 22.7527 2.83462 24.9906 8.13089 26.6317C11.9353 27.8252 13.2034 28.9442 13.2034 30.4361C13.2034 32.0772 11.7861 32.9723 8.65306 32.9723C5.37087 32.9723 2.31246 31.7042 1.11893 31.4058C0.372977 31.182 0 31.555 0 32.1518V35.061C0 35.8815 0.596763 36.1799 1.19353 36.4037C1.34272 36.4783 4.62491 37.821 8.72766 37.821H8.80225C15.7396 37.821 19.171 34.9118 19.171 30.1377C19.0964 24.916 15.665 23.3495 11.2639 21.9322Z" fill="#0082BB"/>
<path d="M95.3329 8.28129C95.1091 8.1321 94.7361 7.98291 94.3631 7.98291C93.841 7.98291 93.5426 8.35589 93.5426 8.95265V12.757C93.5426 13.2792 93.6918 13.503 93.9902 13.8013C93.9902 13.8013 94.0648 13.8759 94.2885 14.0251C98.3167 16.7852 100.704 20.9625 100.704 26.1842C100.704 31.4059 98.3167 35.6578 94.2885 38.3432C94.1394 38.4924 93.9902 38.567 93.9902 38.567C93.6918 38.7908 93.5426 39.0892 93.5426 39.6113V43.4157C93.5426 44.0125 93.841 44.3854 94.3631 44.3854C94.6615 44.3854 95.0345 44.2362 95.3329 44.0871C101.524 40.7303 106 34.2405 106 26.2588C106 18.0533 101.599 11.5635 95.3329 8.28129Z" fill="#0082BB"/>
<path d="M50.2772 17.3819C48.3377 17.3819 46.1745 17.6803 44.6826 18.2025C44.0858 18.3517 43.7128 18.7246 43.7128 19.4706V21.783C43.7128 22.3052 44.0112 22.7528 44.981 22.529C46.0999 22.3052 48.0394 21.8576 49.9042 21.8576C52.2913 21.8576 53.5594 22.9766 53.5594 24.7669V25.4382C52.3659 25.1398 51.247 24.9906 49.8297 24.9906C44.8318 24.9906 41.6988 27.3031 41.6988 31.4804C41.6988 35.061 44.3842 37.5973 49.6805 37.5973H49.7551C50.2026 37.5973 50.3518 37.5973 50.7248 37.5973C53.5594 37.5973 56.9162 36.7021 57.8114 36.4783C58.1843 36.4037 58.8557 36.1799 58.8557 35.3594V25.662C58.8557 22.529 58.3335 20.7387 56.9908 19.4706C55.7227 18.2025 53.4848 17.3819 50.2772 17.3819ZM53.5594 32.7486C53.261 32.8231 51.8437 33.1961 50.2772 33.1961C48.114 33.1961 47.0696 32.301 47.0696 30.9583C47.0696 29.6156 47.9648 28.5712 50.7248 28.5712C51.8437 28.5712 52.8881 28.795 53.5594 29.0188V32.7486Z" fill="#0082BB"/>
<path d="M88.3953 18.1282H85.0386C84.3672 18.1282 83.9942 18.5012 83.9942 19.1726V30.2873C83.9942 31.5554 83.2483 32.8235 81.2342 32.8235C79.8915 32.8235 78.6234 32.2267 78.6234 30.9586V19.1726C78.6234 18.5012 78.2504 18.1282 77.579 18.1282H74.2222C73.5509 18.1282 73.1779 18.5012 73.1779 19.1726V30.9586C73.1779 32.3013 71.8352 32.8235 70.4179 32.8235C68.4038 32.8235 67.807 31.63 67.807 30.2873V19.1726C67.807 18.5012 67.434 18.1282 66.7627 18.1282H63.4059C62.7345 18.1282 62.3616 18.5012 62.3616 19.1726V30.7348C62.3616 35.136 65.4946 37.523 70.0449 37.523C72.8795 37.523 74.819 36.4787 75.7887 35.7327C76.7585 36.4787 78.5488 37.523 81.3088 37.523C85.8591 37.523 89.2159 35.6581 89.2159 30.7348V19.1726C89.4397 18.5012 89.0667 18.1282 88.3953 18.1282Z" fill="#0082BB"/>
</svg>
