<svg width="106" height="52" viewBox="0 0 106 52" fill="none" xmlns="http://www.w3.org/2000/svg">
<path d="M55.6452 17.687C57.3768 15.9553 57.3768 13.1477 55.6452 11.416C53.9135 9.68429 51.1058 9.68429 49.3742 11.416C47.6425 13.1477 47.6425 15.9553 49.3742 17.687C51.1058 19.4187 53.9135 19.4187 55.6452 17.687Z" fill="#3DE0C8"/>
<path d="M52.5097 0C44.2929 0 38.1975 6.64233 38.1975 14.35V15.2999C38.1975 16.826 39.4346 18.0632 40.9607 18.0632C42.4868 18.0632 43.7239 16.826 43.7239 15.2999V14.35C43.7239 8.85307 48.4417 5.56436 52.5096 5.56436H66.8218V0H52.5097Z" fill="#3DE0C8"/>
<path d="M64.0586 11.1652C62.5325 11.1652 61.2954 12.4023 61.2954 13.9284V14.8783C61.2954 20.3753 56.5776 23.664 52.5097 23.664H38.1975V29.2284H52.5097C60.7265 29.2284 66.8219 22.586 66.8219 14.8783V13.9284C66.8219 12.4023 65.5847 11.1652 64.0586 11.1652Z" fill="#3DE0C8"/>
<path d="M7.11923 48.2232C6.48343 47.8092 6.04695 47.2578 5.81055 46.5676L7.25915 45.8726C7.47614 46.326 7.76694 46.6806 8.13173 46.9372C8.49614 47.1938 8.90514 47.3212 9.35911 47.3212C9.70372 47.3212 9.98241 47.2451 10.1942 47.0921C10.4064 46.9395 10.5123 46.7302 10.5123 46.464C10.5123 46.2374 10.4208 46.0573 10.239 45.9239C10.056 45.7911 9.83711 45.69 9.5811 45.6212L8.26473 45.2516C7.58473 45.0542 7.06964 44.754 6.71984 44.3496C6.36985 43.9455 6.19514 43.4675 6.19514 42.9155C6.19514 42.4227 6.32083 41.9914 6.57204 41.6218C6.82324 41.2522 7.17324 40.9639 7.62183 40.7569C8.07042 40.5499 8.58532 40.4465 9.16672 40.4465C9.92571 40.4465 10.5961 40.6314 11.1775 41.001C11.7589 41.3706 12.1733 41.8809 12.4197 42.5311L10.9411 43.2261C10.8125 42.8616 10.5834 42.5705 10.2534 42.354C9.92322 42.1371 9.55612 42.0287 9.15231 42.0287C8.82691 42.0287 8.57033 42.1023 8.38313 42.2505C8.19593 42.3983 8.10252 42.5903 8.10252 42.827C8.10252 43.0537 8.19112 43.2312 8.36814 43.3594C8.54573 43.4874 8.77233 43.5908 9.04871 43.6698L10.3347 44.0539C11.0051 44.2416 11.5177 44.537 11.8725 44.9414C12.2273 45.3456 12.4049 45.8284 12.4049 46.39C12.4049 46.8732 12.2769 47.2991 12.0203 47.6687C11.7643 48.0383 11.4091 48.3266 10.9557 48.534C10.5023 48.741 9.97011 48.8444 9.35931 48.8444C8.50171 48.8444 7.75502 48.6376 7.11923 48.2232Z" fill="#0E1C28"/>
<path d="M23.4711 48.2517C22.9662 47.8362 22.714 47.2725 22.714 46.5598C22.714 45.8873 22.9416 45.3284 23.3967 44.8829C23.8518 44.4374 24.2745 44.136 25.2243 43.9774L27.8305 43.5581V43.2909C27.8305 42.5694 27.335 42.0128 26.3464 42.0128C25.1207 42.0128 24.6812 42.9978 24.5262 43.3057L22.9764 42.5527C23.2135 41.9197 23.5935 41.3858 24.2268 41.0003C24.8603 40.6145 25.4075 40.4452 26.2186 40.4452C26.8815 40.4452 27.463 40.5665 27.9626 40.8085C28.4621 41.051 28.8553 41.39 29.1423 41.8254C29.4292 42.2607 29.5728 42.7602 29.5728 43.324V48.6967H27.9122V47.8358C27.2789 48.5287 26.2581 48.875 25.2093 48.875C24.3686 48.875 23.9754 48.6677 23.4711 48.2517ZM24.7644 47.1464C24.9721 47.3098 25.2393 47.3913 25.5659 47.3913C26.179 47.3913 26.7621 47.2169 27.0952 46.915C27.4969 46.5508 27.8303 46.0862 27.8303 45.0757C27.3231 45.1448 25.5953 45.4172 25.5953 45.4172C24.8334 45.5656 24.4526 45.9215 24.4526 46.4858C24.4526 46.7626 24.5566 46.9832 24.7644 47.1464Z" fill="#0E1C28"/>
<path d="M14.1564 48.6953V38H15.9166V41.5128H15.9912C16.4686 40.8019 17.182 40.4463 18.1317 40.4463C19.0168 40.4463 19.7337 40.7471 20.2832 41.3487C20.8327 41.9503 21.1075 42.7435 21.1075 43.7279V48.6951H19.3548V43.8845C19.3548 43.3128 19.1992 42.8642 18.8884 42.5386C18.5776 42.213 18.1715 42.0498 17.6693 42.0498C17.1523 42.0498 16.7306 42.2278 16.4048 42.5834C16.0792 42.9389 15.9166 43.3823 15.9166 43.9143V48.6951L14.1564 48.6953Z" fill="#0E1C28"/>
<path d="M31.6458 48.6948V40.6025H33.3212L33.3239 41.5944H33.406C33.8436 40.9331 34.5048 40.6025 35.3899 40.6025H36.3818V42.2806H35.539C34.8876 42.2806 34.3695 42.4586 33.9841 42.8136C33.5988 43.1695 33.4058 43.6529 33.4058 44.2645V48.6946L31.6458 48.6948Z" fill="#0E1C28"/>
<path d="M49.0458 48.6948C48.474 48.6948 48.0002 48.5059 47.6252 48.128C47.2493 47.7502 47.0619 47.2777 47.0619 46.7109V41.8183H45.8387V40.7518C46.5282 40.7518 47.1009 40.2196 47.1511 39.5319L47.2183 38.6113H48.2103V40.7518H50.2687V41.8183H48.2103V46.7109C48.2103 46.9744 48.2964 47.1932 48.4672 47.3673C48.6393 47.5412 48.8591 47.6283 49.1276 47.6283H50.2687V48.6948H49.0458Z" fill="#0E1C28"/>
<path d="M52.1817 48.6953V38H53.3228V41.744H53.3974C53.8846 40.9783 54.623 40.598 55.6125 40.6029C56.4478 40.6029 57.1539 40.8878 57.7307 41.4567C58.3075 42.0266 58.5958 42.8105 58.5958 43.81V48.6951H57.4472V43.81C57.4472 43.1388 57.2642 42.6141 56.8992 42.2363C56.5333 41.8584 56.0549 41.6695 55.4633 41.6695C54.8617 41.6695 54.3545 41.8807 53.9419 42.3033C53.5292 42.726 53.3228 43.2282 53.3228 43.81V48.6951L52.1817 48.6953Z" fill="#0E1C28"/>
<path d="M60.7994 48.6945V40.7513H61.8628L61.8734 41.8178H61.948C62.3756 41.1068 63.089 40.7513 64.0885 40.7513H64.9238V41.8178H64.0885C63.4769 41.8178 62.9672 42.0067 62.5595 42.3846C62.1519 42.7624 61.948 43.2374 61.948 43.8092V48.6943L60.7994 48.6945Z" fill="#0E1C28"/>
<path d="M72.0134 47.7625C71.3422 48.4834 70.4556 48.844 69.3543 48.844C68.253 48.844 67.367 48.4834 66.6956 47.7625C66.0245 47.0415 65.6887 46.0287 65.6887 44.723C65.6887 43.4174 66.0243 42.4049 66.6956 41.684C67.3668 40.9631 68.253 40.6025 69.3543 40.6025C70.4556 40.6025 71.3422 40.9631 72.0134 41.684C72.6846 42.4049 73.0203 43.4184 73.0203 44.723C73.0203 46.0277 72.6847 47.0415 72.0134 47.7625ZM67.5309 46.9754C67.9934 47.5105 68.6015 47.7775 69.3543 47.7775C70.1072 47.7775 70.7166 47.5105 71.1821 46.9754C71.6465 46.4415 71.8792 45.6906 71.8792 44.723C71.8792 43.7555 71.6465 43.0056 71.1821 42.4707C70.7168 41.9367 70.1081 41.6692 69.3543 41.6692C68.6005 41.6692 67.9934 41.9367 67.5309 42.4707C67.0685 43.0058 66.8373 43.7565 66.8373 44.723C66.8373 45.6896 67.0685 46.4415 67.5309 46.9754Z" fill="#0E1C28"/>
<path d="M77.9089 48.8434C77.0536 48.8434 76.3426 48.5515 75.7758 47.9674C75.2091 47.3831 74.9256 46.606 74.9256 45.6364V40.7513H76.0741V45.6364C76.0741 46.3076 76.2565 46.8323 76.6225 47.2101C76.9875 47.588 77.4662 47.7769 78.058 47.7769C78.6596 47.7769 79.1668 47.5657 79.5795 47.143C79.9921 46.7204 80.1985 46.2182 80.1985 45.6364V40.7513H81.3471V48.6945H80.299L80.2731 47.628H80.1985C79.7211 48.4385 78.9579 48.8434 77.9089 48.8434Z" fill="#0E1C28"/>
<path d="M92.795 48.6953V38H93.9361V41.744H94.0106C94.4979 40.9783 95.2363 40.598 96.2257 40.6029C97.061 40.6029 97.7672 40.8878 98.344 41.4567C98.9207 42.0266 99.209 42.8105 99.209 43.81V48.6951H98.0605V43.81C98.0605 43.1388 97.8775 42.6141 97.5125 42.2363C97.1466 41.8584 96.6682 41.6695 96.0766 41.6695C95.475 41.6695 94.9678 41.8807 94.5551 42.3033C94.1425 42.726 93.9361 43.2282 93.9361 43.81V48.6951L92.795 48.6953Z" fill="#0E1C28"/>
<path d="M44.9282 44.4217C44.9282 43.2979 44.5876 42.3548 43.9065 41.591C43.2253 40.8284 42.293 40.4465 41.1096 40.4465C39.946 40.4465 39.0189 40.8184 38.3277 41.5612C37.6366 42.305 37.291 43.3329 37.291 44.6454C37.291 45.973 37.6391 47.0047 38.3352 47.7406C39.0313 48.4765 39.976 48.8444 41.1694 48.8444C42.114 48.8444 42.8897 48.6122 43.4963 48.1473C43.8824 47.8513 44.3028 47.3493 44.5419 46.9395L42.9785 46.1884C42.5584 46.8092 41.8655 47.2409 41.1842 47.2409C40.5826 47.2409 40.0992 47.0535 39.7333 46.6776C39.3683 46.3026 39.1655 45.804 39.1257 45.1824H44.8536L44.9282 44.4217ZM39.1257 43.8101C39.2501 43.2581 39.4822 42.8271 39.8228 42.5159C40.1634 42.2057 40.5926 42.05 41.1096 42.05C41.6616 42.05 42.11 42.2141 42.4561 42.5422C42.8011 42.8703 43.0141 43.2929 43.0937 43.8101H39.1257Z" fill="#0E1C28"/>
<path d="M89.3574 40.7516L89.3535 41.7436H89.2789C88.6872 40.9829 87.8221 40.6025 86.6835 40.6025C85.6643 40.6025 84.8363 40.9406 84.1999 41.6169C83.5635 42.2931 83.2452 43.227 83.2452 44.4178C83.2452 45.6087 83.5635 46.543 84.1999 47.2222C84.8363 47.9005 85.6643 48.2401 86.6835 48.2401C87.8123 48.2351 88.6526 47.877 89.2044 47.1661H89.2789V48.5459C89.2789 49.247 89.0627 49.7775 88.6301 50.1381C88.1974 50.4986 87.6256 50.6791 86.9147 50.6791C85.7811 50.6791 85.0154 50.2465 84.6175 49.3814H84.6156L83.6308 49.9345C83.8906 50.4433 84.2541 50.8482 84.7219 51.149C85.3485 51.5517 86.0794 51.7531 86.9147 51.7531C87.9737 51.7531 88.824 51.4708 89.4654 50.9068C90.1067 50.342 90.4275 49.5553 90.4275 48.5461V40.7522L89.3574 40.7516ZM88.6151 46.4423C88.1726 46.9245 87.5793 47.1657 86.8361 47.1657C86.0929 47.1657 85.5001 46.9245 85.0575 46.4423C84.6148 45.96 84.3936 45.2852 84.3936 44.4176C84.3936 43.5501 84.6148 42.8747 85.0575 42.3924C85.5001 41.9102 86.0927 41.669 86.8361 41.669C87.5795 41.669 88.1726 41.9102 88.6151 42.3924C89.0575 42.8747 89.2789 43.5501 89.2789 44.4176C89.2789 45.2852 89.0577 45.96 88.6151 46.4423Z" fill="#0E1C28"/>
</svg>
