<svg width="106" height="52" viewBox="0 0 106 52" fill="none" xmlns="http://www.w3.org/2000/svg">
<g clip-path="url(#clip0_4108_22689)">
<path d="M23.8314 20.8046H30.0973V22.4436H25.7686V24.6657H29.7727V26.3431H25.7686V30.2943H23.8314V20.8046Z" fill="#141928"/>
<path d="M30.4087 24.7177C30.4087 24.2115 30.4087 23.8604 30.3955 23.4576H32.118V23.769C32.118 23.9902 32.118 24.2115 32.1047 24.4195H32.1445C32.4956 23.6789 33.1449 23.3012 34.0816 23.3012C34.2119 23.3016 34.342 23.3105 34.4712 23.3277L34.45 25.0304C34.2939 24.9842 34.1317 24.9623 33.969 24.9654C32.644 24.9654 32.2147 25.6796 32.2147 27.4087V30.2946H30.4087V24.7177Z" fill="#141928"/>
<path d="M34.3081 28.3706C34.3081 27.1225 35.0753 26.5898 36.9581 26.2387L38.0764 26.0307C38.6064 25.9273 38.7654 25.9273 38.7654 25.5762C38.7654 25.0038 38.3229 24.6407 37.5425 24.6407C36.7104 24.6407 36.2956 25.082 36.2426 25.7445L34.5268 25.6411C34.6314 24.2499 35.7365 23.3144 37.5743 23.3144C39.5114 23.3144 40.5118 24.1333 40.5118 25.9644V29.9686C40.5118 30.1249 40.525 30.2415 40.525 30.2932H38.9761C38.9648 30.1765 38.9604 30.0593 38.9629 29.9421V29.6771H38.9549C38.4872 30.1329 37.7982 30.4177 36.8097 30.4177C35.2833 30.4244 34.3081 29.6704 34.3081 28.3706ZM38.8065 27.6432V27.3954C38.7955 27.3031 38.8046 27.2096 38.833 27.1211C38.5071 27.2126 38.3123 27.2258 37.883 27.3172C36.713 27.5504 36.1287 27.6419 36.1287 28.3441C36.1287 28.9033 36.5262 29.2146 37.2589 29.2146C38.2341 29.216 38.8065 28.6701 38.8065 27.6432Z" fill="#141928"/>
<path d="M41.4976 24.7571C41.4976 24.406 41.4976 23.8216 41.4844 23.4573H43.2267V23.7302C43.2267 23.8985 43.2267 24.1065 43.2135 24.2761H43.2387C43.6428 23.6653 44.3967 23.2744 45.3838 23.2744C46.9314 23.2744 47.8669 24.1847 47.8669 26.0953V30.2943H46.0477V26.9977C46.0477 25.4898 45.7482 24.8008 44.773 24.8008C43.7329 24.8008 43.3155 25.4633 43.3155 26.8811V30.2996H41.4976V24.7571Z" fill="#141928"/>
<path d="M48.8808 20.8046H50.6881V24.1847C50.6881 25.0168 50.6748 25.8224 50.6748 26.3948C51.234 25.719 51.7282 25.2023 52.1443 24.6922L53.1976 23.4573H55.4197L52.6252 26.4677L55.6144 30.289H53.3142L51.3903 27.6694L50.6881 28.4234V30.2943H48.8808V20.8046Z" fill="#141928"/>
<path d="M56.0834 20.8046H57.9291V30.2943H56.0834V20.8046Z" fill="#141928"/>
<path d="M59.2276 20.8046H61.0734V22.5271H59.2276V20.8046ZM59.2276 23.4546H61.0734V30.2916H59.2276V23.4546Z" fill="#141928"/>
<path d="M62.3744 24.7571C62.3744 24.406 62.3744 23.8216 62.3611 23.4573H64.1035V23.7302C64.1035 23.8985 64.1035 24.1065 64.0902 24.2761H64.1167C64.5142 23.6653 65.2735 23.2744 66.2606 23.2744C67.8082 23.2744 68.7436 24.1847 68.7436 26.0953V30.2943H66.9244V26.9977C66.9244 25.4898 66.625 24.8008 65.6498 24.8008C64.6096 24.8008 64.1923 25.4633 64.1923 26.8811V30.2996H62.3744V24.7571Z" fill="#141928"/>
<path d="M69.43 25.5626C69.43 22.6635 71.3804 20.623 74.1749 20.623C76.2684 20.623 77.7524 21.7016 78.2704 23.4307L76.3982 23.8282C76.0206 22.8411 75.2667 22.3071 74.1232 22.3071C72.4457 22.3071 71.4454 23.7116 71.4454 25.5441C71.4454 27.468 72.4987 28.8327 74.1749 28.8327C75.2667 28.8327 76.0299 28.2351 76.3982 27.2997L78.3075 27.6601C77.7775 29.4144 76.267 30.481 74.1484 30.481C71.3049 30.477 69.43 28.475 69.43 25.5626Z" fill="#141928"/>
<path d="M78.7794 26.8759C78.7794 24.744 80.2488 23.2626 82.394 23.2626C84.5392 23.2626 85.9808 24.7453 85.9808 26.8759C85.9808 29.0065 84.5127 30.464 82.3807 30.464C80.2488 30.464 78.7794 29.0078 78.7794 26.8759ZM84.1218 26.8892C84.1218 25.641 83.511 24.744 82.3807 24.744C81.2505 24.744 80.6132 25.6278 80.6132 26.8759C80.6132 28.1757 81.2359 28.9959 82.3807 28.9959C83.5255 28.9959 84.1218 28.1757 84.1218 26.8892Z" fill="#141928"/>
<path d="M85.6559 23.4571H87.5824L88.5311 26.5046C88.7524 27.2334 88.9604 27.8575 89.1552 28.52H89.195C89.3897 27.8575 89.5461 27.2201 89.7925 26.4927L90.7677 23.4452H92.6651L90.1172 30.2822H88.1032L85.6559 23.4571Z" fill="#141928"/>
<path d="M92.2729 26.889C92.2729 24.8088 93.6761 23.2744 95.8212 23.2744C98.1877 23.2744 99.2146 24.9519 99.2146 27.3435H94.0537C94.1451 28.4035 94.8593 29.066 95.8862 29.066C96.8349 29.066 97.4205 28.5598 97.6935 28.0921L99.1748 28.6764C98.6554 29.6768 97.5239 30.4705 95.8623 30.4705C93.6774 30.4639 92.2729 29.0726 92.2729 26.889ZM97.4205 26.1218C97.3556 25.3162 96.8229 24.5875 95.808 24.5875C94.8209 24.5875 94.21 25.2381 94.0669 26.1218H97.4205Z" fill="#141928"/>
<path d="M99.709 32.7386L99.5394 31.3606C99.7342 31.3739 99.8905 31.3739 100.047 31.3739C100.826 31.3739 101.269 31.256 101.58 30.3139L98.9551 23.4504H100.931L101.685 25.7903C101.958 26.6609 102.244 27.5579 102.503 28.4549H102.555C102.868 27.3764 103.023 26.8172 103.336 25.8049L104.076 23.4517H106L103.244 30.7697C102.62 32.3822 101.736 32.7572 100.255 32.7572C100.085 32.7638 99.9051 32.7519 99.709 32.7386Z" fill="#141928"/>
<path d="M5.63406 22.4765L0.303589 24.7953C0.264079 24.8126 0.220274 24.8178 0.177824 24.81C0.135373 24.8022 0.0962236 24.7819 0.065424 24.7517C0.0346244 24.7214 0.0135872 24.6827 0.00502548 24.6404C-0.00353626 24.5981 0.000770103 24.5542 0.0173892 24.5144L1.96116 19.7444C2.12435 19.3431 2.36622 18.9786 2.67252 18.6723C2.97882 18.366 3.34335 18.1241 3.74461 17.9609L8.51461 16.0171C8.55444 16.0005 8.59833 15.9962 8.64063 16.0048C8.68293 16.0133 8.72169 16.0344 8.75192 16.0652C8.78215 16.096 8.80246 16.1351 8.81023 16.1776C8.818 16.22 8.81287 16.2638 8.79551 16.3033L6.47676 21.6338C6.31266 22.0113 6.0115 22.3124 5.63406 22.4765ZM13.4423 22.4765L18.7728 24.7953C18.8123 24.8123 18.8561 24.8172 18.8984 24.8094C18.9408 24.8015 18.9798 24.7813 19.0106 24.7512C19.0415 24.7211 19.0626 24.6825 19.0715 24.6403C19.0803 24.5982 19.0764 24.5543 19.0603 24.5144L17.1165 19.7444C16.9529 19.3433 16.7109 18.979 16.4047 18.6728C16.0984 18.3665 15.7341 18.1245 15.3331 17.9609L10.5617 16.0171C10.5219 16.0005 10.478 15.9962 10.4357 16.0048C10.3934 16.0133 10.3547 16.0344 10.3244 16.0652C10.2942 16.096 10.2739 16.1351 10.2661 16.1776C10.2584 16.22 10.2635 16.2638 10.2808 16.3033L12.6009 21.6338C12.7649 22.0109 13.0655 22.3119 13.4423 22.4765ZM12.6009 29.442L10.2808 34.7725C10.2638 34.8121 10.2589 34.8558 10.2667 34.8982C10.2746 34.9405 10.2948 34.9796 10.3249 35.0104C10.3551 35.0412 10.3936 35.0624 10.4358 35.0712C10.478 35.0801 10.5218 35.0762 10.5617 35.06L15.3317 33.1163C15.7325 32.9522 16.0966 32.7101 16.4028 32.4039C16.709 32.0977 16.9512 31.7336 17.1152 31.3328L19.059 26.5628C19.0751 26.5229 19.079 26.479 19.0701 26.4369C19.0613 26.3947 19.0401 26.3561 19.0093 26.326C18.9785 26.2959 18.9394 26.2757 18.8971 26.2678C18.8547 26.26 18.811 26.2649 18.7714 26.2819L13.4423 28.6007C13.0658 28.7651 12.7653 29.0656 12.6009 29.442ZM5.63406 28.6007L0.303589 26.2806C0.264079 26.2632 0.220274 26.2581 0.177824 26.2659C0.135373 26.2736 0.0962236 26.294 0.065424 26.3242C0.0346244 26.3544 0.0135872 26.3932 0.00502548 26.4355C-0.00353626 26.4778 0.000770103 26.5217 0.0173892 26.5615L1.96116 31.3315C2.12474 31.7325 2.36675 32.0969 2.673 32.4031C2.97925 32.7094 3.34358 32.9514 3.74461 33.1149L8.51461 35.0587C8.55456 35.0748 8.5984 35.0787 8.64056 35.0699C8.68272 35.0611 8.7213 35.0399 8.7514 35.0091C8.78151 34.9783 8.80177 34.9392 8.80963 34.8968C8.81748 34.8545 8.81257 34.8108 8.79551 34.7712L6.47676 29.4407C6.31189 29.0644 6.01087 28.7644 5.63406 28.6007Z" fill="url(#paint0_radial_4108_22689)"/>
</g>
<defs>
<radialGradient id="paint0_radial_4108_22689" cx="0" cy="0" r="1" gradientUnits="userSpaceOnUse" gradientTransform="translate(19.0497 15.9999) scale(26.9465)">
<stop stop-color="#67DFFF"/>
<stop offset="1" stop-color="#3253FF"/>
</radialGradient>
<clipPath id="clip0_4108_22689">
<rect width="106" height="52" fill="white"/>
</clipPath>
</defs>
</svg>
