<svg width="106" height="52" viewBox="0 0 106 52" fill="none" xmlns="http://www.w3.org/2000/svg">
<path d="M0 3.93506H106V48.3226H0V3.93506Z" fill="#265CA5"/>
<path d="M70.4846 32.0742H13.5654V32.5459H70.4846V32.0742Z" fill="white"/>
<path d="M77.2141 19.0195C77.2141 19.0195 78.7237 23.1089 78.189 30.6271C77.8432 34.6536 77.5918 37.3589 77.5918 37.3589L77.1514 42.3919L80.4535 41.354L80.7992 35.3142C80.7992 35.3142 82.2144 39.089 85.6736 40.2844C89.1325 41.5111 92.1832 39.6238 92.1832 39.6238L92.4346 36.1006C92.4346 36.1006 89.2272 40.2529 85.3591 36.7612C82.4343 34.0559 83.5981 30.3125 83.5981 30.3125C83.5981 30.3125 83.9123 27.6072 86.6485 26.6636C89.4158 25.7198 92.0573 27.9218 92.0573 27.9218L92.0258 24.5874C92.0258 24.5874 85.7049 21.9765 81.6482 27.1669C81.5854 27.2612 81.0194 28.4251 81.0194 28.4251C81.0194 28.4251 80.9879 24.2414 80.579 22.0708C80.4847 21.3473 80.1389 19.6172 80.1389 19.6172L77.2141 19.0195Z" fill="white"/>
<path d="M76.2708 15.2761L77.686 14.2694L77.7172 16.1254L78.7864 17.541L76.6796 17.4781L75.6733 19.2396L75.3587 17.4152L74.2268 17.5724L74.8871 16.3771L74.8243 14.2065L76.2708 15.2761Z" fill="white"/>
<path d="M81.9941 20.2461C81.1452 21.5358 81.3339 23.1401 82.403 23.8321C83.4721 24.5242 85.0129 24.0524 85.8622 22.7941C86.7112 21.5043 86.5225 19.9001 85.4533 19.208C84.3842 18.516 82.8431 18.9878 81.9941 20.2461Z" fill="white"/>
<path d="M72.4971 13.4515L73.2205 12.9167V13.8919L73.7865 14.6154L72.6858 14.5839L72.1826 15.4962L71.9939 14.5525L71.428 14.6468L71.7741 14.0177L71.711 12.8853L72.4971 13.4515Z" fill="white"/>
<path d="M76.0822 10.0856L76.7109 9.64523V10.4631L77.1829 11.0608L76.2708 11.0293L75.8304 11.8158L75.7048 11.0293L75.2017 11.0922L75.4846 10.5575L75.4531 9.61377L76.0822 10.0856Z" fill="white"/>
<path d="M15.4524 25.5935C15.6096 25.5935 15.6725 25.5935 15.8297 25.3733L16.8675 23.9578C17.182 23.5488 17.2449 23.3601 17.2449 23.2972C17.2449 23.1714 17.2449 23.077 16.8989 23.0455C16.8046 23.0455 16.7732 23.0141 16.7732 22.8882C16.7732 22.7939 16.7732 22.731 16.8675 22.731C17.1505 22.731 17.4021 22.7624 17.4964 22.7624C17.6222 22.7624 17.8738 22.731 18.314 22.731C18.4084 22.731 18.4084 22.8253 18.4084 22.8882C18.4084 22.9826 18.4084 23.0455 18.2512 23.0455C18.1883 23.0455 17.9996 23.1084 17.8423 23.2028C17.6537 23.3286 17.3392 23.8319 16.4587 24.9959C16.5216 24.9329 16.3643 25.1531 16.3643 25.1846C16.3643 25.2161 17.6222 27.1349 17.7795 27.3866C18.314 28.2359 18.4399 28.2359 18.6914 28.2359C18.8801 28.2359 18.8801 28.2674 18.8801 28.3617C18.8801 28.519 18.8801 28.5505 18.8172 28.5505C18.4713 28.5505 18.0939 28.519 17.748 28.519C17.3706 28.519 17.0247 28.5505 16.6474 28.5505C16.553 28.5505 16.5845 28.4561 16.5845 28.3932C16.5845 28.2359 16.6159 28.2359 16.8675 28.2359C16.8989 28.2359 16.9618 28.2044 16.9618 28.1101C16.9618 27.8899 16.6159 27.3866 15.8297 26.1283C15.704 25.9081 15.6096 25.9081 15.5153 25.9081V26.9147C15.5153 28.1101 15.5153 28.2044 15.9555 28.2044C16.1442 28.2044 16.1757 28.2359 16.1757 28.4246C16.1757 28.4875 16.1442 28.519 16.0813 28.519C15.7354 28.519 15.3895 28.4875 15.0121 28.4875C14.6348 28.4875 14.3203 28.519 13.9429 28.519C13.88 28.519 13.8486 28.4875 13.8486 28.4246C13.8486 28.2044 13.88 28.2044 14.0687 28.2044C14.509 28.2044 14.509 28.1101 14.509 26.9147V24.115C14.509 23.1399 14.4775 23.0455 13.9744 23.0455C13.88 23.0455 13.8171 22.9826 13.8171 22.9512C13.8171 22.731 13.8171 22.731 13.9429 22.731C14.2888 22.731 14.6348 22.7624 15.0121 22.7624C15.3895 22.7624 15.704 22.731 16.0813 22.731C16.1757 22.731 16.2071 22.7624 16.2071 22.9512C16.2071 23.0141 16.1128 23.0455 16.0499 23.0455C15.4838 23.0455 15.4524 23.1399 15.4524 24.115V25.5935Z" fill="white"/>
<path d="M20.9241 26.6005C20.8612 26.6005 20.8298 26.6005 20.8298 26.6634C20.7354 26.915 20.4838 27.6385 20.4838 27.8902C20.4838 28.0475 20.5467 28.2048 20.7983 28.2048C21.1128 28.2048 21.1442 28.2362 21.1442 28.3621C21.1442 28.4564 21.1442 28.5194 21.0499 28.5194C20.7983 28.5194 20.5782 28.4879 20.3266 28.4879C20.1065 28.4879 19.9178 28.5194 19.6977 28.5194C19.6662 28.5194 19.6348 28.4879 19.6348 28.3935C19.6348 28.2362 19.6662 28.2048 19.8549 28.2048C20.0436 28.2048 20.1379 27.8902 20.2637 27.5127C20.421 26.978 20.6096 26.4432 20.7354 25.9084C20.987 24.9018 21.6788 22.7942 21.7417 22.6684C21.7732 22.6055 21.8675 22.6055 21.899 22.6055C22.0248 22.6055 22.0562 22.6369 22.0562 22.6998C22.3392 23.675 23.3141 26.915 23.5971 27.7015C23.7543 28.1419 23.8172 28.2048 24.1317 28.2048C24.226 28.2048 24.226 28.2677 24.226 28.3621C24.226 28.425 24.226 28.5194 24.1631 28.5194C23.8172 28.5194 23.4713 28.4879 23.1254 28.4879C22.4335 28.4879 22.182 28.5194 22.1505 28.5194C22.0877 28.5194 22.0877 28.4564 22.0877 28.3621C22.0877 28.2048 22.0877 28.1733 22.3392 28.1733C22.4964 28.1733 22.6222 28.1733 22.6222 27.9531C22.6222 27.7958 22.2763 26.7578 22.2134 26.5376H20.9241V26.6005ZM22.1505 26.2545L21.5531 24.1469C21.4587 24.4614 20.9555 25.9713 20.9555 26.1916C20.9555 26.223 20.987 26.2545 21.0814 26.2545H22.1505Z" fill="white"/>
<path d="M26.4273 23.8948C26.3959 24.5869 26.3959 26.4429 26.3959 26.6316C26.3959 28.173 26.3959 28.2044 26.9934 28.2359C27.1192 28.2359 27.1506 28.2674 27.1506 28.4246C27.1506 28.519 27.1506 28.5505 27.0563 28.5505C26.8047 28.5505 26.5531 28.519 26.3016 28.519C26.05 28.519 25.7984 28.5505 25.5468 28.5505C25.4525 28.5505 25.4525 28.4875 25.4525 28.3932C25.4525 28.2674 25.4525 28.2359 25.6097 28.2359C26.05 28.2044 26.0814 28.2044 26.1129 27.5439C26.1129 27.2293 26.1758 24.87 26.1758 23.8634C26.1758 23.6746 26.1758 23.5488 26.0185 23.3915C25.7669 23.077 25.7355 23.077 25.5468 23.0455C25.3582 23.0141 25.3582 23.0141 25.3582 22.8882C25.3582 22.7939 25.3582 22.731 25.4525 22.731C25.6097 22.731 25.9871 22.7624 26.1129 22.7624C26.2701 22.7624 26.7104 22.731 26.8991 22.731C26.9619 22.731 26.9934 22.7939 27.0248 22.8568C27.9368 24.178 28.8173 25.4992 29.7607 26.7574C29.7607 25.8452 29.8236 24.9959 29.8236 24.3667C29.8236 23.1714 29.6035 23.077 29.1947 23.077C29.0689 23.077 29.0689 23.0141 29.0689 22.9197C29.0689 22.8253 29.0689 22.7624 29.1632 22.7624C29.3205 22.7624 29.8236 22.7939 29.9494 22.7939C30.0752 22.7939 30.5783 22.7624 30.7041 22.7624C30.767 22.7624 30.767 22.7939 30.767 22.9197C30.767 23.0455 30.767 23.1084 30.6727 23.1084C30.2639 23.1084 30.1381 23.2657 30.1066 23.8634C30.0752 24.3982 29.9809 27.6068 29.9809 28.5819C29.9809 28.7707 29.9494 28.7707 29.7922 28.7707C29.7607 28.7707 29.7607 28.7392 29.572 28.4875L26.4273 23.8948Z" fill="white"/>
<path d="M35.0122 24.1152C35.0122 24.2096 34.9493 24.2096 34.8236 24.2096C34.6977 24.2096 34.6034 22.9513 33.7543 22.9513C33.3455 22.9513 33.0311 23.3602 33.0311 23.895C33.0311 24.7129 33.9745 24.8701 34.6977 25.6251C35.0122 25.9711 35.138 26.4115 35.138 26.9148C35.138 27.8271 34.6034 28.645 33.5028 28.645C33.094 28.645 32.8109 28.5506 32.3078 28.5506C32.2449 28.5506 32.182 28.5506 32.182 28.4248C32.1506 28.2046 32.0876 27.3867 32.0876 27.1036C32.0876 27.0721 32.1191 27.0407 32.2134 27.0407C32.2763 27.0407 32.3078 27.1036 32.3392 27.2609C32.5279 27.89 32.8424 28.3304 33.4084 28.3304C33.8487 28.3304 34.1632 27.9529 34.1632 27.4181C34.1632 25.9082 32.1506 26.2543 32.1506 24.3983C32.1506 23.2973 32.7795 22.6367 33.5971 22.6367C33.8487 22.6367 34.0688 22.6996 34.226 22.7311C34.4147 22.794 34.5405 22.8254 34.572 22.8254C34.6349 22.8254 34.6977 22.6682 34.7606 22.6682C34.8235 22.6682 34.8236 22.6996 34.8236 22.9827C34.9179 23.6119 35.0122 24.0837 35.0122 24.1152Z" fill="white"/>
<path d="M37.7798 26.6005C37.7169 26.6005 37.6854 26.6005 37.6854 26.6634C37.5911 26.915 37.3395 27.6385 37.3395 27.8902C37.3395 28.0475 37.4024 28.2048 37.654 28.2048C37.9685 28.2048 37.9999 28.2362 37.9999 28.3621C37.9999 28.4564 37.9999 28.5194 37.9056 28.5194C37.654 28.5194 37.4339 28.4879 37.1823 28.4879C36.9622 28.4879 36.7735 28.5194 36.5534 28.5194C36.5219 28.5194 36.4905 28.4879 36.4905 28.3935C36.4905 28.2362 36.5219 28.2048 36.7106 28.2048C36.8993 28.2048 36.9936 27.8902 37.1194 27.5127C37.2766 26.978 37.4653 26.4432 37.5911 25.9084C37.8427 24.9018 38.5345 22.7942 38.5974 22.6684C38.6289 22.6055 38.7232 22.6055 38.7547 22.6055C38.8804 22.6055 38.9119 22.6369 38.9119 22.6998C39.1949 23.675 40.1698 26.915 40.4528 27.7015C40.61 28.1419 40.6729 28.2048 40.9874 28.2048C41.0817 28.2048 41.0817 28.2677 41.0817 28.3621C41.0817 28.425 41.0817 28.5194 41.0188 28.5194C40.6729 28.5194 40.327 28.4879 39.9811 28.4879C39.2893 28.4879 39.0377 28.5194 39.0062 28.5194C38.9433 28.5194 38.9433 28.4564 38.9433 28.3621C38.9433 28.2048 38.9433 28.1733 39.1949 28.1733C39.3521 28.1733 39.4779 28.1733 39.4779 27.9531C39.4779 27.7958 39.132 26.7578 39.0691 26.5376H37.7798V26.6005ZM38.9748 26.2545L38.3773 24.1469C38.2829 24.4614 37.7798 25.9713 37.7798 26.1916C37.7798 26.223 37.8113 26.2545 37.9056 26.2545H38.9748Z" fill="white"/>
<path d="M45.2638 24.1152C45.2638 24.2096 45.201 24.2096 45.0753 24.2096C44.9495 24.2096 44.8551 22.9513 44.0061 22.9513C43.5973 22.9513 43.2828 23.3602 43.2828 23.895C43.2828 24.7129 44.2262 24.8701 44.9495 25.6251C45.2638 25.9711 45.3897 26.4115 45.3897 26.9148C45.3897 27.8271 44.8551 28.645 43.7545 28.645C43.3457 28.645 43.0626 28.5506 42.5595 28.5506C42.4966 28.5506 42.4337 28.5506 42.4337 28.4248C42.4023 28.2046 42.3394 27.3867 42.3394 27.1036C42.3394 27.0721 42.3708 27.0407 42.4652 27.0407C42.528 27.0407 42.5595 27.1036 42.5909 27.2609C42.7796 27.89 43.0941 28.3304 43.6601 28.3304C44.1004 28.3304 44.4149 27.9529 44.4149 27.4181C44.4149 25.9082 42.4023 26.2543 42.4023 24.3983C42.4023 23.2973 43.0312 22.6367 43.8488 22.6367C44.1004 22.6367 44.3205 22.6996 44.4777 22.7311C44.6664 22.794 44.7922 22.8254 44.8237 22.8254C44.8866 22.8254 44.9495 22.6682 45.0124 22.6682C45.0753 22.6682 45.0753 22.6996 45.0753 22.9827C45.201 23.6119 45.2638 24.0837 45.2638 24.1152Z" fill="white"/>
<path d="M54.3836 24.2725C54.3836 24.3039 54.2577 24.3668 54.2265 24.3668C54.1949 24.3668 54.1634 24.3354 54.1634 24.3039C53.9432 23.5175 53.5346 22.9513 52.8428 22.9513C51.7106 22.9513 51.1761 24.3983 51.1761 25.7195C51.1761 28.1417 52.6854 28.3304 52.8112 28.3304C53.7861 28.3304 54.0063 27.5125 54.2265 27.0407C54.2265 27.0092 54.2577 26.9778 54.2893 26.9778C54.4464 26.9778 54.4779 27.0092 54.4779 27.0721C54.4779 27.2609 54.3836 27.9529 54.352 28.236C54.352 28.3304 54.2893 28.3619 54.2265 28.3619C53.6602 28.5192 53.157 28.6764 52.7169 28.6764C51.2074 28.6764 50.0754 27.7012 50.0754 25.5307C50.0754 24.4612 50.5786 22.6367 52.591 22.6367C53.4088 22.6367 53.8488 22.9513 53.9432 22.9513C54.0375 22.9513 54.1006 22.794 54.1634 22.794C54.2265 22.794 54.2577 22.8569 54.2577 23.0456C54.3208 23.486 54.3836 24.0208 54.3836 24.2725Z" fill="white"/>
<path d="M56.7106 24.115C56.7106 23.1399 56.6794 23.0455 56.1762 23.0455C56.0819 23.0455 56.0188 22.9826 56.0188 22.9512C56.0188 22.731 56.0188 22.731 56.1131 22.731C56.4592 22.731 56.805 22.7624 57.1826 22.7624C57.5284 22.7624 57.8744 22.731 58.2517 22.731C58.3461 22.731 58.3773 22.7624 58.3773 22.9512C58.3773 23.0141 58.283 23.0455 58.2202 23.0455C57.717 23.0455 57.6855 23.1399 57.6855 24.115V26.9147C57.6855 28.1101 57.6855 28.2044 58.1259 28.2044C58.3145 28.2044 58.3461 28.2359 58.3461 28.4246C58.3461 28.4875 58.3145 28.519 58.2517 28.519C57.9057 28.519 57.5599 28.4875 57.1826 28.4875C56.8365 28.4875 56.4907 28.519 56.1131 28.519C56.0503 28.519 56.0188 28.4875 56.0188 28.4246C56.0188 28.2359 56.0503 28.2044 56.239 28.2044C56.6794 28.2044 56.6794 28.1101 56.6794 26.9147V24.115H56.7106Z" fill="white"/>
<path d="M64.0063 22.7309C64.1322 22.7309 64.2265 22.5107 64.3208 22.5107C64.3839 22.5107 64.4151 22.5422 64.4151 22.6366C64.4467 22.7624 64.7297 23.9892 64.7297 24.0836C64.7297 24.1465 64.6353 24.1465 64.6038 24.1465C64.5095 24.1465 64.5095 24.1465 64.4782 24.0521C64.1322 23.3286 63.912 23.0455 63.063 23.0455C62.6542 23.0455 62.6542 23.0455 62.6542 23.6118V26.9147C62.6542 28.1101 62.6542 28.2045 63.0946 28.2045C63.2832 28.2045 63.3144 28.2359 63.3144 28.4247C63.3144 28.4876 63.2832 28.519 63.2201 28.519C62.8744 28.519 62.5283 28.4876 62.151 28.4876C61.8052 28.4876 61.4591 28.519 61.0818 28.519C61.019 28.519 60.9875 28.4876 60.9875 28.4247C60.9875 28.2359 61.019 28.2045 61.2077 28.2045C61.6478 28.2045 61.6478 28.1101 61.6478 26.9147V23.6432C61.6478 23.077 61.6478 23.077 61.2077 23.077C60.4528 23.077 60.1698 23.3916 59.824 24.0836C59.7925 24.178 59.7609 24.2094 59.6981 24.2094C59.6354 24.2094 59.5723 24.178 59.5723 24.1151C59.5723 23.9892 59.8553 22.9197 59.8868 22.7624C59.8868 22.668 59.9183 22.6051 60.0127 22.6051C60.107 22.6051 60.1385 22.7938 60.4528 22.7938H64.0063V22.7309Z" fill="white"/>
<path d="M68.4717 26.9149C68.4717 28.1103 68.4717 28.2046 68.9121 28.2046C69.1008 28.2046 69.132 28.2361 69.132 28.4248C69.132 28.4877 69.1008 28.5192 69.0377 28.5192C68.6919 28.5192 68.3458 28.4877 67.9685 28.4877C67.6228 28.4877 67.2767 28.5192 66.8994 28.5192C66.8366 28.5192 66.805 28.4877 66.805 28.4248C66.805 28.2361 66.8366 28.2046 67.0252 28.2046C67.4653 28.2046 67.4653 28.1103 67.4653 26.9149V26.3801C67.4653 26.2858 67.4653 26.2229 67.2767 25.8139L66.5221 23.9265C66.2075 23.1401 66.176 23.0143 65.893 23.0143C65.7359 23.0143 65.7043 22.9199 65.7043 22.857C65.7043 22.7626 65.7043 22.6997 65.7671 22.6997C66.176 22.6997 66.5848 22.7312 66.8366 22.7312C67.088 22.7312 67.4026 22.6997 67.8114 22.6997C67.8742 22.6997 67.8742 22.7941 67.8742 22.8255C67.8742 22.9828 67.8742 22.9828 67.6855 23.0143C67.4341 23.0457 67.371 23.0772 67.371 23.2659C67.371 23.3603 67.5597 23.895 68.0628 25.1533C68.2203 25.5308 68.2515 25.6566 68.2831 25.6566C68.3146 25.6566 68.3774 25.5308 68.4089 25.4679C69.132 23.7378 69.1951 23.4861 69.1951 23.3603C69.1951 23.1716 69.1635 23.0772 68.849 23.0457C68.6604 23.0143 68.6288 22.9828 68.6288 22.857C68.6288 22.7941 68.6604 22.7312 68.7547 22.7312C68.9749 22.7312 69.2263 22.7626 69.4465 22.7626C69.6667 22.7626 69.8554 22.7312 70.0756 22.7312C70.1699 22.7312 70.1699 22.7941 70.1699 22.8884C70.1699 23.0143 70.1699 23.0457 69.9813 23.0772C69.7926 23.0772 69.6983 23.1401 69.5724 23.3288C69.4465 23.5176 69.0064 24.6815 68.4402 26.0341C68.3774 26.1914 68.3774 26.2229 68.3774 26.3172V26.9149H68.4717Z" fill="white"/>
<path d="M15.1063 36.2891C15.3579 36.2891 15.5466 36.3834 15.6724 36.5407C15.7981 36.698 15.861 36.9496 15.861 37.2642C15.861 37.5788 15.7981 37.799 15.6724 37.9877C15.5466 38.145 15.3579 38.2394 15.1063 38.2394H14.3516V39.5606H14.0371V36.2891H15.1063ZM14.9805 37.8619C15.1692 37.8619 15.295 37.8304 15.3893 37.7046C15.4837 37.5788 15.5151 37.453 15.5151 37.2642C15.5151 37.0755 15.4837 36.9182 15.3893 36.8238C15.295 36.7294 15.1692 36.6665 14.9805 36.6665H14.3516V37.8619H14.9805Z" fill="white"/>
<path d="M20.0121 39.3092C19.8549 39.5294 19.6033 39.6238 19.2888 39.6238C18.9744 39.6238 18.7228 39.5294 18.5656 39.3407C18.3769 39.1519 18.314 38.8374 18.314 38.3969V36.3208H18.6284V38.3969C18.6284 38.6801 18.6913 38.9003 18.8171 39.0575C18.9429 39.2148 19.1002 39.2777 19.3203 39.2777C19.5404 39.2777 19.6976 39.2148 19.792 39.0575C19.8863 38.9003 19.9492 38.6801 19.9492 38.3969V36.3208H20.2637V38.3969C20.2637 38.7744 20.1693 39.089 20.0121 39.3092Z" fill="white"/>
<path d="M23.6913 36.2891C23.7542 36.2891 23.7856 36.2891 23.8485 36.2891C23.9114 36.2891 23.9743 36.2891 24.0372 36.2891C24.1001 36.2891 24.163 36.3205 24.1944 36.3205C24.2573 36.3205 24.2888 36.352 24.3202 36.3834C24.4146 36.4463 24.4774 36.5407 24.5089 36.6351C24.5718 36.7609 24.6032 36.8867 24.6032 37.044C24.6032 37.2327 24.5718 37.3586 24.5089 37.4844C24.446 37.6102 24.3517 37.7046 24.2259 37.7675C24.3831 37.799 24.4774 37.8934 24.5718 38.0506C24.6661 38.1765 24.6976 38.3652 24.6976 38.5539C24.6976 38.6798 24.6661 38.7741 24.6347 38.9C24.6032 39.0258 24.5403 39.1202 24.4774 39.2145C24.4146 39.3089 24.3517 39.3718 24.2573 39.4347C24.163 39.4976 24.0686 39.5291 23.9428 39.5291H22.7793V36.2891H23.6913ZM23.7856 37.7046C23.9743 37.7046 24.1001 37.6732 24.1944 37.5788C24.2888 37.4844 24.3202 37.3586 24.3202 37.2013C24.3202 37.0755 24.3202 36.9811 24.2888 36.9182C24.2573 36.8553 24.2259 36.7923 24.163 36.7609C24.1001 36.7294 24.0686 36.698 24.0057 36.698C23.9428 36.6665 23.88 36.6665 23.7856 36.6665H23.1252V37.7046H23.7856ZM23.9743 39.1831C24.1315 39.1831 24.2259 39.1202 24.3202 39.0258C24.4146 38.9314 24.446 38.7741 24.446 38.5854C24.446 38.491 24.446 38.3967 24.4146 38.3338C24.3831 38.2708 24.3517 38.2079 24.2888 38.1765C24.2259 38.145 24.1944 38.1136 24.1315 38.0821C24.0686 38.0506 24.0057 38.0506 23.9428 38.0506H23.1881V39.1831H23.9743Z" fill="white"/>
<path d="M27.5281 36.2891V39.1831H28.8174V39.5606H27.2136V36.2891H27.5281Z" fill="white"/>
<path d="M31.4902 36.2891H31.1758V39.5606H31.4902V36.2891Z" fill="white"/>
<path d="M35.5784 36.7609C35.4527 36.635 35.2954 36.5721 35.1382 36.5721C34.981 36.5721 34.8552 36.6036 34.7608 36.6665C34.6665 36.7294 34.5721 36.8238 34.5093 36.9496C34.4464 37.0754 34.3834 37.2012 34.352 37.3585C34.3206 37.5158 34.2891 37.6731 34.2891 37.8618C34.2891 38.0506 34.3206 38.2079 34.352 38.3966C34.3834 38.5539 34.4464 38.7112 34.5093 38.837C34.5721 38.9628 34.6665 39.0572 34.7608 39.1201C34.8552 39.183 34.981 39.2145 35.1382 39.2145C35.2325 39.2145 35.3269 39.183 35.4212 39.1516C35.5156 39.1201 35.5784 39.0258 35.6413 38.9628C35.7042 38.8685 35.7357 38.7741 35.7986 38.6797C35.83 38.5539 35.8615 38.4281 35.8615 38.3023H36.1759C36.1445 38.7112 36.0501 39.0257 35.8615 39.2459C35.6728 39.4661 35.4212 39.592 35.1382 39.592C34.9495 39.592 34.7923 39.5605 34.635 39.4661C34.5093 39.3718 34.3834 39.2459 34.2891 39.1201C34.1948 38.9628 34.1319 38.7741 34.069 38.5854C34.0375 38.3652 34.0061 38.145 34.0061 37.9248C34.0061 37.6731 34.0375 37.4529 34.069 37.2642C34.1319 37.044 34.1948 36.8867 34.2891 36.7294C34.3834 36.5721 34.5093 36.4463 34.6665 36.3519C34.8237 36.2576 34.981 36.2261 35.1696 36.2261C35.2954 36.2261 35.4212 36.2576 35.547 36.289C35.6728 36.3205 35.7671 36.4148 35.8615 36.4777C35.9558 36.5721 36.0187 36.6665 36.0816 36.7923C36.1445 36.9181 36.1759 37.0754 36.2074 37.2642H35.8929C35.7671 37.044 35.7042 36.8552 35.5784 36.7609Z" fill="white"/>
<path d="M42.8425 36.7298C42.7481 36.6354 42.5909 36.5725 42.4337 36.5725C42.3708 36.5725 42.3079 36.5725 42.245 36.604C42.1821 36.6354 42.1192 36.6669 42.0563 36.6983C41.9934 36.7298 41.962 36.7927 41.9305 36.8556C41.8991 36.9185 41.8991 37.0129 41.8991 37.1073C41.8991 37.2016 41.9305 37.296 41.962 37.3589C41.9934 37.4218 42.0563 37.4848 42.1506 37.5162C42.2135 37.5477 42.3079 37.5791 42.4022 37.6106C42.4965 37.6421 42.5909 37.6735 42.6852 37.705C42.7796 37.7364 42.8739 37.7679 42.9683 37.7993C43.0626 37.8308 43.1569 37.8937 43.2198 37.9566C43.2827 38.0195 43.3456 38.1139 43.4085 38.2083C43.44 38.3027 43.4714 38.4599 43.4714 38.6172C43.4714 38.806 43.44 38.9318 43.3771 39.0576C43.3142 39.1834 43.2513 39.2778 43.1569 39.3722C43.0626 39.4351 42.9682 39.498 42.8425 39.5295C42.7167 39.5609 42.6224 39.5924 42.4965 39.5924C42.3708 39.5924 42.245 39.5609 42.1192 39.5295C41.9934 39.498 41.8991 39.4036 41.8047 39.3093C41.7104 39.2149 41.6475 39.0891 41.5846 38.9632C41.5217 38.806 41.4902 38.6487 41.4902 38.4599H41.8047C41.8047 38.5858 41.8362 38.7116 41.8676 38.806C41.8991 38.9003 41.962 38.9947 42.0248 39.0576C42.0877 39.1205 42.1506 39.1834 42.245 39.2149C42.3393 39.2463 42.4337 39.2463 42.4965 39.2463C42.5594 39.2463 42.6538 39.2463 42.7167 39.2149C42.7796 39.1834 42.8425 39.152 42.9054 39.1205C42.9683 39.0891 42.9997 39.0262 43.0626 38.9318C43.0941 38.8689 43.1255 38.743 43.1255 38.6487C43.1255 38.5229 43.0941 38.4599 43.0626 38.3656C43.0311 38.3027 42.9682 38.2397 42.8739 38.2083C42.811 38.1768 42.7167 38.1139 42.6224 38.1139C42.528 38.0825 42.4337 38.051 42.3393 38.0196C42.245 37.9881 42.1506 37.9566 42.0563 37.9252C41.962 37.8937 41.8676 37.8308 41.8047 37.7679C41.7418 37.705 41.6789 37.6106 41.616 37.5162C41.5846 37.4218 41.5531 37.296 41.5531 37.1387C41.5531 36.9814 41.5846 36.8242 41.616 36.6983C41.6789 36.5725 41.7418 36.4781 41.8047 36.4152C41.8991 36.3523 41.9934 36.2894 42.0877 36.2265C42.1821 36.195 42.3079 36.1636 42.4022 36.1636C42.528 36.1636 42.6538 36.195 42.7481 36.2265C42.8425 36.258 42.9368 36.3209 43.0311 36.4152C43.1255 36.5096 43.1884 36.604 43.2198 36.7298C43.2513 36.8556 43.2827 37.0129 43.2827 37.2016H42.9683C43.0311 37.0129 42.9682 36.8242 42.8425 36.7298Z" fill="white"/>
<path d="M47.3709 36.7609C47.245 36.635 47.0879 36.5721 46.9308 36.5721C46.7734 36.5721 46.6475 36.6036 46.5532 36.6665C46.4589 36.7294 46.3645 36.8238 46.3018 36.9496C46.239 37.0754 46.1759 37.2012 46.1447 37.3585C46.1131 37.5158 46.0816 37.6731 46.0816 37.8618C46.0816 38.0506 46.1131 38.2079 46.1447 38.3966C46.1759 38.5539 46.239 38.7112 46.3018 38.837C46.3645 38.9628 46.4589 39.0572 46.5532 39.1201C46.6475 39.183 46.7734 39.2145 46.9308 39.2145C47.0252 39.2145 47.1195 39.183 47.2138 39.1516C47.3081 39.1201 47.3709 39.0258 47.4337 38.9628C47.4968 38.8685 47.528 38.7741 47.5911 38.6797C47.6227 38.5539 47.6539 38.4281 47.6539 38.3023H47.9684C47.9369 38.7112 47.8426 39.0257 47.6539 39.2459C47.4652 39.4661 47.2138 39.592 46.9308 39.592C46.7419 39.592 46.5847 39.5605 46.4276 39.4661C46.3018 39.3718 46.1759 39.2459 46.0816 39.1201C45.9872 38.9628 45.9245 38.7741 45.8614 38.5854C45.8301 38.3652 45.7986 38.145 45.7986 37.9248C45.7986 37.6731 45.8301 37.4529 45.8614 37.2642C45.9245 37.044 45.9872 36.8867 46.0816 36.7294C46.1759 36.5721 46.3018 36.4463 46.4589 36.3519C46.6163 36.2576 46.7734 36.2261 46.9621 36.2261C47.0879 36.2261 47.2138 36.2576 47.3394 36.289C47.4652 36.3205 47.5596 36.4148 47.6539 36.4777C47.7482 36.5721 47.8113 36.6665 47.8741 36.7923C47.9369 36.9181 47.9684 37.0754 48 37.2642H47.6854C47.5596 37.044 47.4968 36.8552 47.3709 36.7609Z" fill="white"/>
<path d="M50.7357 36.2891V37.7046H52.025V36.2891H52.3396V39.5606H52.025V38.0506H50.7357V39.5606H50.4211V36.2891H50.7357Z" fill="white"/>
<path d="M54.8555 37.2642C54.9186 37.044 54.9814 36.8867 55.0757 36.7294C55.17 36.5721 55.2959 36.4463 55.453 36.3519C55.6104 36.2576 55.7675 36.2261 55.9562 36.2261C56.1449 36.2261 56.3335 36.289 56.4594 36.3519C56.6165 36.4463 56.7424 36.5721 56.8367 36.7294C56.931 36.8867 56.9938 37.0754 57.0569 37.2642C57.1197 37.4844 57.1197 37.6731 57.1197 37.8933C57.1197 38.1135 57.0884 38.3337 57.0569 38.5224C56.9938 38.7426 56.931 38.8999 56.8367 39.0572C56.7424 39.2145 56.6165 39.3403 56.4594 39.4347C56.302 39.529 56.1449 39.5605 55.9562 39.5605C55.7675 39.5605 55.5789 39.529 55.453 39.4347C55.2959 39.3403 55.17 39.2145 55.0757 39.0572C54.9814 38.8999 54.9186 38.7112 54.8555 38.5224C54.7927 38.3023 54.7927 38.1135 54.7927 37.8933C54.7927 37.7046 54.824 37.4844 54.8555 37.2642ZM55.17 38.3966C55.2016 38.5539 55.2644 38.7112 55.3271 38.837C55.3902 38.9628 55.4846 39.0572 55.5789 39.1516C55.6732 39.2145 55.7991 39.2774 55.9562 39.2774C56.1133 39.2774 56.2392 39.2459 56.3335 39.1516C56.4278 39.0887 56.5222 38.9628 56.5853 38.837C56.648 38.7112 56.7108 38.5539 56.7424 38.3966C56.7739 38.2393 56.8051 38.0821 56.8051 37.9248C56.8051 37.7675 56.7739 37.6102 56.7424 37.4529C56.7108 37.2956 56.648 37.1383 56.5853 37.0125C56.5222 36.8867 56.4278 36.7923 56.3335 36.6979C56.2392 36.635 56.1133 36.5721 55.9562 36.5721C55.7991 36.5721 55.6732 36.6036 55.5789 36.6979C55.4846 36.7609 55.3902 36.8867 55.3271 37.0125C55.2644 37.1383 55.2016 37.2956 55.17 37.4529C55.1385 37.6102 55.1073 37.7675 55.1073 37.9248C55.1073 38.0821 55.1385 38.2393 55.17 38.3966Z" fill="white"/>
<path d="M59.5096 37.2642C59.5723 37.044 59.6354 36.8867 59.7298 36.7294C59.8241 36.5721 59.9496 36.4463 60.1071 36.3519C60.2642 36.2576 60.4216 36.2261 60.6103 36.2261C60.7989 36.2261 60.9876 36.289 61.1134 36.3519C61.2705 36.4463 61.3964 36.5721 61.4907 36.7294C61.5851 36.8867 61.6479 37.0754 61.7109 37.2642C61.7737 37.4844 61.7737 37.6731 61.7737 37.8933C61.7737 38.1135 61.7422 38.3337 61.7109 38.5224C61.6479 38.7426 61.5851 38.8999 61.4907 39.0572C61.3964 39.2145 61.2705 39.3403 61.1134 39.4347C60.956 39.529 60.7989 39.5605 60.6103 39.5605C60.4216 39.5605 60.2329 39.529 60.1071 39.4347C59.9496 39.3403 59.8241 39.2145 59.7298 39.0572C59.6354 38.8999 59.5723 38.7112 59.5096 38.5224C59.4468 38.3023 59.4468 38.1135 59.4468 37.8933C59.4468 37.7046 59.478 37.4844 59.5096 37.2642ZM59.8241 38.3966C59.8553 38.5539 59.9184 38.7112 59.9812 38.837C60.0443 38.9628 60.1386 39.0572 60.2329 39.1516C60.3273 39.2145 60.4528 39.2774 60.6103 39.2774C60.7674 39.2774 60.8932 39.2459 60.9876 39.1516C61.0819 39.0887 61.1762 38.9628 61.239 38.837C61.3021 38.7112 61.3649 38.5539 61.3964 38.3966C61.428 38.2393 61.4592 38.0821 61.4592 37.9248C61.4592 37.7675 61.428 37.6102 61.3964 37.4529C61.3649 37.2956 61.3021 37.1383 61.239 37.0125C61.1762 36.8867 61.0819 36.7923 60.9876 36.6979C60.8932 36.635 60.7674 36.5721 60.6103 36.5721C60.4528 36.5721 60.3273 36.6036 60.2329 36.6979C60.1386 36.7609 60.0443 36.8867 59.9812 37.0125C59.9184 37.1383 59.8553 37.2956 59.8241 37.4529C59.7925 37.6102 59.761 37.7675 59.761 37.9248C59.761 38.0821 59.7925 38.2393 59.8241 38.3966Z" fill="white"/>
<path d="M64.5411 36.2891V39.1831H65.8304V39.5606H64.2266V36.2891H64.5411Z" fill="white"/>
<path d="M69.4151 36.7298C69.3208 36.6354 69.1637 36.5725 69.0066 36.5725C68.9435 36.5725 68.8807 36.5725 68.8179 36.604C68.7548 36.6354 68.692 36.6669 68.629 36.6983C68.5662 36.7298 68.5346 36.7927 68.5034 36.8556C68.4718 36.9185 68.4718 37.0129 68.4718 37.1073C68.4718 37.2016 68.5034 37.296 68.5346 37.3589C68.5662 37.4218 68.629 37.4848 68.7233 37.5162C68.7864 37.5477 68.8807 37.5791 68.975 37.6106C69.0694 37.6421 69.1637 37.6735 69.258 37.705C69.3523 37.7364 69.4467 37.7679 69.541 37.7993C69.6353 37.8308 69.7297 37.8937 69.7927 37.9566C69.8555 38.0195 69.9183 38.1139 69.9814 38.2083C70.0126 38.3027 70.0442 38.4599 70.0442 38.6172C70.0442 38.806 70.0126 38.9318 69.9499 39.0576C69.8871 39.1834 69.824 39.2778 69.7297 39.3722C69.6353 39.4351 69.541 39.498 69.4151 39.5295C69.2896 39.5609 69.1952 39.5924 69.0694 39.5924C68.9435 39.5924 68.8179 39.5609 68.692 39.5295C68.5662 39.498 68.4718 39.4036 68.3775 39.3093C68.2832 39.2149 68.2204 39.0891 68.1573 38.9632C68.0945 38.806 68.063 38.6487 68.063 38.4599H68.3775C68.3775 38.5858 68.4091 38.7116 68.4403 38.806C68.4718 38.9003 68.5346 38.9947 68.5977 39.0576C68.6605 39.1205 68.7236 39.1834 68.8179 39.2149C68.9123 39.2463 69.0066 39.2463 69.0694 39.2463C69.1321 39.2463 69.2265 39.2463 69.2896 39.2149C69.3523 39.1834 69.4151 39.152 69.4782 39.1205C69.541 39.0891 69.5725 39.0262 69.6353 38.9318C69.6669 38.8689 69.6984 38.743 69.6984 38.6487C69.6984 38.5229 69.6669 38.4599 69.6353 38.3656C69.6041 38.3027 69.541 38.2397 69.4467 38.2083C69.3839 38.1768 69.2896 38.1139 69.1952 38.1139C69.1009 38.0825 69.0066 38.051 68.9123 38.0196C68.8179 37.9881 68.7236 37.9566 68.629 37.9252C68.5346 37.8937 68.4403 37.8308 68.3775 37.7679C68.3147 37.705 68.2516 37.6106 68.1889 37.5162C68.1573 37.4218 68.1261 37.296 68.1261 37.1387C68.1261 36.9814 68.1573 36.8242 68.1889 36.6983C68.2516 36.5725 68.3147 36.4781 68.3775 36.4152C68.4718 36.3523 68.5662 36.2894 68.6605 36.2265C68.7548 36.195 68.8807 36.1636 68.975 36.1636C69.1009 36.1636 69.2265 36.195 69.3208 36.2265C69.4151 36.258 69.5098 36.3209 69.6041 36.4152C69.6984 36.5096 69.7612 36.604 69.7927 36.7298C69.824 36.8556 69.8555 37.0129 69.8555 37.2016H69.541C69.5725 37.0129 69.5098 36.8242 69.4151 36.7298Z" fill="white"/>
</svg>
