<svg width="106" height="52" viewBox="0 0 106 52" fill="none" xmlns="http://www.w3.org/2000/svg">
<path d="M29.0341 16.0015L21.9304 20.2225C21.8091 20.2939 21.6665 20.1715 21.7193 20.0407L25.26 11.314C25.3239 11.1563 25.1137 11.0339 25.0091 11.1675L19.6832 17.9455C19.5906 18.0633 19.4017 17.9826 19.423 17.8342L20.9582 6.91959C20.9823 6.74801 20.7425 6.68308 20.6767 6.84354L16.6786 16.635C16.6203 16.7778 16.411 16.7463 16.3971 16.5923L15.0444 1.72291C15.0286 1.54484 14.7684 1.54484 14.7518 1.72291L13.399 16.5914C13.3851 16.7444 13.1749 16.7759 13.1175 16.634L9.12035 6.84261C9.05461 6.68216 8.8148 6.74708 8.83887 6.91867L10.374 17.8333C10.3953 17.9817 10.2065 18.0624 10.1139 17.9446L4.78798 11.1665C4.68242 11.033 4.47317 11.1554 4.53705 11.3131L8.07776 20.0397C8.13054 20.1705 7.98795 20.293 7.86666 20.2215L0.763014 16.0015C0.611163 15.9115 0.458387 16.1174 0.588941 16.2361L14.8981 29.2877L29.2072 16.2361C29.3387 16.1174 29.1859 15.9106 29.0341 16.0015Z" fill="black"/>
<path d="M29.1025 36.1165L23.1831 30.1667C22.9821 29.9645 22.659 30.2187 22.8072 30.4626L27.0432 37.4261L21.2646 31.6729C21.084 31.4939 20.7859 31.6804 20.8674 31.9206L23.8155 40.663L19.122 33.3127C18.984 33.0966 18.6498 33.2172 18.6803 33.4713L20.0127 44.6391L16.5387 34.2866C16.4554 34.038 16.0905 34.0835 16.0711 34.345L14.898 49.5233L13.7267 34.3432C13.7063 34.0816 13.3424 34.0362 13.2591 34.2847L9.78504 44.6373L11.1174 33.4695C11.148 33.2153 10.8137 33.0957 10.6758 33.3109L5.98137 40.6621L8.9295 31.9197C9.01098 31.6785 8.71191 31.4921 8.53228 31.672L2.7527 37.4252L6.98877 30.4617C7.13692 30.2177 6.81377 29.9636 6.61285 30.1658L0.694384 36.1165L14.898 50.4294L29.1025 36.1165Z" fill="black"/>
<path d="M38.644 16.0479V20.8791C38.644 21.2325 38.657 21.7751 39.0727 22.1785C39.3246 22.4178 39.7274 22.582 40.1051 22.582C40.4829 22.582 40.8737 22.4308 41.1125 22.2165C41.6162 21.7751 41.6033 21.1564 41.6033 20.6899V16.0479H43.782V20.7279C43.782 21.6109 43.744 22.5319 42.8375 23.4529C42.1329 24.1717 41.2514 24.5 40.0672 24.5C38.745 24.5 37.8005 24.0455 37.2839 23.4909C36.5533 22.696 36.4654 21.6239 36.4654 20.7279V16.0479H38.644Z" fill="black"/>
<path d="M44.8376 18.6714H46.8524V19.3772C47.4061 18.6464 48.1496 18.5453 48.6404 18.5453C49.2191 18.5453 49.8366 18.6844 50.3024 19.1509C50.7811 19.6304 50.8311 20.109 50.8311 20.7276V24.3096H48.8163V21.4594C48.8163 21.1311 48.8292 20.6395 48.5644 20.3622C48.3755 20.16 48.1237 20.1229 47.9218 20.1229C47.607 20.1229 47.3431 20.2361 47.1793 20.3872C46.9774 20.5764 46.8515 20.9428 46.8515 21.2832V24.3105H44.8367L44.8376 18.6714Z" fill="black"/>
<path d="M52.8977 15.1897C53.5273 15.1897 54.031 15.6942 54.031 16.3249C54.031 16.9556 53.5273 17.4602 52.8977 17.4602C52.268 17.4602 51.7643 16.9556 51.7643 16.3249C51.7643 15.6942 52.268 15.1897 52.8977 15.1897ZM53.9051 18.6715V24.3096H51.8903V18.6715H53.9051Z" fill="black"/>
<path d="M56.7264 18.6717L58.0736 21.5599L59.4458 18.6717H61.6874L58.7532 24.3099H57.381L54.4717 18.6717H56.7264Z" fill="black"/>
<path d="M63.3254 21.8622C63.3254 22.1645 63.4384 22.568 63.6782 22.8082C63.8041 22.9343 64.056 23.0865 64.5097 23.0865C64.5597 23.0865 64.9124 23.0735 65.1643 22.9343C65.2902 22.8583 65.4291 22.7322 65.5171 22.5559H67.4439C67.3559 22.8713 67.1791 23.3128 66.7643 23.7162C66.3485 24.1197 65.6939 24.4981 64.4726 24.4981C63.7291 24.4981 62.8356 24.3339 62.143 23.6402C61.7782 23.2747 61.3125 22.58 61.3125 21.5088C61.3125 20.5628 61.6652 19.8059 62.156 19.3264C62.6217 18.872 63.3523 18.5065 64.4606 18.5065C65.1152 18.5065 65.9587 18.6457 66.6263 19.2764C67.4198 20.0332 67.5207 21.0172 67.5207 21.6479V21.8622H63.3254ZM65.668 20.7019C65.6171 20.4876 65.4911 20.2474 65.3402 20.0963C65.0763 19.831 64.7106 19.793 64.5097 19.793C64.1698 19.793 63.905 19.8811 63.6911 20.0963C63.5523 20.2474 63.4263 20.4496 63.3884 20.7019H65.668Z" fill="black"/>
<path d="M68.3644 18.6855H70.3792V19.6065C70.581 19.2281 70.8699 18.9758 71.1727 18.8247C71.4745 18.6605 71.8403 18.5974 72.218 18.5974C72.269 18.5974 72.356 18.6104 72.6208 18.6225V20.5266C72.5199 20.4765 72.243 20.3244 71.7514 20.3244C71.4875 20.3244 71.1217 20.3624 70.8319 20.6277C70.4042 21.0181 70.3792 21.6117 70.3792 21.9141V24.3228H68.3644V18.6855Z" fill="black"/>
<path d="M79.4846 15.1897C80.1142 15.1897 80.6179 15.6942 80.6179 16.3249C80.6179 16.9556 80.1142 17.4602 79.4846 17.4602C78.8549 17.4602 78.3512 16.9556 78.3512 16.3249C78.3512 15.6942 78.8549 15.1897 79.4846 15.1897ZM80.492 18.6715V24.3096H78.4772V18.6715H80.492Z" fill="black"/>
<path d="M83.7911 20.3235V24.3098H81.7763V20.3235H81.1337V18.6717H81.7763V16.8167H83.7911V18.6707H84.4985V20.3235H83.7911Z" fill="black"/>
<path d="M87.4751 23.54L84.7548 18.6717H87.0974L88.5955 21.5599L90.0566 18.6717H92.3603L87.84 27.199H85.5863L87.4751 23.54Z" fill="black"/>
<path d="M76.4992 20.828L76.1344 20.7269C75.8196 20.6388 75.6557 20.6388 75.4668 20.5628C75.3409 20.5118 75.2279 20.4246 75.2279 20.2474C75.2279 20.1213 75.2909 20.0332 75.4048 19.9701C75.5307 19.8941 75.6687 19.857 75.8705 19.857C76.1677 19.857 76.4946 19.9571 76.7566 20.0629L76.7576 20.0619L76.9298 20.1324L77.6085 18.8479C77.2807 18.7088 76.639 18.4824 75.8076 18.4824C74.9761 18.4824 74.2205 18.7217 73.7928 19.1632C73.478 19.4915 73.2641 19.9952 73.2641 20.5377C73.2641 20.9662 73.415 21.2816 73.6289 21.5088C73.9307 21.8371 74.3335 21.9373 74.6113 22.0004L75.14 22.1265C75.3418 22.1775 75.5427 22.2146 75.6687 22.3287C75.7566 22.4048 75.7696 22.4929 75.7696 22.581C75.7696 22.6821 75.7566 22.7581 75.6687 22.8462C75.5427 22.9594 75.3039 22.9974 75.152 22.9974C74.9381 22.9974 74.6233 22.9464 74.3715 22.8583C74.2668 22.8249 74.1604 22.7804 74.0557 22.7303L74.0548 22.7322L73.5391 22.4938L72.8483 23.8424C73.8178 24.435 74.6113 24.4981 75.115 24.4981C75.5807 24.4981 76.5381 24.4471 77.1927 23.7913C77.4705 23.527 77.7594 23.0726 77.7594 22.3918C77.7594 21.9753 77.6085 21.5339 77.3316 21.2695C77.1668 21.1063 76.764 20.9041 76.4992 20.828Z" fill="black"/>
<path d="M45.168 30.5183V33.6717C45.168 33.899 45.2059 34.2523 45.4707 34.4916C45.6726 34.6688 45.9365 34.7059 46.1754 34.7059C46.4272 34.7059 46.6661 34.6808 46.893 34.4666C47.1448 34.2143 47.1828 33.924 47.1828 33.6717V30.5183H49.1976V34.0372C49.1976 34.5167 49.1596 35.0342 48.6559 35.5508C47.9633 36.2696 46.9939 36.3457 46.2254 36.3457C45.3819 36.3457 44.3485 36.2576 43.6819 35.5388C43.2541 35.0843 43.1532 34.5807 43.1532 34.0381V30.5192L45.168 30.5183Z" fill="black"/>
<path d="M50.269 30.5183H52.2838V31.225C52.8375 30.4932 53.5801 30.3931 54.0718 30.3931C54.6514 30.3931 55.2681 30.5313 55.7338 30.9987C56.2125 31.4782 56.2625 31.9568 56.2625 32.5754V36.1583H54.2477V33.3072C54.2477 32.9789 54.2597 32.4873 53.9958 32.21C53.807 32.0078 53.5551 31.9698 53.3532 31.9698C53.0384 31.9698 52.7736 32.0839 52.6097 32.235C52.4079 32.4242 52.2829 32.7897 52.2829 33.131V36.1583H50.2681L50.269 30.5183Z" fill="black"/>
<path d="M63.6939 36.1576H61.6791V35.539C61.1124 36.2708 60.3689 36.3459 59.9791 36.3459C59.1735 36.3459 58.531 36.0816 58.0023 35.564C57.4356 35.0094 57.0958 34.2145 57.0958 33.3186C57.0958 32.3605 57.4986 31.5777 58.0152 31.0862C58.5689 30.5566 59.3124 30.3293 60.005 30.3293C60.7735 30.3293 61.3152 30.6697 61.68 31.0611V26.9616H63.6948L63.6939 36.1576ZM61.3133 34.2906C61.5772 34.0513 61.7411 33.672 61.7411 33.3325C61.7411 33.0172 61.5652 32.6388 61.3633 32.4245C61.1365 32.1852 60.8217 32.0461 60.4439 32.0461C60.0152 32.0461 59.7254 32.2353 59.5495 32.4115C59.3226 32.6388 59.1587 32.9912 59.1587 33.3696C59.1587 33.6599 59.2847 33.9873 59.5495 34.2526C59.8263 34.5299 60.1541 34.631 60.4439 34.631C60.7717 34.631 61.0995 34.4798 61.3133 34.2906Z" fill="black"/>
<path d="M70.7337 33.7096H66.5402C66.5402 34.0129 66.6541 34.4163 66.893 34.6556C67.0189 34.7817 67.2707 34.9329 67.7235 34.9329C67.7744 34.9329 68.1263 34.9199 68.3781 34.7817C68.5041 34.7057 68.642 34.5796 68.7309 34.4033H70.6578C70.5698 34.7187 70.3939 35.1602 69.9781 35.5636C69.5624 35.9671 68.9078 36.3455 67.6865 36.3455C66.943 36.3455 66.0495 36.1813 65.3569 35.4876C64.9921 35.1221 64.5254 34.4284 64.5254 33.3562C64.5254 32.4102 64.8782 31.6533 65.3698 31.1738C65.8356 30.7194 66.5661 30.3539 67.6735 30.3539C68.3281 30.3539 69.1717 30.4931 69.8402 31.1238C70.6337 31.8806 70.7337 32.8646 70.7337 33.4953V33.7096ZM68.8828 32.5493C68.8328 32.335 68.7068 32.0948 68.555 31.9437C68.2911 31.6793 67.9254 31.6413 67.7244 31.6413C67.3846 31.6413 67.1198 31.7294 66.9059 31.9437C66.768 32.0948 66.6421 32.297 66.6041 32.5493H68.8828Z" fill="black"/>
<path d="M78.4299 26.9616V36.1567H76.4151V26.9616H78.4299Z" fill="black"/>
<path d="M83.8456 30.5184H85.8604V36.1575H83.8456V35.5389C83.3799 36.1825 82.6494 36.3458 82.0947 36.3458C81.4901 36.3458 80.7475 36.1686 80.0679 35.4498C79.5262 34.8701 79.2624 34.2265 79.2624 33.3806C79.2624 32.3214 79.6781 31.5767 80.1309 31.1231C80.6096 30.6436 81.3521 30.3283 82.1586 30.3283C83.0651 30.3283 83.6068 30.7948 83.8456 31.06V30.5184ZM81.7299 32.4114C81.4531 32.6757 81.3272 33.0421 81.3272 33.3324C81.3272 33.6607 81.466 34.0132 81.7179 34.2534C81.9318 34.4556 82.2845 34.6318 82.6244 34.6318C82.9521 34.6318 83.279 34.4927 83.5308 34.2404C83.7068 34.0642 83.9086 33.7859 83.9086 33.3324C83.9086 33.0671 83.8327 32.7137 83.5188 32.4114C83.3299 32.2342 83.0401 32.046 82.6123 32.046C82.3595 32.045 82.0197 32.1331 81.7299 32.4114Z" fill="black"/>
<path d="M86.9315 30.5183H88.9463V31.225C89.5 30.4932 90.2426 30.3931 90.7343 30.3931C91.3139 30.3931 91.9306 30.5313 92.3963 30.9987C92.875 31.4782 92.925 31.9568 92.925 32.5754V36.1583H90.9102V33.3072C90.9102 32.9789 90.9222 32.4873 90.6583 32.21C90.4695 32.0078 90.2176 31.9698 90.0158 31.9698C89.701 31.9698 89.4361 32.0839 89.2723 32.235C89.0704 32.4242 88.9454 32.7897 88.9454 33.131V36.1583H86.9306L86.9315 30.5183Z" fill="black"/>
<path d="M100.356 36.1576H98.3416V35.539C97.7749 36.2708 97.0314 36.3459 96.6416 36.3459C95.8361 36.3459 95.1935 36.0816 94.6648 35.564C94.0981 35.0094 93.7583 34.2145 93.7583 33.3186C93.7583 32.3605 94.1611 31.5777 94.6777 31.0862C95.2314 30.5566 95.9749 30.3293 96.6675 30.3293C97.436 30.3293 97.9777 30.6697 98.3425 31.0611V26.9616H100.357L100.356 36.1576ZM97.9759 34.2906C98.2397 34.0513 98.4036 33.672 98.4036 33.3325C98.4036 33.0172 98.2277 32.6388 98.0258 32.4245C97.799 32.1852 97.4842 32.0461 97.1064 32.0461C96.6777 32.0461 96.3879 32.2353 96.212 32.4115C95.9851 32.6388 95.8212 32.9912 95.8212 33.3696C95.8212 33.6599 95.9472 33.9873 96.212 34.2526C96.4888 34.5299 96.8166 34.631 97.1064 34.631C97.4342 34.631 97.762 34.4798 97.9759 34.2906Z" fill="black"/>
<path d="M74.9651 32.1581H75.8345V30.4552C75.5707 30.4423 75.4818 30.4302 75.4318 30.4302C75.054 30.4302 74.6892 30.4933 74.3864 30.6574C74.0846 30.8086 73.7947 31.0609 73.5929 31.4393V30.5183H71.5781V36.1574H73.5929V33.7478C73.5929 33.4454 73.6179 32.8528 74.0466 32.4614C74.3364 32.1971 74.7012 32.159 74.9651 32.1581Z" fill="black"/>
<path d="M41.7412 31.8687C41.3004 31.3891 40.7467 31.1999 40.2171 31.0367L39.5495 30.8345C39.0329 30.6824 38.8819 30.5312 38.819 30.4561C38.731 30.343 38.706 30.2289 38.706 30.0777C38.706 29.8885 38.794 29.7494 38.9199 29.6242C39.1338 29.422 39.4236 29.3719 39.6384 29.3719C39.8217 29.3719 40.0884 29.3932 40.4245 29.5407L41.1199 29.8477L41.9421 28.2366C41.1486 27.8202 40.1791 27.5559 39.3486 27.5559C38.3282 27.5559 37.6236 27.9213 37.1949 28.3507C36.8301 28.7161 36.4264 29.3468 36.4264 30.3819C36.4264 30.8104 36.4773 31.404 36.9051 31.8705C37.2449 32.2489 37.7616 32.4381 38.1143 32.5513L38.681 32.7284C39.2227 32.8926 39.5504 32.9807 39.7643 33.1699C39.9412 33.3211 40.0041 33.5103 40.0041 33.6745C40.0041 33.8887 39.9162 34.0779 39.7902 34.2041C39.6514 34.3552 39.3875 34.4944 38.9467 34.4944C38.5384 34.4944 38.1458 34.3701 37.7967 34.1892L36.9606 33.7505L36.0884 35.4024C36.6931 35.8188 37.2218 36.021 37.3597 36.0711C37.9773 36.2983 38.4801 36.3484 39.0097 36.3484C39.9041 36.3484 40.7727 36.2093 41.4902 35.4905C42.0949 34.8848 42.2837 34.141 42.2837 33.3712C42.2828 32.7887 42.1699 32.3222 41.7412 31.8687Z" fill="black"/>
<path d="M100.378 23.5658C99.6345 24.2976 98.766 24.4989 97.8596 24.4989C97.041 24.4989 96.1346 24.3347 95.354 23.5658C94.7364 22.9602 94.4846 22.2414 94.4846 21.4845C94.4846 20.4754 94.9383 19.8197 95.354 19.4163C95.8198 18.9618 96.6383 18.4832 97.8596 18.4832C99.1058 18.4832 99.9123 18.9748 100.378 19.4163C100.794 19.8197 101.247 20.4754 101.247 21.4845C101.247 22.2414 100.995 22.9602 100.378 23.5658ZM96.9651 20.5635C96.7133 20.8028 96.5744 21.1562 96.5744 21.4845C96.5744 21.8249 96.7383 22.1533 96.9651 22.3805C97.204 22.6198 97.5318 22.7589 97.8716 22.7589C98.1994 22.7589 98.5262 22.6198 98.766 22.3805C99.0179 22.1412 99.1558 21.8129 99.1558 21.4845C99.1558 21.1822 99.0179 20.8158 98.766 20.5635C98.5392 20.3493 98.1864 20.1981 97.8716 20.1981C97.5438 20.1972 97.192 20.3484 96.9651 20.5635Z" fill="black"/>
<path d="M104.257 17.8767C104.257 17.5994 104.269 17.1699 104.483 16.9307C104.57 16.8305 104.746 16.7173 105.046 16.7164C105.047 16.7164 105.049 16.7164 105.05 16.7164C105.051 16.7164 105.054 16.7164 105.055 16.7164H105.68V15.1647C105.39 15.0516 105.088 14.9755 104.71 14.9755C104.043 14.9755 103.275 15.1777 102.758 15.8705C102.306 16.4762 102.242 17.1189 102.242 17.7246V18.6706H101.537V20.3234H102.242V24.3097H104.257V20.3234H105.667V18.6715H104.257V17.8767Z" fill="black"/>
</svg>
