<svg width="24" height="25" viewBox="0 0 24 25" fill="none" xmlns="http://www.w3.org/2000/svg">
<g clip-path="url(#clip0_4420_217)">
<path d="M18.9294 6.44236L16.5152 3.21182L19.9779 2.5L20.6652 6.07733L18.9294 6.44236ZM16.339 6.96254L13.9248 3.74111L12.189 4.09702L14.612 7.31844L16.339 6.96254ZM12.0216 7.85687L9.60739 4.61719L7.87162 4.99135L10.2946 8.21278L12.0216 7.85687ZM5.28119 5.52978L4.41772 5.70317C4.19074 5.74953 3.97483 5.84183 3.78238 5.9748C3.58992 6.10776 3.42469 6.27876 3.29618 6.478C3.16766 6.67724 3.07838 6.90079 3.03346 7.13584C2.98854 7.3709 2.98885 7.61282 3.03439 7.84774L3.37802 9.63641L7.6954 8.7512L5.28119 5.52978ZM21 9.63641V19.6748C21 20.6878 20.2158 21.5 19.2378 21.5H5.14022C4.67285 21.5 4.22463 21.3077 3.89415 20.9654C3.56368 20.6231 3.37802 20.1589 3.37802 19.6748V9.63641H21ZM19.2378 11.4616H5.14022V19.6748H19.2378V11.4616Z" fill="#2677BD"/>
</g>
<defs>
<clipPath id="clip0_4420_217">
<rect width="24" height="24" fill="white" transform="translate(0 0.5)"/>
</clipPath>
</defs>
</svg>
