<svg width="24" height="25" viewBox="0 0 24 25" fill="none" xmlns="http://www.w3.org/2000/svg">
<g clip-path="url(#clip0_4423_221)">
<mask id="path-1-outside-1_4423_221" maskUnits="userSpaceOnUse" x="1.70703" y="1.5" width="20" height="20" fill="black">
<rect fill="white" x="1.70703" y="1.5" width="20" height="20"/>
<path d="M11.2828 20.6122C11.4231 20.6189 11.5633 20.6222 11.7036 20.6222C11.8439 20.6222 11.9846 20.6189 12.1252 20.6122H11.2828H11.2828ZM20.578 10.0407C20.544 9.84579 20.3922 9.69116 20.1996 9.6561L18.732 9.39174L18.1851 8.07061L19.0285 6.84072C19.1424 6.67725 19.1429 6.45773 19.0278 6.29188C18.4445 5.46892 17.7327 4.75508 16.9131 4.17081C16.8331 4.11322 16.7386 4.08449 16.6435 4.08449C16.5484 4.08449 16.4529 4.11322 16.3706 4.17069L15.15 5.02549L13.836 4.48048L13.5675 3.00722C13.5329 2.81036 13.3784 2.65585 13.1825 2.62317C12.6931 2.54102 12.2003 2.5 11.7077 2.5C11.2022 2.5 10.6969 2.54318 10.1955 2.62959C10.0111 2.66036 9.85948 2.80725 9.81827 2.99481L9.55096 4.48953L8.23918 5.03956L7.01625 4.18905C6.93406 4.13171 6.83873 4.10307 6.74421 4.10307C6.64969 4.10307 6.55542 4.1318 6.47631 4.18917C5.65331 4.78106 4.94343 5.49825 4.36608 6.32084C4.25239 6.48299 4.25192 6.70157 4.36477 6.86419L5.21594 8.0959L4.67494 9.41797L3.2129 9.68816C3.01536 9.72297 2.86149 9.87882 2.83047 10.0734C2.66408 11.0679 2.66595 12.08 2.83579 13.0798C2.868 13.2752 3.0215 13.4312 3.21975 13.4679L4.68216 13.7316L5.22848 15.0524L4.38205 16.2872C4.27085 16.4493 4.27212 16.6671 4.38665 16.8308C4.97241 17.6564 5.68409 18.3702 6.50093 18.9516C6.53031 18.9727 6.56143 18.99 6.59389 19.0035C6.65109 19.0272 6.71184 19.039 6.7726 19.039C6.86733 19.039 6.96185 19.0101 7.04181 18.9529L8.15045 18.1761V17.3046L7.85743 17.5098L6.77484 18.2684C6.12453 17.785 5.55026 17.2088 5.0641 16.5518L5.81331 15.4587L6.03347 15.1376L5.88448 14.7773L5.33816 13.4567L5.18905 13.0962L4.80746 13.0274L3.50978 12.7935C3.38862 11.9835 3.38684 11.1671 3.50458 10.3615L4.8032 10.1215L5.18432 10.0512L5.332 9.69038L5.873 8.36843L6.02058 8.00763L5.79924 7.68725L5.04517 6.596C5.52424 5.94236 6.09674 5.36408 6.75025 4.87355L7.83533 5.62818L8.1544 5.85009L8.51244 5.69997L9.82419 5.14995L10.1818 5.00008L10.2504 4.61628L10.4844 3.30743C10.8896 3.24626 11.3002 3.21537 11.7077 3.21537C12.1041 3.21537 12.504 3.24457 12.8988 3.30254L13.137 4.6096L13.207 4.99331L13.5653 5.14199L14.8793 5.687L15.2377 5.83558L15.5558 5.61286L16.6391 4.85416C17.2915 5.33957 17.8659 5.91582 18.3502 6.57066L17.6003 7.66428L17.38 7.98551L17.5292 8.34597L18.0761 9.6671L18.2254 10.0273L18.607 10.096L19.9045 10.3298C20.0253 11.1369 20.0271 11.9534 19.9097 12.7621L18.6114 13.0015L18.2302 13.0718L18.0825 13.4328L17.5415 14.7547L17.3939 15.1155L17.6152 15.4358L18.369 16.5265C17.8876 17.182 17.3151 17.7601 16.6637 18.2486L15.5787 17.495L15.2636 17.276V18.1452L16.3962 18.932C16.4784 18.9897 16.5739 19.0185 16.6691 19.0185C16.7633 19.0185 16.8571 18.9903 16.9368 18.9335C17.7576 18.3439 18.4682 17.6265 19.0493 16.8004C19.1602 16.6421 19.1616 16.4263 19.0528 16.2634L18.1986 15.0272L18.7395 13.7052L20.2081 13.4343C20.4002 13.3976 20.5512 13.2432 20.5843 13.0488C20.7501 12.0498 20.748 11.0381 20.578 10.0408L20.578 10.0407Z"/>
</mask>
<path d="M11.2828 20.6122C11.4231 20.6189 11.5633 20.6222 11.7036 20.6222C11.8439 20.6222 11.9846 20.6189 12.1252 20.6122H11.2828H11.2828ZM20.578 10.0407C20.544 9.84579 20.3922 9.69116 20.1996 9.6561L18.732 9.39174L18.1851 8.07061L19.0285 6.84072C19.1424 6.67725 19.1429 6.45773 19.0278 6.29188C18.4445 5.46892 17.7327 4.75508 16.9131 4.17081C16.8331 4.11322 16.7386 4.08449 16.6435 4.08449C16.5484 4.08449 16.4529 4.11322 16.3706 4.17069L15.15 5.02549L13.836 4.48048L13.5675 3.00722C13.5329 2.81036 13.3784 2.65585 13.1825 2.62317C12.6931 2.54102 12.2003 2.5 11.7077 2.5C11.2022 2.5 10.6969 2.54318 10.1955 2.62959C10.0111 2.66036 9.85948 2.80725 9.81827 2.99481L9.55096 4.48953L8.23918 5.03956L7.01625 4.18905C6.93406 4.13171 6.83873 4.10307 6.74421 4.10307C6.64969 4.10307 6.55542 4.1318 6.47631 4.18917C5.65331 4.78106 4.94343 5.49825 4.36608 6.32084C4.25239 6.48299 4.25192 6.70157 4.36477 6.86419L5.21594 8.0959L4.67494 9.41797L3.2129 9.68816C3.01536 9.72297 2.86149 9.87882 2.83047 10.0734C2.66408 11.0679 2.66595 12.08 2.83579 13.0798C2.868 13.2752 3.0215 13.4312 3.21975 13.4679L4.68216 13.7316L5.22848 15.0524L4.38205 16.2872C4.27085 16.4493 4.27212 16.6671 4.38665 16.8308C4.97241 17.6564 5.68409 18.3702 6.50093 18.9516C6.53031 18.9727 6.56143 18.99 6.59389 19.0035C6.65109 19.0272 6.71184 19.039 6.7726 19.039C6.86733 19.039 6.96185 19.0101 7.04181 18.9529L8.15045 18.1761V17.3046L7.85743 17.5098L6.77484 18.2684C6.12453 17.785 5.55026 17.2088 5.0641 16.5518L5.81331 15.4587L6.03347 15.1376L5.88448 14.7773L5.33816 13.4567L5.18905 13.0962L4.80746 13.0274L3.50978 12.7935C3.38862 11.9835 3.38684 11.1671 3.50458 10.3615L4.8032 10.1215L5.18432 10.0512L5.332 9.69038L5.873 8.36843L6.02058 8.00763L5.79924 7.68725L5.04517 6.596C5.52424 5.94236 6.09674 5.36408 6.75025 4.87355L7.83533 5.62818L8.1544 5.85009L8.51244 5.69997L9.82419 5.14995L10.1818 5.00008L10.2504 4.61628L10.4844 3.30743C10.8896 3.24626 11.3002 3.21537 11.7077 3.21537C12.1041 3.21537 12.504 3.24457 12.8988 3.30254L13.137 4.6096L13.207 4.99331L13.5653 5.14199L14.8793 5.687L15.2377 5.83558L15.5558 5.61286L16.6391 4.85416C17.2915 5.33957 17.8659 5.91582 18.3502 6.57066L17.6003 7.66428L17.38 7.98551L17.5292 8.34597L18.0761 9.6671L18.2254 10.0273L18.607 10.096L19.9045 10.3298C20.0253 11.1369 20.0271 11.9534 19.9097 12.7621L18.6114 13.0015L18.2302 13.0718L18.0825 13.4328L17.5415 14.7547L17.3939 15.1155L17.6152 15.4358L18.369 16.5265C17.8876 17.182 17.3151 17.7601 16.6637 18.2486L15.5787 17.495L15.2636 17.276V18.1452L16.3962 18.932C16.4784 18.9897 16.5739 19.0185 16.6691 19.0185C16.7633 19.0185 16.8571 18.9903 16.9368 18.9335C17.7576 18.3439 18.4682 17.6265 19.0493 16.8004C19.1602 16.6421 19.1616 16.4263 19.0528 16.2634L18.1986 15.0272L18.7395 13.7052L20.2081 13.4343C20.4002 13.3976 20.5512 13.2432 20.5843 13.0488C20.7501 12.0498 20.748 11.0381 20.578 10.0408L20.578 10.0407Z" fill="#2677BD"/>
<path d="M11.2828 20.6122C11.4231 20.6189 11.5633 20.6222 11.7036 20.6222C11.8439 20.6222 11.9846 20.6189 12.1252 20.6122H11.2828H11.2828ZM20.578 10.0407C20.544 9.84579 20.3922 9.69116 20.1996 9.6561L18.732 9.39174L18.1851 8.07061L19.0285 6.84072C19.1424 6.67725 19.1429 6.45773 19.0278 6.29188C18.4445 5.46892 17.7327 4.75508 16.9131 4.17081C16.8331 4.11322 16.7386 4.08449 16.6435 4.08449C16.5484 4.08449 16.4529 4.11322 16.3706 4.17069L15.15 5.02549L13.836 4.48048L13.5675 3.00722C13.5329 2.81036 13.3784 2.65585 13.1825 2.62317C12.6931 2.54102 12.2003 2.5 11.7077 2.5C11.2022 2.5 10.6969 2.54318 10.1955 2.62959C10.0111 2.66036 9.85948 2.80725 9.81827 2.99481L9.55096 4.48953L8.23918 5.03956L7.01625 4.18905C6.93406 4.13171 6.83873 4.10307 6.74421 4.10307C6.64969 4.10307 6.55542 4.1318 6.47631 4.18917C5.65331 4.78106 4.94343 5.49825 4.36608 6.32084C4.25239 6.48299 4.25192 6.70157 4.36477 6.86419L5.21594 8.0959L4.67494 9.41797L3.2129 9.68816C3.01536 9.72297 2.86149 9.87882 2.83047 10.0734C2.66408 11.0679 2.66595 12.08 2.83579 13.0798C2.868 13.2752 3.0215 13.4312 3.21975 13.4679L4.68216 13.7316L5.22848 15.0524L4.38205 16.2872C4.27085 16.4493 4.27212 16.6671 4.38665 16.8308C4.97241 17.6564 5.68409 18.3702 6.50093 18.9516C6.53031 18.9727 6.56143 18.99 6.59389 19.0035C6.65109 19.0272 6.71184 19.039 6.7726 19.039C6.86733 19.039 6.96185 19.0101 7.04181 18.9529L8.15045 18.1761V17.3046L7.85743 17.5098L6.77484 18.2684C6.12453 17.785 5.55026 17.2088 5.0641 16.5518L5.81331 15.4587L6.03347 15.1376L5.88448 14.7773L5.33816 13.4567L5.18905 13.0962L4.80746 13.0274L3.50978 12.7935C3.38862 11.9835 3.38684 11.1671 3.50458 10.3615L4.8032 10.1215L5.18432 10.0512L5.332 9.69038L5.873 8.36843L6.02058 8.00763L5.79924 7.68725L5.04517 6.596C5.52424 5.94236 6.09674 5.36408 6.75025 4.87355L7.83533 5.62818L8.1544 5.85009L8.51244 5.69997L9.82419 5.14995L10.1818 5.00008L10.2504 4.61628L10.4844 3.30743C10.8896 3.24626 11.3002 3.21537 11.7077 3.21537C12.1041 3.21537 12.504 3.24457 12.8988 3.30254L13.137 4.6096L13.207 4.99331L13.5653 5.14199L14.8793 5.687L15.2377 5.83558L15.5558 5.61286L16.6391 4.85416C17.2915 5.33957 17.8659 5.91582 18.3502 6.57066L17.6003 7.66428L17.38 7.98551L17.5292 8.34597L18.0761 9.6671L18.2254 10.0273L18.607 10.096L19.9045 10.3298C20.0253 11.1369 20.0271 11.9534 19.9097 12.7621L18.6114 13.0015L18.2302 13.0718L18.0825 13.4328L17.5415 14.7547L17.3939 15.1155L17.6152 15.4358L18.369 16.5265C17.8876 17.182 17.3151 17.7601 16.6637 18.2486L15.5787 17.495L15.2636 17.276V18.1452L16.3962 18.932C16.4784 18.9897 16.5739 19.0185 16.6691 19.0185C16.7633 19.0185 16.8571 18.9903 16.9368 18.9335C17.7576 18.3439 18.4682 17.6265 19.0493 16.8004C19.1602 16.6421 19.1616 16.4263 19.0528 16.2634L18.1986 15.0272L18.7395 13.7052L20.2081 13.4343C20.4002 13.3976 20.5512 13.2432 20.5843 13.0488C20.7501 12.0498 20.748 11.0381 20.578 10.0408L20.578 10.0407Z" stroke="#2677BD" stroke-width="0.564706" mask="url(#path-1-outside-1_4423_221)"/>
<path d="M15.4669 7.77346C15.9567 8.26564 16.3415 8.83944 16.6104 9.47846L16.6105 9.47845C16.8889 10.1403 17.03 10.8433 17.03 11.5673C17.03 12.2191 16.915 12.8565 16.6879 13.4615L16.6879 13.4615C16.4686 14.0458 16.1515 14.5833 15.7454 15.059L15.638 14.9673L15.7454 15.059C15.4427 15.4135 15.1658 15.9125 14.9724 16.4204C14.8165 16.8305 14.7185 17.2376 14.7026 17.5705L14.7025 17.5711C14.7009 17.6027 14.7001 17.6338 14.7001 17.664V17.7854C14.7001 18.1072 14.5531 18.3953 14.3235 18.5848C14.1986 18.688 14.0486 18.7625 13.8842 18.7973C13.8842 18.7973 13.8841 18.7973 13.8841 18.7973L13.8549 18.6592C13.7959 18.6717 13.7348 18.6783 13.6721 18.6783H9.73614C9.68286 18.6783 9.63061 18.6735 9.57982 18.6645L15.4669 7.77346ZM15.4669 7.77346C14.9771 7.28117 14.4063 6.89472 13.7709 6.62526L15.4669 7.77346ZM7.93416 7.78816L7.93417 7.78815C8.42268 7.2945 8.99145 6.90593 9.62461 6.63386L7.93416 7.78816ZM7.93416 7.78816C7.44576 8.28183 7.06218 8.85597 6.79451 9.49413C6.51692 10.1559 6.3769 10.8572 6.37837 11.5781L7.93416 7.78816ZM8.43736 16.4203L8.43735 16.4203C8.24534 15.9136 7.97007 15.4175 7.6695 15.0667L7.7767 14.9749L7.6695 15.0667C7.26257 14.5918 6.94445 14.0549 6.72406 13.4711M8.43736 16.4203L6.37837 11.5782C6.37958 12.2296 6.49583 12.8667 6.72406 13.4711M8.43736 16.4203C8.59279 16.83 8.69027 17.2377 8.70595 17.5721L8.43736 16.4203ZM6.72406 13.4711L6.85603 13.4213L6.72406 13.4711C6.72406 13.4711 6.72406 13.4711 6.72406 13.4711ZM14.9917 14.4095L14.9917 14.4095C14.9919 14.4092 14.9922 14.409 14.9924 14.4087C15.666 13.6192 16.0371 12.6102 16.0371 11.5674C16.0371 10.3998 15.5853 9.30342 14.7648 8.47888L14.8648 8.37929L14.7648 8.47887C13.9463 7.65642 12.8601 7.20422 11.7042 7.20422H11.6957C10.5434 7.20644 9.45805 7.66308 8.63838 8.49155C7.81877 9.32009 7.36905 10.4152 7.37134 11.5762V11.5762C7.3733 12.619 7.74661 13.6275 8.42199 14.4157L8.31478 14.5076L8.42199 14.4157C8.76391 14.8148 9.0802 15.3542 9.31561 15.9347L9.31562 15.9348C9.36861 16.0655 9.41661 16.1963 9.45922 16.3262C9.61522 16.8005 9.70114 17.2649 9.70114 17.6642V17.7855C9.70114 17.7922 9.70276 17.7978 9.70534 17.8025L9.70559 17.803C9.71198 17.8148 9.72386 17.8218 9.73621 17.8218H13.6722C13.6844 17.8218 13.6962 17.815 13.7027 17.8034C13.7027 17.8034 13.7027 17.8033 13.7027 17.8033L14.9917 14.4095ZM14.9917 14.4095C14.6492 14.8108 14.332 15.3511 14.0958 15.9306M14.9917 14.4095L14.0958 15.9306M14.0958 15.9306C14.048 16.0478 13.9977 16.1811 13.9497 16.3258L14.0958 15.9306ZM11.6939 6.2065C10.9774 6.20786 10.281 6.35161 9.62464 6.63385L11.6939 6.2065Z" fill="#2677BD" stroke="#2677BD" stroke-width="0.282353"/>
<path d="M9.64607 19.6216C9.68659 19.6131 9.72831 19.6088 9.77059 19.6088H13.6417C13.6752 19.6088 13.7157 19.6146 13.7409 19.6186C13.755 19.6209 13.7675 19.6231 13.7765 19.6248L13.7874 19.6268L13.7905 19.6274L13.7914 19.6276L13.7917 19.6277L13.7918 19.6277L13.7919 19.6277L13.7919 19.6277L13.764 19.7661L13.7919 19.6277L13.8007 19.6295L13.8006 19.6297C14.0636 19.7003 14.2566 19.9412 14.2566 20.2269C14.2566 20.5675 13.9822 20.845 13.6417 20.845H9.77059C9.43013 20.845 9.1557 20.5675 9.1557 20.2269C9.1557 19.929 9.36559 19.6796 9.64607 19.6216ZM9.64607 19.6216C9.64612 19.6215 9.64617 19.6215 9.64621 19.6215L9.6748 19.7598L9.64593 19.6216C9.64598 19.6216 9.64603 19.6216 9.64607 19.6216Z" fill="#2677BD" stroke="#2677BD" stroke-width="0.282353"/>
<path d="M13.6417 22.7064C13.9822 22.7064 14.2566 22.4287 14.2566 22.0883C14.2566 21.7477 13.9822 21.4702 13.6417 21.4702H9.77059C9.4301 21.4702 9.1557 21.7478 9.1557 22.0883C9.1557 22.4287 9.43011 22.7064 9.77059 22.7064H13.6417Z" fill="#2677BD" stroke="#2677BD" stroke-width="0.282353"/>
<path d="M14.9127 11.5091C14.7165 11.5091 14.5574 11.3489 14.5574 11.1514C14.5574 10.4925 14.3024 9.87337 13.8392 9.40791C13.376 8.94249 12.7607 8.68734 12.106 8.6881H12.1053C11.9094 8.6881 11.7504 8.52839 11.75 8.33105C11.7496 8.1335 11.9084 7.97304 12.1046 7.97266C12.9491 7.97075 13.7435 8.30094 14.3412 8.90154C14.9389 9.50216 15.2681 10.3012 15.2681 11.1514C15.2681 11.3489 15.109 11.5091 14.9128 11.5091L14.9127 11.5091Z" fill="#2677BD"/>
</g>
<defs>
<clipPath id="clip0_4423_221">
<rect width="24" height="24" fill="white" transform="translate(0 0.5)"/>
</clipPath>
</defs>
</svg>
