<svg width="24" height="24" viewBox="0 0 24 24" fill="none" xmlns="http://www.w3.org/2000/svg">
<g clip-path="url(#clip0_4435_233)">
<path d="M17.3111 19.3111H4.02222C3.75111 19.3111 3.49111 19.2034 3.2994 19.0117C3.1077 18.82 3 18.56 3 18.2889V6.02222C3 5.75111 3.1077 5.49111 3.2994 5.2994C3.49111 5.1077 3.75111 5 4.02222 5H17.3111M17.3111 19.3111H20.3778C20.6489 19.3111 20.9089 19.2034 21.1006 19.0117C21.2923 18.82 21.4 18.56 21.4 18.2889V6.02222C21.4 5.75111 21.2923 5.49111 21.1006 5.2994C20.9089 5.1077 20.6489 5 20.3778 5H17.3111M17.3111 19.3111V18.2889M17.3111 5V6.02222M17.3111 9.08991V9.08889M17.3111 12.1566V12.1556M17.3111 15.2232V15.2222M7.08889 12.1556H13.2222M7.08889 15.2222H10.1556" stroke="#8097A3" stroke-width="1.53333" stroke-linecap="round" stroke-linejoin="round"/>
</g>
<defs>
<clipPath id="clip0_4435_233">
<rect width="24" height="24" fill="white"/>
</clipPath>
</defs>
</svg>
