<svg width="24" height="25" viewBox="0 0 24 25" fill="none" xmlns="http://www.w3.org/2000/svg">
<g clip-path="url(#clip0_4603_98)">
<path d="M20.8891 7.16663V17.8333H3.11127V7.16663H20.8891ZM20.8891 5.38885H3.11127C2.63978 5.38885 2.18759 5.57616 1.8542 5.90955C1.5208 6.24295 1.3335 6.69514 1.3335 7.16663L1.3335 17.8333C1.3335 18.3048 1.5208 18.757 1.8542 19.0904C2.18759 19.4238 2.63978 19.6111 3.11127 19.6111H20.8891C21.3605 19.6111 21.8127 19.4238 22.1461 19.0904C22.4795 18.757 22.6668 18.3048 22.6668 17.8333V7.16663C22.6668 6.69514 22.4795 6.24295 22.1461 5.90955C21.8127 5.57616 21.3605 5.38885 20.8891 5.38885Z" fill="#2677BD"/>
<path d="M7.83327 9.83342H6.38971L4.44482 15.1667H5.87327L6.26971 14.077H7.95327L8.34971 15.1667H9.77816L7.83327 9.83342ZM6.59416 13.1881L7.11149 11.7712L7.62882 13.189L6.59416 13.1881ZM14.4395 9.83342H11.3284V15.1667H12.6617V13.389H14.4395C14.6155 13.3922 14.7903 13.36 14.9536 13.2941C15.1168 13.2283 15.2651 13.1302 15.3896 13.0057C15.514 12.8812 15.6121 12.7329 15.678 12.5697C15.7438 12.4065 15.7761 12.2316 15.7728 12.0556V11.1667C15.7761 10.9908 15.7438 10.8159 15.678 10.6527C15.6121 10.4894 15.514 10.3412 15.3896 10.2167C15.2651 10.0922 15.1168 9.99413 14.9536 9.92827C14.7903 9.86242 14.6155 9.83016 14.4395 9.83342ZM14.4395 12.0556H12.6617V11.1667H14.4395V12.0556ZM17.3337 9.83342H18.667V15.1667H17.3337V9.83342Z" fill="#2677BD"/>
</g>
<defs>
<clipPath id="clip0_4603_98">
<rect width="24" height="24" fill="white" transform="translate(0 0.5)"/>
</clipPath>
</defs>
</svg>
