<svg width="24" height="24" viewBox="0 0 24 24" fill="none" xmlns="http://www.w3.org/2000/svg">
<g clip-path="url(#clip0_4435_237)">
<path d="M20.8889 6.66663V17.3333H3.11109V6.66663H20.8889ZM20.8889 4.88885H3.11109C2.63959 4.88885 2.18741 5.07616 1.85401 5.40955C1.52061 5.74295 1.33331 6.19514 1.33331 6.66663L1.33331 17.3333C1.33331 17.8048 1.52061 18.257 1.85401 18.5904C2.18741 18.9238 2.63959 19.1111 3.11109 19.1111H20.8889C21.3604 19.1111 21.8125 18.9238 22.1459 18.5904C22.4793 18.257 22.6666 17.8048 22.6666 17.3333V6.66663C22.6666 6.19514 22.4793 5.74295 22.1459 5.40955C21.8125 5.07616 21.3604 4.88885 20.8889 4.88885Z" fill="#8097A3"/>
<path d="M7.83309 9.33342H6.38953L4.44464 14.6667H5.87309L6.26953 13.577H7.95309L8.34953 14.6667H9.77797L7.83309 9.33342ZM6.59397 12.6881L7.11131 11.2712L7.62864 12.689L6.59397 12.6881ZM14.4393 9.33342H11.3282V14.6667H12.6615V12.889H14.4393C14.6153 12.8922 14.7901 12.86 14.9534 12.7941C15.1166 12.7283 15.2649 12.6302 15.3894 12.5057C15.5138 12.3812 15.6119 12.2329 15.6778 12.0697C15.7436 11.9065 15.7759 11.7316 15.7726 11.5556V10.6667C15.7759 10.4908 15.7436 10.3159 15.6778 10.1527C15.6119 9.98944 15.5138 9.84115 15.3894 9.71669C15.2649 9.59222 15.1166 9.49413 14.9534 9.42827C14.7901 9.36242 14.6153 9.33016 14.4393 9.33342ZM14.4393 11.5556H12.6615V10.6667H14.4393V11.5556ZM17.3335 9.33342H18.6669V14.6667H17.3335V9.33342Z" fill="#8097A3"/>
</g>
<defs>
<clipPath id="clip0_4435_237">
<rect width="24" height="24" fill="white"/>
</clipPath>
</defs>
</svg>
