<svg width="16" height="17" viewBox="0 0 16 17" fill="none" xmlns="http://www.w3.org/2000/svg">
<g clip-path="url(#clip0_4616_108)">
<path d="M11.5407 13.3741H2.68148C2.50074 13.3741 2.3274 13.3023 2.1996 13.1745C2.0718 13.0467 2 12.8734 2 12.6926V4.51486C2 4.33412 2.0718 4.16078 2.1996 4.03298C2.3274 3.90517 2.50074 3.83337 2.68148 3.83337H11.5407M11.5407 13.3741H13.5852C13.7659 13.3741 13.9393 13.3023 14.0671 13.1745C14.1949 13.0467 14.2667 12.8734 14.2667 12.6926V4.51486C14.2667 4.33412 14.1949 4.16078 14.0671 4.03298C13.9393 3.90517 13.7659 3.83337 13.5852 3.83337H11.5407M11.5407 13.3741V12.6926M11.5407 3.83337V4.51486M11.5407 6.55998V6.5593M11.5407 8.60443V8.60374M11.5407 10.6489V10.6482M4.72593 8.60374H8.81481M4.72593 10.6482H6.77037" stroke="#8097A3" stroke-width="1.02222" stroke-linecap="round" stroke-linejoin="round"/>
</g>
<defs>
<clipPath id="clip0_4616_108">
<rect width="16" height="16" fill="white" transform="translate(0 0.5)"/>
</clipPath>
</defs>
</svg>
