<svg width="15" height="17" viewBox="0 0 15 17" fill="none" xmlns="http://www.w3.org/2000/svg">
<g clip-path="url(#clip0_4528_1053)">
<path d="M13.676 3.67904L8.59858 0.74852C8.26686 0.557003 7.89057 0.456177 7.50754 0.456177C7.1245 0.456177 6.74822 0.557003 6.4165 0.74852L1.34255 3.67904C1.01171 3.86923 0.736631 4.14298 0.544847 4.4729C0.353063 4.80282 0.251304 5.17732 0.249757 5.55893V11.4305C0.249455 11.8139 0.350337 12.1906 0.542214 12.5225C0.73409 12.8545 1.01017 13.1299 1.34255 13.3209L6.4165 16.2515C6.74822 16.443 7.1245 16.5438 7.50754 16.5438C7.89057 16.5438 8.26686 16.443 8.59858 16.2515L13.676 13.3209C14.0079 13.1293 14.2836 12.8538 14.4754 12.522C14.6672 12.1902 14.7684 11.8138 14.7688 11.4305V5.55893C14.7666 5.17747 14.6645 4.80324 14.4728 4.47344C14.2811 4.14364 14.0064 3.86977 13.676 3.67904ZM12.3548 7.19285C12.2636 7.36045 12.1398 7.50815 11.9907 7.62728C11.8416 7.74641 11.6703 7.83457 11.4867 7.88661C11.3031 7.93865 11.1109 7.9535 10.9215 7.93031C10.7321 7.90712 10.5492 7.84635 10.3836 7.75155L8.89725 6.91878C8.89725 6.91878 8.89725 6.93986 8.89725 6.94689L8.97807 12.4952C8.96528 12.8716 8.80803 13.2287 8.53894 13.4922C8.26986 13.7558 7.90962 13.9056 7.533 13.9106C7.15638 13.9156 6.79231 13.7753 6.51637 13.519C6.24042 13.2626 6.07379 12.9098 6.05106 12.5339L5.98079 6.99959L4.59283 7.82534C4.26891 7.98467 3.8969 8.01627 3.55075 7.91385C3.2046 7.81143 2.90968 7.5825 2.7246 7.27257C2.53953 6.96264 2.47787 6.59441 2.55188 6.2411C2.62589 5.88779 2.83016 5.57527 3.12406 5.36567L6.71166 3.2363C6.89963 3.12336 7.11142 3.05598 7.33009 3.03953H7.53741C7.75565 3.05119 7.96836 3.11248 8.15935 3.21873L11.7891 5.2462C11.9551 5.33723 12.1015 5.46016 12.2198 5.60792C12.3382 5.75568 12.4261 5.92537 12.4787 6.10724C12.5313 6.2891 12.5474 6.47956 12.5261 6.66767C12.5049 6.85579 12.4467 7.03785 12.3548 7.2034V7.19285Z" fill="white"/>
</g>
<defs>
<clipPath id="clip0_4528_1053">
<rect width="14.5191" height="16.0876" fill="white" transform="translate(0.249756 0.456177)"/>
</clipPath>
</defs>
</svg>
